<svg width="158" height="30" viewBox="0 0 158 30" fill="none" xmlns="http://www.w3.org/2000/svg">
<path d="M13.2087 3.41016C13.3557 3.10799 13.6637 2.91666 13.9997 2.91666C14.3368 2.91666 14.6437 3.10799 14.7907 3.41016C15.927 5.74116 17.8823 9.75682 17.8823 9.75682C17.8823 9.75682 22.3285 10.3682 24.908 10.724C25.3782 10.7882 25.6663 11.186 25.6663 11.5955C25.6663 11.8172 25.5823 12.0423 25.3968 12.2208C23.5185 14.0152 20.2845 17.1103 20.2845 17.1103C20.2845 17.1103 21.0743 21.5052 21.5317 24.0543C21.6285 24.5933 21.2108 25.0833 20.666 25.0833C20.5237 25.0833 20.3813 25.0495 20.2518 24.9795C17.9558 23.7568 13.9997 21.6533 13.9997 21.6533C13.9997 21.6533 10.0435 23.7568 7.74751 24.9795C7.61801 25.0495 7.47451 25.0833 7.33217 25.0833C6.78967 25.0833 6.36968 24.5922 6.46767 24.0543C6.92618 21.5052 7.71601 17.1103 7.71601 17.1103C7.71601 17.1103 4.48084 14.0152 2.60367 12.2208C2.41701 12.0423 2.33301 11.8172 2.33301 11.5967C2.33301 11.186 2.62351 10.787 3.09251 10.724C5.67201 10.3682 10.117 9.75682 10.117 9.75682C10.117 9.75682 12.0735 5.74116 13.2087 3.41016Z" fill="#FFCD78"/>
<path d="M43.2087 3.41016C43.3557 3.10799 43.6637 2.91666 43.9997 2.91666C44.3368 2.91666 44.6437 3.10799 44.7907 3.41016C45.927 5.74116 47.8823 9.75682 47.8823 9.75682C47.8823 9.75682 52.3285 10.3682 54.908 10.724C55.3782 10.7882 55.6663 11.186 55.6663 11.5955C55.6663 11.8172 55.5823 12.0423 55.3968 12.2208C53.5185 14.0152 50.2845 17.1103 50.2845 17.1103C50.2845 17.1103 51.0743 21.5052 51.5317 24.0543C51.6285 24.5933 51.2108 25.0833 50.666 25.0833C50.5237 25.0833 50.3813 25.0495 50.2518 24.9795C47.9558 23.7568 43.9997 21.6533 43.9997 21.6533C43.9997 21.6533 40.0435 23.7568 37.7475 24.9795C37.618 25.0495 37.4745 25.0833 37.3322 25.0833C36.7897 25.0833 36.3697 24.5922 36.4677 24.0543C36.9262 21.5052 37.716 17.1103 37.716 17.1103C37.716 17.1103 34.4808 14.0152 32.6037 12.2208C32.417 12.0423 32.333 11.8172 32.333 11.5967C32.333 11.186 32.6235 10.787 33.0925 10.724C35.672 10.3682 40.117 9.75682 40.117 9.75682C40.117 9.75682 42.0735 5.74116 43.2087 3.41016Z" fill="#FFCD78"/>
<path d="M73.2087 3.41016C73.3557 3.10799 73.6637 2.91666 73.9997 2.91666C74.3368 2.91666 74.6437 3.10799 74.7907 3.41016C75.927 5.74116 77.8823 9.75682 77.8823 9.75682C77.8823 9.75682 82.3285 10.3682 84.908 10.724C85.3782 10.7882 85.6663 11.186 85.6663 11.5955C85.6663 11.8172 85.5823 12.0423 85.3968 12.2208C83.5185 14.0152 80.2845 17.1103 80.2845 17.1103C80.2845 17.1103 81.0743 21.5052 81.5317 24.0543C81.6285 24.5933 81.2108 25.0833 80.666 25.0833C80.5237 25.0833 80.3813 25.0495 80.2518 24.9795C77.9558 23.7568 73.9997 21.6533 73.9997 21.6533C73.9997 21.6533 70.0435 23.7568 67.7475 24.9795C67.618 25.0495 67.4745 25.0833 67.3322 25.0833C66.7897 25.0833 66.3697 24.5922 66.4677 24.0543C66.9262 21.5052 67.716 17.1103 67.716 17.1103C67.716 17.1103 64.4808 14.0152 62.6037 12.2208C62.417 12.0423 62.333 11.8172 62.333 11.5967C62.333 11.186 62.6235 10.787 63.0925 10.724C65.672 10.3682 70.117 9.75682 70.117 9.75682C70.117 9.75682 72.0735 5.74116 73.2087 3.41016Z" fill="#FFCD78"/>
<path d="M103.209 3.41016C103.356 3.10799 103.664 2.91666 104 2.91666C104.337 2.91666 104.644 3.10799 104.791 3.41016C105.927 5.74116 107.882 9.75682 107.882 9.75682C107.882 9.75682 112.329 10.3682 114.908 10.724C115.378 10.7882 115.666 11.186 115.666 11.5955C115.666 11.8172 115.582 12.0423 115.397 12.2208C113.519 14.0152 110.285 17.1103 110.285 17.1103C110.285 17.1103 111.074 21.5052 111.532 24.0543C111.629 24.5933 111.211 25.0833 110.666 25.0833C110.524 25.0833 110.381 25.0495 110.252 24.9795C107.956 23.7568 104 21.6533 104 21.6533C104 21.6533 100.044 23.7568 97.7475 24.9795C97.618 25.0495 97.4745 25.0833 97.3322 25.0833C96.7897 25.0833 96.3697 24.5922 96.4677 24.0543C96.9262 21.5052 97.716 17.1103 97.716 17.1103C97.716 17.1103 94.4808 14.0152 92.6037 12.2208C92.417 12.0423 92.333 11.8172 92.333 11.5967C92.333 11.186 92.6235 10.787 93.0925 10.724C95.672 10.3682 100.117 9.75682 100.117 9.75682C100.117 9.75682 102.074 5.74116 103.209 3.41016Z" fill="#FFCD78"/>
<path d="M133.209 3.41016C133.356 3.10799 133.664 2.91666 134 2.91666C134.337 2.91666 134.644 3.10799 134.791 3.41016C135.927 5.74116 137.882 9.75682 137.882 9.75682C137.882 9.75682 142.329 10.3682 144.908 10.724C145.378 10.7882 145.666 11.186 145.666 11.5955C145.666 11.8172 145.582 12.0423 145.397 12.2208C143.519 14.0152 140.285 17.1103 140.285 17.1103C140.285 17.1103 141.074 21.5052 141.532 24.0543C141.629 24.5933 141.211 25.0833 140.666 25.0833C140.524 25.0833 140.381 25.0495 140.252 24.9795C137.956 23.7568 134 21.6533 134 21.6533C134 21.6533 130.044 23.7568 127.748 24.9795C127.618 25.0495 127.475 25.0833 127.332 25.0833C126.79 25.0833 126.37 24.5922 126.468 24.0543C126.926 21.5052 127.716 17.1103 127.716 17.1103C127.716 17.1103 124.481 14.0152 122.604 12.2208C122.417 12.0423 122.333 11.8172 122.333 11.5967C122.333 11.186 122.624 10.787 123.093 10.724C125.672 10.3682 130.117 9.75682 130.117 9.75682C130.117 9.75682 132.074 5.74116 133.209 3.41016ZM134 5.78199V19.67L139.491 22.5925L138.382 16.4838L142.875 12.2115L136.675 11.3295L134 5.78199Z" fill="#FFCD78"/>
</svg>
