<svg width="128" height="184" viewBox="0 0 128 184" fill="none" xmlns="http://www.w3.org/2000/svg">
<path d="M11.322 2.923C11.448 2.664 11.712 2.5 12 2.5C12.289 2.5 12.552 2.664 12.678 2.923C13.652 4.921 15.328 8.363 15.328 8.363C15.328 8.363 19.139 8.887 21.35 9.192C21.753 9.247 22 9.588 22 9.939C22 10.129 21.928 10.322 21.769 10.475C20.159 12.013 17.387 14.666 17.387 14.666C17.387 14.666 18.064 18.433 18.456 20.618C18.539 21.08 18.181 21.5 17.714 21.5C17.592 21.5 17.47 21.471 17.359 21.411C15.391 20.363 12 18.56 12 18.56C12 18.56 8.609 20.363 6.641 21.411C6.53 21.471 6.407 21.5 6.285 21.5C5.82 21.5 5.46 21.079 5.544 20.618C5.937 18.433 6.614 14.666 6.614 14.666C6.614 14.666 3.841 12.013 2.232 10.475C2.072 10.322 2 10.129 2 9.94C2 9.588 2.249 9.246 2.651 9.192C4.862 8.887 8.672 8.363 8.672 8.363C8.672 8.363 10.349 4.921 11.322 2.923Z" fill="#FFCD78"/>
<path d="M37.322 2.923C37.448 2.664 37.712 2.5 38 2.5C38.289 2.5 38.552 2.664 38.678 2.923C39.652 4.921 41.328 8.363 41.328 8.363C41.328 8.363 45.139 8.887 47.35 9.192C47.753 9.247 48 9.588 48 9.939C48 10.129 47.928 10.322 47.769 10.475C46.159 12.013 43.387 14.666 43.387 14.666C43.387 14.666 44.064 18.433 44.456 20.618C44.539 21.08 44.181 21.5 43.714 21.5C43.592 21.5 43.47 21.471 43.359 21.411C41.391 20.363 38 18.56 38 18.56C38 18.56 34.609 20.363 32.641 21.411C32.53 21.471 32.407 21.5 32.285 21.5C31.82 21.5 31.46 21.079 31.544 20.618C31.937 18.433 32.614 14.666 32.614 14.666C32.614 14.666 29.841 12.013 28.232 10.475C28.072 10.322 28 10.129 28 9.94C28 9.588 28.249 9.246 28.651 9.192C30.862 8.887 34.672 8.363 34.672 8.363C34.672 8.363 36.349 4.921 37.322 2.923Z" fill="#FFCD78"/>
<path d="M63.322 2.923C63.448 2.664 63.712 2.5 64 2.5C64.289 2.5 64.552 2.664 64.678 2.923C65.652 4.921 67.328 8.363 67.328 8.363C67.328 8.363 71.139 8.887 73.35 9.192C73.753 9.247 74 9.588 74 9.939C74 10.129 73.928 10.322 73.769 10.475C72.159 12.013 69.387 14.666 69.387 14.666C69.387 14.666 70.064 18.433 70.456 20.618C70.539 21.08 70.181 21.5 69.714 21.5C69.592 21.5 69.47 21.471 69.359 21.411C67.391 20.363 64 18.56 64 18.56C64 18.56 60.609 20.363 58.641 21.411C58.53 21.471 58.407 21.5 58.285 21.5C57.82 21.5 57.46 21.079 57.544 20.618C57.937 18.433 58.614 14.666 58.614 14.666C58.614 14.666 55.841 12.013 54.232 10.475C54.072 10.322 54 10.129 54 9.94C54 9.588 54.249 9.246 54.651 9.192C56.862 8.887 60.672 8.363 60.672 8.363C60.672 8.363 62.349 4.921 63.322 2.923Z" fill="#FFCD78"/>
<path d="M89.322 2.923C89.448 2.664 89.712 2.5 90 2.5C90.289 2.5 90.552 2.664 90.678 2.923C91.652 4.921 93.328 8.363 93.328 8.363C93.328 8.363 97.139 8.887 99.35 9.192C99.753 9.247 100 9.588 100 9.939C100 10.129 99.928 10.322 99.769 10.475C98.159 12.013 95.387 14.666 95.387 14.666C95.387 14.666 96.064 18.433 96.456 20.618C96.539 21.08 96.181 21.5 95.714 21.5C95.592 21.5 95.47 21.471 95.359 21.411C93.391 20.363 90 18.56 90 18.56C90 18.56 86.609 20.363 84.641 21.411C84.53 21.471 84.407 21.5 84.285 21.5C83.82 21.5 83.46 21.079 83.544 20.618C83.937 18.433 84.614 14.666 84.614 14.666C84.614 14.666 81.841 12.013 80.232 10.475C80.072 10.322 80 10.129 80 9.94C80 9.588 80.249 9.246 80.651 9.192C82.862 8.887 86.672 8.363 86.672 8.363C86.672 8.363 88.349 4.921 89.322 2.923Z" fill="#FFCD78"/>
<path d="M115.322 2.923C115.448 2.664 115.712 2.5 116 2.5C116.289 2.5 116.552 2.664 116.678 2.923C117.652 4.921 119.328 8.363 119.328 8.363C119.328 8.363 123.139 8.887 125.35 9.192C125.753 9.247 126 9.588 126 9.939C126 10.129 125.928 10.322 125.769 10.475C124.159 12.013 121.387 14.666 121.387 14.666C121.387 14.666 122.064 18.433 122.456 20.618C122.539 21.08 122.181 21.5 121.714 21.5C121.592 21.5 121.47 21.471 121.359 21.411C119.391 20.363 116 18.56 116 18.56C116 18.56 112.609 20.363 110.641 21.411C110.53 21.471 110.407 21.5 110.285 21.5C109.82 21.5 109.46 21.079 109.544 20.618C109.937 18.433 110.614 14.666 110.614 14.666C110.614 14.666 107.841 12.013 106.232 10.475C106.072 10.322 106 10.129 106 9.94C106 9.588 106.249 9.246 106.651 9.192C108.862 8.887 112.672 8.363 112.672 8.363C112.672 8.363 114.349 4.921 115.322 2.923Z" fill="#FFCD78"/>
<path d="M11.322 42.923C11.448 42.664 11.712 42.5 12 42.5C12.289 42.5 12.552 42.664 12.678 42.923C13.652 44.921 15.328 48.363 15.328 48.363C15.328 48.363 19.139 48.887 21.35 49.192C21.753 49.247 22 49.588 22 49.939C22 50.129 21.928 50.322 21.769 50.475C20.159 52.013 17.387 54.666 17.387 54.666C17.387 54.666 18.064 58.433 18.456 60.618C18.539 61.08 18.181 61.5 17.714 61.5C17.592 61.5 17.47 61.471 17.359 61.411C15.391 60.363 12 58.56 12 58.56C12 58.56 8.609 60.363 6.641 61.411C6.53 61.471 6.407 61.5 6.285 61.5C5.82 61.5 5.46 61.079 5.544 60.618C5.937 58.433 6.614 54.666 6.614 54.666C6.614 54.666 3.841 52.013 2.232 50.475C2.072 50.322 2 50.129 2 49.94C2 49.588 2.249 49.246 2.651 49.192C4.862 48.887 8.672 48.363 8.672 48.363C8.672 48.363 10.349 44.921 11.322 42.923Z" fill="#FFCD78"/>
<path d="M37.322 42.923C37.448 42.664 37.712 42.5 38 42.5C38.289 42.5 38.552 42.664 38.678 42.923C39.652 44.921 41.328 48.363 41.328 48.363C41.328 48.363 45.139 48.887 47.35 49.192C47.753 49.247 48 49.588 48 49.939C48 50.129 47.928 50.322 47.769 50.475C46.159 52.013 43.387 54.666 43.387 54.666C43.387 54.666 44.064 58.433 44.456 60.618C44.539 61.08 44.181 61.5 43.714 61.5C43.592 61.5 43.47 61.471 43.359 61.411C41.391 60.363 38 58.56 38 58.56C38 58.56 34.609 60.363 32.641 61.411C32.53 61.471 32.407 61.5 32.285 61.5C31.82 61.5 31.46 61.079 31.544 60.618C31.937 58.433 32.614 54.666 32.614 54.666C32.614 54.666 29.841 52.013 28.232 50.475C28.072 50.322 28 50.129 28 49.94C28 49.588 28.249 49.246 28.651 49.192C30.862 48.887 34.672 48.363 34.672 48.363C34.672 48.363 36.349 44.921 37.322 42.923Z" fill="#FFCD78"/>
<path d="M63.322 42.923C63.448 42.664 63.712 42.5 64 42.5C64.289 42.5 64.552 42.664 64.678 42.923C65.652 44.921 67.328 48.363 67.328 48.363C67.328 48.363 71.139 48.887 73.35 49.192C73.753 49.247 74 49.588 74 49.939C74 50.129 73.928 50.322 73.769 50.475C72.159 52.013 69.387 54.666 69.387 54.666C69.387 54.666 70.064 58.433 70.456 60.618C70.539 61.08 70.181 61.5 69.714 61.5C69.592 61.5 69.47 61.471 69.359 61.411C67.391 60.363 64 58.56 64 58.56C64 58.56 60.609 60.363 58.641 61.411C58.53 61.471 58.407 61.5 58.285 61.5C57.82 61.5 57.46 61.079 57.544 60.618C57.937 58.433 58.614 54.666 58.614 54.666C58.614 54.666 55.841 52.013 54.232 50.475C54.072 50.322 54 50.129 54 49.94C54 49.588 54.249 49.246 54.651 49.192C56.862 48.887 60.672 48.363 60.672 48.363C60.672 48.363 62.349 44.921 63.322 42.923Z" fill="#FFCD78"/>
<path d="M89.322 42.923C89.448 42.664 89.712 42.5 90 42.5C90.289 42.5 90.552 42.664 90.678 42.923C91.652 44.921 93.328 48.363 93.328 48.363C93.328 48.363 97.139 48.887 99.35 49.192C99.753 49.247 100 49.588 100 49.939C100 50.129 99.928 50.322 99.769 50.475C98.159 52.013 95.387 54.666 95.387 54.666C95.387 54.666 96.064 58.433 96.456 60.618C96.539 61.08 96.181 61.5 95.714 61.5C95.592 61.5 95.47 61.471 95.359 61.411C93.391 60.363 90 58.56 90 58.56C90 58.56 86.609 60.363 84.641 61.411C84.53 61.471 84.407 61.5 84.285 61.5C83.82 61.5 83.46 61.079 83.544 60.618C83.937 58.433 84.614 54.666 84.614 54.666C84.614 54.666 81.841 52.013 80.232 50.475C80.072 50.322 80 50.129 80 49.94C80 49.588 80.249 49.246 80.651 49.192C82.862 48.887 86.672 48.363 86.672 48.363C86.672 48.363 88.349 44.921 89.322 42.923Z" fill="#FFCD78"/>
<path d="M115.322 42.923C115.448 42.664 115.712 42.5 116 42.5C116.289 42.5 116.552 42.664 116.678 42.923C117.652 44.921 119.328 48.363 119.328 48.363C119.328 48.363 123.139 48.887 125.35 49.192C125.753 49.247 126 49.588 126 49.939C126 50.129 125.928 50.322 125.769 50.475C124.159 52.013 121.387 54.666 121.387 54.666C121.387 54.666 122.064 58.433 122.456 60.618C122.539 61.08 122.181 61.5 121.714 61.5C121.592 61.5 121.47 61.471 121.359 61.411C119.391 60.363 116 58.56 116 58.56C116 58.56 112.609 60.363 110.641 61.411C110.53 61.471 110.407 61.5 110.285 61.5C109.82 61.5 109.46 61.079 109.544 60.618C109.937 58.433 110.614 54.666 110.614 54.666C110.614 54.666 107.841 52.013 106.232 50.475C106.072 50.322 106 50.129 106 49.94C106 49.588 106.249 49.246 106.651 49.192C108.862 48.887 112.672 48.363 112.672 48.363C112.672 48.363 114.349 44.921 115.322 42.923ZM116 44.956L113.639 49.748L108.393 50.467L112.241 54.11L111.293 59.365L116 56.86L120.707 59.365L119.756 54.129L123.607 50.467L118.293 49.711L116 44.956Z" fill="#FFCD78"/>
<path d="M11.322 82.923C11.448 82.664 11.712 82.5 12 82.5C12.289 82.5 12.552 82.664 12.678 82.923C13.652 84.921 15.328 88.363 15.328 88.363C15.328 88.363 19.139 88.887 21.35 89.192C21.753 89.247 22 89.588 22 89.939C22 90.129 21.928 90.322 21.769 90.475C20.159 92.013 17.387 94.666 17.387 94.666C17.387 94.666 18.064 98.433 18.456 100.618C18.539 101.08 18.181 101.5 17.714 101.5C17.592 101.5 17.47 101.471 17.359 101.411C15.391 100.363 12 98.56 12 98.56C12 98.56 8.609 100.363 6.641 101.411C6.53 101.471 6.407 101.5 6.285 101.5C5.82 101.5 5.46 101.079 5.544 100.618C5.937 98.433 6.614 94.666 6.614 94.666C6.614 94.666 3.841 92.013 2.232 90.475C2.072 90.322 2 90.129 2 89.94C2 89.588 2.249 89.246 2.651 89.192C4.862 88.887 8.672 88.363 8.672 88.363C8.672 88.363 10.349 84.921 11.322 82.923Z" fill="#FFCD78"/>
<path d="M37.322 82.923C37.448 82.664 37.712 82.5 38 82.5C38.289 82.5 38.552 82.664 38.678 82.923C39.652 84.921 41.328 88.363 41.328 88.363C41.328 88.363 45.139 88.887 47.35 89.192C47.753 89.247 48 89.588 48 89.939C48 90.129 47.928 90.322 47.769 90.475C46.159 92.013 43.387 94.666 43.387 94.666C43.387 94.666 44.064 98.433 44.456 100.618C44.539 101.08 44.181 101.5 43.714 101.5C43.592 101.5 43.47 101.471 43.359 101.411C41.391 100.363 38 98.56 38 98.56C38 98.56 34.609 100.363 32.641 101.411C32.53 101.471 32.407 101.5 32.285 101.5C31.82 101.5 31.46 101.079 31.544 100.618C31.937 98.433 32.614 94.666 32.614 94.666C32.614 94.666 29.841 92.013 28.232 90.475C28.072 90.322 28 90.129 28 89.94C28 89.588 28.249 89.246 28.651 89.192C30.862 88.887 34.672 88.363 34.672 88.363C34.672 88.363 36.349 84.921 37.322 82.923Z" fill="#FFCD78"/>
<path d="M63.322 82.923C63.448 82.664 63.712 82.5 64 82.5C64.289 82.5 64.552 82.664 64.678 82.923C65.652 84.921 67.328 88.363 67.328 88.363C67.328 88.363 71.139 88.887 73.35 89.192C73.753 89.247 74 89.588 74 89.939C74 90.129 73.928 90.322 73.769 90.475C72.159 92.013 69.387 94.666 69.387 94.666C69.387 94.666 70.064 98.433 70.456 100.618C70.539 101.08 70.181 101.5 69.714 101.5C69.592 101.5 69.47 101.471 69.359 101.411C67.391 100.363 64 98.56 64 98.56C64 98.56 60.609 100.363 58.641 101.411C58.53 101.471 58.407 101.5 58.285 101.5C57.82 101.5 57.46 101.079 57.544 100.618C57.937 98.433 58.614 94.666 58.614 94.666C58.614 94.666 55.841 92.013 54.232 90.475C54.072 90.322 54 90.129 54 89.94C54 89.588 54.249 89.246 54.651 89.192C56.862 88.887 60.672 88.363 60.672 88.363C60.672 88.363 62.349 84.921 63.322 82.923Z" fill="#FFCD78"/>
<path d="M89.322 82.923C89.448 82.664 89.712 82.5 90 82.5C90.289 82.5 90.552 82.664 90.678 82.923C91.652 84.921 93.328 88.363 93.328 88.363C93.328 88.363 97.139 88.887 99.35 89.192C99.753 89.247 100 89.588 100 89.939C100 90.129 99.928 90.322 99.769 90.475C98.159 92.013 95.387 94.666 95.387 94.666C95.387 94.666 96.064 98.433 96.456 100.618C96.539 101.08 96.181 101.5 95.714 101.5C95.592 101.5 95.47 101.471 95.359 101.411C93.391 100.363 90 98.56 90 98.56C90 98.56 86.609 100.363 84.641 101.411C84.53 101.471 84.407 101.5 84.285 101.5C83.82 101.5 83.46 101.079 83.544 100.618C83.937 98.433 84.614 94.666 84.614 94.666C84.614 94.666 81.841 92.013 80.232 90.475C80.072 90.322 80 90.129 80 89.94C80 89.588 80.249 89.246 80.651 89.192C82.862 88.887 86.672 88.363 86.672 88.363C86.672 88.363 88.349 84.921 89.322 82.923ZM90 84.956L87.639 89.748L82.393 90.467L86.241 94.11L85.293 99.365L90 96.86L94.707 99.365L93.756 94.129L97.607 90.467L92.293 89.711L90 84.956Z" fill="#FFCD78"/>
<path d="M115.322 82.923C115.448 82.664 115.712 82.5 116 82.5C116.289 82.5 116.552 82.664 116.678 82.923C117.652 84.921 119.328 88.363 119.328 88.363C119.328 88.363 123.139 88.887 125.35 89.192C125.753 89.247 126 89.588 126 89.939C126 90.129 125.928 90.322 125.769 90.475C124.159 92.013 121.387 94.666 121.387 94.666C121.387 94.666 122.064 98.433 122.456 100.618C122.539 101.08 122.181 101.5 121.714 101.5C121.592 101.5 121.47 101.471 121.359 101.411C119.391 100.363 116 98.56 116 98.56C116 98.56 112.609 100.363 110.641 101.411C110.53 101.471 110.407 101.5 110.285 101.5C109.82 101.5 109.46 101.079 109.544 100.618C109.937 98.433 110.614 94.666 110.614 94.666C110.614 94.666 107.841 92.013 106.232 90.475C106.072 90.322 106 90.129 106 89.94C106 89.588 106.249 89.246 106.651 89.192C108.862 88.887 112.672 88.363 112.672 88.363C112.672 88.363 114.349 84.921 115.322 82.923ZM116 84.956L113.639 89.748L108.393 90.467L112.241 94.11L111.293 99.365L116 96.86L120.707 99.365L119.756 94.129L123.607 90.467L118.293 89.711L116 84.956Z" fill="#FFCD78"/>
<path d="M11.322 122.923C11.448 122.664 11.712 122.5 12 122.5C12.289 122.5 12.552 122.664 12.678 122.923C13.652 124.921 15.328 128.363 15.328 128.363C15.328 128.363 19.139 128.887 21.35 129.192C21.753 129.247 22 129.588 22 129.939C22 130.129 21.928 130.322 21.769 130.475C20.159 132.013 17.387 134.666 17.387 134.666C17.387 134.666 18.064 138.433 18.456 140.618C18.539 141.08 18.181 141.5 17.714 141.5C17.592 141.5 17.47 141.471 17.359 141.411C15.391 140.363 12 138.56 12 138.56C12 138.56 8.609 140.363 6.641 141.411C6.53 141.471 6.407 141.5 6.285 141.5C5.82 141.5 5.46 141.079 5.544 140.618C5.937 138.433 6.614 134.666 6.614 134.666C6.614 134.666 3.841 132.013 2.232 130.475C2.072 130.322 2 130.129 2 129.94C2 129.588 2.249 129.246 2.651 129.192C4.862 128.887 8.672 128.363 8.672 128.363C8.672 128.363 10.349 124.921 11.322 122.923Z" fill="#FFCD78"/>
<path d="M37.322 122.923C37.448 122.664 37.712 122.5 38 122.5C38.289 122.5 38.552 122.664 38.678 122.923C39.652 124.921 41.328 128.363 41.328 128.363C41.328 128.363 45.139 128.887 47.35 129.192C47.753 129.247 48 129.588 48 129.939C48 130.129 47.928 130.322 47.769 130.475C46.159 132.013 43.387 134.666 43.387 134.666C43.387 134.666 44.064 138.433 44.456 140.618C44.539 141.08 44.181 141.5 43.714 141.5C43.592 141.5 43.47 141.471 43.359 141.411C41.391 140.363 38 138.56 38 138.56C38 138.56 34.609 140.363 32.641 141.411C32.53 141.471 32.407 141.5 32.285 141.5C31.82 141.5 31.46 141.079 31.544 140.618C31.937 138.433 32.614 134.666 32.614 134.666C32.614 134.666 29.841 132.013 28.232 130.475C28.072 130.322 28 130.129 28 129.94C28 129.588 28.249 129.246 28.651 129.192C30.862 128.887 34.672 128.363 34.672 128.363C34.672 128.363 36.349 124.921 37.322 122.923Z" fill="#FFCD78"/>
<path d="M63.322 122.923C63.448 122.664 63.712 122.5 64 122.5C64.289 122.5 64.552 122.664 64.678 122.923C65.652 124.921 67.328 128.363 67.328 128.363C67.328 128.363 71.139 128.887 73.35 129.192C73.753 129.247 74 129.588 74 129.939C74 130.129 73.928 130.322 73.769 130.475C72.159 132.013 69.387 134.666 69.387 134.666C69.387 134.666 70.064 138.433 70.456 140.618C70.539 141.08 70.181 141.5 69.714 141.5C69.592 141.5 69.47 141.471 69.359 141.411C67.391 140.363 64 138.56 64 138.56C64 138.56 60.609 140.363 58.641 141.411C58.53 141.471 58.407 141.5 58.285 141.5C57.82 141.5 57.46 141.079 57.544 140.618C57.937 138.433 58.614 134.666 58.614 134.666C58.614 134.666 55.841 132.013 54.232 130.475C54.072 130.322 54 130.129 54 129.94C54 129.588 54.249 129.246 54.651 129.192C56.862 128.887 60.672 128.363 60.672 128.363C60.672 128.363 62.349 124.921 63.322 122.923ZM64 124.956L61.639 129.748L56.393 130.467L60.241 134.11L59.293 139.365L64 136.86L68.707 139.365L67.756 134.129L71.607 130.467L66.293 129.711L64 124.956Z" fill="#FFCD78"/>
<path d="M89.322 122.923C89.448 122.664 89.712 122.5 90 122.5C90.289 122.5 90.552 122.664 90.678 122.923C91.652 124.921 93.328 128.363 93.328 128.363C93.328 128.363 97.139 128.887 99.35 129.192C99.753 129.247 100 129.588 100 129.939C100 130.129 99.928 130.322 99.769 130.475C98.159 132.013 95.387 134.666 95.387 134.666C95.387 134.666 96.064 138.433 96.456 140.618C96.539 141.08 96.181 141.5 95.714 141.5C95.592 141.5 95.47 141.471 95.359 141.411C93.391 140.363 90 138.56 90 138.56C90 138.56 86.609 140.363 84.641 141.411C84.53 141.471 84.407 141.5 84.285 141.5C83.82 141.5 83.46 141.079 83.544 140.618C83.937 138.433 84.614 134.666 84.614 134.666C84.614 134.666 81.841 132.013 80.232 130.475C80.072 130.322 80 130.129 80 129.94C80 129.588 80.249 129.246 80.651 129.192C82.862 128.887 86.672 128.363 86.672 128.363C86.672 128.363 88.349 124.921 89.322 122.923ZM90 124.956L87.639 129.748L82.393 130.467L86.241 134.11L85.293 139.365L90 136.86L94.707 139.365L93.756 134.129L97.607 130.467L92.293 129.711L90 124.956Z" fill="#FFCD78"/>
<path d="M115.322 122.923C115.448 122.664 115.712 122.5 116 122.5C116.289 122.5 116.552 122.664 116.678 122.923C117.652 124.921 119.328 128.363 119.328 128.363C119.328 128.363 123.139 128.887 125.35 129.192C125.753 129.247 126 129.588 126 129.939C126 130.129 125.928 130.322 125.769 130.475C124.159 132.013 121.387 134.666 121.387 134.666C121.387 134.666 122.064 138.433 122.456 140.618C122.539 141.08 122.181 141.5 121.714 141.5C121.592 141.5 121.47 141.471 121.359 141.411C119.391 140.363 116 138.56 116 138.56C116 138.56 112.609 140.363 110.641 141.411C110.53 141.471 110.407 141.5 110.285 141.5C109.82 141.5 109.46 141.079 109.544 140.618C109.937 138.433 110.614 134.666 110.614 134.666C110.614 134.666 107.841 132.013 106.232 130.475C106.072 130.322 106 130.129 106 129.94C106 129.588 106.249 129.246 106.651 129.192C108.862 128.887 112.672 128.363 112.672 128.363C112.672 128.363 114.349 124.921 115.322 122.923ZM116 124.956L113.639 129.748L108.393 130.467L112.241 134.11L111.293 139.365L116 136.86L120.707 139.365L119.756 134.129L123.607 130.467L118.293 129.711L116 124.956Z" fill="#FFCD78"/>
<path d="M11.322 162.923C11.448 162.664 11.712 162.5 12 162.5C12.289 162.5 12.552 162.664 12.678 162.923C13.652 164.921 15.328 168.363 15.328 168.363C15.328 168.363 19.139 168.887 21.35 169.192C21.753 169.247 22 169.588 22 169.939C22 170.129 21.928 170.322 21.769 170.475C20.159 172.013 17.387 174.666 17.387 174.666C17.387 174.666 18.064 178.433 18.456 180.618C18.539 181.08 18.181 181.5 17.714 181.5C17.592 181.5 17.47 181.471 17.359 181.411C15.391 180.363 12 178.56 12 178.56C12 178.56 8.609 180.363 6.641 181.411C6.53 181.471 6.407 181.5 6.285 181.5C5.82 181.5 5.46 181.079 5.544 180.618C5.937 178.433 6.614 174.666 6.614 174.666C6.614 174.666 3.841 172.013 2.232 170.475C2.072 170.322 2 170.129 2 169.94C2 169.588 2.249 169.246 2.651 169.192C4.862 168.887 8.672 168.363 8.672 168.363C8.672 168.363 10.349 164.921 11.322 162.923Z" fill="#FFCD78"/>
<path d="M37.322 162.923C37.448 162.664 37.712 162.5 38 162.5C38.289 162.5 38.552 162.664 38.678 162.923C39.652 164.921 41.328 168.363 41.328 168.363C41.328 168.363 45.139 168.887 47.35 169.192C47.753 169.247 48 169.588 48 169.939C48 170.129 47.928 170.322 47.769 170.475C46.159 172.013 43.387 174.666 43.387 174.666C43.387 174.666 44.064 178.433 44.456 180.618C44.539 181.08 44.181 181.5 43.714 181.5C43.592 181.5 43.47 181.471 43.359 181.411C41.391 180.363 38 178.56 38 178.56C38 178.56 34.609 180.363 32.641 181.411C32.53 181.471 32.407 181.5 32.285 181.5C31.82 181.5 31.46 181.079 31.544 180.618C31.937 178.433 32.614 174.666 32.614 174.666C32.614 174.666 29.841 172.013 28.232 170.475C28.072 170.322 28 170.129 28 169.94C28 169.588 28.249 169.246 28.651 169.192C30.862 168.887 34.672 168.363 34.672 168.363C34.672 168.363 36.349 164.921 37.322 162.923ZM38 164.956L35.639 169.748L30.393 170.467L34.241 174.11L33.293 179.365L38 176.86L42.707 179.365L41.756 174.129L45.607 170.467L40.293 169.711L38 164.956Z" fill="#FFCD78"/>
<path d="M63.322 162.923C63.448 162.664 63.712 162.5 64 162.5C64.289 162.5 64.552 162.664 64.678 162.923C65.652 164.921 67.328 168.363 67.328 168.363C67.328 168.363 71.139 168.887 73.35 169.192C73.753 169.247 74 169.588 74 169.939C74 170.129 73.928 170.322 73.769 170.475C72.159 172.013 69.387 174.666 69.387 174.666C69.387 174.666 70.064 178.433 70.456 180.618C70.539 181.08 70.181 181.5 69.714 181.5C69.592 181.5 69.47 181.471 69.359 181.411C67.391 180.363 64 178.56 64 178.56C64 178.56 60.609 180.363 58.641 181.411C58.53 181.471 58.407 181.5 58.285 181.5C57.82 181.5 57.46 181.079 57.544 180.618C57.937 178.433 58.614 174.666 58.614 174.666C58.614 174.666 55.841 172.013 54.232 170.475C54.072 170.322 54 170.129 54 169.94C54 169.588 54.249 169.246 54.651 169.192C56.862 168.887 60.672 168.363 60.672 168.363C60.672 168.363 62.349 164.921 63.322 162.923ZM64 164.956L61.639 169.748L56.393 170.467L60.241 174.11L59.293 179.365L64 176.86L68.707 179.365L67.756 174.129L71.607 170.467L66.293 169.711L64 164.956Z" fill="#FFCD78"/>
<path d="M89.322 162.923C89.448 162.664 89.712 162.5 90 162.5C90.289 162.5 90.552 162.664 90.678 162.923C91.652 164.921 93.328 168.363 93.328 168.363C93.328 168.363 97.139 168.887 99.35 169.192C99.753 169.247 100 169.588 100 169.939C100 170.129 99.928 170.322 99.769 170.475C98.159 172.013 95.387 174.666 95.387 174.666C95.387 174.666 96.064 178.433 96.456 180.618C96.539 181.08 96.181 181.5 95.714 181.5C95.592 181.5 95.47 181.471 95.359 181.411C93.391 180.363 90 178.56 90 178.56C90 178.56 86.609 180.363 84.641 181.411C84.53 181.471 84.407 181.5 84.285 181.5C83.82 181.5 83.46 181.079 83.544 180.618C83.937 178.433 84.614 174.666 84.614 174.666C84.614 174.666 81.841 172.013 80.232 170.475C80.072 170.322 80 170.129 80 169.94C80 169.588 80.249 169.246 80.651 169.192C82.862 168.887 86.672 168.363 86.672 168.363C86.672 168.363 88.349 164.921 89.322 162.923ZM90 164.956L87.639 169.748L82.393 170.467L86.241 174.11L85.293 179.365L90 176.86L94.707 179.365L93.756 174.129L97.607 170.467L92.293 169.711L90 164.956Z" fill="#FFCD78"/>
<path d="M115.322 162.923C115.448 162.664 115.712 162.5 116 162.5C116.289 162.5 116.552 162.664 116.678 162.923C117.652 164.921 119.328 168.363 119.328 168.363C119.328 168.363 123.139 168.887 125.35 169.192C125.753 169.247 126 169.588 126 169.939C126 170.129 125.928 170.322 125.769 170.475C124.159 172.013 121.387 174.666 121.387 174.666C121.387 174.666 122.064 178.433 122.456 180.618C122.539 181.08 122.181 181.5 121.714 181.5C121.592 181.5 121.47 181.471 121.359 181.411C119.391 180.363 116 178.56 116 178.56C116 178.56 112.609 180.363 110.641 181.411C110.53 181.471 110.407 181.5 110.285 181.5C109.82 181.5 109.46 181.079 109.544 180.618C109.937 178.433 110.614 174.666 110.614 174.666C110.614 174.666 107.841 172.013 106.232 170.475C106.072 170.322 106 170.129 106 169.94C106 169.588 106.249 169.246 106.651 169.192C108.862 168.887 112.672 168.363 112.672 168.363C112.672 168.363 114.349 164.921 115.322 162.923ZM116 164.956L113.639 169.748L108.393 170.467L112.241 174.11L111.293 179.365L116 176.86L120.707 179.365L119.756 174.129L123.607 170.467L118.293 169.711L116 164.956Z" fill="#FFCD78"/>
</svg>
