<svg width="24" height="24" viewBox="0 0 24 24" fill="none" xmlns="http://www.w3.org/2000/svg">
<g clip-path="url(#clip0_462_428)">
<rect width="24" height="24" fill="white"/>
<path d="M10.8757 1.4935C11.0227 1.19133 11.3307 1 11.6667 1C12.0038 1 12.3107 1.19133 12.4577 1.4935C13.594 3.8245 15.5493 7.84017 15.5493 7.84017C15.5493 7.84017 19.9955 8.4515 22.575 8.80733C23.0452 8.8715 23.3333 9.26933 23.3333 9.67883C23.3333 9.9005 23.2493 10.1257 23.0638 10.3042C21.1855 12.0985 17.9515 15.1937 17.9515 15.1937C17.9515 15.1937 18.7413 19.5885 19.1987 22.1377C19.2955 22.6767 18.8778 23.1667 18.333 23.1667C18.1907 23.1667 18.0483 23.1328 17.9188 23.0628C15.6228 21.8402 11.6667 19.7367 11.6667 19.7367C11.6667 19.7367 7.7105 21.8402 5.4145 23.0628C5.285 23.1328 5.1415 23.1667 4.99917 23.1667C4.45667 23.1667 4.03667 22.6755 4.13467 22.1377C4.59317 19.5885 5.383 15.1937 5.383 15.1937C5.383 15.1937 2.14783 12.0985 0.270667 10.3042C0.0840001 10.1257 0 9.9005 0 9.68C0 9.26933 0.2905 8.87033 0.7595 8.80733C3.339 8.4515 7.784 7.84017 7.784 7.84017C7.784 7.84017 9.7405 3.8245 10.8757 1.4935Z" fill="#FFCD78"/>
</g>
<defs>
<clipPath id="clip0_462_428">
<rect width="24" height="24" fill="white"/>
</clipPath>
</defs>
</svg>
