<svg width="28" height="28" viewBox="0 0 28 28" fill="none" xmlns="http://www.w3.org/2000/svg">
<g clip-path="url(#clip0_462_431)">
<rect width="28" height="28" fill="white"/>
<path d="M13.2087 3.41017C13.3557 3.108 13.6637 2.91667 13.9997 2.91667C14.3368 2.91667 14.6437 3.108 14.7907 3.41017C15.927 5.74117 17.8823 9.75683 17.8823 9.75683C17.8823 9.75683 22.3285 10.3682 24.908 10.724C25.3782 10.7882 25.6663 11.186 25.6663 11.5955C25.6663 11.8172 25.5823 12.0423 25.3968 12.2208C23.5185 14.0152 20.2845 17.1103 20.2845 17.1103C20.2845 17.1103 21.0743 21.5052 21.5317 24.0543C21.6285 24.5933 21.2108 25.0833 20.666 25.0833C20.5237 25.0833 20.3813 25.0495 20.2518 24.9795C17.9558 23.7568 13.9997 21.6533 13.9997 21.6533C13.9997 21.6533 10.0435 23.7568 7.74751 24.9795C7.61801 25.0495 7.47451 25.0833 7.33217 25.0833C6.78967 25.0833 6.36967 24.5922 6.46767 24.0543C6.92617 21.5052 7.71601 17.1103 7.71601 17.1103C7.71601 17.1103 4.48084 14.0152 2.60367 12.2208C2.41701 12.0423 2.33301 11.8172 2.33301 11.5967C2.33301 11.186 2.62351 10.787 3.09251 10.724C5.67201 10.3682 10.117 9.75683 10.117 9.75683C10.117 9.75683 12.0735 5.74117 13.2087 3.41017ZM13.9997 5.782V19.67L19.4912 22.5925L18.3817 16.4838L22.8745 12.2115L16.6748 11.3295L13.9997 5.782Z" fill="#FFCD78"/>
</g>
<defs>
<clipPath id="clip0_462_431">
<rect width="28" height="28" fill="white"/>
</clipPath>
</defs>
</svg>
