<svg width="20" height="177" viewBox="0 0 20 177" fill="none" xmlns="http://www.w3.org/2000/svg">
<rect width="20" height="177" fill="white"/>
<path d="M8.08496 13.9404H8.21484C8.94401 13.9404 9.53646 13.8379 9.99219 13.6328C10.4479 13.4277 10.7988 13.152 11.0449 12.8057C11.291 12.4593 11.4596 12.0697 11.5508 11.6367C11.6419 11.1992 11.6875 10.7503 11.6875 10.29V8.76562C11.6875 8.31445 11.6351 7.91341 11.5303 7.5625C11.43 7.21159 11.2887 6.91764 11.1064 6.68066C10.9287 6.44368 10.7259 6.26367 10.498 6.14062C10.2702 6.01758 10.0286 5.95605 9.77344 5.95605C9.48177 5.95605 9.21973 6.0153 8.9873 6.13379C8.75944 6.24772 8.56576 6.40951 8.40625 6.61914C8.2513 6.82878 8.13281 7.07487 8.05078 7.35742C7.96875 7.63997 7.92773 7.94759 7.92773 8.28027C7.92773 8.5765 7.96419 8.86361 8.03711 9.1416C8.11003 9.4196 8.22168 9.67025 8.37207 9.89355C8.52246 10.1169 8.70931 10.2946 8.93262 10.4268C9.16048 10.5544 9.42708 10.6182 9.73242 10.6182C10.015 10.6182 10.2793 10.5635 10.5254 10.4541C10.776 10.3402 10.9971 10.1875 11.1885 9.99609C11.3844 9.80013 11.5394 9.5791 11.6533 9.33301C11.7718 9.08691 11.8402 8.82943 11.8584 8.56055H12.46C12.46 8.9388 12.3848 9.3125 12.2344 9.68164C12.0885 10.0462 11.8835 10.3789 11.6191 10.6797C11.3548 10.9805 11.0449 11.222 10.6895 11.4043C10.334 11.582 9.94661 11.6709 9.52734 11.6709C9.03516 11.6709 8.60905 11.5752 8.24902 11.3838C7.889 11.1924 7.59277 10.9372 7.36035 10.6182C7.13249 10.2992 6.96159 9.94368 6.84766 9.55176C6.73828 9.15527 6.68359 8.75423 6.68359 8.34863C6.68359 7.87467 6.74967 7.43034 6.88184 7.01562C7.014 6.60091 7.20996 6.23633 7.46973 5.92188C7.72949 5.60286 8.05078 5.35449 8.43359 5.17676C8.82096 4.99902 9.26758 4.91016 9.77344 4.91016C10.3431 4.91016 10.8285 5.02409 11.2295 5.25195C11.6305 5.47982 11.9564 5.78516 12.207 6.16797C12.4622 6.55078 12.6491 6.98145 12.7676 7.45996C12.8861 7.93848 12.9453 8.43066 12.9453 8.93652V9.39453C12.9453 9.90951 12.9111 10.4336 12.8428 10.9668C12.779 11.4954 12.6536 12.0013 12.4668 12.4844C12.2845 12.9674 12.0179 13.4004 11.667 13.7832C11.3161 14.1615 10.8581 14.4622 10.293 14.6855C9.73242 14.9043 9.03971 15.0137 8.21484 15.0137H8.08496V13.9404Z" fill="#7A7A7A"/>
<path d="M13.2598 45.0469V45.7578L9.1377 55H7.80469L11.9199 46.0859H6.5332V45.0469H13.2598Z" fill="#7A7A7A"/>
<path d="M13.0752 89.2305V90.748C13.0752 91.5638 13.0023 92.252 12.8564 92.8125C12.7106 93.373 12.501 93.8242 12.2275 94.166C11.9541 94.5078 11.6237 94.7562 11.2363 94.9111C10.8535 95.0615 10.4206 95.1367 9.9375 95.1367C9.55469 95.1367 9.2015 95.0889 8.87793 94.9932C8.55436 94.8975 8.2627 94.7448 8.00293 94.5352C7.74772 94.321 7.52897 94.043 7.34668 93.7012C7.16439 93.3594 7.02539 92.9447 6.92969 92.457C6.83398 91.9694 6.78613 91.3997 6.78613 90.748V89.2305C6.78613 88.4147 6.85905 87.7311 7.00488 87.1797C7.15527 86.6283 7.36719 86.1862 7.64062 85.8535C7.91406 85.5163 8.24219 85.2747 8.625 85.1289C9.01237 84.9831 9.44531 84.9102 9.92383 84.9102C10.3112 84.9102 10.6667 84.958 10.9902 85.0537C11.3184 85.1449 11.61 85.293 11.8652 85.498C12.1204 85.6986 12.3369 85.9674 12.5146 86.3047C12.6969 86.6374 12.8359 87.0452 12.9316 87.5283C13.0273 88.0114 13.0752 88.5788 13.0752 89.2305ZM11.8037 90.9531V89.0186C11.8037 88.5719 11.7764 88.18 11.7217 87.8428C11.6715 87.501 11.5964 87.2093 11.4961 86.9678C11.3958 86.7262 11.2682 86.5303 11.1133 86.3799C10.9629 86.2295 10.7874 86.1201 10.5869 86.0518C10.391 85.9788 10.1699 85.9424 9.92383 85.9424C9.62305 85.9424 9.35645 85.9993 9.12402 86.1133C8.8916 86.2227 8.69564 86.3981 8.53613 86.6396C8.38118 86.8812 8.2627 87.1979 8.18066 87.5898C8.09863 87.9818 8.05762 88.458 8.05762 89.0186V90.9531C8.05762 91.3997 8.08268 91.7939 8.13281 92.1357C8.1875 92.4775 8.26725 92.7738 8.37207 93.0244C8.47689 93.2705 8.60449 93.4733 8.75488 93.6328C8.90527 93.7923 9.07845 93.9108 9.27441 93.9883C9.47493 94.0612 9.69596 94.0977 9.9375 94.0977C10.2474 94.0977 10.5186 94.0384 10.751 93.9199C10.9834 93.8014 11.1771 93.6169 11.332 93.3662C11.4915 93.111 11.61 92.7852 11.6875 92.3887C11.765 91.9876 11.8037 91.5091 11.8037 90.9531Z" fill="#7A7A7A"/>
<path d="M13.0752 129.23V130.748C13.0752 131.564 13.0023 132.252 12.8564 132.812C12.7106 133.373 12.501 133.824 12.2275 134.166C11.9541 134.508 11.6237 134.756 11.2363 134.911C10.8535 135.062 10.4206 135.137 9.9375 135.137C9.55469 135.137 9.2015 135.089 8.87793 134.993C8.55436 134.897 8.2627 134.745 8.00293 134.535C7.74772 134.321 7.52897 134.043 7.34668 133.701C7.16439 133.359 7.02539 132.945 6.92969 132.457C6.83398 131.969 6.78613 131.4 6.78613 130.748V129.23C6.78613 128.415 6.85905 127.731 7.00488 127.18C7.15527 126.628 7.36719 126.186 7.64062 125.854C7.91406 125.516 8.24219 125.275 8.625 125.129C9.01237 124.983 9.44531 124.91 9.92383 124.91C10.3112 124.91 10.6667 124.958 10.9902 125.054C11.3184 125.145 11.61 125.293 11.8652 125.498C12.1204 125.699 12.3369 125.967 12.5146 126.305C12.6969 126.637 12.8359 127.045 12.9316 127.528C13.0273 128.011 13.0752 128.579 13.0752 129.23ZM11.8037 130.953V129.019C11.8037 128.572 11.7764 128.18 11.7217 127.843C11.6715 127.501 11.5964 127.209 11.4961 126.968C11.3958 126.726 11.2682 126.53 11.1133 126.38C10.9629 126.229 10.7874 126.12 10.5869 126.052C10.391 125.979 10.1699 125.942 9.92383 125.942C9.62305 125.942 9.35645 125.999 9.12402 126.113C8.8916 126.223 8.69564 126.398 8.53613 126.64C8.38118 126.881 8.2627 127.198 8.18066 127.59C8.09863 127.982 8.05762 128.458 8.05762 129.019V130.953C8.05762 131.4 8.08268 131.794 8.13281 132.136C8.1875 132.478 8.26725 132.774 8.37207 133.024C8.47689 133.271 8.60449 133.473 8.75488 133.633C8.90527 133.792 9.07845 133.911 9.27441 133.988C9.47493 134.061 9.69596 134.098 9.9375 134.098C10.2474 134.098 10.5186 134.038 10.751 133.92C10.9834 133.801 11.1771 133.617 11.332 133.366C11.4915 133.111 11.61 132.785 11.6875 132.389C11.765 131.988 11.8037 131.509 11.8037 130.953Z" fill="#7A7A7A"/>
<path d="M13.0752 168.23V169.748C13.0752 170.564 13.0023 171.252 12.8564 171.812C12.7106 172.373 12.501 172.824 12.2275 173.166C11.9541 173.508 11.6237 173.756 11.2363 173.911C10.8535 174.062 10.4206 174.137 9.9375 174.137C9.55469 174.137 9.2015 174.089 8.87793 173.993C8.55436 173.897 8.2627 173.745 8.00293 173.535C7.74772 173.321 7.52897 173.043 7.34668 172.701C7.16439 172.359 7.02539 171.945 6.92969 171.457C6.83398 170.969 6.78613 170.4 6.78613 169.748V168.23C6.78613 167.415 6.85905 166.731 7.00488 166.18C7.15527 165.628 7.36719 165.186 7.64062 164.854C7.91406 164.516 8.24219 164.275 8.625 164.129C9.01237 163.983 9.44531 163.91 9.92383 163.91C10.3112 163.91 10.6667 163.958 10.9902 164.054C11.3184 164.145 11.61 164.293 11.8652 164.498C12.1204 164.699 12.3369 164.967 12.5146 165.305C12.6969 165.637 12.8359 166.045 12.9316 166.528C13.0273 167.011 13.0752 167.579 13.0752 168.23ZM11.8037 169.953V168.019C11.8037 167.572 11.7764 167.18 11.7217 166.843C11.6715 166.501 11.5964 166.209 11.4961 165.968C11.3958 165.726 11.2682 165.53 11.1133 165.38C10.9629 165.229 10.7874 165.12 10.5869 165.052C10.391 164.979 10.1699 164.942 9.92383 164.942C9.62305 164.942 9.35645 164.999 9.12402 165.113C8.8916 165.223 8.69564 165.398 8.53613 165.64C8.38118 165.881 8.2627 166.198 8.18066 166.59C8.09863 166.982 8.05762 167.458 8.05762 168.019V169.953C8.05762 170.4 8.08268 170.794 8.13281 171.136C8.1875 171.478 8.26725 171.774 8.37207 172.024C8.47689 172.271 8.60449 172.473 8.75488 172.633C8.90527 172.792 9.07845 172.911 9.27441 172.988C9.47493 173.061 9.69596 173.098 9.9375 173.098C10.2474 173.098 10.5186 173.038 10.751 172.92C10.9834 172.801 11.1771 172.617 11.332 172.366C11.4915 172.111 11.61 171.785 11.6875 171.389C11.765 170.988 11.8037 170.509 11.8037 169.953Z" fill="#7A7A7A"/>
</svg>
