<svg width="128" height="24" viewBox="0 0 128 24" fill="none" xmlns="http://www.w3.org/2000/svg">
<path d="M11.322 2.923C11.448 2.664 11.712 2.5 12 2.5C12.289 2.5 12.552 2.664 12.678 2.923C13.652 4.921 15.328 8.363 15.328 8.363C15.328 8.363 19.139 8.887 21.35 9.192C21.753 9.247 22 9.588 22 9.939C22 10.129 21.928 10.322 21.769 10.475C20.159 12.013 17.387 14.666 17.387 14.666C17.387 14.666 18.064 18.433 18.456 20.618C18.539 21.08 18.181 21.5 17.714 21.5C17.592 21.5 17.47 21.471 17.359 21.411C15.391 20.363 12 18.56 12 18.56C12 18.56 8.609 20.363 6.641 21.411C6.53 21.471 6.407 21.5 6.285 21.5C5.82 21.5 5.46 21.079 5.544 20.618C5.937 18.433 6.614 14.666 6.614 14.666C6.614 14.666 3.841 12.013 2.232 10.475C2.072 10.322 2 10.129 2 9.94C2 9.588 2.249 9.246 2.651 9.192C4.862 8.887 8.672 8.363 8.672 8.363C8.672 8.363 10.349 4.921 11.322 2.923Z" fill="#FFCD78"/>
<path d="M37.322 2.923C37.448 2.664 37.712 2.5 38 2.5C38.289 2.5 38.552 2.664 38.678 2.923C39.652 4.921 41.328 8.363 41.328 8.363C41.328 8.363 45.139 8.887 47.35 9.192C47.753 9.247 48 9.588 48 9.939C48 10.129 47.928 10.322 47.769 10.475C46.159 12.013 43.387 14.666 43.387 14.666C43.387 14.666 44.064 18.433 44.456 20.618C44.539 21.08 44.181 21.5 43.714 21.5C43.592 21.5 43.47 21.471 43.359 21.411C41.391 20.363 38 18.56 38 18.56C38 18.56 34.609 20.363 32.641 21.411C32.53 21.471 32.407 21.5 32.285 21.5C31.82 21.5 31.46 21.079 31.544 20.618C31.937 18.433 32.614 14.666 32.614 14.666C32.614 14.666 29.841 12.013 28.232 10.475C28.072 10.322 28 10.129 28 9.94C28 9.588 28.249 9.246 28.651 9.192C30.862 8.887 34.672 8.363 34.672 8.363C34.672 8.363 36.349 4.921 37.322 2.923Z" fill="#FFCD78"/>
<path d="M63.322 2.923C63.448 2.664 63.712 2.5 64 2.5C64.289 2.5 64.552 2.664 64.678 2.923C65.652 4.921 67.328 8.363 67.328 8.363C67.328 8.363 71.139 8.887 73.35 9.192C73.753 9.247 74 9.588 74 9.939C74 10.129 73.928 10.322 73.769 10.475C72.159 12.013 69.387 14.666 69.387 14.666C69.387 14.666 70.064 18.433 70.456 20.618C70.539 21.08 70.181 21.5 69.714 21.5C69.592 21.5 69.47 21.471 69.359 21.411C67.391 20.363 64 18.56 64 18.56C64 18.56 60.609 20.363 58.641 21.411C58.53 21.471 58.407 21.5 58.285 21.5C57.82 21.5 57.46 21.079 57.544 20.618C57.937 18.433 58.614 14.666 58.614 14.666C58.614 14.666 55.841 12.013 54.232 10.475C54.072 10.322 54 10.129 54 9.94C54 9.588 54.249 9.246 54.651 9.192C56.862 8.887 60.672 8.363 60.672 8.363C60.672 8.363 62.349 4.921 63.322 2.923Z" fill="#FFCD78"/>
<path d="M89.322 2.923C89.448 2.664 89.712 2.5 90 2.5C90.289 2.5 90.552 2.664 90.678 2.923C91.652 4.921 93.328 8.363 93.328 8.363C93.328 8.363 97.139 8.887 99.35 9.192C99.753 9.247 100 9.588 100 9.939C100 10.129 99.928 10.322 99.769 10.475C98.159 12.013 95.387 14.666 95.387 14.666C95.387 14.666 96.064 18.433 96.456 20.618C96.539 21.08 96.181 21.5 95.714 21.5C95.592 21.5 95.47 21.471 95.359 21.411C93.391 20.363 90 18.56 90 18.56C90 18.56 86.609 20.363 84.641 21.411C84.53 21.471 84.407 21.5 84.285 21.5C83.82 21.5 83.46 21.079 83.544 20.618C83.937 18.433 84.614 14.666 84.614 14.666C84.614 14.666 81.841 12.013 80.232 10.475C80.072 10.322 80 10.129 80 9.94C80 9.588 80.249 9.246 80.651 9.192C82.862 8.887 86.672 8.363 86.672 8.363C86.672 8.363 88.349 4.921 89.322 2.923Z" fill="#FFCD78"/>
<path d="M115.322 2.923C115.448 2.664 115.712 2.5 116 2.5C116.289 2.5 116.552 2.664 116.678 2.923C117.652 4.921 119.328 8.363 119.328 8.363C119.328 8.363 123.139 8.887 125.35 9.192C125.753 9.247 126 9.588 126 9.939C126 10.129 125.928 10.322 125.769 10.475C124.159 12.013 121.387 14.666 121.387 14.666C121.387 14.666 122.064 18.433 122.456 20.618C122.539 21.08 122.181 21.5 121.714 21.5C121.592 21.5 121.47 21.471 121.359 21.411C119.391 20.363 116 18.56 116 18.56C116 18.56 112.609 20.363 110.641 21.411C110.53 21.471 110.407 21.5 110.285 21.5C109.82 21.5 109.46 21.079 109.544 20.618C109.937 18.433 110.614 14.666 110.614 14.666C110.614 14.666 107.841 12.013 106.232 10.475C106.072 10.322 106 10.129 106 9.94C106 9.588 106.249 9.246 106.651 9.192C108.862 8.887 112.672 8.363 112.672 8.363C112.672 8.363 114.349 4.921 115.322 2.923ZM116 4.956L113.639 9.748L108.393 10.467L112.241 14.11L111.293 19.365L116 16.86L120.707 19.365L119.756 14.129L123.607 10.467L118.293 9.711L116 4.956Z" fill="#FFCD78"/>
</svg>
