<svg width="28" height="28" viewBox="0 0 28 28" fill="none" xmlns="http://www.w3.org/2000/svg">
<path d="M23.8234 5.34332C23.2381 4.756 22.5427 4.28998 21.7769 3.97201C21.0111 3.65404 20.1901 3.49036 19.3609 3.49036C18.5318 3.49036 17.7108 3.65404 16.945 3.97201C16.1792 4.28998 15.4837 4.756 14.8984 5.34332L14.0001 6.25332L13.1018 5.34332C12.5165 4.756 11.821 4.28998 11.0552 3.97201C10.2894 3.65404 9.46844 3.49036 8.63927 3.49036C7.8101 3.49036 6.98909 3.65404 6.22331 3.97201C5.45753 4.28998 4.76206 4.756 4.17677 5.34332C1.70343 7.81666 1.55177 11.9933 4.66677 15.1667L14.0001 24.5L23.3334 15.1667C26.4484 11.9933 26.2968 7.81666 23.8234 5.34332Z" stroke="#7A7A7A" stroke-width="2" stroke-linecap="round" stroke-linejoin="round"/>
</svg>
