<svg width="100" height="20" viewBox="0 0 100 20" fill="none" xmlns="http://www.w3.org/2000/svg">
<g clip-path="url(#clip0_1193_594)">
<path d="M8.43532 1.43587C8.54032 1.22004 8.76033 1.08337 9.00033 1.08337C9.24116 1.08337 9.46033 1.22004 9.56533 1.43587C10.377 3.10087 11.7737 5.96921 11.7737 5.96921C11.7737 5.96921 14.9495 6.40587 16.792 6.66004C17.1278 6.70587 17.3337 6.99004 17.3337 7.28254C17.3337 7.44087 17.2737 7.60171 17.1412 7.72921C15.7995 9.01087 13.4895 11.2217 13.4895 11.2217C13.4895 11.2217 14.0537 14.3609 14.3803 16.1817C14.4495 16.5667 14.1512 16.9167 13.762 16.9167C13.6603 16.9167 13.5587 16.8925 13.4662 16.8425C11.8262 15.9692 9.00033 14.4667 9.00033 14.4667C9.00033 14.4667 6.17449 15.9692 4.53449 16.8425C4.44199 16.8925 4.33949 16.9167 4.23783 16.9167C3.85033 16.9167 3.55033 16.5659 3.62033 16.1817C3.94783 14.3609 4.51199 11.2217 4.51199 11.2217C4.51199 11.2217 2.20116 9.01087 0.860326 7.72921C0.726992 7.60171 0.666992 7.44087 0.666992 7.28337C0.666992 6.99004 0.874492 6.70504 1.20949 6.66004C3.05199 6.40587 6.22699 5.96921 6.22699 5.96921C6.22699 5.96921 7.62449 3.10087 8.43532 1.43587Z" fill="#FFCD78"/>
<path d="M28.4353 1.43587C28.5403 1.22004 28.7603 1.08337 29.0003 1.08337C29.2412 1.08337 29.4603 1.22004 29.5653 1.43587C30.377 3.10087 31.7737 5.96921 31.7737 5.96921C31.7737 5.96921 34.9495 6.40587 36.792 6.66004C37.1278 6.70587 37.3337 6.99004 37.3337 7.28254C37.3337 7.44087 37.2737 7.60171 37.1412 7.72921C35.7995 9.01087 33.4895 11.2217 33.4895 11.2217C33.4895 11.2217 34.0537 14.3609 34.3803 16.1817C34.4495 16.5667 34.1512 16.9167 33.762 16.9167C33.6603 16.9167 33.5587 16.8925 33.4662 16.8425C31.8262 15.9692 29.0003 14.4667 29.0003 14.4667C29.0003 14.4667 26.1745 15.9692 24.5345 16.8425C24.442 16.8925 24.3395 16.9167 24.2378 16.9167C23.8503 16.9167 23.5503 16.5659 23.6203 16.1817C23.9478 14.3609 24.512 11.2217 24.512 11.2217C24.512 11.2217 22.2012 9.01087 20.8603 7.72921C20.727 7.60171 20.667 7.44087 20.667 7.28337C20.667 6.99004 20.8745 6.70504 21.2095 6.66004C23.052 6.40587 26.227 5.96921 26.227 5.96921C26.227 5.96921 27.6245 3.10087 28.4353 1.43587Z" fill="#FFCD78"/>
<path d="M48.4353 1.43587C48.5403 1.22004 48.7603 1.08337 49.0003 1.08337C49.2412 1.08337 49.4603 1.22004 49.5653 1.43587C50.377 3.10087 51.7737 5.96921 51.7737 5.96921C51.7737 5.96921 54.9495 6.40587 56.792 6.66004C57.1278 6.70587 57.3337 6.99004 57.3337 7.28254C57.3337 7.44087 57.2737 7.60171 57.1412 7.72921C55.7995 9.01087 53.4895 11.2217 53.4895 11.2217C53.4895 11.2217 54.0537 14.3609 54.3803 16.1817C54.4495 16.5667 54.1512 16.9167 53.762 16.9167C53.6603 16.9167 53.5587 16.8925 53.4662 16.8425C51.8262 15.9692 49.0003 14.4667 49.0003 14.4667C49.0003 14.4667 46.1745 15.9692 44.5345 16.8425C44.442 16.8925 44.3395 16.9167 44.2378 16.9167C43.8503 16.9167 43.5503 16.5659 43.6203 16.1817C43.9478 14.3609 44.512 11.2217 44.512 11.2217C44.512 11.2217 42.2012 9.01087 40.8603 7.72921C40.727 7.60171 40.667 7.44087 40.667 7.28337C40.667 6.99004 40.8745 6.70504 41.2095 6.66004C43.052 6.40587 46.227 5.96921 46.227 5.96921C46.227 5.96921 47.6245 3.10087 48.4353 1.43587Z" fill="#FFCD78"/>
<path d="M68.4353 1.43587C68.5403 1.22004 68.7603 1.08337 69.0003 1.08337C69.2412 1.08337 69.4603 1.22004 69.5653 1.43587C70.377 3.10087 71.7737 5.96921 71.7737 5.96921C71.7737 5.96921 74.9495 6.40587 76.792 6.66004C77.1278 6.70587 77.3337 6.99004 77.3337 7.28254C77.3337 7.44087 77.2737 7.60171 77.1412 7.72921C75.7995 9.01087 73.4895 11.2217 73.4895 11.2217C73.4895 11.2217 74.0537 14.3609 74.3803 16.1817C74.4495 16.5667 74.1512 16.9167 73.762 16.9167C73.6603 16.9167 73.5587 16.8925 73.4662 16.8425C71.8262 15.9692 69.0003 14.4667 69.0003 14.4667C69.0003 14.4667 66.1745 15.9692 64.5345 16.8425C64.442 16.8925 64.3395 16.9167 64.2378 16.9167C63.8503 16.9167 63.5503 16.5659 63.6203 16.1817C63.9478 14.3609 64.512 11.2217 64.512 11.2217C64.512 11.2217 62.2012 9.01087 60.8603 7.72921C60.727 7.60171 60.667 7.44087 60.667 7.28337C60.667 6.99004 60.8745 6.70504 61.2095 6.66004C63.052 6.40587 66.227 5.96921 66.227 5.96921C66.227 5.96921 67.6245 3.10087 68.4353 1.43587Z" fill="#FFCD78"/>
<path d="M88.4353 1.43587C88.5403 1.22004 88.7603 1.08337 89.0003 1.08337C89.2412 1.08337 89.4603 1.22004 89.5653 1.43587C90.377 3.10087 91.7737 5.96921 91.7737 5.96921C91.7737 5.96921 94.9495 6.40587 96.792 6.66004C97.1278 6.70587 97.3337 6.99004 97.3337 7.28254C97.3337 7.44087 97.2737 7.60171 97.1412 7.72921C95.7995 9.01087 93.4895 11.2217 93.4895 11.2217C93.4895 11.2217 94.0537 14.3609 94.3803 16.1817C94.4495 16.5667 94.1512 16.9167 93.762 16.9167C93.6603 16.9167 93.5587 16.8925 93.4662 16.8425C91.8262 15.9692 89.0003 14.4667 89.0003 14.4667C89.0003 14.4667 86.1745 15.9692 84.5345 16.8425C84.442 16.8925 84.3395 16.9167 84.2378 16.9167C83.8503 16.9167 83.5503 16.5659 83.6203 16.1817C83.9478 14.3609 84.512 11.2217 84.512 11.2217C84.512 11.2217 82.2012 9.01087 80.8603 7.72921C80.727 7.60171 80.667 7.44087 80.667 7.28337C80.667 6.99004 80.8745 6.70504 81.2095 6.66004C83.052 6.40587 86.227 5.96921 86.227 5.96921C86.227 5.96921 87.6245 3.10087 88.4353 1.43587ZM89.0003 3.13004V13.05L92.9228 15.1375L92.1303 10.7742L95.3395 7.72254L90.9112 7.09254L89.0003 3.13004Z" fill="#FFCD78"/>
</g>
<defs>
<clipPath id="clip0_1193_594">
<rect width="100" height="20" fill="white"/>
</clipPath>
</defs>
</svg>
