<svg width="30" height="30" viewBox="0 0 30 30" fill="none" xmlns="http://www.w3.org/2000/svg">
<path fill-rule="evenodd" clip-rule="evenodd" d="M21.406 7.154C21.2169 7.154 21.0296 7.19125 20.8549 7.26361C20.6802 7.33598 20.5215 7.44205 20.3878 7.57577C20.254 7.70948 20.148 7.86823 20.0756 8.04294C20.0032 8.21764 19.966 8.4049 19.966 8.594C19.966 8.7831 20.0032 8.97036 20.0756 9.14506C20.148 9.31977 20.254 9.47852 20.3878 9.61223C20.5215 9.74595 20.6802 9.85202 20.8549 9.92439C21.0296 9.99675 21.2169 10.034 21.406 10.034C21.7879 10.034 22.1542 9.88229 22.4242 9.61223C22.6943 9.34218 22.846 8.97591 22.846 8.594C22.846 8.21209 22.6943 7.84582 22.4242 7.57577C22.1542 7.30571 21.7879 7.154 21.406 7.154ZM15 19C13.9391 19 12.9217 18.5786 12.1716 17.8284C11.4214 17.0783 11 16.0609 11 15C11 13.9391 11.4214 12.9217 12.1716 12.1716C12.9217 11.4214 13.9391 11 15 11C16.0609 11 17.0783 11.4214 17.8284 12.1716C18.5786 12.9217 19 13.9391 19 15C19 16.0609 18.5786 17.0783 17.8284 17.8284C17.0783 18.5786 16.0609 19 15 19ZM15 8.838C14.1908 8.838 13.3895 8.99739 12.6419 9.30705C11.8943 9.61672 11.215 10.0706 10.6428 10.6428C10.0706 11.215 9.61672 11.8943 9.30705 12.6419C8.99739 13.3895 8.838 14.1908 8.838 15C8.838 15.8092 8.99739 16.6105 9.30705 17.3581C9.61672 18.1057 10.0706 18.785 10.6428 19.3572C11.215 19.9294 11.8943 20.3833 12.6419 20.6929C13.3895 21.0026 14.1908 21.162 15 21.162C16.6343 21.162 18.2016 20.5128 19.3572 19.3572C20.5128 18.2016 21.162 16.6343 21.162 15C21.162 13.3657 20.5128 11.7984 19.3572 10.6428C18.2016 9.48721 16.6343 8.838 15 8.838ZM15 3C11.741 3 11.332 3.014 10.052 3.072C8.775 3.13 7.903 3.334 7.14 3.63C6.33904 3.93109 5.61348 4.40342 5.014 5.014C4.40342 5.61348 3.93109 6.33904 3.63 7.14C3.334 7.903 3.13 8.775 3.072 10.052C3.014 11.332 3 11.742 3 15C3 18.26 3.014 18.667 3.072 19.948C3.131 21.225 3.334 22.097 3.63 22.861C3.93151 23.6615 4.40379 24.3866 5.014 24.986C5.61361 25.5964 6.33913 26.0687 7.14 26.37C7.903 26.667 8.775 26.87 10.052 26.928C11.332 26.986 11.742 27 15 27C18.26 27 18.668 26.986 19.948 26.928C21.225 26.869 22.097 26.667 22.861 26.37C23.6614 26.0683 24.3865 25.5961 24.986 24.986C25.5961 24.3865 26.0683 23.6614 26.37 22.861C26.667 22.097 26.87 21.225 26.928 19.948C26.986 18.668 27 18.259 27 15C27 11.741 26.986 11.332 26.928 10.052C26.869 8.775 26.667 7.903 26.37 7.14C26.0687 6.33913 25.5964 5.61361 24.986 5.014C24.3866 4.40379 23.6615 3.93151 22.861 3.63C22.097 3.334 21.225 3.13 19.948 3.072C18.668 3.014 18.259 3 15 3ZM15 5.162C18.204 5.162 18.584 5.174 19.85 5.232C21.019 5.285 21.655 5.481 22.078 5.645C22.638 5.863 23.038 6.123 23.457 6.543C23.877 6.963 24.137 7.363 24.355 7.923C24.519 8.345 24.715 8.981 24.768 10.151C24.826 11.417 24.838 11.796 24.838 15C24.838 18.204 24.826 18.584 24.768 19.85C24.715 21.019 24.519 21.655 24.355 22.078C24.137 22.638 23.877 23.038 23.457 23.457C23.037 23.877 22.637 24.137 22.077 24.355C21.655 24.519 21.019 24.715 19.849 24.768C18.584 24.826 18.205 24.838 15 24.838C11.795 24.838 11.416 24.826 10.151 24.768C8.981 24.715 8.345 24.519 7.923 24.355C7.40155 24.1628 6.92994 23.8559 6.543 23.457C6.123 23.037 5.863 22.637 5.645 22.077C5.481 21.655 5.285 21.019 5.232 19.849C5.174 18.584 5.162 18.204 5.162 15C5.162 11.796 5.174 11.417 5.232 10.151C5.285 8.981 5.481 8.345 5.645 7.923C5.863 7.363 6.123 6.963 6.543 6.543C6.963 6.123 7.363 5.863 7.923 5.645C8.345 5.481 8.981 5.285 10.151 5.232C11.417 5.174 11.796 5.162 15 5.162Z" fill="#656565"/>
</svg>
