<svg width="30" height="30" viewBox="0 0 30 30" fill="none" xmlns="http://www.w3.org/2000/svg">
<path fill-rule="evenodd" clip-rule="evenodd" d="M21.8 27H8.2C6.82087 27 5.49823 26.4521 4.52304 25.477C3.54786 24.5018 3 23.1791 3 21.8V8.2C3 6.82087 3.54786 5.49823 4.52304 4.52304C5.49823 3.54786 6.82087 3 8.2 3H21.8C23.1791 3 24.5018 3.54786 25.477 4.52304C26.4521 5.49823 27 6.82087 27 8.2V21.8C27 23.1791 26.4521 24.5018 25.477 25.477C24.5018 26.4521 23.1791 27 21.8 27ZM23.727 13.945C23.727 10.035 19.839 6.854 15.061 6.854C10.282 6.854 6.395 10.034 6.395 13.944C6.395 17.45 9.477 20.386 13.642 20.941C13.924 21.002 14.308 21.129 14.405 21.371C14.493 21.593 14.462 21.939 14.433 22.161L14.31 22.91C14.272 23.13 14.136 23.774 15.06 23.38C15.985 22.988 20.051 20.418 21.87 18.308H21.869C23.125 16.918 23.727 15.509 23.727 13.945Z" fill="#3493FB"/>
<path fill-rule="evenodd" clip-rule="evenodd" d="M13.3003 11.001H12.6923C12.67 11.001 12.6479 11.0054 12.6272 11.0139C12.6066 11.0225 12.5879 11.035 12.5721 11.0508C12.5563 11.0666 12.5438 11.0853 12.5352 11.1059C12.5267 11.1266 12.5223 11.1487 12.5223 11.171V14.979C12.5223 15.072 12.5993 15.149 12.6923 15.149H13.3003C13.345 15.1485 13.3878 15.1303 13.4192 15.0985C13.4507 15.0667 13.4683 15.0237 13.4683 14.979V11.171C13.4683 11.1263 13.4507 11.0833 13.4192 11.0515C13.3878 11.0197 13.345 11.0015 13.3003 11.001ZM17.4843 11.001H16.8763C16.8314 11.0013 16.7884 11.0193 16.7567 11.0511C16.7251 11.083 16.7073 11.1261 16.7073 11.171V13.433L14.9773 11.077C14.973 11.071 14.9683 11.0654 14.9633 11.06V11.058C14.9562 11.0508 14.9485 11.0441 14.9403 11.038L14.9363 11.034L14.9263 11.028L14.9223 11.025L14.9123 11.02L14.9073 11.017L14.8973 11.013L14.8923 11.011C14.889 11.0098 14.8857 11.0088 14.8823 11.008L14.8763 11.006L14.8663 11.004H14.8603C14.857 11.0031 14.8537 11.0024 14.8503 11.002H14.2283C14.1836 11.0025 14.1408 11.0207 14.1094 11.0525C14.0779 11.0843 14.0603 11.1273 14.0603 11.172V14.979C14.0603 15.072 14.1353 15.149 14.2283 15.149H14.8363C14.8586 15.149 14.8807 15.1446 14.9014 15.1361C14.922 15.1275 14.9407 15.115 14.9565 15.0992C14.9723 15.0834 14.9848 15.0647 14.9934 15.0441C15.0019 15.0234 15.0063 15.0013 15.0063 14.979V12.716L16.7383 15.076C16.7503 15.093 16.7643 15.106 16.7803 15.118L16.7823 15.119L16.7923 15.125L16.7973 15.128C16.7999 15.1295 16.8026 15.1308 16.8053 15.132L16.8143 15.135C16.8203 15.1381 16.8267 15.1404 16.8333 15.142C16.8473 15.1456 16.8618 15.1473 16.8763 15.147H17.4843C17.5292 15.1467 17.5722 15.1287 17.6039 15.0969C17.6355 15.065 17.6533 15.0219 17.6533 14.977V11.17C17.6533 11.1249 17.6354 11.0817 17.6035 11.0498C17.5716 11.0179 17.5284 11 17.4833 11L17.4843 11.001ZM11.8343 14.196H10.1833V11.171C10.1833 11.1261 10.1655 11.083 10.1339 11.0511C10.1022 11.0193 10.0592 11.0013 10.0143 11.001H9.4063C9.36139 11.0013 9.31841 11.0193 9.28674 11.0511C9.25508 11.083 9.2373 11.1261 9.2373 11.171V14.978C9.23742 15.023 9.2554 15.0662 9.2873 15.098C9.2873 15.1 9.2893 15.1 9.2893 15.101C9.3193 15.131 9.3613 15.149 9.4063 15.149H11.8343C11.8794 15.149 11.9226 15.1311 11.9545 15.0992C11.9864 15.0673 12.0043 15.0241 12.0043 14.979V14.365C12.0043 14.3199 11.9864 14.2767 11.9545 14.2448C11.9226 14.2129 11.8794 14.196 11.8343 14.196ZM20.8403 11.955C20.8852 11.9547 20.9282 11.9367 20.9599 11.9049C20.9915 11.873 21.0093 11.8299 21.0093 11.785V11.171C21.0093 11.1261 20.9915 11.083 20.9599 11.0511C20.9282 11.0193 20.8852 11.0013 20.8403 11.001H18.4123C18.3685 11.0009 18.3264 11.0182 18.2953 11.049L18.2933 11.051L18.2903 11.054C18.2602 11.0855 18.2434 11.1274 18.2433 11.171V14.978C18.2434 15.0221 18.2606 15.0644 18.2913 15.096L18.2933 15.099L18.2963 15.101C18.3263 15.131 18.3663 15.148 18.4123 15.148H20.8403C20.8852 15.1477 20.9282 15.1297 20.9599 15.0979C20.9915 15.066 21.0093 15.0229 21.0093 14.978V14.365C21.0093 14.3201 20.9915 14.277 20.9599 14.2451C20.9282 14.2133 20.8852 14.1953 20.8403 14.195H19.1903V13.551H20.8413C20.8862 13.5507 20.9292 13.5327 20.9609 13.5009C20.9925 13.469 21.0103 13.4259 21.0103 13.381V12.768C21.0103 12.7231 20.9925 12.68 20.9609 12.6481C20.9292 12.6163 20.8862 12.5983 20.8413 12.598H19.1903V11.955H20.8403Z" fill="#3493FB"/>
</svg>
