<svg width="308" height="109" viewBox="0 0 308 109" fill="none" xmlns="http://www.w3.org/2000/svg">
<g clip-path="url(#clip0_579_668)">
<rect width="308" height="109" fill="white"/>
<g filter="url(#filter0_d_579_668)">
<path d="M105 4H303C304.105 4 305 4.89543 305 6V102C305 103.105 304.105 104 303 104H105V4Z" fill="white"/>
</g>
<g filter="url(#filter1_d_579_668)">
<path d="M5 6C5 4.89543 5.89543 4 7 4H103C104.105 4 105 4.89543 105 6V102C105 103.105 104.105 104 103 104H7C5.89543 104 5 103.105 5 102V6Z" fill="#7A7A7A"/>
</g>
<ellipse cx="5.72766" cy="94.2594" rx="4" ry="3.33807" transform="rotate(-15 5.72766 94.2594)" fill="white"/>
<ellipse cx="5.72766" cy="81.2594" rx="4" ry="3.33807" transform="rotate(-15 5.72766 81.2594)" fill="white"/>
<ellipse cx="5.72766" cy="68.2594" rx="4" ry="3.33807" transform="rotate(-15 5.72766 68.2594)" fill="white"/>
<ellipse cx="5.72766" cy="55.2594" rx="4" ry="3.33807" transform="rotate(-15 5.72766 55.2594)" fill="white"/>
<ellipse cx="5.72766" cy="42.2594" rx="4" ry="3.33807" transform="rotate(-15 5.72766 42.2594)" fill="white"/>
<ellipse cx="5.72766" cy="29.2594" rx="4" ry="3.33807" transform="rotate(-15 5.72766 29.2594)" fill="white"/>
<ellipse cx="5.72766" cy="10.2594" rx="4" ry="3.33807" transform="rotate(-15 5.72766 10.2594)" fill="white"/>
<line x1="103.5" y1="4" x2="103.5" y2="104" stroke="white" stroke-width="3" stroke-dasharray="2 2"/>
<path d="M32.6086 91.168C31.6846 91.168 30.6166 90.736 29.9446 90.112L30.5806 89.164C31.1926 89.668 31.8406 90.028 32.6086 90.028C33.5326 90.028 33.9886 89.56 33.9886 88.792C33.9886 86.848 30.2926 87.184 30.2926 84.616C30.2926 83.188 31.3006 82.252 32.8126 82.252C33.9166 82.252 34.6006 82.696 35.1766 83.308L34.4566 84.124C33.9646 83.644 33.5566 83.392 32.8726 83.392C32.0926 83.392 31.6246 83.824 31.6246 84.544C31.6246 86.296 35.3326 85.888 35.3326 88.684C35.3326 90.16 34.3126 91.168 32.6086 91.168ZM32.2726 92.488V90.64H33.2446V92.488H32.2726ZM32.2726 82.72V80.92H33.2446V82.72H32.2726ZM39.5723 91.168C37.8323 91.168 36.7163 89.62 36.7163 86.548C36.7163 83.5 37.8323 82.012 39.5723 82.012C41.3003 82.012 42.4283 83.5 42.4283 86.548C42.4283 89.62 41.3003 91.168 39.5723 91.168ZM39.5723 90.064C40.4723 90.064 41.0963 89.104 41.0963 86.548C41.0963 84.028 40.4723 83.092 39.5723 83.092C38.6723 83.092 38.0363 84.028 38.0363 86.548C38.0363 89.104 38.6723 90.064 39.5723 90.064ZM52.2074 87.352H53.3834V90.328C53.3834 90.712 53.4674 90.76 53.9834 90.76C54.2114 90.76 55.2794 90.76 55.5794 90.76C56.0474 90.76 56.1314 90.544 56.1794 89.152C56.4314 89.332 56.8994 89.512 57.2234 89.584C57.0914 91.324 56.7794 91.78 55.6754 91.78C55.3994 91.78 54.0914 91.78 53.8274 91.78C52.5434 91.78 52.2074 91.444 52.2074 90.34V87.352ZM49.5194 80.836L50.7554 81.076C49.8794 82.576 48.6314 84.148 46.8794 85.408C46.7114 85.144 46.3394 84.76 46.0754 84.58C47.6954 83.488 48.8834 82.036 49.5194 80.836ZM48.5834 84.904V86.764H55.0634V84.904H48.5834ZM47.4434 83.896H56.2634V87.784H47.4434V83.896ZM52.8194 81.736H53.0714L53.2634 81.688L54.0434 82.192C53.5874 82.996 52.8314 83.992 52.2074 84.616C51.9914 84.448 51.6074 84.208 51.3554 84.064C51.9074 83.5 52.5434 82.564 52.8194 81.952V81.736ZM49.4834 81.736H53.1554V82.672H48.9074L49.4834 81.736ZM51.1754 84.568H52.3754C52.1114 87.868 51.5354 90.64 46.8794 91.912C46.7594 91.624 46.4834 91.192 46.2314 90.952C50.6234 89.86 50.9594 87.448 51.1754 84.568ZM64.6034 82.552H65.7074V90.388H64.6034V82.552ZM63.0794 86.572V87.244H67.2914V86.572H63.0794ZM63.0794 85.228V85.888H67.2914V85.228H63.0794ZM62.1434 84.496H68.2634V87.976H62.1434V84.496ZM61.4834 81.28H68.7794V83.512H67.6874V82.132H62.5274V83.512H61.4834V81.28ZM62.4314 83.08H67.9034V83.896H62.4314V83.08ZM61.5794 88.624H68.9234V89.488H61.5794V88.624ZM58.5914 81.376L59.4554 80.872C59.9834 81.46 60.6074 82.228 60.9194 82.72L60.0194 83.32C59.7314 82.816 59.0954 81.976 58.5914 81.376ZM58.2194 83.68H60.7394V84.604H58.2194V83.68ZM60.4874 89.032C61.1834 90.628 62.6834 90.832 64.9874 90.844C66.2594 90.844 68.1194 90.784 69.4034 90.664C69.2354 90.892 69.1034 91.408 69.0434 91.72C67.8554 91.792 66.3314 91.816 64.9754 91.816C62.1674 91.816 60.6314 91.48 59.7314 89.356L60.4874 89.032ZM60.2834 86.62H60.6194L60.7994 86.596L61.2914 86.788C60.9314 89.368 60.0074 91.108 58.7474 92.044C58.6034 91.816 58.2194 91.432 58.0034 91.276C59.1914 90.46 59.9954 88.936 60.2834 86.8V86.62ZM58.4234 87.688V86.86L58.8914 86.62H60.7274V87.52H59.1434C58.8434 87.52 58.5194 87.592 58.4234 87.688ZM58.4234 87.688C58.3514 87.448 58.1354 86.944 58.0274 86.728C58.2194 86.68 58.4114 86.596 58.6274 86.356C58.9754 86.008 60.0674 84.412 60.4634 83.764V83.728L60.7754 83.596L61.4834 83.92C60.9314 84.748 59.8874 86.26 59.2274 87.04C59.2274 87.04 58.4234 87.424 58.4234 87.688ZM70.3874 84.928H81.0074V85.948H70.3874V84.928ZM71.1314 82.888H80.2154V83.896H71.1314V82.888ZM77.5154 85.132C78.2594 86.296 79.7714 87.244 81.4394 87.664C81.1874 87.892 80.8634 88.324 80.6954 88.612C78.9554 88.06 77.4314 86.92 76.5434 85.468L77.5154 85.132ZM75.3674 80.824L76.5554 80.944C76.0514 83.992 74.4194 86.968 70.7594 88.624C70.6394 88.336 70.3034 87.892 70.0514 87.676C73.5434 86.212 75.0074 83.488 75.3674 80.824ZM72.1274 81.52L73.0274 81.088C73.4114 81.532 73.8554 82.156 74.0354 82.576L73.0874 83.068C72.9194 82.66 72.4994 82 72.1274 81.52ZM78.3914 81.136L79.4354 81.472C79.0154 82.144 78.5114 82.852 78.1034 83.32L77.2394 83.008C77.6354 82.516 78.1274 81.7 78.3914 81.136ZM72.2474 87.256H78.0674V88.288H72.2474V87.256ZM77.8994 87.256H79.0514C79.0514 87.256 79.0394 87.568 79.0274 87.724C78.8714 90.112 78.7034 91.108 78.3554 91.48C78.1154 91.744 77.8634 91.828 77.4794 91.876C77.1434 91.912 76.5314 91.912 75.8834 91.876C75.8714 91.552 75.7394 91.096 75.5594 90.808C76.1474 90.868 76.7234 90.868 76.9394 90.868C77.1554 90.868 77.2754 90.844 77.3954 90.736C77.6234 90.508 77.7674 89.632 77.8994 87.424V87.256ZM74.0834 87.628H75.2594C75.0074 89.728 74.3354 91.204 71.4554 91.984C71.3474 91.696 71.0474 91.24 70.8194 91.012C73.3754 90.424 73.8674 89.26 74.0834 87.628Z" fill="white"/>
<path d="M147.759 82.384H158.355V83.452H147.759V82.384ZM150.687 86.692H156.255V87.652H150.687V86.692ZM155.859 84.652H156.975V90.7C156.975 91.312 156.855 91.636 156.411 91.816C155.979 91.996 155.307 91.996 154.299 91.996C154.251 91.684 154.095 91.204 153.939 90.904C154.659 90.94 155.379 90.928 155.595 90.928C155.799 90.916 155.859 90.856 155.859 90.688V84.652ZM151.599 80.872L152.763 81.136C151.947 83.764 150.507 86.428 148.251 88.024C148.083 87.76 147.723 87.364 147.507 87.148C149.607 85.72 150.975 83.2 151.599 80.872ZM150.627 88.696H156.255V89.656H150.627V88.696ZM150.615 84.652H156.147V85.66H150.615V84.652ZM150.003 84.652H151.143V87.844C151.143 89.224 150.915 91 149.691 92.092C149.547 91.852 149.103 91.372 148.887 91.216C149.895 90.28 150.003 88.96 150.003 87.832V84.652ZM159.675 82.588H165.267V83.608H159.675V82.588ZM160.983 83.788L161.955 84.088C161.499 85.168 160.791 86.368 160.167 87.136C159.999 86.956 159.603 86.596 159.375 86.428C159.987 85.744 160.599 84.736 160.983 83.788ZM162.999 85.72L164.067 85.912C163.359 88.504 162.063 90.496 160.215 91.744C160.059 91.528 159.663 91.108 159.435 90.916C161.223 89.836 162.411 88.024 162.999 85.72ZM162.963 84.172L163.803 83.728C164.367 84.388 164.991 85.3 165.231 85.912L164.331 86.428C164.115 85.816 163.515 84.868 162.963 84.172ZM160.623 86.764L161.463 86.152C162.675 87.34 164.127 88.972 164.763 90.088L163.851 90.808C163.263 89.692 161.847 87.976 160.623 86.764ZM166.527 83.02H170.523V84.076H166.527V83.02ZM166.707 80.86L167.775 81.028C167.355 83.452 166.659 85.756 165.543 87.256C165.411 87.028 165.039 86.572 164.811 86.368C165.807 85.072 166.383 83.008 166.707 80.86ZM168.843 83.728L169.923 83.86C169.335 87.976 168.003 90.556 165.051 92.068C164.907 91.852 164.511 91.42 164.271 91.216C167.151 89.92 168.363 87.52 168.843 83.728ZM166.743 84.736C167.355 87.52 168.639 89.992 170.703 91.108C170.451 91.324 170.091 91.732 169.911 92.02C167.751 90.7 166.491 88.096 165.783 84.952L166.743 84.736ZM161.415 81.208L162.375 80.848C162.723 81.292 163.071 81.88 163.227 82.288L162.219 82.708C162.075 82.288 161.739 81.664 161.415 81.208ZM173.043 81.652H181.131V91.84H179.919V82.792H174.207V91.876H173.043V81.652ZM173.835 85.756H180.423V86.872H173.835V85.756ZM173.823 89.956H180.435V91.096H173.823V89.956ZM190.395 81.448H193.623V82.48H190.395V81.448ZM190.395 84.184H193.623V85.192H190.395V84.184ZM190.383 86.956H193.647V87.976H190.383V86.956ZM193.131 81.448H194.223V90.676C194.223 91.276 194.103 91.6 193.719 91.78C193.347 91.96 192.759 91.984 191.871 91.984C191.835 91.684 191.679 91.18 191.535 90.892C192.111 90.916 192.711 90.916 192.891 90.904C193.059 90.904 193.131 90.844 193.131 90.664V81.448ZM189.927 81.448H190.995V85.828C190.995 87.7 190.839 90.352 189.783 92.056C189.603 91.852 189.135 91.516 188.883 91.408C189.843 89.836 189.927 87.556 189.927 85.828V81.448ZM183.615 82.396H189.423V83.392H183.615V82.396ZM185.091 84.304H188.055V85.192H185.091V84.304ZM185.091 86.188H188.067V87.076H185.091V86.188ZM183.459 88.108H189.387V89.116H183.459V88.108ZM184.599 81.016H185.631V88.492H184.599V81.016ZM187.515 81.016H188.559V88.492H187.515V81.016ZM185.055 89.296L186.135 89.608C185.691 90.508 184.995 91.432 184.347 92.032C184.131 91.84 183.687 91.516 183.423 91.36C184.083 90.844 184.707 90.064 185.055 89.296ZM186.807 89.74L187.671 89.272C188.151 89.812 188.727 90.544 188.991 91.036L188.067 91.576C187.839 91.096 187.275 90.304 186.807 89.74ZM201.051 84.628C200.499 84.628 200.043 84.22 200.043 83.632C200.043 83.032 200.499 82.624 201.051 82.624C201.591 82.624 202.059 83.032 202.059 83.632C202.059 84.22 201.591 84.628 201.051 84.628ZM201.051 90.436C200.499 90.436 200.043 90.028 200.043 89.44C200.043 88.84 200.499 88.432 201.051 88.432C201.591 88.432 202.059 88.84 202.059 89.44C202.059 90.028 201.591 90.436 201.051 90.436ZM207.567 91V90.196C210.183 87.892 211.515 86.176 211.515 84.724C211.515 83.776 211.011 83.116 210.027 83.116C209.331 83.116 208.755 83.548 208.287 84.088L207.495 83.332C208.263 82.504 209.043 82.012 210.195 82.012C211.815 82.012 212.859 83.056 212.859 84.664C212.859 86.356 211.491 88.12 209.619 89.92C210.075 89.872 210.639 89.824 211.071 89.824H213.279V91H207.567ZM217.315 91.168C215.575 91.168 214.459 89.62 214.459 86.548C214.459 83.5 215.575 82.012 217.315 82.012C219.043 82.012 220.171 83.5 220.171 86.548C220.171 89.62 219.043 91.168 217.315 91.168ZM217.315 90.064C218.215 90.064 218.839 89.104 218.839 86.548C218.839 84.028 218.215 83.092 217.315 83.092C216.415 83.092 215.779 84.028 215.779 86.548C215.779 89.104 216.415 90.064 217.315 90.064ZM221.254 91V90.196C223.87 87.892 225.202 86.176 225.202 84.724C225.202 83.776 224.698 83.116 223.714 83.116C223.018 83.116 222.442 83.548 221.974 84.088L221.182 83.332C221.95 82.504 222.73 82.012 223.882 82.012C225.502 82.012 226.546 83.056 226.546 84.664C226.546 86.356 225.178 88.12 223.306 89.92C223.762 89.872 224.326 89.824 224.758 89.824H226.966V91H221.254ZM230.786 91.168C229.406 91.168 228.506 90.616 227.906 89.944L228.59 89.056C229.106 89.584 229.754 90.028 230.678 90.028C231.662 90.028 232.346 89.476 232.346 88.564C232.346 87.58 231.722 86.956 229.742 86.956V85.924C231.47 85.924 232.046 85.276 232.046 84.388C232.046 83.608 231.542 83.116 230.69 83.116C230.018 83.116 229.442 83.44 228.938 83.944L228.206 83.068C228.914 82.444 229.73 82.012 230.75 82.012C232.334 82.012 233.45 82.828 233.45 84.28C233.45 85.3 232.862 86.008 231.926 86.356V86.416C232.946 86.68 233.75 87.436 233.75 88.636C233.75 90.232 232.418 91.168 230.786 91.168ZM236.214 91.168C235.686 91.168 235.29 90.76 235.29 90.196C235.29 89.62 235.686 89.224 236.214 89.224C236.73 89.224 237.138 89.62 237.138 90.196C237.138 90.76 236.73 91.168 236.214 91.168ZM241.42 91.168C239.68 91.168 238.564 89.62 238.564 86.548C238.564 83.5 239.68 82.012 241.42 82.012C243.148 82.012 244.276 83.5 244.276 86.548C244.276 89.62 243.148 91.168 241.42 91.168ZM241.42 90.064C242.32 90.064 242.944 89.104 242.944 86.548C242.944 84.028 242.32 83.092 241.42 83.092C240.52 83.092 239.884 84.028 239.884 86.548C239.884 89.104 240.52 90.064 241.42 90.064ZM248.528 91.168C246.848 91.168 245.48 89.752 245.48 86.752C245.48 83.368 247.064 82.012 248.816 82.012C249.8 82.012 250.52 82.42 251.024 82.96L250.268 83.8C249.944 83.416 249.404 83.14 248.888 83.14C247.712 83.14 246.764 84.052 246.764 86.752C246.764 89.032 247.436 90.1 248.516 90.1C249.284 90.1 249.884 89.404 249.884 88.264C249.884 87.124 249.368 86.488 248.432 86.488C247.904 86.488 247.268 86.8 246.74 87.604L246.68 86.596C247.196 85.9 248.012 85.492 248.672 85.492C250.16 85.492 251.168 86.392 251.168 88.264C251.168 90.016 249.956 91.168 248.528 91.168ZM253.476 91.168C252.948 91.168 252.552 90.76 252.552 90.196C252.552 89.62 252.948 89.224 253.476 89.224C253.992 89.224 254.4 89.62 254.4 90.196C254.4 90.76 253.992 91.168 253.476 91.168ZM255.778 91V90.196C258.394 87.892 259.726 86.176 259.726 84.724C259.726 83.776 259.222 83.116 258.238 83.116C257.542 83.116 256.966 83.548 256.498 84.088L255.706 83.332C256.474 82.504 257.254 82.012 258.406 82.012C260.026 82.012 261.07 83.056 261.07 84.664C261.07 86.356 259.702 88.12 257.83 89.92C258.286 89.872 258.85 89.824 259.282 89.824H261.49V91H255.778ZM264.409 91C264.565 87.784 265.129 85.72 266.845 83.344H262.693V82.168H268.369V83.008C266.305 85.6 265.981 87.556 265.825 91H264.409Z" fill="#7A7A7A"/>
<path d="M125.556 53.612H129.48V54.668H125.556V53.612ZM125.544 59.096H129.684V60.164H125.544V59.096ZM125.484 56.348H129.216V57.38H125.484V56.348ZM119.028 53.6H122.7V54.668H119.028V53.6ZM119.196 56.336H122.652V57.368H119.196V56.336ZM124.968 51.932H126.096V63.008H124.968V51.932ZM118.656 59.288C119.7 59.144 121.26 58.916 122.784 58.688L122.832 59.696C121.452 59.948 120 60.212 118.884 60.416L118.656 59.288ZM122.172 51.932H123.3V57.548C123.3 59.36 122.784 61.796 119.868 63.164C119.688 62.888 119.34 62.528 119.064 62.312C121.692 61.244 122.172 58.856 122.172 57.56V51.932ZM135.096 55.184H136.164C135.948 57.164 135.6 59.732 135.348 61.232H134.244C134.556 59.684 134.916 57.104 135.096 55.184ZM136.872 56.468L137.484 56.072C137.94 56.432 138.492 56.96 138.756 57.32L138.12 57.764C137.88 57.392 137.34 56.852 136.872 56.468ZM136.56 58.988L137.196 58.58C137.688 58.964 138.3 59.54 138.588 59.924L137.928 60.392C137.652 59.996 137.052 59.396 136.56 58.988ZM135.24 53.168H141.444V54.2H135.24V53.168ZM135.564 55.184H140.22V56.168H135.564V55.184ZM133.584 57.62H141.756V58.652H133.584V57.62ZM134.82 60.26H141.432V61.232H134.82V60.26ZM135.384 51.86L136.488 52.148C135.984 53.648 135.192 55.172 134.388 56.144C134.16 55.964 133.68 55.664 133.404 55.52C134.232 54.632 134.964 53.24 135.384 51.86ZM139.896 55.184H140.952C140.952 55.184 140.94 55.544 140.928 55.7C140.748 60.296 140.556 61.892 140.148 62.408C139.896 62.744 139.62 62.84 139.236 62.888C138.888 62.936 138.3 62.924 137.724 62.888C137.7 62.612 137.592 62.204 137.424 61.94C138.012 61.988 138.528 62 138.768 62C138.972 62 139.092 61.964 139.212 61.82C139.536 61.448 139.74 59.816 139.896 55.412V55.184ZM131.268 52.82L131.904 52.052C132.612 52.364 133.548 52.892 134.016 53.276L133.356 54.14C132.9 53.744 131.988 53.18 131.268 52.82ZM130.608 56.276L131.232 55.508C131.916 55.82 132.792 56.324 133.224 56.708L132.576 57.572C132.168 57.176 131.292 56.624 130.608 56.276ZM130.956 62.192C131.448 61.256 132.12 59.696 132.624 58.304L133.488 58.928C133.044 60.2 132.468 61.664 131.952 62.816L130.956 62.192ZM144.792 53.672H147.72V54.752H144.792V53.672ZM149.364 51.884H150.552V63.008H149.364V51.884ZM143.688 56.42L144.444 55.712C145.284 56.444 146.412 57.488 146.94 58.172L146.124 58.976C145.62 58.292 144.54 57.188 143.688 56.42ZM144.756 51.86L145.896 52.076C145.404 54.368 144.576 56.516 143.484 57.896C143.28 57.704 142.788 57.344 142.524 57.176C143.604 55.952 144.348 53.96 144.756 51.86ZM147.324 53.672H147.552L147.768 53.636L148.572 53.864C147.972 58.676 146.16 61.568 143.544 62.984C143.352 62.708 142.884 62.228 142.584 62.036C145.164 60.764 146.832 58.232 147.324 53.96V53.672ZM150.084 56.168L150.972 55.508C151.908 56.312 153.192 57.476 153.804 58.232L152.856 59.012C152.28 58.244 151.044 57.032 150.084 56.168ZM154.812 52.424H158.676V53.42H154.812V52.424ZM154.536 56.252H159.108V57.272H154.536V56.252ZM156.432 56.78H157.524V61.748C157.524 62.312 157.428 62.624 157.032 62.792C156.648 62.972 156.084 62.984 155.268 62.984C155.22 62.672 155.064 62.216 154.92 61.904C155.484 61.916 156.048 61.916 156.216 61.916C156.384 61.904 156.432 61.868 156.432 61.724V56.78ZM158.328 52.424H158.58L158.784 52.364L159.492 52.856C158.904 53.792 158.052 54.848 157.284 55.508C157.128 55.304 156.828 54.992 156.636 54.836C157.272 54.272 157.992 53.3 158.328 52.64V52.424ZM158.784 56.252H158.94L159.096 56.216L159.804 56.396C159.516 57.356 159.156 58.436 158.856 59.12L158.004 58.916C158.268 58.292 158.58 57.248 158.784 56.408V56.252ZM155.088 54.74L155.676 53.996C156.672 54.488 157.908 55.268 158.508 55.856L157.872 56.696C157.308 56.084 156.096 55.256 155.088 54.74ZM159.504 52.4H165.624V53.36H159.504V52.4ZM160.992 57.008V58.004H164.148V57.008H160.992ZM160.992 58.808V59.816H164.148V58.808H160.992ZM160.992 55.208V56.204H164.148V55.208H160.992ZM159.948 54.356H165.24V60.668H159.948V54.356ZM161.988 52.892L163.272 53.048C163.068 53.768 162.828 54.524 162.636 55.04L161.64 54.848C161.772 54.296 161.928 53.468 161.988 52.892ZM161.136 60.8L162.096 61.4C161.436 62.036 160.296 62.696 159.348 63.056C159.18 62.84 158.832 62.492 158.592 62.3C159.54 61.964 160.62 61.328 161.136 60.8ZM162.948 61.448L163.788 60.872C164.496 61.304 165.42 61.952 165.9 62.408L165 63.044C164.568 62.6 163.656 61.916 162.948 61.448ZM171.084 52.868H177.432V53.696H171.084V52.868ZM170.844 55.748H177.672V56.576H170.844V55.748ZM170.796 60.212H177.708V61.052H170.796V60.212ZM171.384 54.296H177.24V55.088H171.384V54.296ZM172.476 51.884H173.472V56.096H172.476V51.884ZM175.02 51.884H176.028V56.096H175.02V51.884ZM173.736 56.12H174.732V60.464H173.736V56.12ZM176.016 57.164H177.06V61.916C177.06 62.432 176.952 62.696 176.604 62.852C176.232 63.008 175.68 63.008 174.852 63.008C174.804 62.744 174.672 62.348 174.54 62.096C175.104 62.108 175.656 62.108 175.812 62.108C175.968 62.096 176.016 62.06 176.016 61.916V57.164ZM171.504 57.164H176.46V57.992H172.524V63.032H171.504V57.164ZM172.02 58.712H176.448V59.456H172.02V58.712ZM167.688 60.164L168.696 60.392C168.396 61.388 167.868 62.384 167.316 63.032C167.124 62.876 166.704 62.588 166.464 62.456C167.004 61.88 167.46 61.016 167.688 60.164ZM169.152 60.512L170.004 60.14C170.4 60.74 170.832 61.532 171.024 62.048L170.136 62.468C169.956 61.952 169.536 61.124 169.152 60.512ZM168.084 55.46V56.828H169.62V55.46H168.084ZM168.084 57.68V59.06H169.62V57.68H168.084ZM168.084 53.252V54.596H169.62V53.252H168.084ZM167.1 52.328H170.616V59.984H167.1V52.328ZM179.484 55.688H188.388V56.624H180.564V62.984H179.484V55.688ZM187.812 55.688H188.856V61.868C188.856 62.408 188.724 62.66 188.328 62.804C187.944 62.936 187.308 62.948 186.312 62.948C186.264 62.696 186.12 62.336 185.988 62.096C186.66 62.12 187.356 62.108 187.536 62.096C187.74 62.096 187.812 62.036 187.812 61.868V55.688ZM182.448 58.664H186.384V61.496H182.448V60.692H185.448V59.48H182.448V58.664ZM181.848 58.664H182.808V62.036H181.848V58.664ZM178.848 53.108H189.468V54.08H178.848V53.108ZM181.38 54.344L182.352 54.032C182.604 54.452 182.928 55.016 183.084 55.364L182.076 55.748C181.932 55.388 181.632 54.788 181.38 54.344ZM185.892 54.092L187.032 54.344C186.648 54.98 186.216 55.688 185.868 56.132L184.992 55.892C185.304 55.4 185.7 54.632 185.892 54.092ZM183.372 52.076L184.452 51.8C184.656 52.292 184.884 52.928 185.004 53.336L183.876 53.66C183.78 53.24 183.564 52.568 183.372 52.076ZM182.52 56.18H183.516C183.396 57.632 182.928 58.412 181.068 58.82C180.996 58.592 180.744 58.22 180.552 58.04C182.1 57.764 182.436 57.26 182.52 56.18ZM184.608 56.192H185.616V57.188C185.616 57.452 185.64 57.548 185.844 57.548C186 57.548 186.552 57.548 186.72 57.548C186.9 57.548 187.224 57.536 187.392 57.488C187.416 57.752 187.428 58.028 187.464 58.268C187.308 58.328 186.996 58.34 186.744 58.34C186.516 58.34 185.808 58.34 185.604 58.34C184.764 58.34 184.608 57.968 184.608 57.176V56.192ZM193.884 53.456V55.448H198.432V53.456H193.884ZM192.78 52.376H199.584V56.528H192.78V52.376ZM191.076 57.692H195.492V62.924H194.352V58.772H192.156V63.008H191.076V57.692ZM196.668 57.692H201.288V62.948H200.148V58.772H197.76V63.008H196.668V57.692ZM191.556 61.292H194.82V62.384H191.556V61.292ZM197.208 61.292H200.688V62.384H197.208V61.292ZM205.868 52.364H208.748V53.384H206.864V62.984H205.868V52.364ZM208.544 52.364H208.736L208.904 52.316L209.648 52.748C209.312 53.744 208.892 54.932 208.52 55.88C209.324 56.864 209.504 57.716 209.504 58.448C209.504 59.156 209.36 59.672 209 59.936C208.832 60.068 208.604 60.14 208.352 60.176C208.124 60.212 207.824 60.212 207.548 60.2C207.548 59.924 207.452 59.492 207.284 59.216C207.536 59.228 207.74 59.24 207.92 59.228C208.04 59.216 208.172 59.192 208.268 59.12C208.424 59 208.496 58.7 208.496 58.34C208.496 57.716 208.316 56.9 207.524 56C207.92 54.92 208.328 53.456 208.544 52.676V52.364ZM210.692 52.388H215.504V57.776H210.692V56.78H214.4V53.372H210.692V52.388ZM210.764 54.596H215.012V55.532H210.764V54.596ZM213.056 57.188C213.548 59.384 214.64 61.184 216.476 61.964C216.224 62.192 215.876 62.636 215.708 62.948C213.764 61.952 212.684 59.948 212.12 57.368L213.056 57.188ZM215.468 58.04L216.212 58.844C215.528 59.396 214.64 59.996 213.98 60.368L213.38 59.66C214.016 59.264 214.94 58.568 215.468 58.04ZM210.14 63.032L210.044 62.036L210.548 61.652L213.176 61.04C213.176 61.364 213.188 61.82 213.224 62.072C210.8 62.708 210.392 62.864 210.14 63.032ZM210.14 63.032C210.056 62.78 209.816 62.324 209.648 62.12C209.852 61.988 210.14 61.712 210.14 61.184V52.388H211.244V61.964C211.244 61.964 210.14 62.624 210.14 63.032ZM220.04 54.02V54.572H225.584V54.02H220.04ZM220.04 52.88V53.42H225.584V52.88H220.04ZM218.948 52.256H226.724V55.196H218.948V52.256ZM219.8 58.76V59.336H225.932V58.76H219.8ZM219.8 57.584V58.148H225.932V57.584H219.8ZM218.732 56.936H227.048V59.984H218.732V56.936ZM222.272 57.164H223.376V62.324H222.272V57.164ZM217.436 55.64H228.272V56.48H217.436V55.64ZM218.432 60.524H227.3V61.28H218.432V60.524ZM217.388 61.868H228.32V62.72H217.388V61.868ZM235.364 58.352H236.54V61.328C236.54 61.712 236.624 61.76 237.14 61.76C237.368 61.76 238.436 61.76 238.736 61.76C239.204 61.76 239.288 61.544 239.336 60.152C239.588 60.332 240.056 60.512 240.38 60.584C240.248 62.324 239.936 62.78 238.832 62.78C238.556 62.78 237.248 62.78 236.984 62.78C235.7 62.78 235.364 62.444 235.364 61.34V58.352ZM232.676 51.836L233.912 52.076C233.036 53.576 231.788 55.148 230.036 56.408C229.868 56.144 229.496 55.76 229.232 55.58C230.852 54.488 232.04 53.036 232.676 51.836ZM231.74 55.904V57.764H238.22V55.904H231.74ZM230.6 54.896H239.42V58.784H230.6V54.896ZM235.976 52.736H236.228L236.42 52.688L237.2 53.192C236.744 53.996 235.988 54.992 235.364 55.616C235.148 55.448 234.764 55.208 234.512 55.064C235.064 54.5 235.7 53.564 235.976 52.952V52.736ZM232.64 52.736H236.312V53.672H232.064L232.64 52.736ZM234.332 55.568H235.532C235.268 58.868 234.692 61.64 230.036 62.912C229.916 62.624 229.64 62.192 229.388 61.952C233.78 60.86 234.116 58.448 234.332 55.568ZM247.76 53.552H248.864V61.388H247.76V53.552ZM246.236 57.572V58.244H250.448V57.572H246.236ZM246.236 56.228V56.888H250.448V56.228H246.236ZM245.3 55.496H251.42V58.976H245.3V55.496ZM244.64 52.28H251.936V54.512H250.844V53.132H245.684V54.512H244.64V52.28ZM245.588 54.08H251.06V54.896H245.588V54.08ZM244.736 59.624H252.08V60.488H244.736V59.624ZM241.748 52.376L242.612 51.872C243.14 52.46 243.764 53.228 244.076 53.72L243.176 54.32C242.888 53.816 242.252 52.976 241.748 52.376ZM241.376 54.68H243.896V55.604H241.376V54.68ZM243.644 60.032C244.34 61.628 245.84 61.832 248.144 61.844C249.416 61.844 251.276 61.784 252.56 61.664C252.392 61.892 252.26 62.408 252.2 62.72C251.012 62.792 249.488 62.816 248.132 62.816C245.324 62.816 243.788 62.48 242.888 60.356L243.644 60.032ZM243.44 57.62H243.776L243.956 57.596L244.448 57.788C244.088 60.368 243.164 62.108 241.904 63.044C241.76 62.816 241.376 62.432 241.16 62.276C242.348 61.46 243.152 59.936 243.44 57.8V57.62ZM241.58 58.688V57.86L242.048 57.62H243.884V58.52H242.3C242 58.52 241.676 58.592 241.58 58.688ZM241.58 58.688C241.508 58.448 241.292 57.944 241.184 57.728C241.376 57.68 241.568 57.596 241.784 57.356C242.132 57.008 243.224 55.412 243.62 54.764V54.728L243.932 54.596L244.64 54.92C244.088 55.748 243.044 57.26 242.384 58.04C242.384 58.04 241.58 58.424 241.58 58.688Z" fill="#003060"/>
<g filter="url(#filter2_d_579_668)">
<path d="M0 19C0 17.3431 1.34315 16 3 16H33C34.6569 16 36 17.3431 36 19V31C36 32.6569 34.6569 34 33 34H0V19Z" fill="#FFCD78"/>
</g>
<path d="M0 34H5V39L2.5 36.5L0 34Z" fill="#FFCD78"/>
<path d="M8.85 20.97H11.25V21.82H9.68V29.82H8.85V20.97ZM11.08 20.97H11.24L11.38 20.93L12 21.29C11.72 22.12 11.37 23.11 11.06 23.9C11.73 24.72 11.88 25.43 11.88 26.04C11.88 26.63 11.76 27.06 11.46 27.28C11.32 27.39 11.13 27.45 10.92 27.48C10.73 27.51 10.48 27.51 10.25 27.5C10.25 27.27 10.17 26.91 10.03 26.68C10.24 26.69 10.41 26.7 10.56 26.69C10.66 26.68 10.77 26.66 10.85 26.6C10.98 26.5 11.04 26.25 11.04 25.95C11.04 25.43 10.89 24.75 10.23 24C10.56 23.1 10.9 21.88 11.08 21.23V20.97ZM12.87 20.99H16.88V25.48H12.87V24.65H15.96V21.81H12.87V20.99ZM12.93 22.83H16.47V23.61H12.93V22.83ZM14.84 24.99C15.25 26.82 16.16 28.32 17.69 28.97C17.48 29.16 17.19 29.53 17.05 29.79C15.43 28.96 14.53 27.29 14.06 25.14L14.84 24.99ZM16.85 25.7L17.47 26.37C16.9 26.83 16.16 27.33 15.61 27.64L15.11 27.05C15.64 26.72 16.41 26.14 16.85 25.7ZM12.41 29.86L12.33 29.03L12.75 28.71L14.94 28.2C14.94 28.47 14.95 28.85 14.98 29.06C12.96 29.59 12.62 29.72 12.41 29.86ZM12.41 29.86C12.34 29.65 12.14 29.27 12 29.1C12.17 28.99 12.41 28.76 12.41 28.32V20.99H13.33V28.97C13.33 28.97 12.41 29.52 12.41 29.86ZM20.66 22.35V22.81H25.28V22.35H20.66ZM20.66 21.4V21.85H25.28V21.4H20.66ZM19.75 20.88H26.23V23.33H19.75V20.88ZM20.46 26.3V26.78H25.57V26.3H20.46ZM20.46 25.32V25.79H25.57V25.32H20.46ZM19.57 24.78H26.5V27.32H19.57V24.78ZM22.52 24.97H23.44V29.27H22.52V24.97ZM18.49 23.7H27.52V24.4H18.49V23.7ZM19.32 27.77H26.71V28.4H19.32V27.77ZM18.45 28.89H27.56V29.6H18.45V28.89Z" fill="white"/>
<path d="M121.85 20.97H124.25V21.82H122.68V29.82H121.85V20.97ZM124.08 20.97H124.24L124.38 20.93L125 21.29C124.72 22.12 124.37 23.11 124.06 23.9C124.73 24.72 124.88 25.43 124.88 26.04C124.88 26.63 124.76 27.06 124.46 27.28C124.32 27.39 124.13 27.45 123.92 27.48C123.73 27.51 123.48 27.51 123.25 27.5C123.25 27.27 123.17 26.91 123.03 26.68C123.24 26.69 123.41 26.7 123.56 26.69C123.66 26.68 123.77 26.66 123.85 26.6C123.98 26.5 124.04 26.25 124.04 25.95C124.04 25.43 123.89 24.75 123.23 24C123.56 23.1 123.9 21.88 124.08 21.23V20.97ZM125.87 20.99H129.88V25.48H125.87V24.65H128.96V21.81H125.87V20.99ZM125.93 22.83H129.47V23.61H125.93V22.83ZM127.84 24.99C128.25 26.82 129.16 28.32 130.69 28.97C130.48 29.16 130.19 29.53 130.05 29.79C128.43 28.96 127.53 27.29 127.06 25.14L127.84 24.99ZM129.85 25.7L130.47 26.37C129.9 26.83 129.16 27.33 128.61 27.64L128.11 27.05C128.64 26.72 129.41 26.14 129.85 25.7ZM125.41 29.86L125.33 29.03L125.75 28.71L127.94 28.2C127.94 28.47 127.95 28.85 127.98 29.06C125.96 29.59 125.62 29.72 125.41 29.86ZM125.41 29.86C125.34 29.65 125.14 29.27 125 29.1C125.17 28.99 125.41 28.76 125.41 28.32V20.99H126.33V28.97C126.33 28.97 125.41 29.52 125.41 29.86ZM133.66 22.35V22.81H138.28V22.35H133.66ZM133.66 21.4V21.85H138.28V21.4H133.66ZM132.75 20.88H139.23V23.33H132.75V20.88ZM133.46 26.3V26.78H138.57V26.3H133.46ZM133.46 25.32V25.79H138.57V25.32H133.46ZM132.57 24.78H139.5V27.32H132.57V24.78ZM135.52 24.97H136.44V29.27H135.52V24.97ZM131.49 23.7H140.52V24.4H131.49V23.7ZM132.32 27.77H139.71V28.4H132.32V27.77ZM131.45 28.89H140.56V29.6H131.45V28.89Z" fill="white"/>
<path d="M129 96C134.523 96 139 91.5228 139 86C139 80.4772 134.523 76 129 76C123.477 76 119 80.4772 119 86C119 91.5228 123.477 96 129 96Z" stroke="#7A7A7A" stroke-width="2" stroke-linecap="round" stroke-linejoin="round"/>
<path d="M129 80V86L133 88" stroke="#7A7A7A" stroke-width="2" stroke-linecap="round" stroke-linejoin="round"/>
<rect x="118" y="16" width="49" height="18" rx="2" fill="#003060"/>
<path d="M126.47 23.82H127.45V29.84H126.47V23.82ZM124.46 25.55V26.27H129.59V25.55H124.46ZM124.46 24.13V24.85H129.59V24.13H124.46ZM123.53 23.39H130.56V27.01H123.53V23.39ZM122.55 27.67H131.46V28.5H122.55V27.67ZM124.07 21.55V22.34H125.77V21.55H124.07ZM123.23 20.95H126.66V22.93H123.23V20.95ZM128.22 21.55V22.34H129.94V21.55H128.22ZM127.37 20.95H130.83V22.93H127.37V20.95ZM132.47 24.52H141.54V25.22H132.47V24.52ZM133.28 26.93H140.72V27.64H133.28V26.93ZM132.65 28.15H141.37V28.88H132.65V28.15ZM133.67 23.35H140.48V26.44H133.58V25.76H139.52V24.03H133.67V23.35ZM136.48 22.84H137.45V29.84H136.48V22.84ZM133.75 21.13H136.91V21.86H133.75V21.13ZM137.83 21.13H141.59V21.86H137.83V21.13ZM133.89 20.48L134.72 20.73C134.32 21.57 133.65 22.41 133.01 22.95C132.88 22.78 132.56 22.46 132.37 22.3C132.98 21.85 133.56 21.17 133.89 20.48ZM137.94 20.48L138.81 20.71C138.47 21.52 137.88 22.32 137.3 22.82C137.14 22.67 136.79 22.39 136.59 22.25C137.16 21.82 137.66 21.16 137.94 20.48ZM134.43 22.22L135.04 21.77C135.35 22.05 135.74 22.45 135.92 22.71L135.28 23.22C135.11 22.95 134.73 22.52 134.43 22.22ZM138.79 22.19L139.45 21.76C139.76 22.03 140.15 22.43 140.34 22.69L139.66 23.19C139.49 22.91 139.11 22.49 138.79 22.19ZM142.87 23.6H146.01V24.33H142.87V23.6ZM142.87 24.93H146V25.66H142.87V24.93ZM142.43 22.24H146.31V23.01H142.43V22.24ZM143.3 26.29H145.97V29.26H143.3V28.49H145.15V27.06H143.3V26.29ZM142.87 26.29H143.69V29.71H142.87V26.29ZM143.53 20.88L144.27 20.52C144.56 20.93 144.87 21.47 145.03 21.83L144.26 22.26C144.12 21.89 143.8 21.3 143.53 20.88ZM146.51 21.37H151.64V22.29H146.51V21.37ZM149.25 21.66H150.21V28.53C150.21 29.12 150.07 29.41 149.67 29.57C149.26 29.73 148.6 29.74 147.63 29.74C147.58 29.47 147.41 29.02 147.25 28.76C147.98 28.8 148.75 28.79 148.97 28.78C149.17 28.77 149.25 28.71 149.25 28.52V21.66ZM156.47 23.82H157.45V29.84H156.47V23.82ZM154.46 25.55V26.27H159.59V25.55H154.46ZM154.46 24.13V24.85H159.59V24.13H154.46ZM153.53 23.39H160.56V27.01H153.53V23.39ZM152.55 27.67H161.46V28.5H152.55V27.67ZM154.07 21.55V22.34H155.77V21.55H154.07ZM153.23 20.95H156.66V22.93H153.23V20.95ZM158.22 21.55V22.34H159.94V21.55H158.22ZM157.37 20.95H160.83V22.93H157.37V20.95Z" fill="white"/>
<path d="M178.614 20.6H188.724V21.86H178.614V20.6ZM180.609 26.975H181.794V27.875H180.609V26.975ZM182.919 23.87H184.179V33.125H182.919V23.87ZM187.074 25.07H188.349V31.97C188.349 32.57 188.229 32.87 187.824 33.05C187.434 33.23 186.819 33.23 185.919 33.23C185.874 32.915 185.724 32.48 185.589 32.18C186.144 32.195 186.699 32.195 186.864 32.18C187.029 32.18 187.074 32.135 187.074 31.97V25.07ZM178.899 25.07H187.704V26.27H180.114V33.245H178.899V25.07ZM175.464 20.51L176.274 19.49C177.114 19.865 178.149 20.48 178.674 20.96L177.819 22.1C177.339 21.605 176.304 20.93 175.464 20.51ZM174.849 24.545L175.629 23.495C176.499 23.84 177.564 24.395 178.089 24.86L177.264 26.015C176.754 25.55 175.704 24.92 174.849 24.545ZM175.134 32.345C175.734 31.19 176.559 29.255 177.159 27.545L178.299 28.28C177.759 29.87 177.054 31.67 176.409 33.095L175.134 32.345ZM180.774 19.325H182.124V22.94H185.064V19.325H186.459V24.155H180.774V19.325ZM181.164 26.975H182.064C182.124 28.67 182.454 30.02 183.114 30.665C182.934 30.77 182.619 31.055 182.484 31.265C181.794 30.5 181.434 29.12 181.359 27.41H181.164V26.975ZM181.149 28.37H181.959C181.824 29.54 181.464 30.68 180.639 31.4C180.519 31.22 180.249 30.935 180.069 30.815C180.744 30.245 181.059 29.27 181.149 28.37ZM184.644 26.975H185.784V27.875H184.644V26.975ZM185.184 26.975H186.099C186.159 28.67 186.534 30.005 187.239 30.62C187.044 30.755 186.729 31.025 186.579 31.235C185.859 30.47 185.454 29.12 185.379 27.41H185.184V26.975ZM185.184 28.355H186.009C185.874 29.495 185.514 30.575 184.659 31.265C184.539 31.085 184.284 30.8 184.074 30.68C184.779 30.155 185.094 29.225 185.184 28.355ZM196.998 32.21C194.823 32.21 193.428 30.275 193.428 26.435C193.428 22.625 194.823 20.765 196.998 20.765C199.158 20.765 200.568 22.625 200.568 26.435C200.568 30.275 199.158 32.21 196.998 32.21ZM196.998 30.83C198.123 30.83 198.903 29.63 198.903 26.435C198.903 23.285 198.123 22.115 196.998 22.115C195.873 22.115 195.078 23.285 195.078 26.435C195.078 29.63 195.873 30.83 196.998 30.83ZM212.791 27.44H214.261V31.16C214.261 31.64 214.366 31.7 215.011 31.7C215.296 31.7 216.631 31.7 217.006 31.7C217.591 31.7 217.696 31.43 217.756 29.69C218.071 29.915 218.656 30.14 219.061 30.23C218.896 32.405 218.506 32.975 217.126 32.975C216.781 32.975 215.146 32.975 214.816 32.975C213.211 32.975 212.791 32.555 212.791 31.175V27.44ZM209.431 19.295L210.976 19.595C209.881 21.47 208.321 23.435 206.131 25.01C205.921 24.68 205.456 24.2 205.126 23.975C207.151 22.61 208.636 20.795 209.431 19.295ZM208.261 24.38V26.705H216.361V24.38H208.261ZM206.836 23.12H217.861V27.98H206.836V23.12ZM213.556 20.42H213.871L214.111 20.36L215.086 20.99C214.516 21.995 213.571 23.24 212.791 24.02C212.521 23.81 212.041 23.51 211.726 23.33C212.416 22.625 213.211 21.455 213.556 20.69V20.42ZM209.386 20.42H213.976V21.59H208.666L209.386 20.42ZM211.501 23.96H213.001C212.671 28.085 211.951 31.55 206.131 33.14C205.981 32.78 205.636 32.24 205.321 31.94C210.811 30.575 211.231 27.56 211.501 23.96ZM228.286 21.44H229.666V31.235H228.286V21.44ZM226.381 26.465V27.305H231.646V26.465H226.381ZM226.381 24.785V25.61H231.646V24.785H226.381ZM225.211 23.87H232.861V28.22H225.211V23.87ZM224.386 19.85H233.506V22.64H232.141V20.915H225.691V22.64H224.386V19.85ZM225.571 22.1H232.411V23.12H225.571V22.1ZM224.506 29.03H233.686V30.11H224.506V29.03ZM220.771 19.97L221.851 19.34C222.511 20.075 223.291 21.035 223.681 21.65L222.556 22.4C222.196 21.77 221.401 20.72 220.771 19.97ZM220.306 22.85H223.456V24.005H220.306V22.85ZM223.141 29.54C224.011 31.535 225.886 31.79 228.766 31.805C230.356 31.805 232.681 31.73 234.286 31.58C234.076 31.865 233.911 32.51 233.836 32.9C232.351 32.99 230.446 33.02 228.751 33.02C225.241 33.02 223.321 32.6 222.196 29.945L223.141 29.54ZM222.886 26.525H223.306L223.531 26.495L224.146 26.735C223.696 29.96 222.541 32.135 220.966 33.305C220.786 33.02 220.306 32.54 220.036 32.345C221.521 31.325 222.526 29.42 222.886 26.75V26.525ZM220.561 27.86V26.825L221.146 26.525H223.441V27.65H221.461C221.086 27.65 220.681 27.74 220.561 27.86ZM220.561 27.86C220.471 27.56 220.201 26.93 220.066 26.66C220.306 26.6 220.546 26.495 220.816 26.195C221.251 25.76 222.616 23.765 223.111 22.955V22.91L223.501 22.745L224.386 23.15C223.696 24.185 222.391 26.075 221.566 27.05C221.566 27.05 220.561 27.53 220.561 27.86Z" fill="#003060"/>
<path d="M61.6665 39H36.6665V60.6667H61.6665V39Z" stroke="white" stroke-width="2" stroke-linecap="round" stroke-linejoin="round"/>
<path d="M61.6665 47.3335H68.3332L73.3332 52.3335V60.6668H61.6665V47.3335Z" stroke="white" stroke-width="2" stroke-linecap="round" stroke-linejoin="round"/>
<path d="M44.1667 68.9998C46.4679 68.9998 48.3333 67.1344 48.3333 64.8332C48.3333 62.532 46.4679 60.6665 44.1667 60.6665C41.8655 60.6665 40 62.532 40 64.8332C40 67.1344 41.8655 68.9998 44.1667 68.9998Z" stroke="white" stroke-width="2" stroke-linecap="round" stroke-linejoin="round"/>
<path d="M65.8332 68.9998C68.1344 68.9998 69.9998 67.1344 69.9998 64.8332C69.9998 62.532 68.1344 60.6665 65.8332 60.6665C63.532 60.6665 61.6665 62.532 61.6665 64.8332C61.6665 67.1344 63.532 68.9998 65.8332 68.9998Z" stroke="white" stroke-width="2" stroke-linecap="round" stroke-linejoin="round"/>
<path d="M40.1329 55V47.64H44.5029V48.62H41.3029V50.86H44.0229V51.84H41.3029V55H40.1329ZM45.4235 55V49.5H46.3635L46.4635 50.49H46.4935C46.8835 49.78 47.4635 49.36 48.0535 49.36C48.3235 49.36 48.4935 49.4 48.6635 49.48L48.4635 50.48C48.2735 50.42 48.1335 50.39 47.9035 50.39C47.4635 50.39 46.9235 50.71 46.5835 51.58V55H45.4235ZM51.659 55.14C50.159 55.14 48.979 54.07 48.979 52.26C48.979 50.47 50.209 49.36 51.489 49.36C52.939 49.36 53.729 50.41 53.729 51.97C53.729 52.2 53.709 52.42 53.679 52.56H50.109C50.199 53.61 50.859 54.23 51.809 54.23C52.299 54.23 52.709 54.08 53.119 53.82L53.519 54.56C53.009 54.9 52.379 55.14 51.659 55.14ZM50.089 51.76H52.729C52.729 50.81 52.309 50.27 51.509 50.27C50.819 50.27 50.209 50.8 50.089 51.76ZM57.3231 55.14C55.8231 55.14 54.6431 54.07 54.6431 52.26C54.6431 50.47 55.8731 49.36 57.1531 49.36C58.6031 49.36 59.3931 50.41 59.3931 51.97C59.3931 52.2 59.3731 52.42 59.3431 52.56H55.7731C55.8631 53.61 56.5231 54.23 57.4731 54.23C57.9631 54.23 58.3731 54.08 58.7831 53.82L59.1831 54.56C58.6731 54.9 58.0431 55.14 57.3231 55.14ZM55.7531 51.76H58.3931C58.3931 50.81 57.9731 50.27 57.1731 50.27C56.4831 50.27 55.8731 50.8 55.7531 51.76Z" fill="white"/>
</g>
<defs>
<filter id="filter0_d_579_668" x="101" y="0" width="216" height="116" filterUnits="userSpaceOnUse" color-interpolation-filters="sRGB">
<feFlood flood-opacity="0" result="BackgroundImageFix"/>
<feColorMatrix in="SourceAlpha" type="matrix" values="0 0 0 0 0 0 0 0 0 0 0 0 0 0 0 0 0 0 127 0" result="hardAlpha"/>
<feMorphology radius="4" operator="dilate" in="SourceAlpha" result="effect1_dropShadow_579_668"/>
<feOffset dx="4" dy="4"/>
<feGaussianBlur stdDeviation="2"/>
<feComposite in2="hardAlpha" operator="out"/>
<feColorMatrix type="matrix" values="0 0 0 0 0 0 0 0 0 0 0 0 0 0 0 0 0 0 0.25 0"/>
<feBlend mode="normal" in2="BackgroundImageFix" result="effect1_dropShadow_579_668"/>
<feBlend mode="normal" in="SourceGraphic" in2="effect1_dropShadow_579_668" result="shape"/>
</filter>
<filter id="filter1_d_579_668" x="1" y="4" width="108" height="108" filterUnits="userSpaceOnUse" color-interpolation-filters="sRGB">
<feFlood flood-opacity="0" result="BackgroundImageFix"/>
<feColorMatrix in="SourceAlpha" type="matrix" values="0 0 0 0 0 0 0 0 0 0 0 0 0 0 0 0 0 0 127 0" result="hardAlpha"/>
<feOffset dy="4"/>
<feGaussianBlur stdDeviation="2"/>
<feComposite in2="hardAlpha" operator="out"/>
<feColorMatrix type="matrix" values="0 0 0 0 0 0 0 0 0 0 0 0 0 0 0 0 0 0 0.25 0"/>
<feBlend mode="normal" in2="BackgroundImageFix" result="effect1_dropShadow_579_668"/>
<feBlend mode="normal" in="SourceGraphic" in2="effect1_dropShadow_579_668" result="shape"/>
</filter>
<filter id="filter2_d_579_668" x="-4" y="16" width="44" height="26" filterUnits="userSpaceOnUse" color-interpolation-filters="sRGB">
<feFlood flood-opacity="0" result="BackgroundImageFix"/>
<feColorMatrix in="SourceAlpha" type="matrix" values="0 0 0 0 0 0 0 0 0 0 0 0 0 0 0 0 0 0 127 0" result="hardAlpha"/>
<feOffset dy="4"/>
<feGaussianBlur stdDeviation="2"/>
<feComposite in2="hardAlpha" operator="out"/>
<feColorMatrix type="matrix" values="0 0 0 0 0 0 0 0 0 0 0 0 0 0 0 0 0 0 0.25 0"/>
<feBlend mode="normal" in2="BackgroundImageFix" result="effect1_dropShadow_579_668"/>
<feBlend mode="normal" in="SourceGraphic" in2="effect1_dropShadow_579_668" result="shape"/>
</filter>
<clipPath id="clip0_579_668">
<rect width="308" height="109" fill="white"/>
</clipPath>
</defs>
</svg>
