<svg width="308" height="109" viewBox="0 0 308 109" fill="none" xmlns="http://www.w3.org/2000/svg">
<g clip-path="url(#clip0_579_542)">
<rect width="308" height="109" fill="white"/>
<g filter="url(#filter0_d_579_542)">
<path d="M105 4H303C304.105 4 305 4.89543 305 6V102C305 103.105 304.105 104 303 104H105V4Z" fill="white"/>
</g>
<g filter="url(#filter1_d_579_542)">
<path d="M5 6C5 4.89543 5.89543 4 7 4H103C104.105 4 105 4.89543 105 6V102C105 103.105 104.105 104 103 104H7C5.89543 104 5 103.105 5 102V6Z" fill="#7A7A7A"/>
</g>
<ellipse cx="5.72766" cy="94.2594" rx="4" ry="3.33807" transform="rotate(-15 5.72766 94.2594)" fill="white"/>
<ellipse cx="5.72766" cy="81.2594" rx="4" ry="3.33807" transform="rotate(-15 5.72766 81.2594)" fill="white"/>
<ellipse cx="5.72766" cy="68.2594" rx="4" ry="3.33807" transform="rotate(-15 5.72766 68.2594)" fill="white"/>
<ellipse cx="5.72766" cy="55.2594" rx="4" ry="3.33807" transform="rotate(-15 5.72766 55.2594)" fill="white"/>
<ellipse cx="5.72766" cy="42.2594" rx="4" ry="3.33807" transform="rotate(-15 5.72766 42.2594)" fill="white"/>
<ellipse cx="5.72766" cy="29.2594" rx="4" ry="3.33807" transform="rotate(-15 5.72766 29.2594)" fill="white"/>
<ellipse cx="5.72766" cy="10.2594" rx="4" ry="3.33807" transform="rotate(-15 5.72766 10.2594)" fill="white"/>
<line x1="103.5" y1="4" x2="103.5" y2="104" stroke="white" stroke-width="3" stroke-dasharray="2 2"/>
<path d="M25.7648 91.168C24.8408 91.168 23.7728 90.736 23.1008 90.112L23.7368 89.164C24.3488 89.668 24.9968 90.028 25.7648 90.028C26.6888 90.028 27.1448 89.56 27.1448 88.792C27.1448 86.848 23.4488 87.184 23.4488 84.616C23.4488 83.188 24.4568 82.252 25.9688 82.252C27.0728 82.252 27.7568 82.696 28.3328 83.308L27.6128 84.124C27.1208 83.644 26.7128 83.392 26.0288 83.392C25.2488 83.392 24.7808 83.824 24.7808 84.544C24.7808 86.296 28.4888 85.888 28.4888 88.684C28.4888 90.16 27.4688 91.168 25.7648 91.168ZM25.4288 92.488V90.64H26.4008V92.488H25.4288ZM25.4288 82.72V80.92H26.4008V82.72H25.4288ZM31.6126 91C31.7686 87.784 32.3326 85.72 34.0486 83.344H29.8966V82.168H35.5726V83.008C33.5086 85.6 33.1846 87.556 33.0286 91H31.6126ZM39.0683 91.168C38.0483 91.168 37.3163 90.748 36.8123 90.22L37.5563 89.368C37.9163 89.764 38.4563 90.028 39.0083 90.028C40.1243 90.028 41.0723 89.092 41.0723 86.284C41.0723 84.076 40.3883 83.068 39.3083 83.068C38.5403 83.068 37.9403 83.752 37.9403 84.916C37.9403 86.032 38.4563 86.68 39.3803 86.68C39.9323 86.68 40.5563 86.368 41.0723 85.564L41.1443 86.572C40.6283 87.256 39.8363 87.688 39.1283 87.688C37.6523 87.688 36.6563 86.764 36.6563 84.916C36.6563 83.152 37.8563 82.012 39.2963 82.012C40.9883 82.012 42.3563 83.368 42.3563 86.284C42.3563 89.764 40.7723 91.168 39.0683 91.168ZM45.9121 91.168C44.8921 91.168 44.1601 90.748 43.6561 90.22L44.4001 89.368C44.7601 89.764 45.3001 90.028 45.8521 90.028C46.9681 90.028 47.9161 89.092 47.9161 86.284C47.9161 84.076 47.2321 83.068 46.1521 83.068C45.3841 83.068 44.7841 83.752 44.7841 84.916C44.7841 86.032 45.3001 86.68 46.2241 86.68C46.7761 86.68 47.4001 86.368 47.9161 85.564L47.9881 86.572C47.4721 87.256 46.6801 87.688 45.9721 87.688C44.4961 87.688 43.5001 86.764 43.5001 84.916C43.5001 83.152 44.7001 82.012 46.1401 82.012C47.8321 82.012 49.2001 83.368 49.2001 86.284C49.2001 89.764 47.6161 91.168 45.9121 91.168ZM59.0512 87.352H60.2272V90.328C60.2272 90.712 60.3112 90.76 60.8272 90.76C61.0552 90.76 62.1232 90.76 62.4232 90.76C62.8912 90.76 62.9752 90.544 63.0232 89.152C63.2752 89.332 63.7432 89.512 64.0672 89.584C63.9352 91.324 63.6232 91.78 62.5192 91.78C62.2432 91.78 60.9352 91.78 60.6712 91.78C59.3872 91.78 59.0512 91.444 59.0512 90.34V87.352ZM56.3632 80.836L57.5992 81.076C56.7232 82.576 55.4752 84.148 53.7232 85.408C53.5552 85.144 53.1832 84.76 52.9192 84.58C54.5392 83.488 55.7272 82.036 56.3632 80.836ZM55.4272 84.904V86.764H61.9072V84.904H55.4272ZM54.2872 83.896H63.1072V87.784H54.2872V83.896ZM59.6632 81.736H59.9152L60.1072 81.688L60.8872 82.192C60.4312 82.996 59.6752 83.992 59.0512 84.616C58.8352 84.448 58.4512 84.208 58.1992 84.064C58.7512 83.5 59.3872 82.564 59.6632 81.952V81.736ZM56.3272 81.736H59.9992V82.672H55.7512L56.3272 81.736ZM58.0192 84.568H59.2192C58.9552 87.868 58.3792 90.64 53.7232 91.912C53.6032 91.624 53.3272 91.192 53.0752 90.952C57.4672 89.86 57.8032 87.448 58.0192 84.568ZM71.4472 82.552H72.5512V90.388H71.4472V82.552ZM69.9232 86.572V87.244H74.1352V86.572H69.9232ZM69.9232 85.228V85.888H74.1352V85.228H69.9232ZM68.9872 84.496H75.1072V87.976H68.9872V84.496ZM68.3272 81.28H75.6232V83.512H74.5312V82.132H69.3712V83.512H68.3272V81.28ZM69.2752 83.08H74.7472V83.896H69.2752V83.08ZM68.4232 88.624H75.7672V89.488H68.4232V88.624ZM65.4352 81.376L66.2992 80.872C66.8272 81.46 67.4512 82.228 67.7632 82.72L66.8632 83.32C66.5752 82.816 65.9392 81.976 65.4352 81.376ZM65.0632 83.68H67.5832V84.604H65.0632V83.68ZM67.3312 89.032C68.0272 90.628 69.5272 90.832 71.8312 90.844C73.1032 90.844 74.9632 90.784 76.2472 90.664C76.0792 90.892 75.9472 91.408 75.8872 91.72C74.6992 91.792 73.1752 91.816 71.8192 91.816C69.0112 91.816 67.4752 91.48 66.5752 89.356L67.3312 89.032ZM67.1272 86.62H67.4632L67.6432 86.596L68.1352 86.788C67.7752 89.368 66.8512 91.108 65.5912 92.044C65.4472 91.816 65.0632 91.432 64.8472 91.276C66.0352 90.46 66.8392 88.936 67.1272 86.8V86.62ZM65.2672 87.688V86.86L65.7352 86.62H67.5712V87.52H65.9872C65.6872 87.52 65.3632 87.592 65.2672 87.688ZM65.2672 87.688C65.1952 87.448 64.9792 86.944 64.8712 86.728C65.0632 86.68 65.2552 86.596 65.4712 86.356C65.8192 86.008 66.9112 84.412 67.3072 83.764V83.728L67.6192 83.596L68.3272 83.92C67.7752 84.748 66.7312 86.26 66.0712 87.04C66.0712 87.04 65.2672 87.424 65.2672 87.688ZM77.2312 84.928H87.8512V85.948H77.2312V84.928ZM77.9752 82.888H87.0592V83.896H77.9752V82.888ZM84.3592 85.132C85.1032 86.296 86.6152 87.244 88.2832 87.664C88.0312 87.892 87.7072 88.324 87.5392 88.612C85.7992 88.06 84.2752 86.92 83.3872 85.468L84.3592 85.132ZM82.2112 80.824L83.3992 80.944C82.8952 83.992 81.2632 86.968 77.6032 88.624C77.4832 88.336 77.1472 87.892 76.8952 87.676C80.3872 86.212 81.8512 83.488 82.2112 80.824ZM78.9712 81.52L79.8712 81.088C80.2552 81.532 80.6992 82.156 80.8792 82.576L79.9312 83.068C79.7632 82.66 79.3432 82 78.9712 81.52ZM85.2352 81.136L86.2792 81.472C85.8592 82.144 85.3552 82.852 84.9472 83.32L84.0832 83.008C84.4792 82.516 84.9712 81.7 85.2352 81.136ZM79.0912 87.256H84.9112V88.288H79.0912V87.256ZM84.7432 87.256H85.8952C85.8952 87.256 85.8832 87.568 85.8712 87.724C85.7152 90.112 85.5472 91.108 85.1992 91.48C84.9592 91.744 84.7072 91.828 84.3232 91.876C83.9872 91.912 83.3752 91.912 82.7272 91.876C82.7152 91.552 82.5832 91.096 82.4032 90.808C82.9912 90.868 83.5672 90.868 83.7832 90.868C83.9992 90.868 84.1192 90.844 84.2392 90.736C84.4672 90.508 84.6112 89.632 84.7432 87.424V87.256ZM80.9272 87.628H82.1032C81.8512 89.728 81.1792 91.204 78.2992 91.984C78.1912 91.696 77.8912 91.24 77.6632 91.012C80.2192 90.424 80.7112 89.26 80.9272 87.628Z" fill="white"/>
<path d="M147.759 82.384H158.355V83.452H147.759V82.384ZM150.687 86.692H156.255V87.652H150.687V86.692ZM155.859 84.652H156.975V90.7C156.975 91.312 156.855 91.636 156.411 91.816C155.979 91.996 155.307 91.996 154.299 91.996C154.251 91.684 154.095 91.204 153.939 90.904C154.659 90.94 155.379 90.928 155.595 90.928C155.799 90.916 155.859 90.856 155.859 90.688V84.652ZM151.599 80.872L152.763 81.136C151.947 83.764 150.507 86.428 148.251 88.024C148.083 87.76 147.723 87.364 147.507 87.148C149.607 85.72 150.975 83.2 151.599 80.872ZM150.627 88.696H156.255V89.656H150.627V88.696ZM150.615 84.652H156.147V85.66H150.615V84.652ZM150.003 84.652H151.143V87.844C151.143 89.224 150.915 91 149.691 92.092C149.547 91.852 149.103 91.372 148.887 91.216C149.895 90.28 150.003 88.96 150.003 87.832V84.652ZM159.675 82.588H165.267V83.608H159.675V82.588ZM160.983 83.788L161.955 84.088C161.499 85.168 160.791 86.368 160.167 87.136C159.999 86.956 159.603 86.596 159.375 86.428C159.987 85.744 160.599 84.736 160.983 83.788ZM162.999 85.72L164.067 85.912C163.359 88.504 162.063 90.496 160.215 91.744C160.059 91.528 159.663 91.108 159.435 90.916C161.223 89.836 162.411 88.024 162.999 85.72ZM162.963 84.172L163.803 83.728C164.367 84.388 164.991 85.3 165.231 85.912L164.331 86.428C164.115 85.816 163.515 84.868 162.963 84.172ZM160.623 86.764L161.463 86.152C162.675 87.34 164.127 88.972 164.763 90.088L163.851 90.808C163.263 89.692 161.847 87.976 160.623 86.764ZM166.527 83.02H170.523V84.076H166.527V83.02ZM166.707 80.86L167.775 81.028C167.355 83.452 166.659 85.756 165.543 87.256C165.411 87.028 165.039 86.572 164.811 86.368C165.807 85.072 166.383 83.008 166.707 80.86ZM168.843 83.728L169.923 83.86C169.335 87.976 168.003 90.556 165.051 92.068C164.907 91.852 164.511 91.42 164.271 91.216C167.151 89.92 168.363 87.52 168.843 83.728ZM166.743 84.736C167.355 87.52 168.639 89.992 170.703 91.108C170.451 91.324 170.091 91.732 169.911 92.02C167.751 90.7 166.491 88.096 165.783 84.952L166.743 84.736ZM161.415 81.208L162.375 80.848C162.723 81.292 163.071 81.88 163.227 82.288L162.219 82.708C162.075 82.288 161.739 81.664 161.415 81.208ZM173.043 81.652H181.131V91.84H179.919V82.792H174.207V91.876H173.043V81.652ZM173.835 85.756H180.423V86.872H173.835V85.756ZM173.823 89.956H180.435V91.096H173.823V89.956ZM190.395 81.448H193.623V82.48H190.395V81.448ZM190.395 84.184H193.623V85.192H190.395V84.184ZM190.383 86.956H193.647V87.976H190.383V86.956ZM193.131 81.448H194.223V90.676C194.223 91.276 194.103 91.6 193.719 91.78C193.347 91.96 192.759 91.984 191.871 91.984C191.835 91.684 191.679 91.18 191.535 90.892C192.111 90.916 192.711 90.916 192.891 90.904C193.059 90.904 193.131 90.844 193.131 90.664V81.448ZM189.927 81.448H190.995V85.828C190.995 87.7 190.839 90.352 189.783 92.056C189.603 91.852 189.135 91.516 188.883 91.408C189.843 89.836 189.927 87.556 189.927 85.828V81.448ZM183.615 82.396H189.423V83.392H183.615V82.396ZM185.091 84.304H188.055V85.192H185.091V84.304ZM185.091 86.188H188.067V87.076H185.091V86.188ZM183.459 88.108H189.387V89.116H183.459V88.108ZM184.599 81.016H185.631V88.492H184.599V81.016ZM187.515 81.016H188.559V88.492H187.515V81.016ZM185.055 89.296L186.135 89.608C185.691 90.508 184.995 91.432 184.347 92.032C184.131 91.84 183.687 91.516 183.423 91.36C184.083 90.844 184.707 90.064 185.055 89.296ZM186.807 89.74L187.671 89.272C188.151 89.812 188.727 90.544 188.991 91.036L188.067 91.576C187.839 91.096 187.275 90.304 186.807 89.74ZM201.051 84.628C200.499 84.628 200.043 84.22 200.043 83.632C200.043 83.032 200.499 82.624 201.051 82.624C201.591 82.624 202.059 83.032 202.059 83.632C202.059 84.22 201.591 84.628 201.051 84.628ZM201.051 90.436C200.499 90.436 200.043 90.028 200.043 89.44C200.043 88.84 200.499 88.432 201.051 88.432C201.591 88.432 202.059 88.84 202.059 89.44C202.059 90.028 201.591 90.436 201.051 90.436ZM207.567 91V90.196C210.183 87.892 211.515 86.176 211.515 84.724C211.515 83.776 211.011 83.116 210.027 83.116C209.331 83.116 208.755 83.548 208.287 84.088L207.495 83.332C208.263 82.504 209.043 82.012 210.195 82.012C211.815 82.012 212.859 83.056 212.859 84.664C212.859 86.356 211.491 88.12 209.619 89.92C210.075 89.872 210.639 89.824 211.071 89.824H213.279V91H207.567ZM217.315 91.168C215.575 91.168 214.459 89.62 214.459 86.548C214.459 83.5 215.575 82.012 217.315 82.012C219.043 82.012 220.171 83.5 220.171 86.548C220.171 89.62 219.043 91.168 217.315 91.168ZM217.315 90.064C218.215 90.064 218.839 89.104 218.839 86.548C218.839 84.028 218.215 83.092 217.315 83.092C216.415 83.092 215.779 84.028 215.779 86.548C215.779 89.104 216.415 90.064 217.315 90.064ZM221.254 91V90.196C223.87 87.892 225.202 86.176 225.202 84.724C225.202 83.776 224.698 83.116 223.714 83.116C223.018 83.116 222.442 83.548 221.974 84.088L221.182 83.332C221.95 82.504 222.73 82.012 223.882 82.012C225.502 82.012 226.546 83.056 226.546 84.664C226.546 86.356 225.178 88.12 223.306 89.92C223.762 89.872 224.326 89.824 224.758 89.824H226.966V91H221.254ZM230.786 91.168C229.406 91.168 228.506 90.616 227.906 89.944L228.59 89.056C229.106 89.584 229.754 90.028 230.678 90.028C231.662 90.028 232.346 89.476 232.346 88.564C232.346 87.58 231.722 86.956 229.742 86.956V85.924C231.47 85.924 232.046 85.276 232.046 84.388C232.046 83.608 231.542 83.116 230.69 83.116C230.018 83.116 229.442 83.44 228.938 83.944L228.206 83.068C228.914 82.444 229.73 82.012 230.75 82.012C232.334 82.012 233.45 82.828 233.45 84.28C233.45 85.3 232.862 86.008 231.926 86.356V86.416C232.946 86.68 233.75 87.436 233.75 88.636C233.75 90.232 232.418 91.168 230.786 91.168ZM236.214 91.168C235.686 91.168 235.29 90.76 235.29 90.196C235.29 89.62 235.686 89.224 236.214 89.224C236.73 89.224 237.138 89.62 237.138 90.196C237.138 90.76 236.73 91.168 236.214 91.168ZM241.42 91.168C239.68 91.168 238.564 89.62 238.564 86.548C238.564 83.5 239.68 82.012 241.42 82.012C243.148 82.012 244.276 83.5 244.276 86.548C244.276 89.62 243.148 91.168 241.42 91.168ZM241.42 90.064C242.32 90.064 242.944 89.104 242.944 86.548C242.944 84.028 242.32 83.092 241.42 83.092C240.52 83.092 239.884 84.028 239.884 86.548C239.884 89.104 240.52 90.064 241.42 90.064ZM248.528 91.168C246.848 91.168 245.48 89.752 245.48 86.752C245.48 83.368 247.064 82.012 248.816 82.012C249.8 82.012 250.52 82.42 251.024 82.96L250.268 83.8C249.944 83.416 249.404 83.14 248.888 83.14C247.712 83.14 246.764 84.052 246.764 86.752C246.764 89.032 247.436 90.1 248.516 90.1C249.284 90.1 249.884 89.404 249.884 88.264C249.884 87.124 249.368 86.488 248.432 86.488C247.904 86.488 247.268 86.8 246.74 87.604L246.68 86.596C247.196 85.9 248.012 85.492 248.672 85.492C250.16 85.492 251.168 86.392 251.168 88.264C251.168 90.016 249.956 91.168 248.528 91.168ZM253.476 91.168C252.948 91.168 252.552 90.76 252.552 90.196C252.552 89.62 252.948 89.224 253.476 89.224C253.992 89.224 254.4 89.62 254.4 90.196C254.4 90.76 253.992 91.168 253.476 91.168ZM255.778 91V90.196C258.394 87.892 259.726 86.176 259.726 84.724C259.726 83.776 259.222 83.116 258.238 83.116C257.542 83.116 256.966 83.548 256.498 84.088L255.706 83.332C256.474 82.504 257.254 82.012 258.406 82.012C260.026 82.012 261.07 83.056 261.07 84.664C261.07 86.356 259.702 88.12 257.83 89.92C258.286 89.872 258.85 89.824 259.282 89.824H261.49V91H255.778ZM264.409 91C264.565 87.784 265.129 85.72 266.845 83.344H262.693V82.168H268.369V83.008C266.305 85.6 265.981 87.556 265.825 91H264.409Z" fill="#7A7A7A"/>
<path d="M125.556 53.612H129.48V54.668H125.556V53.612ZM125.544 59.096H129.684V60.164H125.544V59.096ZM125.484 56.348H129.216V57.38H125.484V56.348ZM119.028 53.6H122.7V54.668H119.028V53.6ZM119.196 56.336H122.652V57.368H119.196V56.336ZM124.968 51.932H126.096V63.008H124.968V51.932ZM118.656 59.288C119.7 59.144 121.26 58.916 122.784 58.688L122.832 59.696C121.452 59.948 120 60.212 118.884 60.416L118.656 59.288ZM122.172 51.932H123.3V57.548C123.3 59.36 122.784 61.796 119.868 63.164C119.688 62.888 119.34 62.528 119.064 62.312C121.692 61.244 122.172 58.856 122.172 57.56V51.932ZM135.096 55.184H136.164C135.948 57.164 135.6 59.732 135.348 61.232H134.244C134.556 59.684 134.916 57.104 135.096 55.184ZM136.872 56.468L137.484 56.072C137.94 56.432 138.492 56.96 138.756 57.32L138.12 57.764C137.88 57.392 137.34 56.852 136.872 56.468ZM136.56 58.988L137.196 58.58C137.688 58.964 138.3 59.54 138.588 59.924L137.928 60.392C137.652 59.996 137.052 59.396 136.56 58.988ZM135.24 53.168H141.444V54.2H135.24V53.168ZM135.564 55.184H140.22V56.168H135.564V55.184ZM133.584 57.62H141.756V58.652H133.584V57.62ZM134.82 60.26H141.432V61.232H134.82V60.26ZM135.384 51.86L136.488 52.148C135.984 53.648 135.192 55.172 134.388 56.144C134.16 55.964 133.68 55.664 133.404 55.52C134.232 54.632 134.964 53.24 135.384 51.86ZM139.896 55.184H140.952C140.952 55.184 140.94 55.544 140.928 55.7C140.748 60.296 140.556 61.892 140.148 62.408C139.896 62.744 139.62 62.84 139.236 62.888C138.888 62.936 138.3 62.924 137.724 62.888C137.7 62.612 137.592 62.204 137.424 61.94C138.012 61.988 138.528 62 138.768 62C138.972 62 139.092 61.964 139.212 61.82C139.536 61.448 139.74 59.816 139.896 55.412V55.184ZM131.268 52.82L131.904 52.052C132.612 52.364 133.548 52.892 134.016 53.276L133.356 54.14C132.9 53.744 131.988 53.18 131.268 52.82ZM130.608 56.276L131.232 55.508C131.916 55.82 132.792 56.324 133.224 56.708L132.576 57.572C132.168 57.176 131.292 56.624 130.608 56.276ZM130.956 62.192C131.448 61.256 132.12 59.696 132.624 58.304L133.488 58.928C133.044 60.2 132.468 61.664 131.952 62.816L130.956 62.192ZM144.792 53.672H147.72V54.752H144.792V53.672ZM149.364 51.884H150.552V63.008H149.364V51.884ZM143.688 56.42L144.444 55.712C145.284 56.444 146.412 57.488 146.94 58.172L146.124 58.976C145.62 58.292 144.54 57.188 143.688 56.42ZM144.756 51.86L145.896 52.076C145.404 54.368 144.576 56.516 143.484 57.896C143.28 57.704 142.788 57.344 142.524 57.176C143.604 55.952 144.348 53.96 144.756 51.86ZM147.324 53.672H147.552L147.768 53.636L148.572 53.864C147.972 58.676 146.16 61.568 143.544 62.984C143.352 62.708 142.884 62.228 142.584 62.036C145.164 60.764 146.832 58.232 147.324 53.96V53.672ZM150.084 56.168L150.972 55.508C151.908 56.312 153.192 57.476 153.804 58.232L152.856 59.012C152.28 58.244 151.044 57.032 150.084 56.168ZM154.812 52.424H158.676V53.42H154.812V52.424ZM154.536 56.252H159.108V57.272H154.536V56.252ZM156.432 56.78H157.524V61.748C157.524 62.312 157.428 62.624 157.032 62.792C156.648 62.972 156.084 62.984 155.268 62.984C155.22 62.672 155.064 62.216 154.92 61.904C155.484 61.916 156.048 61.916 156.216 61.916C156.384 61.904 156.432 61.868 156.432 61.724V56.78ZM158.328 52.424H158.58L158.784 52.364L159.492 52.856C158.904 53.792 158.052 54.848 157.284 55.508C157.128 55.304 156.828 54.992 156.636 54.836C157.272 54.272 157.992 53.3 158.328 52.64V52.424ZM158.784 56.252H158.94L159.096 56.216L159.804 56.396C159.516 57.356 159.156 58.436 158.856 59.12L158.004 58.916C158.268 58.292 158.58 57.248 158.784 56.408V56.252ZM155.088 54.74L155.676 53.996C156.672 54.488 157.908 55.268 158.508 55.856L157.872 56.696C157.308 56.084 156.096 55.256 155.088 54.74ZM159.504 52.4H165.624V53.36H159.504V52.4ZM160.992 57.008V58.004H164.148V57.008H160.992ZM160.992 58.808V59.816H164.148V58.808H160.992ZM160.992 55.208V56.204H164.148V55.208H160.992ZM159.948 54.356H165.24V60.668H159.948V54.356ZM161.988 52.892L163.272 53.048C163.068 53.768 162.828 54.524 162.636 55.04L161.64 54.848C161.772 54.296 161.928 53.468 161.988 52.892ZM161.136 60.8L162.096 61.4C161.436 62.036 160.296 62.696 159.348 63.056C159.18 62.84 158.832 62.492 158.592 62.3C159.54 61.964 160.62 61.328 161.136 60.8ZM162.948 61.448L163.788 60.872C164.496 61.304 165.42 61.952 165.9 62.408L165 63.044C164.568 62.6 163.656 61.916 162.948 61.448ZM171.084 52.868H177.432V53.696H171.084V52.868ZM170.844 55.748H177.672V56.576H170.844V55.748ZM170.796 60.212H177.708V61.052H170.796V60.212ZM171.384 54.296H177.24V55.088H171.384V54.296ZM172.476 51.884H173.472V56.096H172.476V51.884ZM175.02 51.884H176.028V56.096H175.02V51.884ZM173.736 56.12H174.732V60.464H173.736V56.12ZM176.016 57.164H177.06V61.916C177.06 62.432 176.952 62.696 176.604 62.852C176.232 63.008 175.68 63.008 174.852 63.008C174.804 62.744 174.672 62.348 174.54 62.096C175.104 62.108 175.656 62.108 175.812 62.108C175.968 62.096 176.016 62.06 176.016 61.916V57.164ZM171.504 57.164H176.46V57.992H172.524V63.032H171.504V57.164ZM172.02 58.712H176.448V59.456H172.02V58.712ZM167.688 60.164L168.696 60.392C168.396 61.388 167.868 62.384 167.316 63.032C167.124 62.876 166.704 62.588 166.464 62.456C167.004 61.88 167.46 61.016 167.688 60.164ZM169.152 60.512L170.004 60.14C170.4 60.74 170.832 61.532 171.024 62.048L170.136 62.468C169.956 61.952 169.536 61.124 169.152 60.512ZM168.084 55.46V56.828H169.62V55.46H168.084ZM168.084 57.68V59.06H169.62V57.68H168.084ZM168.084 53.252V54.596H169.62V53.252H168.084ZM167.1 52.328H170.616V59.984H167.1V52.328ZM179.484 55.688H188.388V56.624H180.564V62.984H179.484V55.688ZM187.812 55.688H188.856V61.868C188.856 62.408 188.724 62.66 188.328 62.804C187.944 62.936 187.308 62.948 186.312 62.948C186.264 62.696 186.12 62.336 185.988 62.096C186.66 62.12 187.356 62.108 187.536 62.096C187.74 62.096 187.812 62.036 187.812 61.868V55.688ZM182.448 58.664H186.384V61.496H182.448V60.692H185.448V59.48H182.448V58.664ZM181.848 58.664H182.808V62.036H181.848V58.664ZM178.848 53.108H189.468V54.08H178.848V53.108ZM181.38 54.344L182.352 54.032C182.604 54.452 182.928 55.016 183.084 55.364L182.076 55.748C181.932 55.388 181.632 54.788 181.38 54.344ZM185.892 54.092L187.032 54.344C186.648 54.98 186.216 55.688 185.868 56.132L184.992 55.892C185.304 55.4 185.7 54.632 185.892 54.092ZM183.372 52.076L184.452 51.8C184.656 52.292 184.884 52.928 185.004 53.336L183.876 53.66C183.78 53.24 183.564 52.568 183.372 52.076ZM182.52 56.18H183.516C183.396 57.632 182.928 58.412 181.068 58.82C180.996 58.592 180.744 58.22 180.552 58.04C182.1 57.764 182.436 57.26 182.52 56.18ZM184.608 56.192H185.616V57.188C185.616 57.452 185.64 57.548 185.844 57.548C186 57.548 186.552 57.548 186.72 57.548C186.9 57.548 187.224 57.536 187.392 57.488C187.416 57.752 187.428 58.028 187.464 58.268C187.308 58.328 186.996 58.34 186.744 58.34C186.516 58.34 185.808 58.34 185.604 58.34C184.764 58.34 184.608 57.968 184.608 57.176V56.192ZM193.884 53.456V55.448H198.432V53.456H193.884ZM192.78 52.376H199.584V56.528H192.78V52.376ZM191.076 57.692H195.492V62.924H194.352V58.772H192.156V63.008H191.076V57.692ZM196.668 57.692H201.288V62.948H200.148V58.772H197.76V63.008H196.668V57.692ZM191.556 61.292H194.82V62.384H191.556V61.292ZM197.208 61.292H200.688V62.384H197.208V61.292ZM205.868 52.364H208.748V53.384H206.864V62.984H205.868V52.364ZM208.544 52.364H208.736L208.904 52.316L209.648 52.748C209.312 53.744 208.892 54.932 208.52 55.88C209.324 56.864 209.504 57.716 209.504 58.448C209.504 59.156 209.36 59.672 209 59.936C208.832 60.068 208.604 60.14 208.352 60.176C208.124 60.212 207.824 60.212 207.548 60.2C207.548 59.924 207.452 59.492 207.284 59.216C207.536 59.228 207.74 59.24 207.92 59.228C208.04 59.216 208.172 59.192 208.268 59.12C208.424 59 208.496 58.7 208.496 58.34C208.496 57.716 208.316 56.9 207.524 56C207.92 54.92 208.328 53.456 208.544 52.676V52.364ZM210.692 52.388H215.504V57.776H210.692V56.78H214.4V53.372H210.692V52.388ZM210.764 54.596H215.012V55.532H210.764V54.596ZM213.056 57.188C213.548 59.384 214.64 61.184 216.476 61.964C216.224 62.192 215.876 62.636 215.708 62.948C213.764 61.952 212.684 59.948 212.12 57.368L213.056 57.188ZM215.468 58.04L216.212 58.844C215.528 59.396 214.64 59.996 213.98 60.368L213.38 59.66C214.016 59.264 214.94 58.568 215.468 58.04ZM210.14 63.032L210.044 62.036L210.548 61.652L213.176 61.04C213.176 61.364 213.188 61.82 213.224 62.072C210.8 62.708 210.392 62.864 210.14 63.032ZM210.14 63.032C210.056 62.78 209.816 62.324 209.648 62.12C209.852 61.988 210.14 61.712 210.14 61.184V52.388H211.244V61.964C211.244 61.964 210.14 62.624 210.14 63.032ZM220.04 54.02V54.572H225.584V54.02H220.04ZM220.04 52.88V53.42H225.584V52.88H220.04ZM218.948 52.256H226.724V55.196H218.948V52.256ZM219.8 58.76V59.336H225.932V58.76H219.8ZM219.8 57.584V58.148H225.932V57.584H219.8ZM218.732 56.936H227.048V59.984H218.732V56.936ZM222.272 57.164H223.376V62.324H222.272V57.164ZM217.436 55.64H228.272V56.48H217.436V55.64ZM218.432 60.524H227.3V61.28H218.432V60.524ZM217.388 61.868H228.32V62.72H217.388V61.868ZM235.364 58.352H236.54V61.328C236.54 61.712 236.624 61.76 237.14 61.76C237.368 61.76 238.436 61.76 238.736 61.76C239.204 61.76 239.288 61.544 239.336 60.152C239.588 60.332 240.056 60.512 240.38 60.584C240.248 62.324 239.936 62.78 238.832 62.78C238.556 62.78 237.248 62.78 236.984 62.78C235.7 62.78 235.364 62.444 235.364 61.34V58.352ZM232.676 51.836L233.912 52.076C233.036 53.576 231.788 55.148 230.036 56.408C229.868 56.144 229.496 55.76 229.232 55.58C230.852 54.488 232.04 53.036 232.676 51.836ZM231.74 55.904V57.764H238.22V55.904H231.74ZM230.6 54.896H239.42V58.784H230.6V54.896ZM235.976 52.736H236.228L236.42 52.688L237.2 53.192C236.744 53.996 235.988 54.992 235.364 55.616C235.148 55.448 234.764 55.208 234.512 55.064C235.064 54.5 235.7 53.564 235.976 52.952V52.736ZM232.64 52.736H236.312V53.672H232.064L232.64 52.736ZM234.332 55.568H235.532C235.268 58.868 234.692 61.64 230.036 62.912C229.916 62.624 229.64 62.192 229.388 61.952C233.78 60.86 234.116 58.448 234.332 55.568ZM247.76 53.552H248.864V61.388H247.76V53.552ZM246.236 57.572V58.244H250.448V57.572H246.236ZM246.236 56.228V56.888H250.448V56.228H246.236ZM245.3 55.496H251.42V58.976H245.3V55.496ZM244.64 52.28H251.936V54.512H250.844V53.132H245.684V54.512H244.64V52.28ZM245.588 54.08H251.06V54.896H245.588V54.08ZM244.736 59.624H252.08V60.488H244.736V59.624ZM241.748 52.376L242.612 51.872C243.14 52.46 243.764 53.228 244.076 53.72L243.176 54.32C242.888 53.816 242.252 52.976 241.748 52.376ZM241.376 54.68H243.896V55.604H241.376V54.68ZM243.644 60.032C244.34 61.628 245.84 61.832 248.144 61.844C249.416 61.844 251.276 61.784 252.56 61.664C252.392 61.892 252.26 62.408 252.2 62.72C251.012 62.792 249.488 62.816 248.132 62.816C245.324 62.816 243.788 62.48 242.888 60.356L243.644 60.032ZM243.44 57.62H243.776L243.956 57.596L244.448 57.788C244.088 60.368 243.164 62.108 241.904 63.044C241.76 62.816 241.376 62.432 241.16 62.276C242.348 61.46 243.152 59.936 243.44 57.8V57.62ZM241.58 58.688V57.86L242.048 57.62H243.884V58.52H242.3C242 58.52 241.676 58.592 241.58 58.688ZM241.58 58.688C241.508 58.448 241.292 57.944 241.184 57.728C241.376 57.68 241.568 57.596 241.784 57.356C242.132 57.008 243.224 55.412 243.62 54.764V54.728L243.932 54.596L244.64 54.92C244.088 55.748 243.044 57.26 242.384 58.04C242.384 58.04 241.58 58.424 241.58 58.688Z" fill="#003060"/>
<g filter="url(#filter2_d_579_542)">
<path d="M0 19C0 17.3431 1.34315 16 3 16H33C34.6569 16 36 17.3431 36 19V31C36 32.6569 34.6569 34 33 34H0V19Z" fill="#FFCD78"/>
</g>
<path d="M0 34H5V39L2.5 36.5L0 34Z" fill="#FFCD78"/>
<path d="M8.85 20.97H11.25V21.82H9.68V29.82H8.85V20.97ZM11.08 20.97H11.24L11.38 20.93L12 21.29C11.72 22.12 11.37 23.11 11.06 23.9C11.73 24.72 11.88 25.43 11.88 26.04C11.88 26.63 11.76 27.06 11.46 27.28C11.32 27.39 11.13 27.45 10.92 27.48C10.73 27.51 10.48 27.51 10.25 27.5C10.25 27.27 10.17 26.91 10.03 26.68C10.24 26.69 10.41 26.7 10.56 26.69C10.66 26.68 10.77 26.66 10.85 26.6C10.98 26.5 11.04 26.25 11.04 25.95C11.04 25.43 10.89 24.75 10.23 24C10.56 23.1 10.9 21.88 11.08 21.23V20.97ZM12.87 20.99H16.88V25.48H12.87V24.65H15.96V21.81H12.87V20.99ZM12.93 22.83H16.47V23.61H12.93V22.83ZM14.84 24.99C15.25 26.82 16.16 28.32 17.69 28.97C17.48 29.16 17.19 29.53 17.05 29.79C15.43 28.96 14.53 27.29 14.06 25.14L14.84 24.99ZM16.85 25.7L17.47 26.37C16.9 26.83 16.16 27.33 15.61 27.64L15.11 27.05C15.64 26.72 16.41 26.14 16.85 25.7ZM12.41 29.86L12.33 29.03L12.75 28.71L14.94 28.2C14.94 28.47 14.95 28.85 14.98 29.06C12.96 29.59 12.62 29.72 12.41 29.86ZM12.41 29.86C12.34 29.65 12.14 29.27 12 29.1C12.17 28.99 12.41 28.76 12.41 28.32V20.99H13.33V28.97C13.33 28.97 12.41 29.52 12.41 29.86ZM20.66 22.35V22.81H25.28V22.35H20.66ZM20.66 21.4V21.85H25.28V21.4H20.66ZM19.75 20.88H26.23V23.33H19.75V20.88ZM20.46 26.3V26.78H25.57V26.3H20.46ZM20.46 25.32V25.79H25.57V25.32H20.46ZM19.57 24.78H26.5V27.32H19.57V24.78ZM22.52 24.97H23.44V29.27H22.52V24.97ZM18.49 23.7H27.52V24.4H18.49V23.7ZM19.32 27.77H26.71V28.4H19.32V27.77ZM18.45 28.89H27.56V29.6H18.45V28.89Z" fill="white"/>
<path d="M121.85 20.97H124.25V21.82H122.68V29.82H121.85V20.97ZM124.08 20.97H124.24L124.38 20.93L125 21.29C124.72 22.12 124.37 23.11 124.06 23.9C124.73 24.72 124.88 25.43 124.88 26.04C124.88 26.63 124.76 27.06 124.46 27.28C124.32 27.39 124.13 27.45 123.92 27.48C123.73 27.51 123.48 27.51 123.25 27.5C123.25 27.27 123.17 26.91 123.03 26.68C123.24 26.69 123.41 26.7 123.56 26.69C123.66 26.68 123.77 26.66 123.85 26.6C123.98 26.5 124.04 26.25 124.04 25.95C124.04 25.43 123.89 24.75 123.23 24C123.56 23.1 123.9 21.88 124.08 21.23V20.97ZM125.87 20.99H129.88V25.48H125.87V24.65H128.96V21.81H125.87V20.99ZM125.93 22.83H129.47V23.61H125.93V22.83ZM127.84 24.99C128.25 26.82 129.16 28.32 130.69 28.97C130.48 29.16 130.19 29.53 130.05 29.79C128.43 28.96 127.53 27.29 127.06 25.14L127.84 24.99ZM129.85 25.7L130.47 26.37C129.9 26.83 129.16 27.33 128.61 27.64L128.11 27.05C128.64 26.72 129.41 26.14 129.85 25.7ZM125.41 29.86L125.33 29.03L125.75 28.71L127.94 28.2C127.94 28.47 127.95 28.85 127.98 29.06C125.96 29.59 125.62 29.72 125.41 29.86ZM125.41 29.86C125.34 29.65 125.14 29.27 125 29.1C125.17 28.99 125.41 28.76 125.41 28.32V20.99H126.33V28.97C126.33 28.97 125.41 29.52 125.41 29.86ZM133.66 22.35V22.81H138.28V22.35H133.66ZM133.66 21.4V21.85H138.28V21.4H133.66ZM132.75 20.88H139.23V23.33H132.75V20.88ZM133.46 26.3V26.78H138.57V26.3H133.46ZM133.46 25.32V25.79H138.57V25.32H133.46ZM132.57 24.78H139.5V27.32H132.57V24.78ZM135.52 24.97H136.44V29.27H135.52V24.97ZM131.49 23.7H140.52V24.4H131.49V23.7ZM132.32 27.77H139.71V28.4H132.32V27.77ZM131.45 28.89H140.56V29.6H131.45V28.89Z" fill="white"/>
<path d="M129 96C134.523 96 139 91.5228 139 86C139 80.4772 134.523 76 129 76C123.477 76 119 80.4772 119 86C119 91.5228 123.477 96 129 96Z" stroke="#7A7A7A" stroke-width="2" stroke-linecap="round" stroke-linejoin="round"/>
<path d="M129 80V86L133 88" stroke="#7A7A7A" stroke-width="2" stroke-linecap="round" stroke-linejoin="round"/>
<rect x="118" y="16" width="49" height="18" rx="2" fill="#003060"/>
<path d="M126.47 23.82H127.45V29.84H126.47V23.82ZM124.46 25.55V26.27H129.59V25.55H124.46ZM124.46 24.13V24.85H129.59V24.13H124.46ZM123.53 23.39H130.56V27.01H123.53V23.39ZM122.55 27.67H131.46V28.5H122.55V27.67ZM124.07 21.55V22.34H125.77V21.55H124.07ZM123.23 20.95H126.66V22.93H123.23V20.95ZM128.22 21.55V22.34H129.94V21.55H128.22ZM127.37 20.95H130.83V22.93H127.37V20.95ZM132.47 24.52H141.54V25.22H132.47V24.52ZM133.28 26.93H140.72V27.64H133.28V26.93ZM132.65 28.15H141.37V28.88H132.65V28.15ZM133.67 23.35H140.48V26.44H133.58V25.76H139.52V24.03H133.67V23.35ZM136.48 22.84H137.45V29.84H136.48V22.84ZM133.75 21.13H136.91V21.86H133.75V21.13ZM137.83 21.13H141.59V21.86H137.83V21.13ZM133.89 20.48L134.72 20.73C134.32 21.57 133.65 22.41 133.01 22.95C132.88 22.78 132.56 22.46 132.37 22.3C132.98 21.85 133.56 21.17 133.89 20.48ZM137.94 20.48L138.81 20.71C138.47 21.52 137.88 22.32 137.3 22.82C137.14 22.67 136.79 22.39 136.59 22.25C137.16 21.82 137.66 21.16 137.94 20.48ZM134.43 22.22L135.04 21.77C135.35 22.05 135.74 22.45 135.92 22.71L135.28 23.22C135.11 22.95 134.73 22.52 134.43 22.22ZM138.79 22.19L139.45 21.76C139.76 22.03 140.15 22.43 140.34 22.69L139.66 23.19C139.49 22.91 139.11 22.49 138.79 22.19ZM142.87 23.6H146.01V24.33H142.87V23.6ZM142.87 24.93H146V25.66H142.87V24.93ZM142.43 22.24H146.31V23.01H142.43V22.24ZM143.3 26.29H145.97V29.26H143.3V28.49H145.15V27.06H143.3V26.29ZM142.87 26.29H143.69V29.71H142.87V26.29ZM143.53 20.88L144.27 20.52C144.56 20.93 144.87 21.47 145.03 21.83L144.26 22.26C144.12 21.89 143.8 21.3 143.53 20.88ZM146.51 21.37H151.64V22.29H146.51V21.37ZM149.25 21.66H150.21V28.53C150.21 29.12 150.07 29.41 149.67 29.57C149.26 29.73 148.6 29.74 147.63 29.74C147.58 29.47 147.41 29.02 147.25 28.76C147.98 28.8 148.75 28.79 148.97 28.78C149.17 28.77 149.25 28.71 149.25 28.52V21.66ZM156.47 23.82H157.45V29.84H156.47V23.82ZM154.46 25.55V26.27H159.59V25.55H154.46ZM154.46 24.13V24.85H159.59V24.13H154.46ZM153.53 23.39H160.56V27.01H153.53V23.39ZM152.55 27.67H161.46V28.5H152.55V27.67ZM154.07 21.55V22.34H155.77V21.55H154.07ZM153.23 20.95H156.66V22.93H153.23V20.95ZM158.22 21.55V22.34H159.94V21.55H158.22ZM157.37 20.95H160.83V22.93H157.37V20.95Z" fill="white"/>
<path d="M178.559 20.6H188.669V21.86H178.559V20.6ZM180.554 26.975H181.739V27.875H180.554V26.975ZM182.864 23.87H184.124V33.125H182.864V23.87ZM187.019 25.07H188.294V31.97C188.294 32.57 188.174 32.87 187.769 33.05C187.379 33.23 186.764 33.23 185.864 33.23C185.819 32.915 185.669 32.48 185.534 32.18C186.089 32.195 186.644 32.195 186.809 32.18C186.974 32.18 187.019 32.135 187.019 31.97V25.07ZM178.844 25.07H187.649V26.27H180.059V33.245H178.844V25.07ZM175.409 20.51L176.219 19.49C177.059 19.865 178.094 20.48 178.619 20.96L177.764 22.1C177.284 21.605 176.249 20.93 175.409 20.51ZM174.794 24.545L175.574 23.495C176.444 23.84 177.509 24.395 178.034 24.86L177.209 26.015C176.699 25.55 175.649 24.92 174.794 24.545ZM175.079 32.345C175.679 31.19 176.504 29.255 177.104 27.545L178.244 28.28C177.704 29.87 176.999 31.67 176.354 33.095L175.079 32.345ZM180.719 19.325H182.069V22.94H185.009V19.325H186.404V24.155H180.719V19.325ZM181.109 26.975H182.009C182.069 28.67 182.399 30.02 183.059 30.665C182.879 30.77 182.564 31.055 182.429 31.265C181.739 30.5 181.379 29.12 181.304 27.41H181.109V26.975ZM181.094 28.37H181.904C181.769 29.54 181.409 30.68 180.584 31.4C180.464 31.22 180.194 30.935 180.014 30.815C180.689 30.245 181.004 29.27 181.094 28.37ZM184.589 26.975H185.729V27.875H184.589V26.975ZM185.129 26.975H186.044C186.104 28.67 186.479 30.005 187.184 30.62C186.989 30.755 186.674 31.025 186.524 31.235C185.804 30.47 185.399 29.12 185.324 27.41H185.129V26.975ZM185.129 28.355H185.954C185.819 29.495 185.459 30.575 184.604 31.265C184.484 31.085 184.229 30.8 184.019 30.68C184.724 30.155 185.039 29.225 185.129 28.355ZM195.548 32C195.743 27.98 196.448 25.4 198.593 22.43H193.403V20.96H200.498V22.01C197.918 25.25 197.513 27.695 197.318 32H195.548ZM204.868 32.21C203.593 32.21 202.678 31.685 202.048 31.025L202.978 29.96C203.428 30.455 204.103 30.785 204.793 30.785C206.188 30.785 207.373 29.615 207.373 26.105C207.373 23.345 206.518 22.085 205.168 22.085C204.208 22.085 203.458 22.94 203.458 24.395C203.458 25.79 204.103 26.6 205.258 26.6C205.948 26.6 206.728 26.21 207.373 25.205L207.463 26.465C206.818 27.32 205.828 27.86 204.943 27.86C203.098 27.86 201.853 26.705 201.853 24.395C201.853 22.19 203.353 20.765 205.153 20.765C207.268 20.765 208.978 22.46 208.978 26.105C208.978 30.455 206.998 32.21 204.868 32.21ZM213.422 32.21C212.147 32.21 211.232 31.685 210.602 31.025L211.532 29.96C211.982 30.455 212.657 30.785 213.347 30.785C214.742 30.785 215.927 29.615 215.927 26.105C215.927 23.345 215.072 22.085 213.722 22.085C212.762 22.085 212.012 22.94 212.012 24.395C212.012 25.79 212.657 26.6 213.812 26.6C214.502 26.6 215.282 26.21 215.927 25.205L216.017 26.465C215.372 27.32 214.382 27.86 213.497 27.86C211.652 27.86 210.407 26.705 210.407 24.395C210.407 22.19 211.907 20.765 213.707 20.765C215.822 20.765 217.532 22.46 217.532 26.105C217.532 30.455 215.552 32.21 213.422 32.21ZM229.846 27.44H231.316V31.16C231.316 31.64 231.421 31.7 232.066 31.7C232.351 31.7 233.686 31.7 234.061 31.7C234.646 31.7 234.751 31.43 234.811 29.69C235.126 29.915 235.711 30.14 236.116 30.23C235.951 32.405 235.561 32.975 234.181 32.975C233.836 32.975 232.201 32.975 231.871 32.975C230.266 32.975 229.846 32.555 229.846 31.175V27.44ZM226.486 19.295L228.031 19.595C226.936 21.47 225.376 23.435 223.186 25.01C222.976 24.68 222.511 24.2 222.181 23.975C224.206 22.61 225.691 20.795 226.486 19.295ZM225.316 24.38V26.705H233.416V24.38H225.316ZM223.891 23.12H234.916V27.98H223.891V23.12ZM230.611 20.42H230.926L231.166 20.36L232.141 20.99C231.571 21.995 230.626 23.24 229.846 24.02C229.576 23.81 229.096 23.51 228.781 23.33C229.471 22.625 230.266 21.455 230.611 20.69V20.42ZM226.441 20.42H231.031V21.59H225.721L226.441 20.42ZM228.556 23.96H230.056C229.726 28.085 229.006 31.55 223.186 33.14C223.036 32.78 222.691 32.24 222.376 31.94C227.866 30.575 228.286 27.56 228.556 23.96ZM245.341 21.44H246.721V31.235H245.341V21.44ZM243.436 26.465V27.305H248.701V26.465H243.436ZM243.436 24.785V25.61H248.701V24.785H243.436ZM242.266 23.87H249.916V28.22H242.266V23.87ZM241.441 19.85H250.561V22.64H249.196V20.915H242.746V22.64H241.441V19.85ZM242.626 22.1H249.466V23.12H242.626V22.1ZM241.561 29.03H250.741V30.11H241.561V29.03ZM237.826 19.97L238.906 19.34C239.566 20.075 240.346 21.035 240.736 21.65L239.611 22.4C239.251 21.77 238.456 20.72 237.826 19.97ZM237.361 22.85H240.511V24.005H237.361V22.85ZM240.196 29.54C241.066 31.535 242.941 31.79 245.821 31.805C247.411 31.805 249.736 31.73 251.341 31.58C251.131 31.865 250.966 32.51 250.891 32.9C249.406 32.99 247.501 33.02 245.806 33.02C242.296 33.02 240.376 32.6 239.251 29.945L240.196 29.54ZM239.941 26.525H240.361L240.586 26.495L241.201 26.735C240.751 29.96 239.596 32.135 238.021 33.305C237.841 33.02 237.361 32.54 237.091 32.345C238.576 31.325 239.581 29.42 239.941 26.75V26.525ZM237.616 27.86V26.825L238.201 26.525H240.496V27.65H238.516C238.141 27.65 237.736 27.74 237.616 27.86ZM237.616 27.86C237.526 27.56 237.256 26.93 237.121 26.66C237.361 26.6 237.601 26.495 237.871 26.195C238.306 25.76 239.671 23.765 240.166 22.955V22.91L240.556 22.745L241.441 23.15C240.751 24.185 239.446 26.075 238.621 27.05C238.621 27.05 237.616 27.53 237.616 27.86Z" fill="#003060"/>
<path d="M61.6665 39H36.6665V60.6667H61.6665V39Z" stroke="white" stroke-width="2" stroke-linecap="round" stroke-linejoin="round"/>
<path d="M61.6665 47.3335H68.3332L73.3332 52.3335V60.6668H61.6665V47.3335Z" stroke="white" stroke-width="2" stroke-linecap="round" stroke-linejoin="round"/>
<path d="M44.1667 68.9998C46.4679 68.9998 48.3333 67.1344 48.3333 64.8332C48.3333 62.532 46.4679 60.6665 44.1667 60.6665C41.8655 60.6665 40 62.532 40 64.8332C40 67.1344 41.8655 68.9998 44.1667 68.9998Z" stroke="white" stroke-width="2" stroke-linecap="round" stroke-linejoin="round"/>
<path d="M65.8332 68.9998C68.1344 68.9998 69.9998 67.1344 69.9998 64.8332C69.9998 62.532 68.1344 60.6665 65.8332 60.6665C63.532 60.6665 61.6665 62.532 61.6665 64.8332C61.6665 67.1344 63.532 68.9998 65.8332 68.9998Z" stroke="white" stroke-width="2" stroke-linecap="round" stroke-linejoin="round"/>
<path d="M40.1329 55V47.64H44.5029V48.62H41.3029V50.86H44.0229V51.84H41.3029V55H40.1329ZM45.4235 55V49.5H46.3635L46.4635 50.49H46.4935C46.8835 49.78 47.4635 49.36 48.0535 49.36C48.3235 49.36 48.4935 49.4 48.6635 49.48L48.4635 50.48C48.2735 50.42 48.1335 50.39 47.9035 50.39C47.4635 50.39 46.9235 50.71 46.5835 51.58V55H45.4235ZM51.659 55.14C50.159 55.14 48.979 54.07 48.979 52.26C48.979 50.47 50.209 49.36 51.489 49.36C52.939 49.36 53.729 50.41 53.729 51.97C53.729 52.2 53.709 52.42 53.679 52.56H50.109C50.199 53.61 50.859 54.23 51.809 54.23C52.299 54.23 52.709 54.08 53.119 53.82L53.519 54.56C53.009 54.9 52.379 55.14 51.659 55.14ZM50.089 51.76H52.729C52.729 50.81 52.309 50.27 51.509 50.27C50.819 50.27 50.209 50.8 50.089 51.76ZM57.3231 55.14C55.8231 55.14 54.6431 54.07 54.6431 52.26C54.6431 50.47 55.8731 49.36 57.1531 49.36C58.6031 49.36 59.3931 50.41 59.3931 51.97C59.3931 52.2 59.3731 52.42 59.3431 52.56H55.7731C55.8631 53.61 56.5231 54.23 57.4731 54.23C57.9631 54.23 58.3731 54.08 58.7831 53.82L59.1831 54.56C58.6731 54.9 58.0431 55.14 57.3231 55.14ZM55.7531 51.76H58.3931C58.3931 50.81 57.9731 50.27 57.1731 50.27C56.4831 50.27 55.8731 50.8 55.7531 51.76Z" fill="white"/>
</g>
<defs>
<filter id="filter0_d_579_542" x="101" y="0" width="216" height="116" filterUnits="userSpaceOnUse" color-interpolation-filters="sRGB">
<feFlood flood-opacity="0" result="BackgroundImageFix"/>
<feColorMatrix in="SourceAlpha" type="matrix" values="0 0 0 0 0 0 0 0 0 0 0 0 0 0 0 0 0 0 127 0" result="hardAlpha"/>
<feMorphology radius="4" operator="dilate" in="SourceAlpha" result="effect1_dropShadow_579_542"/>
<feOffset dx="4" dy="4"/>
<feGaussianBlur stdDeviation="2"/>
<feComposite in2="hardAlpha" operator="out"/>
<feColorMatrix type="matrix" values="0 0 0 0 0 0 0 0 0 0 0 0 0 0 0 0 0 0 0.25 0"/>
<feBlend mode="normal" in2="BackgroundImageFix" result="effect1_dropShadow_579_542"/>
<feBlend mode="normal" in="SourceGraphic" in2="effect1_dropShadow_579_542" result="shape"/>
</filter>
<filter id="filter1_d_579_542" x="1" y="4" width="108" height="108" filterUnits="userSpaceOnUse" color-interpolation-filters="sRGB">
<feFlood flood-opacity="0" result="BackgroundImageFix"/>
<feColorMatrix in="SourceAlpha" type="matrix" values="0 0 0 0 0 0 0 0 0 0 0 0 0 0 0 0 0 0 127 0" result="hardAlpha"/>
<feOffset dy="4"/>
<feGaussianBlur stdDeviation="2"/>
<feComposite in2="hardAlpha" operator="out"/>
<feColorMatrix type="matrix" values="0 0 0 0 0 0 0 0 0 0 0 0 0 0 0 0 0 0 0.25 0"/>
<feBlend mode="normal" in2="BackgroundImageFix" result="effect1_dropShadow_579_542"/>
<feBlend mode="normal" in="SourceGraphic" in2="effect1_dropShadow_579_542" result="shape"/>
</filter>
<filter id="filter2_d_579_542" x="-4" y="16" width="44" height="26" filterUnits="userSpaceOnUse" color-interpolation-filters="sRGB">
<feFlood flood-opacity="0" result="BackgroundImageFix"/>
<feColorMatrix in="SourceAlpha" type="matrix" values="0 0 0 0 0 0 0 0 0 0 0 0 0 0 0 0 0 0 127 0" result="hardAlpha"/>
<feOffset dy="4"/>
<feGaussianBlur stdDeviation="2"/>
<feComposite in2="hardAlpha" operator="out"/>
<feColorMatrix type="matrix" values="0 0 0 0 0 0 0 0 0 0 0 0 0 0 0 0 0 0 0.25 0"/>
<feBlend mode="normal" in2="BackgroundImageFix" result="effect1_dropShadow_579_542"/>
<feBlend mode="normal" in="SourceGraphic" in2="effect1_dropShadow_579_542" result="shape"/>
</filter>
<clipPath id="clip0_579_542">
<rect width="308" height="109" fill="white"/>
</clipPath>
</defs>
</svg>
