<svg width="308" height="109" viewBox="0 0 308 109" fill="none" xmlns="http://www.w3.org/2000/svg">
<g clip-path="url(#clip0_579_638)">
<rect width="308" height="109" fill="white"/>
<g filter="url(#filter0_d_579_638)">
<path d="M105 4H303C304.105 4 305 4.89543 305 6V102C305 103.105 304.105 104 303 104H105V4Z" fill="white"/>
</g>
<g filter="url(#filter1_d_579_638)">
<path d="M5 6C5 4.89543 5.89543 4 7 4H103C104.105 4 105 4.89543 105 6V102C105 103.105 104.105 104 103 104H7C5.89543 104 5 103.105 5 102V6Z" fill="#7A7A7A"/>
</g>
<ellipse cx="5.72766" cy="94.2594" rx="4" ry="3.33807" transform="rotate(-15 5.72766 94.2594)" fill="white"/>
<ellipse cx="5.72766" cy="81.2594" rx="4" ry="3.33807" transform="rotate(-15 5.72766 81.2594)" fill="white"/>
<ellipse cx="5.72766" cy="68.2594" rx="4" ry="3.33807" transform="rotate(-15 5.72766 68.2594)" fill="white"/>
<ellipse cx="5.72766" cy="55.2594" rx="4" ry="3.33807" transform="rotate(-15 5.72766 55.2594)" fill="white"/>
<ellipse cx="5.72766" cy="42.2594" rx="4" ry="3.33807" transform="rotate(-15 5.72766 42.2594)" fill="white"/>
<ellipse cx="5.72766" cy="29.2594" rx="4" ry="3.33807" transform="rotate(-15 5.72766 29.2594)" fill="white"/>
<ellipse cx="5.72766" cy="10.2594" rx="4" ry="3.33807" transform="rotate(-15 5.72766 10.2594)" fill="white"/>
<line x1="103.5" y1="4" x2="103.5" y2="104" stroke="white" stroke-width="3" stroke-dasharray="2 2"/>
<path d="M25.7648 91.168C24.8408 91.168 23.7728 90.736 23.1008 90.112L23.7368 89.164C24.3488 89.668 24.9968 90.028 25.7648 90.028C26.6888 90.028 27.1448 89.56 27.1448 88.792C27.1448 86.848 23.4488 87.184 23.4488 84.616C23.4488 83.188 24.4568 82.252 25.9688 82.252C27.0728 82.252 27.7568 82.696 28.3328 83.308L27.6128 84.124C27.1208 83.644 26.7128 83.392 26.0288 83.392C25.2488 83.392 24.7808 83.824 24.7808 84.544C24.7808 86.296 28.4888 85.888 28.4888 88.684C28.4888 90.16 27.4688 91.168 25.7648 91.168ZM25.4288 92.488V90.64H26.4008V92.488H25.4288ZM25.4288 82.72V80.92H26.4008V82.72H25.4288ZM32.2246 91.168C31.2046 91.168 30.4726 90.748 29.9686 90.22L30.7126 89.368C31.0726 89.764 31.6126 90.028 32.1646 90.028C33.2806 90.028 34.2286 89.092 34.2286 86.284C34.2286 84.076 33.5446 83.068 32.4646 83.068C31.6966 83.068 31.0966 83.752 31.0966 84.916C31.0966 86.032 31.6126 86.68 32.5366 86.68C33.0886 86.68 33.7126 86.368 34.2286 85.564L34.3006 86.572C33.7846 87.256 32.9926 87.688 32.2846 87.688C30.8086 87.688 29.8126 86.764 29.8126 84.916C29.8126 83.152 31.0126 82.012 32.4526 82.012C34.1446 82.012 35.5126 83.368 35.5126 86.284C35.5126 89.764 33.9286 91.168 32.2246 91.168ZM39.0683 91.168C38.0483 91.168 37.3163 90.748 36.8123 90.22L37.5563 89.368C37.9163 89.764 38.4563 90.028 39.0083 90.028C40.1243 90.028 41.0723 89.092 41.0723 86.284C41.0723 84.076 40.3883 83.068 39.3083 83.068C38.5403 83.068 37.9403 83.752 37.9403 84.916C37.9403 86.032 38.4563 86.68 39.3803 86.68C39.9323 86.68 40.5563 86.368 41.0723 85.564L41.1443 86.572C40.6283 87.256 39.8363 87.688 39.1283 87.688C37.6523 87.688 36.6563 86.764 36.6563 84.916C36.6563 83.152 37.8563 82.012 39.2963 82.012C40.9883 82.012 42.3563 83.368 42.3563 86.284C42.3563 89.764 40.7723 91.168 39.0683 91.168ZM45.9121 91.168C44.8921 91.168 44.1601 90.748 43.6561 90.22L44.4001 89.368C44.7601 89.764 45.3001 90.028 45.8521 90.028C46.9681 90.028 47.9161 89.092 47.9161 86.284C47.9161 84.076 47.2321 83.068 46.1521 83.068C45.3841 83.068 44.7841 83.752 44.7841 84.916C44.7841 86.032 45.3001 86.68 46.2241 86.68C46.7761 86.68 47.4001 86.368 47.9161 85.564L47.9881 86.572C47.4721 87.256 46.6801 87.688 45.9721 87.688C44.4961 87.688 43.5001 86.764 43.5001 84.916C43.5001 83.152 44.7001 82.012 46.1401 82.012C47.8321 82.012 49.2001 83.368 49.2001 86.284C49.2001 89.764 47.6161 91.168 45.9121 91.168ZM59.0512 87.352H60.2272V90.328C60.2272 90.712 60.3112 90.76 60.8272 90.76C61.0552 90.76 62.1232 90.76 62.4232 90.76C62.8912 90.76 62.9752 90.544 63.0232 89.152C63.2752 89.332 63.7432 89.512 64.0672 89.584C63.9352 91.324 63.6232 91.78 62.5192 91.78C62.2432 91.78 60.9352 91.78 60.6712 91.78C59.3872 91.78 59.0512 91.444 59.0512 90.34V87.352ZM56.3632 80.836L57.5992 81.076C56.7232 82.576 55.4752 84.148 53.7232 85.408C53.5552 85.144 53.1832 84.76 52.9192 84.58C54.5392 83.488 55.7272 82.036 56.3632 80.836ZM55.4272 84.904V86.764H61.9072V84.904H55.4272ZM54.2872 83.896H63.1072V87.784H54.2872V83.896ZM59.6632 81.736H59.9152L60.1072 81.688L60.8872 82.192C60.4312 82.996 59.6752 83.992 59.0512 84.616C58.8352 84.448 58.4512 84.208 58.1992 84.064C58.7512 83.5 59.3872 82.564 59.6632 81.952V81.736ZM56.3272 81.736H59.9992V82.672H55.7512L56.3272 81.736ZM58.0192 84.568H59.2192C58.9552 87.868 58.3792 90.64 53.7232 91.912C53.6032 91.624 53.3272 91.192 53.0752 90.952C57.4672 89.86 57.8032 87.448 58.0192 84.568ZM71.4472 82.552H72.5512V90.388H71.4472V82.552ZM69.9232 86.572V87.244H74.1352V86.572H69.9232ZM69.9232 85.228V85.888H74.1352V85.228H69.9232ZM68.9872 84.496H75.1072V87.976H68.9872V84.496ZM68.3272 81.28H75.6232V83.512H74.5312V82.132H69.3712V83.512H68.3272V81.28ZM69.2752 83.08H74.7472V83.896H69.2752V83.08ZM68.4232 88.624H75.7672V89.488H68.4232V88.624ZM65.4352 81.376L66.2992 80.872C66.8272 81.46 67.4512 82.228 67.7632 82.72L66.8632 83.32C66.5752 82.816 65.9392 81.976 65.4352 81.376ZM65.0632 83.68H67.5832V84.604H65.0632V83.68ZM67.3312 89.032C68.0272 90.628 69.5272 90.832 71.8312 90.844C73.1032 90.844 74.9632 90.784 76.2472 90.664C76.0792 90.892 75.9472 91.408 75.8872 91.72C74.6992 91.792 73.1752 91.816 71.8192 91.816C69.0112 91.816 67.4752 91.48 66.5752 89.356L67.3312 89.032ZM67.1272 86.62H67.4632L67.6432 86.596L68.1352 86.788C67.7752 89.368 66.8512 91.108 65.5912 92.044C65.4472 91.816 65.0632 91.432 64.8472 91.276C66.0352 90.46 66.8392 88.936 67.1272 86.8V86.62ZM65.2672 87.688V86.86L65.7352 86.62H67.5712V87.52H65.9872C65.6872 87.52 65.3632 87.592 65.2672 87.688ZM65.2672 87.688C65.1952 87.448 64.9792 86.944 64.8712 86.728C65.0632 86.68 65.2552 86.596 65.4712 86.356C65.8192 86.008 66.9112 84.412 67.3072 83.764V83.728L67.6192 83.596L68.3272 83.92C67.7752 84.748 66.7312 86.26 66.0712 87.04C66.0712 87.04 65.2672 87.424 65.2672 87.688ZM77.2312 84.928H87.8512V85.948H77.2312V84.928ZM77.9752 82.888H87.0592V83.896H77.9752V82.888ZM84.3592 85.132C85.1032 86.296 86.6152 87.244 88.2832 87.664C88.0312 87.892 87.7072 88.324 87.5392 88.612C85.7992 88.06 84.2752 86.92 83.3872 85.468L84.3592 85.132ZM82.2112 80.824L83.3992 80.944C82.8952 83.992 81.2632 86.968 77.6032 88.624C77.4832 88.336 77.1472 87.892 76.8952 87.676C80.3872 86.212 81.8512 83.488 82.2112 80.824ZM78.9712 81.52L79.8712 81.088C80.2552 81.532 80.6992 82.156 80.8792 82.576L79.9312 83.068C79.7632 82.66 79.3432 82 78.9712 81.52ZM85.2352 81.136L86.2792 81.472C85.8592 82.144 85.3552 82.852 84.9472 83.32L84.0832 83.008C84.4792 82.516 84.9712 81.7 85.2352 81.136ZM79.0912 87.256H84.9112V88.288H79.0912V87.256ZM84.7432 87.256H85.8952C85.8952 87.256 85.8832 87.568 85.8712 87.724C85.7152 90.112 85.5472 91.108 85.1992 91.48C84.9592 91.744 84.7072 91.828 84.3232 91.876C83.9872 91.912 83.3752 91.912 82.7272 91.876C82.7152 91.552 82.5832 91.096 82.4032 90.808C82.9912 90.868 83.5672 90.868 83.7832 90.868C83.9992 90.868 84.1192 90.844 84.2392 90.736C84.4672 90.508 84.6112 89.632 84.7432 87.424V87.256ZM80.9272 87.628H82.1032C81.8512 89.728 81.1792 91.204 78.2992 91.984C78.1912 91.696 77.8912 91.24 77.6632 91.012C80.2192 90.424 80.7112 89.26 80.9272 87.628Z" fill="white"/>
<path d="M147.759 82.384H158.355V83.452H147.759V82.384ZM150.687 86.692H156.255V87.652H150.687V86.692ZM155.859 84.652H156.975V90.7C156.975 91.312 156.855 91.636 156.411 91.816C155.979 91.996 155.307 91.996 154.299 91.996C154.251 91.684 154.095 91.204 153.939 90.904C154.659 90.94 155.379 90.928 155.595 90.928C155.799 90.916 155.859 90.856 155.859 90.688V84.652ZM151.599 80.872L152.763 81.136C151.947 83.764 150.507 86.428 148.251 88.024C148.083 87.76 147.723 87.364 147.507 87.148C149.607 85.72 150.975 83.2 151.599 80.872ZM150.627 88.696H156.255V89.656H150.627V88.696ZM150.615 84.652H156.147V85.66H150.615V84.652ZM150.003 84.652H151.143V87.844C151.143 89.224 150.915 91 149.691 92.092C149.547 91.852 149.103 91.372 148.887 91.216C149.895 90.28 150.003 88.96 150.003 87.832V84.652ZM159.675 82.588H165.267V83.608H159.675V82.588ZM160.983 83.788L161.955 84.088C161.499 85.168 160.791 86.368 160.167 87.136C159.999 86.956 159.603 86.596 159.375 86.428C159.987 85.744 160.599 84.736 160.983 83.788ZM162.999 85.72L164.067 85.912C163.359 88.504 162.063 90.496 160.215 91.744C160.059 91.528 159.663 91.108 159.435 90.916C161.223 89.836 162.411 88.024 162.999 85.72ZM162.963 84.172L163.803 83.728C164.367 84.388 164.991 85.3 165.231 85.912L164.331 86.428C164.115 85.816 163.515 84.868 162.963 84.172ZM160.623 86.764L161.463 86.152C162.675 87.34 164.127 88.972 164.763 90.088L163.851 90.808C163.263 89.692 161.847 87.976 160.623 86.764ZM166.527 83.02H170.523V84.076H166.527V83.02ZM166.707 80.86L167.775 81.028C167.355 83.452 166.659 85.756 165.543 87.256C165.411 87.028 165.039 86.572 164.811 86.368C165.807 85.072 166.383 83.008 166.707 80.86ZM168.843 83.728L169.923 83.86C169.335 87.976 168.003 90.556 165.051 92.068C164.907 91.852 164.511 91.42 164.271 91.216C167.151 89.92 168.363 87.52 168.843 83.728ZM166.743 84.736C167.355 87.52 168.639 89.992 170.703 91.108C170.451 91.324 170.091 91.732 169.911 92.02C167.751 90.7 166.491 88.096 165.783 84.952L166.743 84.736ZM161.415 81.208L162.375 80.848C162.723 81.292 163.071 81.88 163.227 82.288L162.219 82.708C162.075 82.288 161.739 81.664 161.415 81.208ZM173.043 81.652H181.131V91.84H179.919V82.792H174.207V91.876H173.043V81.652ZM173.835 85.756H180.423V86.872H173.835V85.756ZM173.823 89.956H180.435V91.096H173.823V89.956ZM190.395 81.448H193.623V82.48H190.395V81.448ZM190.395 84.184H193.623V85.192H190.395V84.184ZM190.383 86.956H193.647V87.976H190.383V86.956ZM193.131 81.448H194.223V90.676C194.223 91.276 194.103 91.6 193.719 91.78C193.347 91.96 192.759 91.984 191.871 91.984C191.835 91.684 191.679 91.18 191.535 90.892C192.111 90.916 192.711 90.916 192.891 90.904C193.059 90.904 193.131 90.844 193.131 90.664V81.448ZM189.927 81.448H190.995V85.828C190.995 87.7 190.839 90.352 189.783 92.056C189.603 91.852 189.135 91.516 188.883 91.408C189.843 89.836 189.927 87.556 189.927 85.828V81.448ZM183.615 82.396H189.423V83.392H183.615V82.396ZM185.091 84.304H188.055V85.192H185.091V84.304ZM185.091 86.188H188.067V87.076H185.091V86.188ZM183.459 88.108H189.387V89.116H183.459V88.108ZM184.599 81.016H185.631V88.492H184.599V81.016ZM187.515 81.016H188.559V88.492H187.515V81.016ZM185.055 89.296L186.135 89.608C185.691 90.508 184.995 91.432 184.347 92.032C184.131 91.84 183.687 91.516 183.423 91.36C184.083 90.844 184.707 90.064 185.055 89.296ZM186.807 89.74L187.671 89.272C188.151 89.812 188.727 90.544 188.991 91.036L188.067 91.576C187.839 91.096 187.275 90.304 186.807 89.74ZM201.051 84.628C200.499 84.628 200.043 84.22 200.043 83.632C200.043 83.032 200.499 82.624 201.051 82.624C201.591 82.624 202.059 83.032 202.059 83.632C202.059 84.22 201.591 84.628 201.051 84.628ZM201.051 90.436C200.499 90.436 200.043 90.028 200.043 89.44C200.043 88.84 200.499 88.432 201.051 88.432C201.591 88.432 202.059 88.84 202.059 89.44C202.059 90.028 201.591 90.436 201.051 90.436ZM207.567 91V90.196C210.183 87.892 211.515 86.176 211.515 84.724C211.515 83.776 211.011 83.116 210.027 83.116C209.331 83.116 208.755 83.548 208.287 84.088L207.495 83.332C208.263 82.504 209.043 82.012 210.195 82.012C211.815 82.012 212.859 83.056 212.859 84.664C212.859 86.356 211.491 88.12 209.619 89.92C210.075 89.872 210.639 89.824 211.071 89.824H213.279V91H207.567ZM217.315 91.168C215.575 91.168 214.459 89.62 214.459 86.548C214.459 83.5 215.575 82.012 217.315 82.012C219.043 82.012 220.171 83.5 220.171 86.548C220.171 89.62 219.043 91.168 217.315 91.168ZM217.315 90.064C218.215 90.064 218.839 89.104 218.839 86.548C218.839 84.028 218.215 83.092 217.315 83.092C216.415 83.092 215.779 84.028 215.779 86.548C215.779 89.104 216.415 90.064 217.315 90.064ZM221.254 91V90.196C223.87 87.892 225.202 86.176 225.202 84.724C225.202 83.776 224.698 83.116 223.714 83.116C223.018 83.116 222.442 83.548 221.974 84.088L221.182 83.332C221.95 82.504 222.73 82.012 223.882 82.012C225.502 82.012 226.546 83.056 226.546 84.664C226.546 86.356 225.178 88.12 223.306 89.92C223.762 89.872 224.326 89.824 224.758 89.824H226.966V91H221.254ZM230.786 91.168C229.406 91.168 228.506 90.616 227.906 89.944L228.59 89.056C229.106 89.584 229.754 90.028 230.678 90.028C231.662 90.028 232.346 89.476 232.346 88.564C232.346 87.58 231.722 86.956 229.742 86.956V85.924C231.47 85.924 232.046 85.276 232.046 84.388C232.046 83.608 231.542 83.116 230.69 83.116C230.018 83.116 229.442 83.44 228.938 83.944L228.206 83.068C228.914 82.444 229.73 82.012 230.75 82.012C232.334 82.012 233.45 82.828 233.45 84.28C233.45 85.3 232.862 86.008 231.926 86.356V86.416C232.946 86.68 233.75 87.436 233.75 88.636C233.75 90.232 232.418 91.168 230.786 91.168ZM236.214 91.168C235.686 91.168 235.29 90.76 235.29 90.196C235.29 89.62 235.686 89.224 236.214 89.224C236.73 89.224 237.138 89.62 237.138 90.196C237.138 90.76 236.73 91.168 236.214 91.168ZM241.42 91.168C239.68 91.168 238.564 89.62 238.564 86.548C238.564 83.5 239.68 82.012 241.42 82.012C243.148 82.012 244.276 83.5 244.276 86.548C244.276 89.62 243.148 91.168 241.42 91.168ZM241.42 90.064C242.32 90.064 242.944 89.104 242.944 86.548C242.944 84.028 242.32 83.092 241.42 83.092C240.52 83.092 239.884 84.028 239.884 86.548C239.884 89.104 240.52 90.064 241.42 90.064ZM248.528 91.168C246.848 91.168 245.48 89.752 245.48 86.752C245.48 83.368 247.064 82.012 248.816 82.012C249.8 82.012 250.52 82.42 251.024 82.96L250.268 83.8C249.944 83.416 249.404 83.14 248.888 83.14C247.712 83.14 246.764 84.052 246.764 86.752C246.764 89.032 247.436 90.1 248.516 90.1C249.284 90.1 249.884 89.404 249.884 88.264C249.884 87.124 249.368 86.488 248.432 86.488C247.904 86.488 247.268 86.8 246.74 87.604L246.68 86.596C247.196 85.9 248.012 85.492 248.672 85.492C250.16 85.492 251.168 86.392 251.168 88.264C251.168 90.016 249.956 91.168 248.528 91.168ZM253.476 91.168C252.948 91.168 252.552 90.76 252.552 90.196C252.552 89.62 252.948 89.224 253.476 89.224C253.992 89.224 254.4 89.62 254.4 90.196C254.4 90.76 253.992 91.168 253.476 91.168ZM255.778 91V90.196C258.394 87.892 259.726 86.176 259.726 84.724C259.726 83.776 259.222 83.116 258.238 83.116C257.542 83.116 256.966 83.548 256.498 84.088L255.706 83.332C256.474 82.504 257.254 82.012 258.406 82.012C260.026 82.012 261.07 83.056 261.07 84.664C261.07 86.356 259.702 88.12 257.83 89.92C258.286 89.872 258.85 89.824 259.282 89.824H261.49V91H255.778ZM264.409 91C264.565 87.784 265.129 85.72 266.845 83.344H262.693V82.168H268.369V83.008C266.305 85.6 265.981 87.556 265.825 91H264.409Z" fill="#7A7A7A"/>
<path d="M126.556 53.612H130.48V54.668H126.556V53.612ZM126.544 59.096H130.684V60.164H126.544V59.096ZM126.484 56.348H130.216V57.38H126.484V56.348ZM120.028 53.6H123.7V54.668H120.028V53.6ZM120.196 56.336H123.652V57.368H120.196V56.336ZM125.968 51.932H127.096V63.008H125.968V51.932ZM119.656 59.288C120.7 59.144 122.26 58.916 123.784 58.688L123.832 59.696C122.452 59.948 121 60.212 119.884 60.416L119.656 59.288ZM123.172 51.932H124.3V57.548C124.3 59.36 123.784 61.796 120.868 63.164C120.688 62.888 120.34 62.528 120.064 62.312C122.692 61.244 123.172 58.856 123.172 57.56V51.932ZM136.096 55.184H137.164C136.948 57.164 136.6 59.732 136.348 61.232H135.244C135.556 59.684 135.916 57.104 136.096 55.184ZM137.872 56.468L138.484 56.072C138.94 56.432 139.492 56.96 139.756 57.32L139.12 57.764C138.88 57.392 138.34 56.852 137.872 56.468ZM137.56 58.988L138.196 58.58C138.688 58.964 139.3 59.54 139.588 59.924L138.928 60.392C138.652 59.996 138.052 59.396 137.56 58.988ZM136.24 53.168H142.444V54.2H136.24V53.168ZM136.564 55.184H141.22V56.168H136.564V55.184ZM134.584 57.62H142.756V58.652H134.584V57.62ZM135.82 60.26H142.432V61.232H135.82V60.26ZM136.384 51.86L137.488 52.148C136.984 53.648 136.192 55.172 135.388 56.144C135.16 55.964 134.68 55.664 134.404 55.52C135.232 54.632 135.964 53.24 136.384 51.86ZM140.896 55.184H141.952C141.952 55.184 141.94 55.544 141.928 55.7C141.748 60.296 141.556 61.892 141.148 62.408C140.896 62.744 140.62 62.84 140.236 62.888C139.888 62.936 139.3 62.924 138.724 62.888C138.7 62.612 138.592 62.204 138.424 61.94C139.012 61.988 139.528 62 139.768 62C139.972 62 140.092 61.964 140.212 61.82C140.536 61.448 140.74 59.816 140.896 55.412V55.184ZM132.268 52.82L132.904 52.052C133.612 52.364 134.548 52.892 135.016 53.276L134.356 54.14C133.9 53.744 132.988 53.18 132.268 52.82ZM131.608 56.276L132.232 55.508C132.916 55.82 133.792 56.324 134.224 56.708L133.576 57.572C133.168 57.176 132.292 56.624 131.608 56.276ZM131.956 62.192C132.448 61.256 133.12 59.696 133.624 58.304L134.488 58.928C134.044 60.2 133.468 61.664 132.952 62.816L131.956 62.192ZM145.792 53.672H148.72V54.752H145.792V53.672ZM150.364 51.884H151.552V63.008H150.364V51.884ZM144.688 56.42L145.444 55.712C146.284 56.444 147.412 57.488 147.94 58.172L147.124 58.976C146.62 58.292 145.54 57.188 144.688 56.42ZM145.756 51.86L146.896 52.076C146.404 54.368 145.576 56.516 144.484 57.896C144.28 57.704 143.788 57.344 143.524 57.176C144.604 55.952 145.348 53.96 145.756 51.86ZM148.324 53.672H148.552L148.768 53.636L149.572 53.864C148.972 58.676 147.16 61.568 144.544 62.984C144.352 62.708 143.884 62.228 143.584 62.036C146.164 60.764 147.832 58.232 148.324 53.96V53.672ZM151.084 56.168L151.972 55.508C152.908 56.312 154.192 57.476 154.804 58.232L153.856 59.012C153.28 58.244 152.044 57.032 151.084 56.168ZM155.812 52.424H159.676V53.42H155.812V52.424ZM155.536 56.252H160.108V57.272H155.536V56.252ZM157.432 56.78H158.524V61.748C158.524 62.312 158.428 62.624 158.032 62.792C157.648 62.972 157.084 62.984 156.268 62.984C156.22 62.672 156.064 62.216 155.92 61.904C156.484 61.916 157.048 61.916 157.216 61.916C157.384 61.904 157.432 61.868 157.432 61.724V56.78ZM159.328 52.424H159.58L159.784 52.364L160.492 52.856C159.904 53.792 159.052 54.848 158.284 55.508C158.128 55.304 157.828 54.992 157.636 54.836C158.272 54.272 158.992 53.3 159.328 52.64V52.424ZM159.784 56.252H159.94L160.096 56.216L160.804 56.396C160.516 57.356 160.156 58.436 159.856 59.12L159.004 58.916C159.268 58.292 159.58 57.248 159.784 56.408V56.252ZM156.088 54.74L156.676 53.996C157.672 54.488 158.908 55.268 159.508 55.856L158.872 56.696C158.308 56.084 157.096 55.256 156.088 54.74ZM160.504 52.4H166.624V53.36H160.504V52.4ZM161.992 57.008V58.004H165.148V57.008H161.992ZM161.992 58.808V59.816H165.148V58.808H161.992ZM161.992 55.208V56.204H165.148V55.208H161.992ZM160.948 54.356H166.24V60.668H160.948V54.356ZM162.988 52.892L164.272 53.048C164.068 53.768 163.828 54.524 163.636 55.04L162.64 54.848C162.772 54.296 162.928 53.468 162.988 52.892ZM162.136 60.8L163.096 61.4C162.436 62.036 161.296 62.696 160.348 63.056C160.18 62.84 159.832 62.492 159.592 62.3C160.54 61.964 161.62 61.328 162.136 60.8ZM163.948 61.448L164.788 60.872C165.496 61.304 166.42 61.952 166.9 62.408L166 63.044C165.568 62.6 164.656 61.916 163.948 61.448ZM172.084 52.868H178.432V53.696H172.084V52.868ZM171.844 55.748H178.672V56.576H171.844V55.748ZM171.796 60.212H178.708V61.052H171.796V60.212ZM172.384 54.296H178.24V55.088H172.384V54.296ZM173.476 51.884H174.472V56.096H173.476V51.884ZM176.02 51.884H177.028V56.096H176.02V51.884ZM174.736 56.12H175.732V60.464H174.736V56.12ZM177.016 57.164H178.06V61.916C178.06 62.432 177.952 62.696 177.604 62.852C177.232 63.008 176.68 63.008 175.852 63.008C175.804 62.744 175.672 62.348 175.54 62.096C176.104 62.108 176.656 62.108 176.812 62.108C176.968 62.096 177.016 62.06 177.016 61.916V57.164ZM172.504 57.164H177.46V57.992H173.524V63.032H172.504V57.164ZM173.02 58.712H177.448V59.456H173.02V58.712ZM168.688 60.164L169.696 60.392C169.396 61.388 168.868 62.384 168.316 63.032C168.124 62.876 167.704 62.588 167.464 62.456C168.004 61.88 168.46 61.016 168.688 60.164ZM170.152 60.512L171.004 60.14C171.4 60.74 171.832 61.532 172.024 62.048L171.136 62.468C170.956 61.952 170.536 61.124 170.152 60.512ZM169.084 55.46V56.828H170.62V55.46H169.084ZM169.084 57.68V59.06H170.62V57.68H169.084ZM169.084 53.252V54.596H170.62V53.252H169.084ZM168.1 52.328H171.616V59.984H168.1V52.328ZM180.484 55.688H189.388V56.624H181.564V62.984H180.484V55.688ZM188.812 55.688H189.856V61.868C189.856 62.408 189.724 62.66 189.328 62.804C188.944 62.936 188.308 62.948 187.312 62.948C187.264 62.696 187.12 62.336 186.988 62.096C187.66 62.12 188.356 62.108 188.536 62.096C188.74 62.096 188.812 62.036 188.812 61.868V55.688ZM183.448 58.664H187.384V61.496H183.448V60.692H186.448V59.48H183.448V58.664ZM182.848 58.664H183.808V62.036H182.848V58.664ZM179.848 53.108H190.468V54.08H179.848V53.108ZM182.38 54.344L183.352 54.032C183.604 54.452 183.928 55.016 184.084 55.364L183.076 55.748C182.932 55.388 182.632 54.788 182.38 54.344ZM186.892 54.092L188.032 54.344C187.648 54.98 187.216 55.688 186.868 56.132L185.992 55.892C186.304 55.4 186.7 54.632 186.892 54.092ZM184.372 52.076L185.452 51.8C185.656 52.292 185.884 52.928 186.004 53.336L184.876 53.66C184.78 53.24 184.564 52.568 184.372 52.076ZM183.52 56.18H184.516C184.396 57.632 183.928 58.412 182.068 58.82C181.996 58.592 181.744 58.22 181.552 58.04C183.1 57.764 183.436 57.26 183.52 56.18ZM185.608 56.192H186.616V57.188C186.616 57.452 186.64 57.548 186.844 57.548C187 57.548 187.552 57.548 187.72 57.548C187.9 57.548 188.224 57.536 188.392 57.488C188.416 57.752 188.428 58.028 188.464 58.268C188.308 58.328 187.996 58.34 187.744 58.34C187.516 58.34 186.808 58.34 186.604 58.34C185.764 58.34 185.608 57.968 185.608 57.176V56.192ZM194.884 53.456V55.448H199.432V53.456H194.884ZM193.78 52.376H200.584V56.528H193.78V52.376ZM192.076 57.692H196.492V62.924H195.352V58.772H193.156V63.008H192.076V57.692ZM197.668 57.692H202.288V62.948H201.148V58.772H198.76V63.008H197.668V57.692ZM192.556 61.292H195.82V62.384H192.556V61.292ZM198.208 61.292H201.688V62.384H198.208V61.292ZM206.868 52.364H209.748V53.384H207.864V62.984H206.868V52.364ZM209.544 52.364H209.736L209.904 52.316L210.648 52.748C210.312 53.744 209.892 54.932 209.52 55.88C210.324 56.864 210.504 57.716 210.504 58.448C210.504 59.156 210.36 59.672 210 59.936C209.832 60.068 209.604 60.14 209.352 60.176C209.124 60.212 208.824 60.212 208.548 60.2C208.548 59.924 208.452 59.492 208.284 59.216C208.536 59.228 208.74 59.24 208.92 59.228C209.04 59.216 209.172 59.192 209.268 59.12C209.424 59 209.496 58.7 209.496 58.34C209.496 57.716 209.316 56.9 208.524 56C208.92 54.92 209.328 53.456 209.544 52.676V52.364ZM211.692 52.388H216.504V57.776H211.692V56.78H215.4V53.372H211.692V52.388ZM211.764 54.596H216.012V55.532H211.764V54.596ZM214.056 57.188C214.548 59.384 215.64 61.184 217.476 61.964C217.224 62.192 216.876 62.636 216.708 62.948C214.764 61.952 213.684 59.948 213.12 57.368L214.056 57.188ZM216.468 58.04L217.212 58.844C216.528 59.396 215.64 59.996 214.98 60.368L214.38 59.66C215.016 59.264 215.94 58.568 216.468 58.04ZM211.14 63.032L211.044 62.036L211.548 61.652L214.176 61.04C214.176 61.364 214.188 61.82 214.224 62.072C211.8 62.708 211.392 62.864 211.14 63.032ZM211.14 63.032C211.056 62.78 210.816 62.324 210.648 62.12C210.852 61.988 211.14 61.712 211.14 61.184V52.388H212.244V61.964C212.244 61.964 211.14 62.624 211.14 63.032ZM221.04 54.02V54.572H226.584V54.02H221.04ZM221.04 52.88V53.42H226.584V52.88H221.04ZM219.948 52.256H227.724V55.196H219.948V52.256ZM220.8 58.76V59.336H226.932V58.76H220.8ZM220.8 57.584V58.148H226.932V57.584H220.8ZM219.732 56.936H228.048V59.984H219.732V56.936ZM223.272 57.164H224.376V62.324H223.272V57.164ZM218.436 55.64H229.272V56.48H218.436V55.64ZM219.432 60.524H228.3V61.28H219.432V60.524ZM218.388 61.868H229.32V62.72H218.388V61.868ZM236.364 58.352H237.54V61.328C237.54 61.712 237.624 61.76 238.14 61.76C238.368 61.76 239.436 61.76 239.736 61.76C240.204 61.76 240.288 61.544 240.336 60.152C240.588 60.332 241.056 60.512 241.38 60.584C241.248 62.324 240.936 62.78 239.832 62.78C239.556 62.78 238.248 62.78 237.984 62.78C236.7 62.78 236.364 62.444 236.364 61.34V58.352ZM233.676 51.836L234.912 52.076C234.036 53.576 232.788 55.148 231.036 56.408C230.868 56.144 230.496 55.76 230.232 55.58C231.852 54.488 233.04 53.036 233.676 51.836ZM232.74 55.904V57.764H239.22V55.904H232.74ZM231.6 54.896H240.42V58.784H231.6V54.896ZM236.976 52.736H237.228L237.42 52.688L238.2 53.192C237.744 53.996 236.988 54.992 236.364 55.616C236.148 55.448 235.764 55.208 235.512 55.064C236.064 54.5 236.7 53.564 236.976 52.952V52.736ZM233.64 52.736H237.312V53.672H233.064L233.64 52.736ZM235.332 55.568H236.532C236.268 58.868 235.692 61.64 231.036 62.912C230.916 62.624 230.64 62.192 230.388 61.952C234.78 60.86 235.116 58.448 235.332 55.568ZM248.76 53.552H249.864V61.388H248.76V53.552ZM247.236 57.572V58.244H251.448V57.572H247.236ZM247.236 56.228V56.888H251.448V56.228H247.236ZM246.3 55.496H252.42V58.976H246.3V55.496ZM245.64 52.28H252.936V54.512H251.844V53.132H246.684V54.512H245.64V52.28ZM246.588 54.08H252.06V54.896H246.588V54.08ZM245.736 59.624H253.08V60.488H245.736V59.624ZM242.748 52.376L243.612 51.872C244.14 52.46 244.764 53.228 245.076 53.72L244.176 54.32C243.888 53.816 243.252 52.976 242.748 52.376ZM242.376 54.68H244.896V55.604H242.376V54.68ZM244.644 60.032C245.34 61.628 246.84 61.832 249.144 61.844C250.416 61.844 252.276 61.784 253.56 61.664C253.392 61.892 253.26 62.408 253.2 62.72C252.012 62.792 250.488 62.816 249.132 62.816C246.324 62.816 244.788 62.48 243.888 60.356L244.644 60.032ZM244.44 57.62H244.776L244.956 57.596L245.448 57.788C245.088 60.368 244.164 62.108 242.904 63.044C242.76 62.816 242.376 62.432 242.16 62.276C243.348 61.46 244.152 59.936 244.44 57.8V57.62ZM242.58 58.688V57.86L243.048 57.62H244.884V58.52H243.3C243 58.52 242.676 58.592 242.58 58.688ZM242.58 58.688C242.508 58.448 242.292 57.944 242.184 57.728C242.376 57.68 242.568 57.596 242.784 57.356C243.132 57.008 244.224 55.412 244.62 54.764V54.728L244.932 54.596L245.64 54.92C245.088 55.748 244.044 57.26 243.384 58.04C243.384 58.04 242.58 58.424 242.58 58.688Z" fill="#003060"/>
<g filter="url(#filter2_d_579_638)">
<path d="M0 19C0 17.3431 1.34315 16 3 16H33C34.6569 16 36 17.3431 36 19V31C36 32.6569 34.6569 34 33 34H0V19Z" fill="#FFCD78"/>
</g>
<path d="M0 34H5V39L2.5 36.5L0 34Z" fill="#FFCD78"/>
<path d="M8.85 20.97H11.25V21.82H9.68V29.82H8.85V20.97ZM11.08 20.97H11.24L11.38 20.93L12 21.29C11.72 22.12 11.37 23.11 11.06 23.9C11.73 24.72 11.88 25.43 11.88 26.04C11.88 26.63 11.76 27.06 11.46 27.28C11.32 27.39 11.13 27.45 10.92 27.48C10.73 27.51 10.48 27.51 10.25 27.5C10.25 27.27 10.17 26.91 10.03 26.68C10.24 26.69 10.41 26.7 10.56 26.69C10.66 26.68 10.77 26.66 10.85 26.6C10.98 26.5 11.04 26.25 11.04 25.95C11.04 25.43 10.89 24.75 10.23 24C10.56 23.1 10.9 21.88 11.08 21.23V20.97ZM12.87 20.99H16.88V25.48H12.87V24.65H15.96V21.81H12.87V20.99ZM12.93 22.83H16.47V23.61H12.93V22.83ZM14.84 24.99C15.25 26.82 16.16 28.32 17.69 28.97C17.48 29.16 17.19 29.53 17.05 29.79C15.43 28.96 14.53 27.29 14.06 25.14L14.84 24.99ZM16.85 25.7L17.47 26.37C16.9 26.83 16.16 27.33 15.61 27.64L15.11 27.05C15.64 26.72 16.41 26.14 16.85 25.7ZM12.41 29.86L12.33 29.03L12.75 28.71L14.94 28.2C14.94 28.47 14.95 28.85 14.98 29.06C12.96 29.59 12.62 29.72 12.41 29.86ZM12.41 29.86C12.34 29.65 12.14 29.27 12 29.1C12.17 28.99 12.41 28.76 12.41 28.32V20.99H13.33V28.97C13.33 28.97 12.41 29.52 12.41 29.86ZM20.66 22.35V22.81H25.28V22.35H20.66ZM20.66 21.4V21.85H25.28V21.4H20.66ZM19.75 20.88H26.23V23.33H19.75V20.88ZM20.46 26.3V26.78H25.57V26.3H20.46ZM20.46 25.32V25.79H25.57V25.32H20.46ZM19.57 24.78H26.5V27.32H19.57V24.78ZM22.52 24.97H23.44V29.27H22.52V24.97ZM18.49 23.7H27.52V24.4H18.49V23.7ZM19.32 27.77H26.71V28.4H19.32V27.77ZM18.45 28.89H27.56V29.6H18.45V28.89Z" fill="white"/>
<path d="M121.85 20.97H124.25V21.82H122.68V29.82H121.85V20.97ZM124.08 20.97H124.24L124.38 20.93L125 21.29C124.72 22.12 124.37 23.11 124.06 23.9C124.73 24.72 124.88 25.43 124.88 26.04C124.88 26.63 124.76 27.06 124.46 27.28C124.32 27.39 124.13 27.45 123.92 27.48C123.73 27.51 123.48 27.51 123.25 27.5C123.25 27.27 123.17 26.91 123.03 26.68C123.24 26.69 123.41 26.7 123.56 26.69C123.66 26.68 123.77 26.66 123.85 26.6C123.98 26.5 124.04 26.25 124.04 25.95C124.04 25.43 123.89 24.75 123.23 24C123.56 23.1 123.9 21.88 124.08 21.23V20.97ZM125.87 20.99H129.88V25.48H125.87V24.65H128.96V21.81H125.87V20.99ZM125.93 22.83H129.47V23.61H125.93V22.83ZM127.84 24.99C128.25 26.82 129.16 28.32 130.69 28.97C130.48 29.16 130.19 29.53 130.05 29.79C128.43 28.96 127.53 27.29 127.06 25.14L127.84 24.99ZM129.85 25.7L130.47 26.37C129.9 26.83 129.16 27.33 128.61 27.64L128.11 27.05C128.64 26.72 129.41 26.14 129.85 25.7ZM125.41 29.86L125.33 29.03L125.75 28.71L127.94 28.2C127.94 28.47 127.95 28.85 127.98 29.06C125.96 29.59 125.62 29.72 125.41 29.86ZM125.41 29.86C125.34 29.65 125.14 29.27 125 29.1C125.17 28.99 125.41 28.76 125.41 28.32V20.99H126.33V28.97C126.33 28.97 125.41 29.52 125.41 29.86ZM133.66 22.35V22.81H138.28V22.35H133.66ZM133.66 21.4V21.85H138.28V21.4H133.66ZM132.75 20.88H139.23V23.33H132.75V20.88ZM133.46 26.3V26.78H138.57V26.3H133.46ZM133.46 25.32V25.79H138.57V25.32H133.46ZM132.57 24.78H139.5V27.32H132.57V24.78ZM135.52 24.97H136.44V29.27H135.52V24.97ZM131.49 23.7H140.52V24.4H131.49V23.7ZM132.32 27.77H139.71V28.4H132.32V27.77ZM131.45 28.89H140.56V29.6H131.45V28.89Z" fill="white"/>
<path d="M129 96C134.523 96 139 91.5228 139 86C139 80.4772 134.523 76 129 76C123.477 76 119 80.4772 119 86C119 91.5228 123.477 96 129 96Z" stroke="#7A7A7A" stroke-width="2" stroke-linecap="round" stroke-linejoin="round"/>
<path d="M129 80V86L133 88" stroke="#7A7A7A" stroke-width="2" stroke-linecap="round" stroke-linejoin="round"/>
<rect x="118" y="16" width="49" height="18" rx="2" fill="#003060"/>
<path d="M126.47 23.82H127.45V29.84H126.47V23.82ZM124.46 25.55V26.27H129.59V25.55H124.46ZM124.46 24.13V24.85H129.59V24.13H124.46ZM123.53 23.39H130.56V27.01H123.53V23.39ZM122.55 27.67H131.46V28.5H122.55V27.67ZM124.07 21.55V22.34H125.77V21.55H124.07ZM123.23 20.95H126.66V22.93H123.23V20.95ZM128.22 21.55V22.34H129.94V21.55H128.22ZM127.37 20.95H130.83V22.93H127.37V20.95ZM132.47 24.52H141.54V25.22H132.47V24.52ZM133.28 26.93H140.72V27.64H133.28V26.93ZM132.65 28.15H141.37V28.88H132.65V28.15ZM133.67 23.35H140.48V26.44H133.58V25.76H139.52V24.03H133.67V23.35ZM136.48 22.84H137.45V29.84H136.48V22.84ZM133.75 21.13H136.91V21.86H133.75V21.13ZM137.83 21.13H141.59V21.86H137.83V21.13ZM133.89 20.48L134.72 20.73C134.32 21.57 133.65 22.41 133.01 22.95C132.88 22.78 132.56 22.46 132.37 22.3C132.98 21.85 133.56 21.17 133.89 20.48ZM137.94 20.48L138.81 20.71C138.47 21.52 137.88 22.32 137.3 22.82C137.14 22.67 136.79 22.39 136.59 22.25C137.16 21.82 137.66 21.16 137.94 20.48ZM134.43 22.22L135.04 21.77C135.35 22.05 135.74 22.45 135.92 22.71L135.28 23.22C135.11 22.95 134.73 22.52 134.43 22.22ZM138.79 22.19L139.45 21.76C139.76 22.03 140.15 22.43 140.34 22.69L139.66 23.19C139.49 22.91 139.11 22.49 138.79 22.19ZM142.87 23.6H146.01V24.33H142.87V23.6ZM142.87 24.93H146V25.66H142.87V24.93ZM142.43 22.24H146.31V23.01H142.43V22.24ZM143.3 26.29H145.97V29.26H143.3V28.49H145.15V27.06H143.3V26.29ZM142.87 26.29H143.69V29.71H142.87V26.29ZM143.53 20.88L144.27 20.52C144.56 20.93 144.87 21.47 145.03 21.83L144.26 22.26C144.12 21.89 143.8 21.3 143.53 20.88ZM146.51 21.37H151.64V22.29H146.51V21.37ZM149.25 21.66H150.21V28.53C150.21 29.12 150.07 29.41 149.67 29.57C149.26 29.73 148.6 29.74 147.63 29.74C147.58 29.47 147.41 29.02 147.25 28.76C147.98 28.8 148.75 28.79 148.97 28.78C149.17 28.77 149.25 28.71 149.25 28.52V21.66ZM156.47 23.82H157.45V29.84H156.47V23.82ZM154.46 25.55V26.27H159.59V25.55H154.46ZM154.46 24.13V24.85H159.59V24.13H154.46ZM153.53 23.39H160.56V27.01H153.53V23.39ZM152.55 27.67H161.46V28.5H152.55V27.67ZM154.07 21.55V22.34H155.77V21.55H154.07ZM153.23 20.95H156.66V22.93H153.23V20.95ZM158.22 21.55V22.34H159.94V21.55H158.22ZM157.37 20.95H160.83V22.93H157.37V20.95Z" fill="white"/>
<path d="M178.559 20.6H188.669V21.86H178.559V20.6ZM180.554 26.975H181.739V27.875H180.554V26.975ZM182.864 23.87H184.124V33.125H182.864V23.87ZM187.019 25.07H188.294V31.97C188.294 32.57 188.174 32.87 187.769 33.05C187.379 33.23 186.764 33.23 185.864 33.23C185.819 32.915 185.669 32.48 185.534 32.18C186.089 32.195 186.644 32.195 186.809 32.18C186.974 32.18 187.019 32.135 187.019 31.97V25.07ZM178.844 25.07H187.649V26.27H180.059V33.245H178.844V25.07ZM175.409 20.51L176.219 19.49C177.059 19.865 178.094 20.48 178.619 20.96L177.764 22.1C177.284 21.605 176.249 20.93 175.409 20.51ZM174.794 24.545L175.574 23.495C176.444 23.84 177.509 24.395 178.034 24.86L177.209 26.015C176.699 25.55 175.649 24.92 174.794 24.545ZM175.079 32.345C175.679 31.19 176.504 29.255 177.104 27.545L178.244 28.28C177.704 29.87 176.999 31.67 176.354 33.095L175.079 32.345ZM180.719 19.325H182.069V22.94H185.009V19.325H186.404V24.155H180.719V19.325ZM181.109 26.975H182.009C182.069 28.67 182.399 30.02 183.059 30.665C182.879 30.77 182.564 31.055 182.429 31.265C181.739 30.5 181.379 29.12 181.304 27.41H181.109V26.975ZM181.094 28.37H181.904C181.769 29.54 181.409 30.68 180.584 31.4C180.464 31.22 180.194 30.935 180.014 30.815C180.689 30.245 181.004 29.27 181.094 28.37ZM184.589 26.975H185.729V27.875H184.589V26.975ZM185.129 26.975H186.044C186.104 28.67 186.479 30.005 187.184 30.62C186.989 30.755 186.674 31.025 186.524 31.235C185.804 30.47 185.399 29.12 185.324 27.41H185.129V26.975ZM185.129 28.355H185.954C185.819 29.495 185.459 30.575 184.604 31.265C184.484 31.085 184.229 30.8 184.019 30.68C184.724 30.155 185.039 29.225 185.129 28.355ZM196.313 32.21C195.038 32.21 194.123 31.685 193.493 31.025L194.423 29.96C194.873 30.455 195.548 30.785 196.238 30.785C197.633 30.785 198.818 29.615 198.818 26.105C198.818 23.345 197.963 22.085 196.613 22.085C195.653 22.085 194.903 22.94 194.903 24.395C194.903 25.79 195.548 26.6 196.703 26.6C197.393 26.6 198.173 26.21 198.818 25.205L198.908 26.465C198.263 27.32 197.273 27.86 196.388 27.86C194.543 27.86 193.298 26.705 193.298 24.395C193.298 22.19 194.798 20.765 196.598 20.765C198.713 20.765 200.423 22.46 200.423 26.105C200.423 30.455 198.443 32.21 196.313 32.21ZM204.868 32.21C203.593 32.21 202.678 31.685 202.048 31.025L202.978 29.96C203.428 30.455 204.103 30.785 204.793 30.785C206.188 30.785 207.373 29.615 207.373 26.105C207.373 23.345 206.518 22.085 205.168 22.085C204.208 22.085 203.458 22.94 203.458 24.395C203.458 25.79 204.103 26.6 205.258 26.6C205.948 26.6 206.728 26.21 207.373 25.205L207.463 26.465C206.818 27.32 205.828 27.86 204.943 27.86C203.098 27.86 201.853 26.705 201.853 24.395C201.853 22.19 203.353 20.765 205.153 20.765C207.268 20.765 208.978 22.46 208.978 26.105C208.978 30.455 206.998 32.21 204.868 32.21ZM213.422 32.21C212.147 32.21 211.232 31.685 210.602 31.025L211.532 29.96C211.982 30.455 212.657 30.785 213.347 30.785C214.742 30.785 215.927 29.615 215.927 26.105C215.927 23.345 215.072 22.085 213.722 22.085C212.762 22.085 212.012 22.94 212.012 24.395C212.012 25.79 212.657 26.6 213.812 26.6C214.502 26.6 215.282 26.21 215.927 25.205L216.017 26.465C215.372 27.32 214.382 27.86 213.497 27.86C211.652 27.86 210.407 26.705 210.407 24.395C210.407 22.19 211.907 20.765 213.707 20.765C215.822 20.765 217.532 22.46 217.532 26.105C217.532 30.455 215.552 32.21 213.422 32.21ZM229.846 27.44H231.316V31.16C231.316 31.64 231.421 31.7 232.066 31.7C232.351 31.7 233.686 31.7 234.061 31.7C234.646 31.7 234.751 31.43 234.811 29.69C235.126 29.915 235.711 30.14 236.116 30.23C235.951 32.405 235.561 32.975 234.181 32.975C233.836 32.975 232.201 32.975 231.871 32.975C230.266 32.975 229.846 32.555 229.846 31.175V27.44ZM226.486 19.295L228.031 19.595C226.936 21.47 225.376 23.435 223.186 25.01C222.976 24.68 222.511 24.2 222.181 23.975C224.206 22.61 225.691 20.795 226.486 19.295ZM225.316 24.38V26.705H233.416V24.38H225.316ZM223.891 23.12H234.916V27.98H223.891V23.12ZM230.611 20.42H230.926L231.166 20.36L232.141 20.99C231.571 21.995 230.626 23.24 229.846 24.02C229.576 23.81 229.096 23.51 228.781 23.33C229.471 22.625 230.266 21.455 230.611 20.69V20.42ZM226.441 20.42H231.031V21.59H225.721L226.441 20.42ZM228.556 23.96H230.056C229.726 28.085 229.006 31.55 223.186 33.14C223.036 32.78 222.691 32.24 222.376 31.94C227.866 30.575 228.286 27.56 228.556 23.96ZM245.341 21.44H246.721V31.235H245.341V21.44ZM243.436 26.465V27.305H248.701V26.465H243.436ZM243.436 24.785V25.61H248.701V24.785H243.436ZM242.266 23.87H249.916V28.22H242.266V23.87ZM241.441 19.85H250.561V22.64H249.196V20.915H242.746V22.64H241.441V19.85ZM242.626 22.1H249.466V23.12H242.626V22.1ZM241.561 29.03H250.741V30.11H241.561V29.03ZM237.826 19.97L238.906 19.34C239.566 20.075 240.346 21.035 240.736 21.65L239.611 22.4C239.251 21.77 238.456 20.72 237.826 19.97ZM237.361 22.85H240.511V24.005H237.361V22.85ZM240.196 29.54C241.066 31.535 242.941 31.79 245.821 31.805C247.411 31.805 249.736 31.73 251.341 31.58C251.131 31.865 250.966 32.51 250.891 32.9C249.406 32.99 247.501 33.02 245.806 33.02C242.296 33.02 240.376 32.6 239.251 29.945L240.196 29.54ZM239.941 26.525H240.361L240.586 26.495L241.201 26.735C240.751 29.96 239.596 32.135 238.021 33.305C237.841 33.02 237.361 32.54 237.091 32.345C238.576 31.325 239.581 29.42 239.941 26.75V26.525ZM237.616 27.86V26.825L238.201 26.525H240.496V27.65H238.516C238.141 27.65 237.736 27.74 237.616 27.86ZM237.616 27.86C237.526 27.56 237.256 26.93 237.121 26.66C237.361 26.6 237.601 26.495 237.871 26.195C238.306 25.76 239.671 23.765 240.166 22.955V22.91L240.556 22.745L241.441 23.15C240.751 24.185 239.446 26.075 238.621 27.05C238.621 27.05 237.616 27.53 237.616 27.86Z" fill="#003060"/>
<path d="M61.6665 39H36.6665V60.6667H61.6665V39Z" stroke="white" stroke-width="2" stroke-linecap="round" stroke-linejoin="round"/>
<path d="M61.6665 47.3335H68.3332L73.3332 52.3335V60.6668H61.6665V47.3335Z" stroke="white" stroke-width="2" stroke-linecap="round" stroke-linejoin="round"/>
<path d="M44.1667 68.9998C46.4679 68.9998 48.3333 67.1344 48.3333 64.8332C48.3333 62.532 46.4679 60.6665 44.1667 60.6665C41.8655 60.6665 40 62.532 40 64.8332C40 67.1344 41.8655 68.9998 44.1667 68.9998Z" stroke="white" stroke-width="2" stroke-linecap="round" stroke-linejoin="round"/>
<path d="M65.8332 68.9998C68.1344 68.9998 69.9998 67.1344 69.9998 64.8332C69.9998 62.532 68.1344 60.6665 65.8332 60.6665C63.532 60.6665 61.6665 62.532 61.6665 64.8332C61.6665 67.1344 63.532 68.9998 65.8332 68.9998Z" stroke="white" stroke-width="2" stroke-linecap="round" stroke-linejoin="round"/>
<path d="M40.1329 55V47.64H44.5029V48.62H41.3029V50.86H44.0229V51.84H41.3029V55H40.1329ZM45.4235 55V49.5H46.3635L46.4635 50.49H46.4935C46.8835 49.78 47.4635 49.36 48.0535 49.36C48.3235 49.36 48.4935 49.4 48.6635 49.48L48.4635 50.48C48.2735 50.42 48.1335 50.39 47.9035 50.39C47.4635 50.39 46.9235 50.71 46.5835 51.58V55H45.4235ZM51.659 55.14C50.159 55.14 48.979 54.07 48.979 52.26C48.979 50.47 50.209 49.36 51.489 49.36C52.939 49.36 53.729 50.41 53.729 51.97C53.729 52.2 53.709 52.42 53.679 52.56H50.109C50.199 53.61 50.859 54.23 51.809 54.23C52.299 54.23 52.709 54.08 53.119 53.82L53.519 54.56C53.009 54.9 52.379 55.14 51.659 55.14ZM50.089 51.76H52.729C52.729 50.81 52.309 50.27 51.509 50.27C50.819 50.27 50.209 50.8 50.089 51.76ZM57.3231 55.14C55.8231 55.14 54.6431 54.07 54.6431 52.26C54.6431 50.47 55.8731 49.36 57.1531 49.36C58.6031 49.36 59.3931 50.41 59.3931 51.97C59.3931 52.2 59.3731 52.42 59.3431 52.56H55.7731C55.8631 53.61 56.5231 54.23 57.4731 54.23C57.9631 54.23 58.3731 54.08 58.7831 53.82L59.1831 54.56C58.6731 54.9 58.0431 55.14 57.3231 55.14ZM55.7531 51.76H58.3931C58.3931 50.81 57.9731 50.27 57.1731 50.27C56.4831 50.27 55.8731 50.8 55.7531 51.76Z" fill="white"/>
</g>
<defs>
<filter id="filter0_d_579_638" x="101" y="0" width="216" height="116" filterUnits="userSpaceOnUse" color-interpolation-filters="sRGB">
<feFlood flood-opacity="0" result="BackgroundImageFix"/>
<feColorMatrix in="SourceAlpha" type="matrix" values="0 0 0 0 0 0 0 0 0 0 0 0 0 0 0 0 0 0 127 0" result="hardAlpha"/>
<feMorphology radius="4" operator="dilate" in="SourceAlpha" result="effect1_dropShadow_579_638"/>
<feOffset dx="4" dy="4"/>
<feGaussianBlur stdDeviation="2"/>
<feComposite in2="hardAlpha" operator="out"/>
<feColorMatrix type="matrix" values="0 0 0 0 0 0 0 0 0 0 0 0 0 0 0 0 0 0 0.25 0"/>
<feBlend mode="normal" in2="BackgroundImageFix" result="effect1_dropShadow_579_638"/>
<feBlend mode="normal" in="SourceGraphic" in2="effect1_dropShadow_579_638" result="shape"/>
</filter>
<filter id="filter1_d_579_638" x="1" y="4" width="108" height="108" filterUnits="userSpaceOnUse" color-interpolation-filters="sRGB">
<feFlood flood-opacity="0" result="BackgroundImageFix"/>
<feColorMatrix in="SourceAlpha" type="matrix" values="0 0 0 0 0 0 0 0 0 0 0 0 0 0 0 0 0 0 127 0" result="hardAlpha"/>
<feOffset dy="4"/>
<feGaussianBlur stdDeviation="2"/>
<feComposite in2="hardAlpha" operator="out"/>
<feColorMatrix type="matrix" values="0 0 0 0 0 0 0 0 0 0 0 0 0 0 0 0 0 0 0.25 0"/>
<feBlend mode="normal" in2="BackgroundImageFix" result="effect1_dropShadow_579_638"/>
<feBlend mode="normal" in="SourceGraphic" in2="effect1_dropShadow_579_638" result="shape"/>
</filter>
<filter id="filter2_d_579_638" x="-4" y="16" width="44" height="26" filterUnits="userSpaceOnUse" color-interpolation-filters="sRGB">
<feFlood flood-opacity="0" result="BackgroundImageFix"/>
<feColorMatrix in="SourceAlpha" type="matrix" values="0 0 0 0 0 0 0 0 0 0 0 0 0 0 0 0 0 0 127 0" result="hardAlpha"/>
<feOffset dy="4"/>
<feGaussianBlur stdDeviation="2"/>
<feComposite in2="hardAlpha" operator="out"/>
<feColorMatrix type="matrix" values="0 0 0 0 0 0 0 0 0 0 0 0 0 0 0 0 0 0 0.25 0"/>
<feBlend mode="normal" in2="BackgroundImageFix" result="effect1_dropShadow_579_638"/>
<feBlend mode="normal" in="SourceGraphic" in2="effect1_dropShadow_579_638" result="shape"/>
</filter>
<clipPath id="clip0_579_638">
<rect width="308" height="109" fill="white"/>
</clipPath>
</defs>
</svg>
