<svg width="308" height="109" viewBox="0 0 308 109" fill="none" xmlns="http://www.w3.org/2000/svg">
<g clip-path="url(#clip0_579_482)">
<rect width="308" height="109" fill="white"/>
<g filter="url(#filter0_d_579_482)">
<path d="M105 4H303C304.105 4 305 4.89543 305 6V102C305 103.105 304.105 104 303 104H105V4Z" fill="white"/>
</g>
<g filter="url(#filter1_d_579_482)">
<path d="M5 6C5 4.89543 5.89543 4 7 4H103C104.105 4 105 4.89543 105 6V102C105 103.105 104.105 104 103 104H7C5.89543 104 5 103.105 5 102V6Z" fill="#3493FB"/>
</g>
<ellipse cx="5.72766" cy="94.2594" rx="4" ry="3.33807" transform="rotate(-15 5.72766 94.2594)" fill="white"/>
<ellipse cx="5.72766" cy="81.2594" rx="4" ry="3.33807" transform="rotate(-15 5.72766 81.2594)" fill="white"/>
<ellipse cx="5.72766" cy="68.2594" rx="4" ry="3.33807" transform="rotate(-15 5.72766 68.2594)" fill="white"/>
<ellipse cx="5.72766" cy="55.2594" rx="4" ry="3.33807" transform="rotate(-15 5.72766 55.2594)" fill="white"/>
<ellipse cx="5.72766" cy="42.2594" rx="4" ry="3.33807" transform="rotate(-15 5.72766 42.2594)" fill="white"/>
<ellipse cx="5.72766" cy="29.2594" rx="4" ry="3.33807" transform="rotate(-15 5.72766 29.2594)" fill="white"/>
<ellipse cx="5.72766" cy="10.2594" rx="4" ry="3.33807" transform="rotate(-15 5.72766 10.2594)" fill="white"/>
<line x1="103.5" y1="4" x2="103.5" y2="104" stroke="white" stroke-width="3" stroke-dasharray="2 2"/>
<path d="M68.3332 54V70.6667H41.6665V54" stroke="white" stroke-width="2" stroke-linecap="round" stroke-linejoin="round"/>
<path d="M71.6668 45.6665H38.3335V53.9998H71.6668V45.6665Z" stroke="white" stroke-width="2" stroke-linecap="round" stroke-linejoin="round"/>
<path d="M55 70.6665V45.6665" stroke="white" stroke-width="2" stroke-linecap="round" stroke-linejoin="round"/>
<path d="M55.0002 45.6668H47.5002C46.3951 45.6668 45.3353 45.2278 44.5539 44.4464C43.7725 43.665 43.3335 42.6052 43.3335 41.5002C43.3335 40.3951 43.7725 39.3353 44.5539 38.5539C45.3353 37.7725 46.3951 37.3335 47.5002 37.3335C53.3335 37.3335 55.0002 45.6668 55.0002 45.6668Z" stroke="white" stroke-width="2" stroke-linecap="round" stroke-linejoin="round"/>
<path d="M55 45.6668H62.5C63.6051 45.6668 64.6649 45.2278 65.4463 44.4464C66.2277 43.665 66.6667 42.6052 66.6667 41.5002C66.6667 40.3951 66.2277 39.3353 65.4463 38.5539C64.6649 37.7725 63.6051 37.3335 62.5 37.3335C56.6667 37.3335 55 45.6668 55 45.6668Z" stroke="white" stroke-width="2" stroke-linecap="round" stroke-linejoin="round"/>
<path d="M30.7468 84.784H31.9228V92.008H30.7468V84.784ZM28.3348 86.86V87.724H34.4908V86.86H28.3348ZM28.3348 85.156V86.02H34.4908V85.156H28.3348ZM27.2188 84.268H35.6548V88.612H27.2188V84.268ZM26.0428 89.404H36.7348V90.4H26.0428V89.404ZM27.8668 82.06V83.008H29.9068V82.06H27.8668ZM26.8588 81.34H30.9748V83.716H26.8588V81.34ZM32.8468 82.06V83.008H34.9108V82.06H32.8468ZM31.8268 81.34H35.9788V83.716H31.8268V81.34ZM41.1148 82.456V84.448H45.6628V82.456H41.1148ZM40.0108 81.376H46.8148V85.528H40.0108V81.376ZM38.3068 86.692H42.7228V91.924H41.5828V87.772H39.3868V92.008H38.3068V86.692ZM43.8988 86.692H48.5188V91.948H47.3788V87.772H44.9908V92.008H43.8988V86.692ZM38.7868 90.292H42.0508V91.384H38.7868V90.292ZM44.4388 90.292H47.9188V91.384H44.4388V90.292ZM55.5101 91.168C53.8421 91.168 52.6301 90.184 52.6301 88.816C52.6301 87.652 53.3861 86.86 54.2021 86.428V86.38C53.5421 85.912 53.0141 85.24 53.0141 84.316C53.0141 82.936 54.0941 82.036 55.5461 82.036C57.0821 82.036 58.0301 82.984 58.0301 84.364C58.0301 85.276 57.4181 86.032 56.8781 86.452V86.512C57.6701 86.956 58.3661 87.64 58.3661 88.852C58.3661 90.16 57.2141 91.168 55.5101 91.168ZM56.0861 86.104C56.6141 85.612 56.8781 85.048 56.8781 84.448C56.8781 83.644 56.3741 83.032 55.5221 83.032C54.8021 83.032 54.2621 83.524 54.2621 84.316C54.2621 85.264 55.1021 85.708 56.0861 86.104ZM55.5341 90.16C56.4341 90.16 57.0581 89.632 57.0581 88.804C57.0581 87.736 56.0861 87.328 54.8861 86.824C54.2741 87.256 53.8421 87.904 53.8421 88.672C53.8421 89.548 54.5741 90.16 55.5341 90.16ZM72.0572 80.968L72.7412 81.928C71.2532 82.372 69.1292 82.708 67.3412 82.9C67.3052 82.624 67.1492 82.216 67.0292 81.964C68.7812 81.748 70.8092 81.376 72.0572 80.968ZM67.5932 84.88H73.1732V85.96H67.5932V84.88ZM70.1372 85.468H71.2652V91.96H70.1372V85.468ZM62.0012 87.136C63.1172 86.872 64.8092 86.416 66.3932 85.972L66.5372 87.016C65.0732 87.448 63.4892 87.904 62.3012 88.228L62.0012 87.136ZM62.1932 83.224H66.4532V84.292H62.1932V83.224ZM63.7772 80.872H64.8932V90.7C64.8932 91.288 64.7732 91.588 64.4252 91.756C64.0652 91.936 63.5372 91.96 62.7212 91.96C62.6852 91.672 62.5292 91.204 62.3852 90.916C62.9012 90.94 63.3932 90.928 63.5492 90.928C63.7172 90.916 63.7772 90.868 63.7772 90.712V80.872ZM67.0292 81.964H68.1452V85.684C68.1452 87.88 67.9412 90.088 66.6452 92.02C66.4292 91.768 66.0332 91.468 65.7332 91.276C66.8852 89.512 67.0292 87.52 67.0292 85.672V81.964ZM74.3132 84.928H84.9332V85.948H74.3132V84.928ZM75.0572 82.888H84.1412V83.896H75.0572V82.888ZM81.4412 85.132C82.1852 86.296 83.6972 87.244 85.3652 87.664C85.1132 87.892 84.7892 88.324 84.6212 88.612C82.8812 88.06 81.3572 86.92 80.4692 85.468L81.4412 85.132ZM79.2932 80.824L80.4812 80.944C79.9772 83.992 78.3452 86.968 74.6852 88.624C74.5652 88.336 74.2292 87.892 73.9772 87.676C77.4692 86.212 78.9332 83.488 79.2932 80.824ZM76.0532 81.52L76.9532 81.088C77.3372 81.532 77.7812 82.156 77.9612 82.576L77.0132 83.068C76.8452 82.66 76.4252 82 76.0532 81.52ZM82.3172 81.136L83.3612 81.472C82.9412 82.144 82.4372 82.852 82.0292 83.32L81.1652 83.008C81.5612 82.516 82.0532 81.7 82.3172 81.136ZM76.1732 87.256H81.9932V88.288H76.1732V87.256ZM81.8252 87.256H82.9772C82.9772 87.256 82.9652 87.568 82.9532 87.724C82.7972 90.112 82.6292 91.108 82.2812 91.48C82.0412 91.744 81.7892 91.828 81.4052 91.876C81.0692 91.912 80.4572 91.912 79.8092 91.876C79.7972 91.552 79.6652 91.096 79.4852 90.808C80.0732 90.868 80.6492 90.868 80.8652 90.868C81.0812 90.868 81.2012 90.844 81.3212 90.736C81.5492 90.508 81.6932 89.632 81.8252 87.424V87.256ZM78.0092 87.628H79.1852C78.9332 89.728 78.2612 91.204 75.3812 91.984C75.2732 91.696 74.9732 91.24 74.7452 91.012C77.3012 90.424 77.7932 89.26 78.0092 87.628Z" fill="white"/>
<path d="M147.759 82.384H158.355V83.452H147.759V82.384ZM150.687 86.692H156.255V87.652H150.687V86.692ZM155.859 84.652H156.975V90.7C156.975 91.312 156.855 91.636 156.411 91.816C155.979 91.996 155.307 91.996 154.299 91.996C154.251 91.684 154.095 91.204 153.939 90.904C154.659 90.94 155.379 90.928 155.595 90.928C155.799 90.916 155.859 90.856 155.859 90.688V84.652ZM151.599 80.872L152.763 81.136C151.947 83.764 150.507 86.428 148.251 88.024C148.083 87.76 147.723 87.364 147.507 87.148C149.607 85.72 150.975 83.2 151.599 80.872ZM150.627 88.696H156.255V89.656H150.627V88.696ZM150.615 84.652H156.147V85.66H150.615V84.652ZM150.003 84.652H151.143V87.844C151.143 89.224 150.915 91 149.691 92.092C149.547 91.852 149.103 91.372 148.887 91.216C149.895 90.28 150.003 88.96 150.003 87.832V84.652ZM159.675 82.588H165.267V83.608H159.675V82.588ZM160.983 83.788L161.955 84.088C161.499 85.168 160.791 86.368 160.167 87.136C159.999 86.956 159.603 86.596 159.375 86.428C159.987 85.744 160.599 84.736 160.983 83.788ZM162.999 85.72L164.067 85.912C163.359 88.504 162.063 90.496 160.215 91.744C160.059 91.528 159.663 91.108 159.435 90.916C161.223 89.836 162.411 88.024 162.999 85.72ZM162.963 84.172L163.803 83.728C164.367 84.388 164.991 85.3 165.231 85.912L164.331 86.428C164.115 85.816 163.515 84.868 162.963 84.172ZM160.623 86.764L161.463 86.152C162.675 87.34 164.127 88.972 164.763 90.088L163.851 90.808C163.263 89.692 161.847 87.976 160.623 86.764ZM166.527 83.02H170.523V84.076H166.527V83.02ZM166.707 80.86L167.775 81.028C167.355 83.452 166.659 85.756 165.543 87.256C165.411 87.028 165.039 86.572 164.811 86.368C165.807 85.072 166.383 83.008 166.707 80.86ZM168.843 83.728L169.923 83.86C169.335 87.976 168.003 90.556 165.051 92.068C164.907 91.852 164.511 91.42 164.271 91.216C167.151 89.92 168.363 87.52 168.843 83.728ZM166.743 84.736C167.355 87.52 168.639 89.992 170.703 91.108C170.451 91.324 170.091 91.732 169.911 92.02C167.751 90.7 166.491 88.096 165.783 84.952L166.743 84.736ZM161.415 81.208L162.375 80.848C162.723 81.292 163.071 81.88 163.227 82.288L162.219 82.708C162.075 82.288 161.739 81.664 161.415 81.208ZM173.043 81.652H181.131V91.84H179.919V82.792H174.207V91.876H173.043V81.652ZM173.835 85.756H180.423V86.872H173.835V85.756ZM173.823 89.956H180.435V91.096H173.823V89.956ZM190.395 81.448H193.623V82.48H190.395V81.448ZM190.395 84.184H193.623V85.192H190.395V84.184ZM190.383 86.956H193.647V87.976H190.383V86.956ZM193.131 81.448H194.223V90.676C194.223 91.276 194.103 91.6 193.719 91.78C193.347 91.96 192.759 91.984 191.871 91.984C191.835 91.684 191.679 91.18 191.535 90.892C192.111 90.916 192.711 90.916 192.891 90.904C193.059 90.904 193.131 90.844 193.131 90.664V81.448ZM189.927 81.448H190.995V85.828C190.995 87.7 190.839 90.352 189.783 92.056C189.603 91.852 189.135 91.516 188.883 91.408C189.843 89.836 189.927 87.556 189.927 85.828V81.448ZM183.615 82.396H189.423V83.392H183.615V82.396ZM185.091 84.304H188.055V85.192H185.091V84.304ZM185.091 86.188H188.067V87.076H185.091V86.188ZM183.459 88.108H189.387V89.116H183.459V88.108ZM184.599 81.016H185.631V88.492H184.599V81.016ZM187.515 81.016H188.559V88.492H187.515V81.016ZM185.055 89.296L186.135 89.608C185.691 90.508 184.995 91.432 184.347 92.032C184.131 91.84 183.687 91.516 183.423 91.36C184.083 90.844 184.707 90.064 185.055 89.296ZM186.807 89.74L187.671 89.272C188.151 89.812 188.727 90.544 188.991 91.036L188.067 91.576C187.839 91.096 187.275 90.304 186.807 89.74ZM201.051 84.628C200.499 84.628 200.043 84.22 200.043 83.632C200.043 83.032 200.499 82.624 201.051 82.624C201.591 82.624 202.059 83.032 202.059 83.632C202.059 84.22 201.591 84.628 201.051 84.628ZM201.051 90.436C200.499 90.436 200.043 90.028 200.043 89.44C200.043 88.84 200.499 88.432 201.051 88.432C201.591 88.432 202.059 88.84 202.059 89.44C202.059 90.028 201.591 90.436 201.051 90.436ZM207.567 91V90.196C210.183 87.892 211.515 86.176 211.515 84.724C211.515 83.776 211.011 83.116 210.027 83.116C209.331 83.116 208.755 83.548 208.287 84.088L207.495 83.332C208.263 82.504 209.043 82.012 210.195 82.012C211.815 82.012 212.859 83.056 212.859 84.664C212.859 86.356 211.491 88.12 209.619 89.92C210.075 89.872 210.639 89.824 211.071 89.824H213.279V91H207.567ZM217.315 91.168C215.575 91.168 214.459 89.62 214.459 86.548C214.459 83.5 215.575 82.012 217.315 82.012C219.043 82.012 220.171 83.5 220.171 86.548C220.171 89.62 219.043 91.168 217.315 91.168ZM217.315 90.064C218.215 90.064 218.839 89.104 218.839 86.548C218.839 84.028 218.215 83.092 217.315 83.092C216.415 83.092 215.779 84.028 215.779 86.548C215.779 89.104 216.415 90.064 217.315 90.064ZM221.254 91V90.196C223.87 87.892 225.202 86.176 225.202 84.724C225.202 83.776 224.698 83.116 223.714 83.116C223.018 83.116 222.442 83.548 221.974 84.088L221.182 83.332C221.95 82.504 222.73 82.012 223.882 82.012C225.502 82.012 226.546 83.056 226.546 84.664C226.546 86.356 225.178 88.12 223.306 89.92C223.762 89.872 224.326 89.824 224.758 89.824H226.966V91H221.254ZM230.786 91.168C229.406 91.168 228.506 90.616 227.906 89.944L228.59 89.056C229.106 89.584 229.754 90.028 230.678 90.028C231.662 90.028 232.346 89.476 232.346 88.564C232.346 87.58 231.722 86.956 229.742 86.956V85.924C231.47 85.924 232.046 85.276 232.046 84.388C232.046 83.608 231.542 83.116 230.69 83.116C230.018 83.116 229.442 83.44 228.938 83.944L228.206 83.068C228.914 82.444 229.73 82.012 230.75 82.012C232.334 82.012 233.45 82.828 233.45 84.28C233.45 85.3 232.862 86.008 231.926 86.356V86.416C232.946 86.68 233.75 87.436 233.75 88.636C233.75 90.232 232.418 91.168 230.786 91.168ZM236.214 91.168C235.686 91.168 235.29 90.76 235.29 90.196C235.29 89.62 235.686 89.224 236.214 89.224C236.73 89.224 237.138 89.62 237.138 90.196C237.138 90.76 236.73 91.168 236.214 91.168ZM241.42 91.168C239.68 91.168 238.564 89.62 238.564 86.548C238.564 83.5 239.68 82.012 241.42 82.012C243.148 82.012 244.276 83.5 244.276 86.548C244.276 89.62 243.148 91.168 241.42 91.168ZM241.42 90.064C242.32 90.064 242.944 89.104 242.944 86.548C242.944 84.028 242.32 83.092 241.42 83.092C240.52 83.092 239.884 84.028 239.884 86.548C239.884 89.104 240.52 90.064 241.42 90.064ZM248.528 91.168C246.848 91.168 245.48 89.752 245.48 86.752C245.48 83.368 247.064 82.012 248.816 82.012C249.8 82.012 250.52 82.42 251.024 82.96L250.268 83.8C249.944 83.416 249.404 83.14 248.888 83.14C247.712 83.14 246.764 84.052 246.764 86.752C246.764 89.032 247.436 90.1 248.516 90.1C249.284 90.1 249.884 89.404 249.884 88.264C249.884 87.124 249.368 86.488 248.432 86.488C247.904 86.488 247.268 86.8 246.74 87.604L246.68 86.596C247.196 85.9 248.012 85.492 248.672 85.492C250.16 85.492 251.168 86.392 251.168 88.264C251.168 90.016 249.956 91.168 248.528 91.168ZM253.476 91.168C252.948 91.168 252.552 90.76 252.552 90.196C252.552 89.62 252.948 89.224 253.476 89.224C253.992 89.224 254.4 89.62 254.4 90.196C254.4 90.76 253.992 91.168 253.476 91.168ZM255.778 91V90.196C258.394 87.892 259.726 86.176 259.726 84.724C259.726 83.776 259.222 83.116 258.238 83.116C257.542 83.116 256.966 83.548 256.498 84.088L255.706 83.332C256.474 82.504 257.254 82.012 258.406 82.012C260.026 82.012 261.07 83.056 261.07 84.664C261.07 86.356 259.702 88.12 257.83 89.92C258.286 89.872 258.85 89.824 259.282 89.824H261.49V91H255.778ZM264.409 91C264.565 87.784 265.129 85.72 266.845 83.344H262.693V82.168H268.369V83.008C266.305 85.6 265.981 87.556 265.825 91H264.409Z" fill="#3493FB"/>
<path d="M121.196 51.92L122.264 52.256C121.484 54.296 120.248 56.384 118.94 57.74C118.832 57.464 118.52 56.852 118.328 56.588C119.468 55.46 120.548 53.696 121.196 51.92ZM119.984 55.112L121.052 54.032L121.064 54.044V62.996H119.984V55.112ZM123.452 56.42H129.524V57.476H123.452V56.42ZM128.288 51.812L129.164 52.664C127.472 53.264 125.072 53.72 122.972 53.996C122.924 53.744 122.768 53.348 122.636 53.108C124.676 52.808 126.956 52.328 128.288 51.812ZM126.032 53.156H127.064C127.172 57.68 127.82 61.604 128.624 61.628C128.816 61.64 128.96 61.04 129.032 59.984C129.212 60.2 129.632 60.464 129.812 60.548C129.56 62.408 129.092 62.912 128.624 62.9C126.86 62.876 126.212 58.616 126.032 53.156ZM122.504 61.964L122.42 61.04L122.9 60.68L125.804 59.96C125.78 60.248 125.792 60.68 125.816 60.92C123.176 61.652 122.768 61.796 122.504 61.964ZM122.504 61.964C122.444 61.712 122.252 61.268 122.084 61.052C122.324 60.956 122.636 60.728 122.636 60.248V53.108L123.704 53.384V61.052C123.704 61.052 122.504 61.604 122.504 61.964ZM123.764 61.784H126.98V62.72H123.764V61.784ZM135.176 55.28H140.288V56.312H135.176V55.28ZM134.648 55.28H135.704V58.772C135.704 60.128 135.596 61.916 134.9 63.08C134.72 62.9 134.264 62.564 134.012 62.444C134.6 61.4 134.648 59.948 134.648 58.772V55.28ZM135.788 59.696C136.892 59.48 138.572 59.096 140.168 58.724L140.276 59.612C138.848 59.984 137.312 60.368 136.148 60.644L135.788 59.696ZM135.98 57.644L136.436 56.936C137.42 57.152 138.704 57.572 139.376 57.932L138.896 58.724C138.248 58.352 136.976 57.884 135.98 57.644ZM140.396 52.184L141.488 52.592C141.08 53.408 140.6 54.272 140.192 54.86L139.22 54.476C139.616 53.864 140.12 52.904 140.396 52.184ZM134.324 52.688L135.284 52.256C135.788 52.928 136.316 53.828 136.508 54.44L135.488 54.932C135.308 54.32 134.816 53.384 134.324 52.688ZM139.952 55.28H141.056V61.712C141.056 62.288 140.936 62.6 140.54 62.78C140.132 62.96 139.52 62.972 138.608 62.972C138.56 62.672 138.404 62.192 138.26 61.892C138.884 61.928 139.52 61.928 139.7 61.916C139.892 61.904 139.952 61.856 139.952 61.688V55.28ZM137.312 51.86H138.452V55.952H137.312V51.86ZM131.204 52.844L131.864 52.04C132.56 52.424 133.556 53 134.072 53.348L133.376 54.26C132.896 53.876 131.912 53.264 131.204 52.844ZM130.532 56.156L131.144 55.316C131.84 55.652 132.872 56.18 133.388 56.516L132.764 57.452C132.272 57.116 131.252 56.54 130.532 56.156ZM130.94 62.096C131.576 61.184 132.512 59.636 133.22 58.268L134.048 59.012C133.412 60.284 132.608 61.724 131.9 62.864L130.94 62.096ZM148.155 62.168C147.231 62.168 146.163 61.736 145.491 61.112L146.127 60.164C146.739 60.668 147.387 61.028 148.155 61.028C149.079 61.028 149.535 60.56 149.535 59.792C149.535 57.848 145.839 58.184 145.839 55.616C145.839 54.188 146.847 53.252 148.359 53.252C149.463 53.252 150.147 53.696 150.723 54.308L150.003 55.124C149.511 54.644 149.103 54.392 148.419 54.392C147.639 54.392 147.171 54.824 147.171 55.544C147.171 57.296 150.879 56.888 150.879 59.684C150.879 61.16 149.859 62.168 148.155 62.168ZM147.819 63.488V61.64H148.791V63.488H147.819ZM147.819 53.72V51.92H148.791V53.72H147.819ZM152.719 62V60.86H154.663V54.716H153.067V53.84C153.907 53.696 154.483 53.48 154.999 53.168H156.043V60.86H157.771V62H152.719ZM159.059 62V61.196C161.675 58.892 163.007 57.176 163.007 55.724C163.007 54.776 162.503 54.116 161.519 54.116C160.823 54.116 160.247 54.548 159.779 55.088L158.987 54.332C159.755 53.504 160.535 53.012 161.687 53.012C163.307 53.012 164.351 54.056 164.351 55.664C164.351 57.356 162.983 59.12 161.111 60.92C161.567 60.872 162.131 60.824 162.563 60.824H164.771V62H159.059ZM168.807 62.168C167.067 62.168 165.951 60.62 165.951 57.548C165.951 54.5 167.067 53.012 168.807 53.012C170.535 53.012 171.663 54.5 171.663 57.548C171.663 60.62 170.535 62.168 168.807 62.168ZM168.807 61.064C169.707 61.064 170.331 60.104 170.331 57.548C170.331 55.028 169.707 54.092 168.807 54.092C167.907 54.092 167.271 55.028 167.271 57.548C167.271 60.104 167.907 61.064 168.807 61.064ZM175.65 62.168C173.91 62.168 172.794 60.62 172.794 57.548C172.794 54.5 173.91 53.012 175.65 53.012C177.378 53.012 178.506 54.5 178.506 57.548C178.506 60.62 177.378 62.168 175.65 62.168ZM175.65 61.064C176.55 61.064 177.174 60.104 177.174 57.548C177.174 55.028 176.55 54.092 175.65 54.092C174.75 54.092 174.114 55.028 174.114 57.548C174.114 60.104 174.75 61.064 175.65 61.064ZM183.678 52.292H191.886V56.06H190.734V53.12H184.782V56.06H183.678V52.292ZM185.25 53.732H190.266V54.44H185.25V53.732ZM185.25 55.052H190.242V55.796H185.25V55.052ZM182.418 56.456H193.086V57.38H182.418V56.456ZM187.734 57.992H191.898V58.892H187.734V57.992ZM184.086 58.028H186.942V58.844H184.086V58.028ZM184.086 59.516H186.942V60.332H184.086V59.516ZM189.15 58.808C189.846 60.416 191.322 61.64 193.314 62.12C193.074 62.324 192.786 62.744 192.63 63.008C190.542 62.396 189.042 61.004 188.238 59.072L189.15 58.808ZM191.634 57.992H191.838L192.03 57.956L192.726 58.232C191.97 60.716 190.146 62.24 188.022 62.984C187.89 62.72 187.614 62.312 187.41 62.096C189.318 61.532 191.034 60.128 191.634 58.172V57.992ZM182.274 61.34C183.45 61.256 185.226 61.088 186.954 60.92L186.978 61.808C185.334 62 183.63 62.18 182.382 62.312L182.274 61.34ZM186.354 56.756H187.434V63.008H186.354V56.756ZM183.39 56.768H184.434V61.616H183.39V56.768ZM194.454 53.072H205.038V54.044H194.454V53.072ZM197.31 55.412V56.312H202.278V55.412H197.31ZM196.17 54.62H203.466V57.104H196.17V54.62ZM194.838 57.692H204.354V58.64H195.942V63.008H194.838V57.692ZM203.562 57.692H204.702V61.904C204.702 62.42 204.57 62.648 204.186 62.792C203.814 62.912 203.238 62.924 202.434 62.912C202.386 62.66 202.23 62.312 202.098 62.084C202.59 62.108 203.19 62.096 203.334 62.096C203.49 62.084 203.562 62.048 203.562 61.904V57.692ZM198.93 52.088L200.07 51.812C200.274 52.328 200.538 53.012 200.646 53.408L199.446 53.744C199.35 53.324 199.11 52.616 198.93 52.088ZM197.718 59.228H202.266V61.796H197.718V60.98H201.258V60.044H197.718V59.228ZM197.106 59.228H198.162V62.348H197.106V59.228ZM216.21 51.968L216.894 52.928C215.406 53.372 213.282 53.708 211.494 53.9C211.458 53.624 211.302 53.216 211.182 52.964C212.934 52.748 214.962 52.376 216.21 51.968ZM211.746 55.88H217.326V56.96H211.746V55.88ZM214.29 56.468H215.418V62.96H214.29V56.468ZM206.154 58.136C207.27 57.872 208.962 57.416 210.546 56.972L210.69 58.016C209.226 58.448 207.642 58.904 206.454 59.228L206.154 58.136ZM206.346 54.224H210.606V55.292H206.346V54.224ZM207.93 51.872H209.046V61.7C209.046 62.288 208.926 62.588 208.578 62.756C208.218 62.936 207.69 62.96 206.874 62.96C206.838 62.672 206.682 62.204 206.538 61.916C207.054 61.94 207.546 61.928 207.702 61.928C207.87 61.916 207.93 61.868 207.93 61.712V51.872ZM211.182 52.964H212.298V56.684C212.298 58.88 212.094 61.088 210.798 63.02C210.582 62.768 210.186 62.468 209.886 62.276C211.038 60.512 211.182 58.52 211.182 56.672V52.964ZM223.765 62.168C222.841 62.168 221.773 61.736 221.101 61.112L221.737 60.164C222.349 60.668 222.997 61.028 223.765 61.028C224.689 61.028 225.145 60.56 225.145 59.792C225.145 57.848 221.449 58.184 221.449 55.616C221.449 54.188 222.457 53.252 223.969 53.252C225.073 53.252 225.757 53.696 226.333 54.308L225.613 55.124C225.121 54.644 224.713 54.392 224.029 54.392C223.249 54.392 222.781 54.824 222.781 55.544C222.781 57.296 226.489 56.888 226.489 59.684C226.489 61.16 225.469 62.168 223.765 62.168ZM223.429 63.488V61.64H224.401V63.488H223.429ZM223.429 53.72V51.92H224.401V53.72H223.429ZM230.741 62.168C229.073 62.168 227.861 61.184 227.861 59.816C227.861 58.652 228.617 57.86 229.433 57.428V57.38C228.773 56.912 228.245 56.24 228.245 55.316C228.245 53.936 229.325 53.036 230.777 53.036C232.313 53.036 233.261 53.984 233.261 55.364C233.261 56.276 232.649 57.032 232.109 57.452V57.512C232.901 57.956 233.597 58.64 233.597 59.852C233.597 61.16 232.445 62.168 230.741 62.168ZM231.317 57.104C231.845 56.612 232.109 56.048 232.109 55.448C232.109 54.644 231.605 54.032 230.753 54.032C230.033 54.032 229.493 54.524 229.493 55.316C229.493 56.264 230.333 56.708 231.317 57.104ZM230.765 61.16C231.665 61.16 232.289 60.632 232.289 59.804C232.289 58.736 231.317 58.328 230.117 57.824C229.505 58.256 229.073 58.904 229.073 59.672C229.073 60.548 229.805 61.16 230.765 61.16ZM237.572 62.168C235.832 62.168 234.716 60.62 234.716 57.548C234.716 54.5 235.832 53.012 237.572 53.012C239.3 53.012 240.428 54.5 240.428 57.548C240.428 60.62 239.3 62.168 237.572 62.168ZM237.572 61.064C238.472 61.064 239.096 60.104 239.096 57.548C239.096 55.028 238.472 54.092 237.572 54.092C236.672 54.092 236.036 55.028 236.036 57.548C236.036 60.104 236.672 61.064 237.572 61.064ZM244.416 62.168C242.676 62.168 241.56 60.62 241.56 57.548C241.56 54.5 242.676 53.012 244.416 53.012C246.144 53.012 247.272 54.5 247.272 57.548C247.272 60.62 246.144 62.168 244.416 62.168ZM244.416 61.064C245.316 61.064 245.94 60.104 245.94 57.548C245.94 55.028 245.316 54.092 244.416 54.092C243.516 54.092 242.88 55.028 242.88 57.548C242.88 60.104 243.516 61.064 244.416 61.064Z" fill="#003060"/>
<g filter="url(#filter2_d_579_482)">
<path d="M0 19C0 17.3431 1.34315 16 3 16H33C34.6569 16 36 17.3431 36 19V31C36 32.6569 34.6569 34 33 34H0V19Z" fill="#FFCD78"/>
</g>
<path d="M0 34H5V39L2.5 36.5L0 34Z" fill="#FFCD78"/>
<path d="M8.85 20.97H11.25V21.82H9.68V29.82H8.85V20.97ZM11.08 20.97H11.24L11.38 20.93L12 21.29C11.72 22.12 11.37 23.11 11.06 23.9C11.73 24.72 11.88 25.43 11.88 26.04C11.88 26.63 11.76 27.06 11.46 27.28C11.32 27.39 11.13 27.45 10.92 27.48C10.73 27.51 10.48 27.51 10.25 27.5C10.25 27.27 10.17 26.91 10.03 26.68C10.24 26.69 10.41 26.7 10.56 26.69C10.66 26.68 10.77 26.66 10.85 26.6C10.98 26.5 11.04 26.25 11.04 25.95C11.04 25.43 10.89 24.75 10.23 24C10.56 23.1 10.9 21.88 11.08 21.23V20.97ZM12.87 20.99H16.88V25.48H12.87V24.65H15.96V21.81H12.87V20.99ZM12.93 22.83H16.47V23.61H12.93V22.83ZM14.84 24.99C15.25 26.82 16.16 28.32 17.69 28.97C17.48 29.16 17.19 29.53 17.05 29.79C15.43 28.96 14.53 27.29 14.06 25.14L14.84 24.99ZM16.85 25.7L17.47 26.37C16.9 26.83 16.16 27.33 15.61 27.64L15.11 27.05C15.64 26.72 16.41 26.14 16.85 25.7ZM12.41 29.86L12.33 29.03L12.75 28.71L14.94 28.2C14.94 28.47 14.95 28.85 14.98 29.06C12.96 29.59 12.62 29.72 12.41 29.86ZM12.41 29.86C12.34 29.65 12.14 29.27 12 29.1C12.17 28.99 12.41 28.76 12.41 28.32V20.99H13.33V28.97C13.33 28.97 12.41 29.52 12.41 29.86ZM20.66 22.35V22.81H25.28V22.35H20.66ZM20.66 21.4V21.85H25.28V21.4H20.66ZM19.75 20.88H26.23V23.33H19.75V20.88ZM20.46 26.3V26.78H25.57V26.3H20.46ZM20.46 25.32V25.79H25.57V25.32H20.46ZM19.57 24.78H26.5V27.32H19.57V24.78ZM22.52 24.97H23.44V29.27H22.52V24.97ZM18.49 23.7H27.52V24.4H18.49V23.7ZM19.32 27.77H26.71V28.4H19.32V27.77ZM18.45 28.89H27.56V29.6H18.45V28.89Z" fill="white"/>
<path d="M121.85 20.97H124.25V21.82H122.68V29.82H121.85V20.97ZM124.08 20.97H124.24L124.38 20.93L125 21.29C124.72 22.12 124.37 23.11 124.06 23.9C124.73 24.72 124.88 25.43 124.88 26.04C124.88 26.63 124.76 27.06 124.46 27.28C124.32 27.39 124.13 27.45 123.92 27.48C123.73 27.51 123.48 27.51 123.25 27.5C123.25 27.27 123.17 26.91 123.03 26.68C123.24 26.69 123.41 26.7 123.56 26.69C123.66 26.68 123.77 26.66 123.85 26.6C123.98 26.5 124.04 26.25 124.04 25.95C124.04 25.43 123.89 24.75 123.23 24C123.56 23.1 123.9 21.88 124.08 21.23V20.97ZM125.87 20.99H129.88V25.48H125.87V24.65H128.96V21.81H125.87V20.99ZM125.93 22.83H129.47V23.61H125.93V22.83ZM127.84 24.99C128.25 26.82 129.16 28.32 130.69 28.97C130.48 29.16 130.19 29.53 130.05 29.79C128.43 28.96 127.53 27.29 127.06 25.14L127.84 24.99ZM129.85 25.7L130.47 26.37C129.9 26.83 129.16 27.33 128.61 27.64L128.11 27.05C128.64 26.72 129.41 26.14 129.85 25.7ZM125.41 29.86L125.33 29.03L125.75 28.71L127.94 28.2C127.94 28.47 127.95 28.85 127.98 29.06C125.96 29.59 125.62 29.72 125.41 29.86ZM125.41 29.86C125.34 29.65 125.14 29.27 125 29.1C125.17 28.99 125.41 28.76 125.41 28.32V20.99H126.33V28.97C126.33 28.97 125.41 29.52 125.41 29.86ZM133.66 22.35V22.81H138.28V22.35H133.66ZM133.66 21.4V21.85H138.28V21.4H133.66ZM132.75 20.88H139.23V23.33H132.75V20.88ZM133.46 26.3V26.78H138.57V26.3H133.46ZM133.46 25.32V25.79H138.57V25.32H133.46ZM132.57 24.78H139.5V27.32H132.57V24.78ZM135.52 24.97H136.44V29.27H135.52V24.97ZM131.49 23.7H140.52V24.4H131.49V23.7ZM132.32 27.77H139.71V28.4H132.32V27.77ZM131.45 28.89H140.56V29.6H131.45V28.89Z" fill="white"/>
<path d="M129 96C134.523 96 139 91.5228 139 86C139 80.4772 134.523 76 129 76C123.477 76 119 80.4772 119 86C119 91.5228 123.477 96 129 96Z" stroke="#3493FB" stroke-width="2" stroke-linecap="round" stroke-linejoin="round"/>
<path d="M129 80V86L133 88" stroke="#3493FB" stroke-width="2" stroke-linecap="round" stroke-linejoin="round"/>
<rect x="118" y="16" width="49" height="18" rx="2" fill="#003060"/>
<path d="M122.41 24.59H131.61V25.62H122.41V24.59ZM132.36 25.02C133.45 24.95 135.13 24.82 136.78 24.67L136.79 25.43C135.24 25.6 133.61 25.77 132.44 25.89L132.36 25.02ZM133.67 21.57H135.93V22.33H133.67V21.57ZM134.43 20.53L135.38 20.66C135.2 21.12 135.01 21.57 134.86 21.88L134.06 21.75C134.2 21.39 134.36 20.89 134.43 20.53ZM133.09 21.57H133.93V24.57C133.93 26.11 133.82 28.36 133.09 29.87C132.93 29.72 132.56 29.47 132.36 29.39C133.03 27.98 133.09 26.01 133.09 24.57V21.57ZM138.01 21.01H140.11V21.82H138.01V21.01ZM137.08 24.8H140.65V25.64H137.08V24.8ZM137.44 21.01H138.32V22.3C138.32 23.06 138.17 23.97 137.41 24.54C137.28 24.37 136.91 24.06 136.73 23.94C137.37 23.46 137.44 22.85 137.44 22.28V21.01ZM135.69 21.57H136.55V28.75C136.55 29.21 136.45 29.45 136.15 29.6C135.85 29.74 135.37 29.75 134.69 29.75C134.66 29.52 134.55 29.14 134.43 28.92C134.88 28.94 135.36 28.93 135.5 28.93C135.65 28.92 135.69 28.88 135.69 28.74V21.57ZM134.09 23.08L134.69 22.79C134.97 23.21 135.28 23.75 135.43 24.11L134.81 24.45C134.67 24.08 134.36 23.5 134.09 23.08ZM140.46 24.8H140.64L140.8 24.78L141.35 24.99C140.77 27.7 139.25 29.12 137.23 29.79C137.12 29.58 136.86 29.2 136.68 29.04C138.61 28.47 140 27.26 140.46 24.96V24.8ZM138.03 25.52C138.62 27.16 139.88 28.42 141.69 28.95C141.48 29.13 141.21 29.49 141.07 29.74C139.17 29.09 137.9 27.69 137.2 25.76L138.03 25.52ZM134.11 26.34L134.73 26.05C135.02 26.51 135.34 27.11 135.48 27.5L134.85 27.84C134.7 27.44 134.39 26.81 134.11 26.34ZM139.7 21.01H140.56V23.06C140.56 23.33 140.58 23.42 140.71 23.42C140.8 23.42 141.08 23.42 141.17 23.42C141.29 23.42 141.51 23.4 141.62 23.36C141.64 23.59 141.66 23.91 141.69 24.12C141.57 24.17 141.36 24.18 141.19 24.18C141.06 24.18 140.74 24.18 140.62 24.18C139.85 24.18 139.7 23.85 139.7 23.05V21.01ZM143.11 23.74H150.53V24.52H144.01V29.82H143.11V23.74ZM150.05 23.74H150.92V28.89C150.92 29.34 150.81 29.55 150.48 29.67C150.16 29.78 149.63 29.79 148.8 29.79C148.76 29.58 148.64 29.28 148.53 29.08C149.09 29.1 149.67 29.09 149.82 29.08C149.99 29.08 150.05 29.03 150.05 28.89V23.74ZM145.58 26.22H148.86V28.58H145.58V27.91H148.08V26.9H145.58V26.22ZM145.08 26.22H145.88V29.03H145.08V26.22ZM142.58 21.59H151.43V22.4H142.58V21.59ZM144.69 22.62L145.5 22.36C145.71 22.71 145.98 23.18 146.11 23.47L145.27 23.79C145.15 23.49 144.9 22.99 144.69 22.62ZM148.45 22.41L149.4 22.62C149.08 23.15 148.72 23.74 148.43 24.11L147.7 23.91C147.96 23.5 148.29 22.86 148.45 22.41ZM146.35 20.73L147.25 20.5C147.42 20.91 147.61 21.44 147.71 21.78L146.77 22.05C146.69 21.7 146.51 21.14 146.35 20.73ZM145.64 24.15H146.47C146.37 25.36 145.98 26.01 144.43 26.35C144.37 26.16 144.16 25.85 144 25.7C145.29 25.47 145.57 25.05 145.64 24.15ZM147.38 24.16H148.22V24.99C148.22 25.21 148.24 25.29 148.41 25.29C148.54 25.29 149 25.29 149.14 25.29C149.29 25.29 149.56 25.28 149.7 25.24C149.72 25.46 149.73 25.69 149.76 25.89C149.63 25.94 149.37 25.95 149.16 25.95C148.97 25.95 148.38 25.95 148.21 25.95C147.51 25.95 147.38 25.64 147.38 24.98V24.16ZM155.11 21.88V23.54H158.9V21.88H155.11ZM154.19 20.98H159.86V24.44H154.19V20.98ZM152.77 25.41H156.45V29.77H155.5V26.31H153.67V29.84H152.77V25.41ZM157.43 25.41H161.28V29.79H160.33V26.31H158.34V29.84H157.43V25.41ZM153.17 28.41H155.89V29.32H153.17V28.41ZM157.88 28.41H160.78V29.32H157.88V28.41Z" fill="white"/>
<path d="M182.059 24.23H183.529V33.26H182.059V24.23ZM179.044 26.825V27.905H186.739V26.825H179.044ZM179.044 24.695V25.775H186.739V24.695H179.044ZM177.649 23.585H188.194V29.015H177.649V23.585ZM176.179 30.005H189.544V31.25H176.179V30.005ZM178.459 20.825V22.01H181.009V20.825H178.459ZM177.199 19.925H182.344V22.895H177.199V19.925ZM184.684 20.825V22.01H187.264V20.825H184.684ZM183.409 19.925H188.599V22.895H183.409V19.925ZM199.294 19.535H200.734V33.26H199.294V19.535ZM196.729 20.135L198.094 20.405C197.674 22.475 196.969 24.545 196.144 25.88C195.859 25.67 195.259 25.34 194.914 25.19C195.754 23.96 196.384 22.04 196.729 20.135ZM197.059 22.34H204.049V23.735H196.714L197.059 22.34ZM195.094 26.735H204.724V28.115H195.094V26.735ZM194.194 19.4L195.544 19.82C194.584 22.355 193.099 24.965 191.524 26.675C191.389 26.33 190.984 25.58 190.729 25.235C192.109 23.825 193.414 21.62 194.194 19.4ZM192.694 23.39L194.044 22.04V22.055V33.245H192.694V23.39ZM213.013 32.21C210.928 32.21 209.413 30.98 209.413 29.27C209.413 27.815 210.358 26.825 211.378 26.285V26.225C210.553 25.64 209.893 24.8 209.893 23.645C209.893 21.92 211.243 20.795 213.058 20.795C214.978 20.795 216.163 21.98 216.163 23.705C216.163 24.845 215.398 25.79 214.723 26.315V26.39C215.713 26.945 216.583 27.8 216.583 29.315C216.583 30.95 215.143 32.21 213.013 32.21ZM213.733 25.88C214.393 25.265 214.723 24.56 214.723 23.81C214.723 22.805 214.093 22.04 213.028 22.04C212.128 22.04 211.453 22.655 211.453 23.645C211.453 24.83 212.503 25.385 213.733 25.88ZM213.043 30.95C214.168 30.95 214.948 30.29 214.948 29.255C214.948 27.92 213.733 27.41 212.233 26.78C211.468 27.32 210.928 28.13 210.928 29.09C210.928 30.185 211.843 30.95 213.043 30.95ZM233.696 19.46L234.551 20.66C232.691 21.215 230.036 21.635 227.801 21.875C227.756 21.53 227.561 21.02 227.411 20.705C229.601 20.435 232.136 19.97 233.696 19.46ZM228.116 24.35H235.091V25.7H228.116V24.35ZM231.296 25.085H232.706V33.2H231.296V25.085ZM221.126 27.17C222.521 26.84 224.636 26.27 226.616 25.715L226.796 27.02C224.966 27.56 222.986 28.13 221.501 28.535L221.126 27.17ZM221.366 22.28H226.691V23.615H221.366V22.28ZM223.346 19.34H224.741V31.625C224.741 32.36 224.591 32.735 224.156 32.945C223.706 33.17 223.046 33.2 222.026 33.2C221.981 32.84 221.786 32.255 221.606 31.895C222.251 31.925 222.866 31.91 223.061 31.91C223.271 31.895 223.346 31.835 223.346 31.64V19.34ZM227.411 20.705H228.806V25.355C228.806 28.1 228.551 30.86 226.931 33.275C226.661 32.96 226.166 32.585 225.791 32.345C227.231 30.14 227.411 27.65 227.411 25.34V20.705Z" fill="#003060"/>
</g>
<defs>
<filter id="filter0_d_579_482" x="101" y="0" width="216" height="116" filterUnits="userSpaceOnUse" color-interpolation-filters="sRGB">
<feFlood flood-opacity="0" result="BackgroundImageFix"/>
<feColorMatrix in="SourceAlpha" type="matrix" values="0 0 0 0 0 0 0 0 0 0 0 0 0 0 0 0 0 0 127 0" result="hardAlpha"/>
<feMorphology radius="4" operator="dilate" in="SourceAlpha" result="effect1_dropShadow_579_482"/>
<feOffset dx="4" dy="4"/>
<feGaussianBlur stdDeviation="2"/>
<feComposite in2="hardAlpha" operator="out"/>
<feColorMatrix type="matrix" values="0 0 0 0 0 0 0 0 0 0 0 0 0 0 0 0 0 0 0.25 0"/>
<feBlend mode="normal" in2="BackgroundImageFix" result="effect1_dropShadow_579_482"/>
<feBlend mode="normal" in="SourceGraphic" in2="effect1_dropShadow_579_482" result="shape"/>
</filter>
<filter id="filter1_d_579_482" x="1" y="4" width="108" height="108" filterUnits="userSpaceOnUse" color-interpolation-filters="sRGB">
<feFlood flood-opacity="0" result="BackgroundImageFix"/>
<feColorMatrix in="SourceAlpha" type="matrix" values="0 0 0 0 0 0 0 0 0 0 0 0 0 0 0 0 0 0 127 0" result="hardAlpha"/>
<feOffset dy="4"/>
<feGaussianBlur stdDeviation="2"/>
<feComposite in2="hardAlpha" operator="out"/>
<feColorMatrix type="matrix" values="0 0 0 0 0 0 0 0 0 0 0 0 0 0 0 0 0 0 0.25 0"/>
<feBlend mode="normal" in2="BackgroundImageFix" result="effect1_dropShadow_579_482"/>
<feBlend mode="normal" in="SourceGraphic" in2="effect1_dropShadow_579_482" result="shape"/>
</filter>
<filter id="filter2_d_579_482" x="-4" y="16" width="44" height="26" filterUnits="userSpaceOnUse" color-interpolation-filters="sRGB">
<feFlood flood-opacity="0" result="BackgroundImageFix"/>
<feColorMatrix in="SourceAlpha" type="matrix" values="0 0 0 0 0 0 0 0 0 0 0 0 0 0 0 0 0 0 127 0" result="hardAlpha"/>
<feOffset dy="4"/>
<feGaussianBlur stdDeviation="2"/>
<feComposite in2="hardAlpha" operator="out"/>
<feColorMatrix type="matrix" values="0 0 0 0 0 0 0 0 0 0 0 0 0 0 0 0 0 0 0.25 0"/>
<feBlend mode="normal" in2="BackgroundImageFix" result="effect1_dropShadow_579_482"/>
<feBlend mode="normal" in="SourceGraphic" in2="effect1_dropShadow_579_482" result="shape"/>
</filter>
<clipPath id="clip0_579_482">
<rect width="308" height="109" fill="white"/>
</clipPath>
</defs>
</svg>
