<svg width="812" height="85" viewBox="0 0 812 85" fill="none" xmlns="http://www.w3.org/2000/svg">
<circle cx="55" cy="18" r="18" fill="#003060"/>
<circle cx="193" cy="18" r="18" fill="#003060"/>
<circle cx="334" cy="18" r="18" fill="#3493FB"/>
<path d="M56.543 8.84375V26H54.375V11.5508L50.0039 13.1445V11.1875L56.2031 8.84375H56.543Z" fill="white"/>
<path d="M198.598 24.2188V26H187.43V24.4414L193.02 18.2188C193.707 17.4531 194.238 16.8047 194.613 16.2734C194.996 15.7344 195.262 15.2539 195.41 14.832C195.566 14.4023 195.645 13.9648 195.645 13.5195C195.645 12.957 195.527 12.4492 195.293 11.9961C195.066 11.5352 194.73 11.168 194.285 10.8945C193.84 10.6211 193.301 10.4844 192.668 10.4844C191.91 10.4844 191.277 10.6328 190.77 10.9297C190.27 11.2188 189.895 11.625 189.645 12.1484C189.395 12.6719 189.27 13.2734 189.27 13.9531H187.102C187.102 12.9922 187.312 12.1133 187.734 11.3164C188.156 10.5195 188.781 9.88672 189.609 9.41797C190.438 8.94141 191.457 8.70312 192.668 8.70312C193.746 8.70312 194.668 8.89453 195.434 9.27734C196.199 9.65234 196.785 10.1836 197.191 10.8711C197.605 11.5508 197.812 12.3477 197.812 13.2617C197.812 13.7617 197.727 14.2695 197.555 14.7852C197.391 15.293 197.16 15.8008 196.863 16.3086C196.574 16.8164 196.234 17.3164 195.844 17.8086C195.461 18.3008 195.051 18.7852 194.613 19.2617L190.043 24.2188H198.598Z" fill="white"/>
<path d="M331.582 16.4023H333.129C333.887 16.4023 334.512 16.2773 335.004 16.0273C335.504 15.7695 335.875 15.4219 336.117 14.9844C336.367 14.5391 336.492 14.0391 336.492 13.4844C336.492 12.8281 336.383 12.2773 336.164 11.832C335.945 11.3867 335.617 11.0508 335.18 10.8242C334.742 10.5977 334.188 10.4844 333.516 10.4844C332.906 10.4844 332.367 10.6055 331.898 10.8477C331.438 11.082 331.074 11.418 330.809 11.8555C330.551 12.293 330.422 12.8086 330.422 13.4023H328.254C328.254 12.5352 328.473 11.7461 328.91 11.0352C329.348 10.3242 329.961 9.75781 330.75 9.33594C331.547 8.91406 332.469 8.70312 333.516 8.70312C334.547 8.70312 335.449 8.88672 336.223 9.25391C336.996 9.61328 337.598 10.1523 338.027 10.8711C338.457 11.582 338.672 12.4688 338.672 13.5312C338.672 13.9609 338.57 14.4219 338.367 14.9141C338.172 15.3984 337.863 15.8516 337.441 16.2734C337.027 16.6953 336.488 17.043 335.824 17.3164C335.16 17.582 334.363 17.7148 333.434 17.7148H331.582V16.4023ZM331.582 18.1836V16.8828H333.434C334.52 16.8828 335.418 17.0117 336.129 17.2695C336.84 17.5273 337.398 17.8711 337.805 18.3008C338.219 18.7305 338.508 19.2031 338.672 19.7188C338.844 20.2266 338.93 20.7344 338.93 21.2422C338.93 22.0391 338.793 22.7461 338.52 23.3633C338.254 23.9805 337.875 24.5039 337.383 24.9336C336.898 25.3633 336.328 25.6875 335.672 25.9062C335.016 26.125 334.301 26.2344 333.527 26.2344C332.785 26.2344 332.086 26.1289 331.43 25.918C330.781 25.707 330.207 25.4023 329.707 25.0039C329.207 24.5977 328.816 24.1016 328.535 23.5156C328.254 22.9219 328.113 22.2461 328.113 21.4883H330.281C330.281 22.082 330.41 22.6016 330.668 23.0469C330.934 23.4922 331.309 23.8398 331.793 24.0898C332.285 24.332 332.863 24.4531 333.527 24.4531C334.191 24.4531 334.762 24.3398 335.238 24.1133C335.723 23.8789 336.094 23.5273 336.352 23.0586C336.617 22.5898 336.75 22 336.75 21.2891C336.75 20.5781 336.602 19.9961 336.305 19.543C336.008 19.082 335.586 18.7422 335.039 18.5234C334.5 18.2969 333.863 18.1836 333.129 18.1836H331.582Z" fill="white"/>
<path d="M174.998 18.7241L160.058 9.96063L159.938 27.2807L174.998 18.7241ZM69.9897 19.5L161.487 20.131L161.508 17.1311L70.0103 16.5L69.9897 19.5Z" fill="#003060"/>
<path d="M315.998 18.7241L301.058 9.96063L300.938 27.2807L315.998 18.7241ZM210.99 19.5L302.487 20.131L302.508 17.1311L211.01 16.5L210.99 19.5Z" fill="#003060"/>
<path d="M25.72 57.56H29.704V58.68H25.72V57.56ZM29.224 57.56H30.392C30.392 57.56 30.392 57.912 30.392 58.072C30.312 61.688 30.216 63.032 29.88 63.48C29.624 63.768 29.368 63.88 28.92 63.928C28.504 63.976 27.784 63.96 27 63.928C26.968 63.576 26.84 63.112 26.664 62.808C27.384 62.872 28.088 62.872 28.36 62.872C28.584 62.872 28.744 62.856 28.856 62.712C29.096 62.424 29.176 61.224 29.224 57.768V57.56ZM33.736 52.376L34.456 51.624C35.448 52.136 36.712 52.904 37.336 53.464L36.584 54.28C35.976 53.72 34.744 52.904 33.736 52.376ZM36.024 56.712L37.224 57C35.864 61.176 33.48 64.264 30.2 66.2C30.024 65.96 29.576 65.464 29.32 65.224C32.568 63.496 34.824 60.568 36.024 56.712ZM25.816 54.28H38.2V55.464H25.816V54.28ZM25.048 54.28H26.296V58.792C26.296 61.064 26.04 64.296 24.584 66.392C24.376 66.152 23.864 65.736 23.576 65.592C24.904 63.624 25.048 60.872 25.048 58.776V54.28ZM31.688 51.592H32.936C32.904 58.952 34.472 64.952 36.552 64.952C37 64.952 37.208 64.12 37.304 61.992C37.576 62.264 38.024 62.536 38.344 62.648C38.12 65.384 37.672 66.168 36.456 66.168C33.192 66.168 31.752 59.256 31.688 51.592ZM40.536 54.584H53.496V55.784H40.536V54.584ZM39.848 64.408H54.136V65.608H39.848V64.408ZM42.76 56.936L43.944 56.648C44.6 58.808 45.272 61.544 45.544 63.4L44.28 63.704C44.04 61.88 43.368 59.064 42.76 56.936ZM50.056 56.664L51.4 56.888C50.68 59.528 49.608 62.888 48.728 64.92L47.544 64.664C48.456 62.616 49.496 59.096 50.056 56.664ZM45.848 51.784L47 51.48C47.336 52.296 47.688 53.336 47.848 54.04L46.616 54.408C46.488 53.704 46.152 52.616 45.848 51.784ZM56.456 56.408H61.368V57.368H56.456V56.408ZM56.456 58.504H61.352V59.464H56.456V58.504ZM55.752 54.28H61.864V55.288H55.752V54.28ZM57 60.648H61.304V65.32H57V64.312H60.232V61.656H57V60.648ZM56.456 60.648H57.512V66.072H56.456V60.648ZM57.544 51.976L58.488 51.496C58.952 52.152 59.464 53 59.72 53.56L58.744 54.136C58.504 53.544 57.976 52.632 57.544 51.976ZM62.184 52.92H70.376V54.088H62.184V52.92ZM66.696 53.256H67.896V64.488C67.896 65.304 67.704 65.704 67.128 65.896C66.536 66.104 65.528 66.12 63.976 66.12C63.896 65.784 63.688 65.208 63.48 64.872C64.712 64.92 65.912 64.92 66.264 64.888C66.584 64.872 66.696 64.776 66.696 64.472V53.256ZM78.328 56.68H79.56V66.28H78.328V56.68ZM74.696 59.384V60.776H83.4V59.384H74.696ZM74.696 57.096V58.456H83.4V57.096H74.696ZM73.528 56.12H84.616V61.736H73.528V56.12ZM71.912 62.968H86.104V64.024H71.912V62.968ZM74.184 53V54.52H77.256V53H74.184ZM73.096 52.2H78.376V55.32H73.096V52.2ZM80.76 53V54.52H83.864V53H80.76ZM79.672 52.2H85V55.32H79.672V52.2Z" fill="#003060"/>
<path d="M153.336 59.304H159.592V60.232H153.336V59.304ZM153.336 61.928H159.592V62.872H153.336V61.928ZM153.352 64.568H160.264V65.592H153.352V64.568ZM151.448 53.208H159.928V55.912H158.824V54.248H152.488V55.944H151.448V53.208ZM156.152 57.4H157.256V65.112H156.152V57.4ZM153.768 56.632H159.784V57.672H153.768V66.28H152.632V57.72L153.672 56.632H153.768ZM155.416 51.544L156.552 51.768C155.56 55.08 153.864 57.8 151.512 59.528C151.384 59.272 151.016 58.776 150.776 58.536C153 57 154.568 54.52 155.416 51.544ZM155.672 55.176L156.664 54.776C157.048 55.432 157.464 56.296 157.64 56.856L156.6 57.32C156.424 56.744 156.008 55.832 155.672 55.176ZM145.832 52.68H151.08V53.8H145.832V52.68ZM147.368 57.368H150.84V64.184H147.368V63.128H149.784V58.424H147.368V57.368ZM147.832 53.08L148.984 53.256C148.472 56.536 147.608 59.608 146.136 61.624C146.008 61.368 145.656 60.808 145.432 60.552C146.712 58.792 147.432 56.008 147.832 53.08ZM146.968 57.368H148.008V65.496H146.968V57.368ZM174.6 52.2H175.736C175.736 52.2 175.736 52.568 175.72 52.712C175.56 56.792 175.384 58.232 174.984 58.744C174.712 59.064 174.424 59.16 173.976 59.208C173.576 59.24 172.872 59.24 172.152 59.208C172.12 58.888 172.008 58.44 171.816 58.136C172.536 58.216 173.224 58.216 173.496 58.216C173.736 58.216 173.864 58.184 174.008 58.04C174.296 57.704 174.472 56.28 174.6 52.408V52.2ZM171.288 52.632H172.376C172.12 55.816 171.416 58.456 168.248 59.88C168.12 59.608 167.8 59.208 167.544 59.016C170.504 57.8 171.064 55.4 171.288 52.632ZM167.896 52.2H174.984V53.24H167.896V52.2ZM169.272 60.584H170.328V64.488C170.328 64.904 170.44 64.968 171 64.968C171.24 64.968 172.504 64.968 172.856 64.968C173.384 64.968 173.48 64.712 173.528 62.824C173.752 63 174.184 63.16 174.472 63.24C174.36 65.416 174.072 65.944 172.968 65.944C172.68 65.944 171.144 65.944 170.872 65.944C169.592 65.944 169.272 65.624 169.272 64.488V60.584ZM167.976 60.952L168.84 61.208C168.632 62.376 168.28 63.848 167.736 64.728L166.856 64.344C167.4 63.48 167.784 62.056 167.976 60.952ZM170.584 59.88L171.32 59.432C171.976 60.136 172.728 61.128 173.08 61.736L172.296 62.296C171.944 61.656 171.208 60.632 170.584 59.88ZM174.2 60.616L175.064 60.312C175.64 61.368 176.248 62.776 176.488 63.64L175.544 63.992C175.336 63.128 174.76 61.688 174.2 60.616ZM168.056 54.376L168.696 53.704C169.56 54.408 170.712 55.352 171.288 55.928L170.616 56.712C170.056 56.088 168.92 55.096 168.056 54.376ZM163.272 51.96L164.28 51.592C164.696 52.264 165.128 53.144 165.336 53.704L164.28 54.136C164.088 53.544 163.64 52.632 163.272 51.96ZM162.04 56.408H166.904V57.368H162.04V56.408ZM162.04 58.552H166.904V59.512H162.04V58.552ZM161.608 54.232H167.288V55.224H161.608V54.232ZM162.584 60.712H166.824V65.384H162.584V64.376H165.784V61.704H162.584V60.712ZM162.04 60.712H163.064V66.12H162.04V60.712ZM182.504 55.128H192.264V56.344H182.504V55.128ZM189.016 51.752H190.232V64.648C190.232 65.56 189.976 65.928 189.368 66.104C188.744 66.312 187.656 66.328 185.912 66.312C185.848 65.992 185.624 65.448 185.432 65.112C186.792 65.16 188.12 65.16 188.488 65.144C188.872 65.112 189.016 65.016 189.016 64.648V51.752ZM183.512 58.52L184.552 58.024C185.384 59.272 186.456 60.936 186.968 61.912L185.848 62.52C185.368 61.528 184.328 59.8 183.512 58.52ZM179.96 55.928L181.16 54.712L181.176 54.744V66.248H179.96V55.928ZM181.704 51.672L182.872 52.024C181.8 54.808 180.12 57.56 178.344 59.368C178.2 59.08 177.816 58.472 177.592 58.184C179.24 56.616 180.776 54.168 181.704 51.672ZM203.816 56.76H204.952V57.528C204.952 59.96 204.696 63.528 201.656 66.312C201.448 66.04 201.032 65.688 200.744 65.512C203.608 62.952 203.816 59.704 203.816 57.496V56.76ZM204.856 58.712C205.384 61.624 206.536 64.2 208.52 65.272C208.264 65.512 207.88 65.96 207.704 66.264C205.608 64.984 204.472 62.184 203.896 58.904L204.856 58.712ZM193.816 53.096H201.208V54.104H193.816V53.096ZM193.624 59.944H201.352V60.952H193.624V59.944ZM194.184 55.48H200.872V56.504H194.184V55.48ZM194.36 57.704H200.68V58.712H194.36V57.704ZM196.936 51.624H198.072V56.136H196.936V51.624ZM194.968 61.512L195.976 61.768C195.576 62.952 194.968 64.296 194.472 65.192C194.232 65.048 193.768 64.84 193.512 64.728C194.056 63.864 194.616 62.616 194.968 61.512ZM199 61.864L199.912 61.512C200.376 62.296 200.904 63.384 201.16 64.008L200.184 64.456C199.96 63.8 199.464 62.696 199 61.864ZM202.52 54.472H207.352V55.576H202.52V54.472ZM202.584 51.576L203.752 51.736C203.368 54.52 202.664 57.144 201.624 58.888C201.416 58.696 200.904 58.344 200.632 58.184C201.672 56.6 202.264 54.12 202.584 51.576ZM207.048 54.472H207.224L207.432 54.424L208.232 54.664C207.928 56.104 207.464 57.784 207.032 58.84L206.056 58.552C206.424 57.56 206.824 55.944 207.048 54.696V54.472ZM196.952 60.344H198.088V66.28H196.952V60.344ZM213.048 59.928V61.016H221.112V59.928H213.048ZM213.048 61.8V62.92H221.112V61.8H213.048ZM213.048 58.056V59.144H221.112V58.056H213.048ZM211.88 57.256H222.312V63.72H211.88V57.256ZM218.52 64.472L219.32 63.8C221.064 64.328 222.936 65.032 224.072 65.544L223 66.232C221.976 65.72 220.248 65.032 218.52 64.472ZM214.568 63.816L215.656 64.328C214.36 65.096 212.328 65.832 210.728 66.264C210.536 66.04 210.12 65.576 209.848 65.368C211.496 65.016 213.416 64.456 214.568 63.816ZM216.408 52.648H223V53.592H216.408V52.648ZM216.664 51.528L217.736 51.768C217.304 53.08 216.536 54.376 215.704 55.192C215.512 55.016 215.064 54.728 214.792 54.584C215.624 53.816 216.296 52.68 216.664 51.528ZM218.568 53.24H219.672V53.784C219.672 55 219.16 56.44 214.648 57.144C214.536 56.856 214.216 56.44 214.008 56.216C218.168 55.672 218.568 54.568 218.568 53.752V53.24ZM219.512 54.184C220.328 55.224 222.152 55.896 224.376 56.088C224.136 56.328 223.832 56.76 223.688 57.064C221.384 56.728 219.544 55.816 218.664 54.392L219.512 54.184ZM210.12 52.52H213.976V53.464H210.12V52.52ZM209.768 55.016H214.376V55.992H209.768V55.016ZM222.6 52.648H222.808L222.984 52.6L223.8 52.872C223.4 53.688 222.888 54.616 222.44 55.192L221.496 54.856C221.864 54.328 222.312 53.512 222.6 52.824V52.648ZM226.392 56.408H230.936V57.368H226.392V56.408ZM226.392 58.504H230.952V59.464H226.392V58.504ZM225.752 54.28H231.544V55.288H225.752V54.28ZM226.872 60.648H230.936V65.32H226.872V64.312H229.96V61.656H226.872V60.648ZM226.392 60.648H227.352V66.072H226.392V60.648ZM227.448 51.976L228.312 51.496C228.76 52.152 229.24 53 229.496 53.56L228.568 54.136C228.36 53.544 227.864 52.632 227.448 51.976ZM231.528 58.376H236.952V59.512H231.528V58.376ZM237.512 52.472H238.712C238.632 58.984 238.584 64.568 239.496 64.792C239.592 64.824 239.704 63.8 239.768 62.648C239.96 62.936 240.296 63.352 240.472 63.528C240.296 65.784 239.768 66.296 239.016 65.992C237.352 65.464 237.512 59.624 237.512 52.472ZM233.704 53.208H234.824V66.28H233.704V53.208ZM231.704 52.472H238.056V53.624H231.704V52.472Z" fill="#003060"/>
<path d="M318.608 60.056C319.728 59.704 321.376 59.08 322.992 58.472L323.2 59.56C321.744 60.136 320.176 60.744 318.944 61.208L318.608 60.056ZM318.768 54.792H322.992V55.912H318.768V54.792ZM320.576 51.576H321.632V64.824C321.632 65.432 321.488 65.752 321.136 65.944C320.768 66.12 320.192 66.152 319.264 66.152C319.232 65.864 319.088 65.4 318.928 65.08C319.568 65.096 320.144 65.096 320.32 65.08C320.512 65.08 320.576 65.032 320.576 64.824V51.576ZM325.76 55.176H330.56V56.152H325.76V55.176ZM325.024 58.2V60.312H326.736V58.2H325.024ZM324.096 57.32H327.696V61.192H324.096V57.32ZM329.616 58.2V60.312H331.408V58.2H329.616ZM328.688 57.32H332.368V61.192H328.688V57.32ZM325.456 61.544L326.544 61.768C325.936 63.752 324.704 65.32 323.216 66.328C323.04 66.12 322.64 65.736 322.4 65.544C323.856 64.68 324.944 63.288 325.456 61.544ZM325.28 63.544L325.888 62.84C326.592 63.272 327.472 63.912 327.904 64.36L327.248 65.16C326.848 64.696 325.984 64.008 325.28 63.544ZM329.936 61.528L331.04 61.688C330.608 63.72 329.632 65.272 328.24 66.28C328.08 66.088 327.68 65.688 327.424 65.496C328.72 64.648 329.584 63.272 329.936 61.528ZM329.6 63.608L330.304 62.872C331.36 63.544 332.752 64.552 333.408 65.224L332.672 66.056C332.016 65.368 330.672 64.312 329.6 63.608ZM327.808 51.448L328.96 51.848C327.76 53.672 325.776 55.288 323.568 56.424C323.376 56.2 323.008 55.8 322.752 55.608C324.896 54.584 326.816 53.016 327.808 51.448ZM328.224 51.976C329.344 53.192 331.648 54.488 333.488 55.144C333.28 55.432 333.04 55.928 332.944 56.232C331.008 55.384 328.656 53.912 327.392 52.536L328.224 51.976ZM339.424 51.48L340.496 51.896C339.248 53.384 337.28 54.76 335.568 55.624C335.392 55.4 334.96 54.968 334.688 54.776C336.448 54.008 338.304 52.792 339.424 51.48ZM338.048 59.928V61.016H346.112V59.928H338.048ZM338.048 61.8V62.92H346.112V61.8H338.048ZM338.048 58.056V59.144H346.112V58.056H338.048ZM336.88 57.256H347.312V63.72H336.88V57.256ZM343.52 64.488L344.32 63.832C346.048 64.36 347.92 65.032 349.056 65.576L348.016 66.264C346.992 65.752 345.248 65.048 343.52 64.488ZM339.584 63.88L340.688 64.376C339.392 65.144 337.36 65.896 335.76 66.328C335.568 66.088 335.136 65.64 334.864 65.416C336.512 65.08 338.432 64.504 339.584 63.88ZM337.632 53.704L338.48 52.872L338.784 52.968V56.792H337.632V53.704ZM341.824 51.592H343.024V54.856C343.024 55.384 343.152 55.576 343.728 55.576C344.256 55.576 346.752 55.576 347.28 55.576C347.744 55.576 348.544 55.528 348.88 55.48C348.912 55.8 348.96 56.2 349.008 56.472C348.704 56.552 348.016 56.568 347.376 56.568C346.8 56.568 344.048 56.568 343.664 56.568C342.224 56.568 341.824 56.088 341.824 54.824V51.592ZM342.544 52.904H348.208V53.896H342.544V52.904Z" fill="#3493FB"/>
<circle cx="476" cy="18" r="18" fill="#F4F7FE"/>
<circle cx="617" cy="18" r="18" fill="#F4F7FE"/>
<circle cx="758" cy="19" r="18" fill="#F4F7FE"/>
<path d="M481.949 20.2578V22.0391H469.621V20.7617L477.262 8.9375H479.031L477.133 12.3594L472.082 20.2578H481.949ZM479.57 8.9375V26H477.402V8.9375H479.57Z" fill="#656565"/>
<path d="M614.16 17.8789L612.426 17.4336L613.281 8.9375H622.035V10.9414H615.121L614.605 15.582C614.918 15.4023 615.312 15.2344 615.789 15.0781C616.273 14.9219 616.828 14.8438 617.453 14.8438C618.242 14.8438 618.949 14.9805 619.574 15.2539C620.199 15.5195 620.73 15.9023 621.168 16.4023C621.613 16.9023 621.953 17.5039 622.188 18.207C622.422 18.9102 622.539 19.6953 622.539 20.5625C622.539 21.3828 622.426 22.1367 622.199 22.8242C621.98 23.5117 621.648 24.1133 621.203 24.6289C620.758 25.1367 620.195 25.5312 619.516 25.8125C618.844 26.0938 618.051 26.2344 617.137 26.2344C616.449 26.2344 615.797 26.1406 615.18 25.9531C614.57 25.7578 614.023 25.4648 613.539 25.0742C613.062 24.6758 612.672 24.1836 612.367 23.5977C612.07 23.0039 611.883 22.3086 611.805 21.5117H613.867C613.961 22.1523 614.148 22.6914 614.43 23.1289C614.711 23.5664 615.078 23.8984 615.531 24.125C615.992 24.3438 616.527 24.4531 617.137 24.4531C617.652 24.4531 618.109 24.3633 618.508 24.1836C618.906 24.0039 619.242 23.7461 619.516 23.4102C619.789 23.0742 619.996 22.668 620.137 22.1914C620.285 21.7148 620.359 21.1797 620.359 20.5859C620.359 20.0469 620.285 19.5469 620.137 19.0859C619.988 18.625 619.766 18.2227 619.469 17.8789C619.18 17.5352 618.824 17.2695 618.402 17.082C617.98 16.8867 617.496 16.7891 616.949 16.7891C616.223 16.7891 615.672 16.8867 615.297 17.082C614.93 17.2773 614.551 17.543 614.16 17.8789Z" fill="#656565"/>
<path d="M760.738 9.91406H760.926V11.7539H760.738C759.59 11.7539 758.629 11.9414 757.855 12.3164C757.082 12.6836 756.469 13.1797 756.016 13.8047C755.562 14.4219 755.234 15.1172 755.031 15.8906C754.836 16.6641 754.738 17.4492 754.738 18.2461V20.7539C754.738 21.5117 754.828 22.1836 755.008 22.7695C755.188 23.3477 755.434 23.8359 755.746 24.2344C756.059 24.6328 756.41 24.9336 756.801 25.1367C757.199 25.3398 757.613 25.4414 758.043 25.4414C758.543 25.4414 758.988 25.3477 759.379 25.1602C759.77 24.9648 760.098 24.6953 760.363 24.3516C760.637 24 760.844 23.5859 760.984 23.1094C761.125 22.6328 761.195 22.1094 761.195 21.5391C761.195 21.0312 761.133 20.543 761.008 20.0742C760.883 19.5977 760.691 19.1758 760.434 18.8086C760.176 18.4336 759.852 18.1406 759.461 17.9297C759.078 17.7109 758.621 17.6016 758.09 17.6016C757.488 17.6016 756.926 17.75 756.402 18.0469C755.887 18.3359 755.461 18.7188 755.125 19.1953C754.797 19.6641 754.609 20.1758 754.562 20.7305L753.414 20.7188C753.523 19.8438 753.727 19.0977 754.023 18.4805C754.328 17.8555 754.703 17.3477 755.148 16.957C755.602 16.5586 756.105 16.2695 756.66 16.0898C757.223 15.9023 757.816 15.8086 758.441 15.8086C759.293 15.8086 760.027 15.9688 760.645 16.2891C761.262 16.6094 761.77 17.0391 762.168 17.5781C762.566 18.1094 762.859 18.7109 763.047 19.3828C763.242 20.0469 763.34 20.7305 763.34 21.4336C763.34 22.2383 763.227 22.9922 763 23.6953C762.773 24.3984 762.434 25.0156 761.98 25.5469C761.535 26.0781 760.984 26.4922 760.328 26.7891C759.672 27.0859 758.91 27.2344 758.043 27.2344C757.121 27.2344 756.316 27.0469 755.629 26.6719C754.941 26.2891 754.371 25.7812 753.918 25.1484C753.465 24.5156 753.125 23.8125 752.898 23.0391C752.672 22.2656 752.559 21.4805 752.559 20.6836V19.6641C752.559 18.4609 752.68 17.2812 752.922 16.125C753.164 14.9688 753.582 13.9219 754.176 12.9844C754.777 12.0469 755.609 11.3008 756.672 10.7461C757.734 10.1914 759.09 9.91406 760.738 9.91406Z" fill="#656565"/>
<path d="M467.312 51.576H468.624V64.712H467.312V51.576ZM473.008 59.56H474.32V66.248H473.008V59.56ZM462.384 53.016H463.632V57.368H472.384V53.016H473.68V58.536H462.384V53.016ZM461.664 59.56H462.976V64.152H473.648V65.352H461.664V59.56ZM481.424 51.48L482.496 51.896C481.248 53.384 479.28 54.76 477.568 55.624C477.392 55.4 476.96 54.968 476.688 54.776C478.448 54.008 480.304 52.792 481.424 51.48ZM480.048 59.928V61.016H488.112V59.928H480.048ZM480.048 61.8V62.92H488.112V61.8H480.048ZM480.048 58.056V59.144H488.112V58.056H480.048ZM478.88 57.256H489.312V63.72H478.88V57.256ZM485.52 64.488L486.32 63.832C488.048 64.36 489.92 65.032 491.056 65.576L490.016 66.264C488.992 65.752 487.248 65.048 485.52 64.488ZM481.584 63.88L482.688 64.376C481.392 65.144 479.36 65.896 477.76 66.328C477.568 66.088 477.136 65.64 476.864 65.416C478.512 65.08 480.432 64.504 481.584 63.88ZM479.632 53.704L480.48 52.872L480.784 52.968V56.792H479.632V53.704ZM483.824 51.592H485.024V54.856C485.024 55.384 485.152 55.576 485.728 55.576C486.256 55.576 488.752 55.576 489.28 55.576C489.744 55.576 490.544 55.528 490.88 55.48C490.912 55.8 490.96 56.2 491.008 56.472C490.704 56.552 490.016 56.568 489.376 56.568C488.8 56.568 486.048 56.568 485.664 56.568C484.224 56.568 483.824 56.088 483.824 54.824V51.592ZM484.544 52.904H490.208V53.896H484.544V52.904Z" fill="#656565"/>
<path d="M734.176 53.768H740.08V54.936H734.176V53.768ZM726.752 52.568H734.576V53.688H726.752V52.568ZM728.624 55.816H732.784V56.92H728.624V55.816ZM728.624 59.144H732.784V60.232H728.624V59.144ZM739.728 53.768H739.936L740.16 53.736L740.928 53.944C740.16 60.312 737.712 64.072 734.288 66.056C734.096 65.752 733.76 65.304 733.488 65.08C736.656 63.432 739.04 59.672 739.728 54.056V53.768ZM735.632 55C736.48 59.624 738.336 63.416 741.632 65.112C741.36 65.352 740.976 65.8 740.784 66.12C737.312 64.152 735.472 60.248 734.48 55.224L735.632 55ZM728 53H729.152V63.384H728V53ZM732.288 53H733.44V66.248H732.288V53ZM726.432 63.032C728 62.84 730.416 62.504 732.752 62.152L732.816 63.256C730.624 63.608 728.32 63.976 726.656 64.232L726.432 63.032ZM747.424 51.48L748.496 51.896C747.248 53.384 745.28 54.76 743.568 55.624C743.392 55.4 742.96 54.968 742.688 54.776C744.448 54.008 746.304 52.792 747.424 51.48ZM746.048 59.928V61.016H754.112V59.928H746.048ZM746.048 61.8V62.92H754.112V61.8H746.048ZM746.048 58.056V59.144H754.112V58.056H746.048ZM744.88 57.256H755.312V63.72H744.88V57.256ZM751.52 64.488L752.32 63.832C754.048 64.36 755.92 65.032 757.056 65.576L756.016 66.264C754.992 65.752 753.248 65.048 751.52 64.488ZM747.584 63.88L748.688 64.376C747.392 65.144 745.36 65.896 743.76 66.328C743.568 66.088 743.136 65.64 742.864 65.416C744.512 65.08 746.432 64.504 747.584 63.88ZM745.632 53.704L746.48 52.872L746.784 52.968V56.792H745.632V53.704ZM749.824 51.592H751.024V54.856C751.024 55.384 751.152 55.576 751.728 55.576C752.256 55.576 754.752 55.576 755.28 55.576C755.744 55.576 756.544 55.528 756.88 55.48C756.912 55.8 756.96 56.2 757.008 56.472C756.704 56.552 756.016 56.568 755.376 56.568C754.8 56.568 752.048 56.568 751.664 56.568C750.224 56.568 749.824 56.088 749.824 54.824V51.592ZM750.544 52.904H756.208V53.896H750.544V52.904ZM761.616 56.264H770.32V57.384H761.616V56.264ZM758.896 59.24H773.088V60.376H758.896V59.24ZM763.232 59.96H764.448C764.256 63.576 763.504 65.416 759.328 66.296C759.232 66.008 758.928 65.544 758.688 65.304C762.496 64.568 763.056 63.096 763.232 59.96ZM767.232 59.912H768.432V64.376C768.432 64.84 768.544 64.92 769.216 64.92C769.536 64.92 771.04 64.92 771.456 64.92C772.048 64.92 772.16 64.648 772.208 62.792C772.48 63 772.976 63.192 773.312 63.272C773.168 65.48 772.832 66.04 771.552 66.04C771.232 66.04 769.408 66.04 769.088 66.04C767.616 66.04 767.232 65.672 767.232 64.376V59.912ZM759.296 53.4H772.64V56.952H771.408V54.568H760.496V56.952H759.296V53.4ZM764.72 51.768L765.936 51.416C766.368 52.12 766.848 53.064 767.056 53.672L765.776 54.072C765.6 53.48 765.152 52.504 764.72 51.768ZM781.328 57.816H782.528V66.28H781.328V57.816ZM777.712 57.896H778.832V62.008H777.712V57.896ZM785.136 57.896H786.256V62.008H785.136V57.896ZM777.312 55.272V56.568H786.624V55.272H777.312ZM777.312 53.176V54.44H786.624V53.176H777.312ZM776.144 52.312H787.84V57.432H776.144V52.312ZM774.8 61.16H789.152V62.184H774.8V61.16ZM775.632 58.808H788.112V59.816H775.632V58.808ZM776.416 63.416H787.648V64.424H776.416V63.416ZM781.328 52.68H782.528V57.176H781.328V52.68Z" fill="#656565"/>
<path d="M606.296 57.992H616.056V59.112H606.296V57.992ZM606.792 54.568H615.656V55.672H606.792V54.568ZM610.488 55.112H611.672V57.32C611.672 59.352 611.192 62.152 606.952 64.136C606.792 63.88 606.424 63.496 606.136 63.272C610.232 61.528 610.488 59.032 610.488 57.304V55.112ZM613.432 51.56L614.648 51.96C614.056 53.064 613.336 54.36 612.744 55.192L611.784 54.84C612.344 53.976 613.048 52.552 613.432 51.56ZM607.608 51.976L608.616 51.608C609.112 52.376 609.768 53.416 610.072 54.04L609.016 54.504C608.712 53.864 608.104 52.776 607.608 51.976ZM610.296 59.976L611.112 59.256C612.712 60.488 614.92 62.232 616.04 63.288L615.176 64.136C614.12 63.064 611.944 61.256 610.296 59.976ZM602.328 52.088L603.24 51.576C603.928 52.36 604.76 53.4 605.16 54.056L604.2 54.68C603.816 54.008 602.984 52.888 602.328 52.088ZM601.736 55.256H605.192V56.264H601.736V55.256ZM604.584 62.6C605.576 64.696 607.656 64.984 610.856 64.984C612.552 64.984 614.888 64.92 616.536 64.776C616.36 65.032 616.216 65.576 616.152 65.896C614.632 65.992 612.616 66.024 610.856 66.024C607.096 66.024 605 65.608 603.784 62.968L604.584 62.6ZM604.584 59.256H604.936L605.144 59.224L605.688 59.448C605.176 62.808 603.944 65.08 602.28 66.312C602.12 66.072 601.72 65.656 601.48 65.48C603.064 64.392 604.184 62.344 604.584 59.464V59.256ZM601.976 60.456V59.544L602.552 59.256H605.08V60.232H602.92C602.504 60.232 602.088 60.328 601.976 60.456ZM601.976 60.456C601.896 60.184 601.656 59.624 601.528 59.368C601.768 59.304 602.024 59.208 602.296 58.888C602.776 58.408 604.296 56.232 604.824 55.384V55.336L605.176 55.176L605.976 55.544C605.224 56.632 603.784 58.68 602.872 59.704C602.872 59.704 601.976 60.152 601.976 60.456ZM623.784 56.04L624.824 55.784C625.16 56.296 625.512 56.968 625.608 57.432L624.52 57.72C624.424 57.256 624.12 56.552 623.784 56.04ZM622.904 52.792H630.968V53.688H622.904V52.792ZM622.856 59.688H631.128V60.6H622.856V59.688ZM622.328 57.672H631.784V58.584H622.328V57.672ZM621.976 54.888H631.96V55.816H621.976V54.888ZM622.152 61.768H631.896V62.712H622.152V61.768ZM626.344 51.56H627.528V55.48H626.344V51.56ZM626.344 58.088H627.528V64.488H626.344V58.088ZM628.904 55.704L630.056 56.04C629.72 56.664 629.352 57.304 629.064 57.736L628.104 57.432C628.376 56.952 628.728 56.2 628.904 55.704ZM618.296 52.088L619.208 51.576C619.912 52.36 620.728 53.4 621.128 54.056L620.168 54.68C619.784 54.008 618.952 52.888 618.296 52.088ZM617.736 55.256H621.016V56.264H617.736V55.256ZM620.584 62.6C621.576 64.696 623.656 64.984 626.856 64.984C628.552 64.984 630.888 64.92 632.536 64.776C632.36 65.032 632.216 65.576 632.152 65.896C630.632 65.992 628.616 66.024 626.856 66.024C623.096 66.024 621 65.608 619.784 62.968L620.584 62.6ZM620.52 59.256H620.872L621.08 59.224L621.624 59.448C621.128 62.792 619.928 65.08 618.296 66.296C618.136 66.072 617.736 65.656 617.496 65.48C619.032 64.376 620.136 62.328 620.52 59.464V59.256ZM617.976 60.456V59.544L618.552 59.256H621.048L621.032 60.232H618.904C618.504 60.232 618.088 60.328 617.976 60.456ZM617.976 60.456C617.896 60.184 617.656 59.624 617.528 59.384C617.768 59.32 618.024 59.208 618.264 58.904C618.728 58.424 620.152 56.232 620.632 55.384V55.336L620.984 55.192L621.768 55.528C621.08 56.6 619.72 58.68 618.872 59.704C618.872 59.704 617.976 60.152 617.976 60.456Z" fill="#656565"/>
<path d="M4.83949 82V81.0455L7.79261 77.9858C8.10795 77.6534 8.3679 77.3622 8.57244 77.1122C8.77983 76.8594 8.93466 76.6193 9.03693 76.392C9.1392 76.1648 9.19034 75.9233 9.19034 75.6676C9.19034 75.3778 9.12216 75.1278 8.9858 74.9176C8.84943 74.7045 8.66335 74.5412 8.42756 74.4276C8.19176 74.3111 7.92614 74.2528 7.63068 74.2528C7.31818 74.2528 7.04545 74.3168 6.8125 74.4446C6.57955 74.5724 6.40057 74.7528 6.27557 74.9858C6.15057 75.2187 6.08807 75.4915 6.08807 75.804H4.83097C4.83097 75.2727 4.95313 74.8082 5.19744 74.4105C5.44176 74.0128 5.77699 73.7045 6.20312 73.4858C6.62926 73.2642 7.11364 73.1534 7.65625 73.1534C8.20455 73.1534 8.6875 73.2628 9.10511 73.4815C9.52557 73.6974 9.85369 73.9929 10.0895 74.3679C10.3253 74.7401 10.4432 75.1605 10.4432 75.6293C10.4432 75.9531 10.3821 76.2699 10.2599 76.5795C10.1406 76.8892 9.93182 77.2344 9.63352 77.6151C9.33523 77.9929 8.92045 78.4517 8.3892 78.9915L6.65483 80.8068V80.8707H10.5838V82H4.83949ZM15.2372 82.1449C14.5639 82.142 13.9886 81.9645 13.5114 81.6122C13.0341 81.2599 12.669 80.7472 12.4162 80.0739C12.1634 79.4006 12.0369 78.5895 12.0369 77.6406C12.0369 76.6946 12.1634 75.8864 12.4162 75.2159C12.6719 74.5455 13.0384 74.0341 13.5156 73.6818C13.9957 73.3295 14.5696 73.1534 15.2372 73.1534C15.9048 73.1534 16.4773 73.331 16.9545 73.6861C17.4318 74.0384 17.7969 74.5497 18.0497 75.2202C18.3054 75.8878 18.4332 76.6946 18.4332 77.6406C18.4332 78.5923 18.3068 79.4048 18.054 80.0781C17.8011 80.7486 17.4361 81.2614 16.9588 81.6165C16.4815 81.9688 15.9077 82.1449 15.2372 82.1449ZM15.2372 81.0071C15.8281 81.0071 16.2898 80.7188 16.6222 80.142C16.9574 79.5653 17.125 78.7315 17.125 77.6406C17.125 76.9162 17.0483 76.304 16.8949 75.804C16.7443 75.3011 16.527 74.9205 16.2429 74.6619C15.9616 74.4006 15.6264 74.2699 15.2372 74.2699C14.6491 74.2699 14.1875 74.5597 13.8523 75.1392C13.517 75.7187 13.348 76.5526 13.3452 77.6406C13.3452 78.3679 13.4205 78.983 13.571 79.4858C13.7244 79.9858 13.9418 80.3651 14.223 80.6236C14.5043 80.8793 14.8423 81.0071 15.2372 81.0071ZM19.945 82V81.0455L22.8981 77.9858C23.2134 77.6534 23.4734 77.3622 23.6779 77.1122C23.8853 76.8594 24.0401 76.6193 24.1424 76.392C24.2447 76.1648 24.2958 75.9233 24.2958 75.6676C24.2958 75.3778 24.2276 75.1278 24.0913 74.9176C23.9549 74.7045 23.7688 74.5412 23.533 74.4276C23.2972 74.3111 23.0316 74.2528 22.7362 74.2528C22.4237 74.2528 22.1509 74.3168 21.918 74.4446C21.685 74.5724 21.506 74.7528 21.381 74.9858C21.256 75.2187 21.1935 75.4915 21.1935 75.804H19.9364C19.9364 75.2727 20.0586 74.8082 20.3029 74.4105C20.5472 74.0128 20.8825 73.7045 21.3086 73.4858C21.7347 73.2642 22.2191 73.1534 22.7617 73.1534C23.31 73.1534 23.793 73.2628 24.2106 73.4815C24.631 73.6974 24.9592 73.9929 25.195 74.3679C25.4308 74.7401 25.5487 75.1605 25.5487 75.6293C25.5487 75.9531 25.4876 76.2699 25.3654 76.5795C25.2461 76.8892 25.0373 77.2344 24.739 77.6151C24.4407 77.9929 24.0259 78.4517 23.4947 78.9915L21.7603 80.8068V80.8707H25.6893V82H19.945ZM30.3427 82.1193C29.7575 82.1193 29.2347 82.0185 28.7745 81.8168C28.3171 81.6151 27.9549 81.3352 27.6879 80.9773C27.4237 80.6165 27.2816 80.1989 27.2617 79.7244H28.5998C28.6168 79.983 28.7035 80.2074 28.8597 80.3977C29.0188 80.5852 29.2262 80.7301 29.4819 80.8324C29.7376 80.9347 30.0217 80.9858 30.3342 80.9858C30.6779 80.9858 30.9819 80.9261 31.2461 80.8068C31.5131 80.6875 31.7219 80.5213 31.8725 80.3082C32.0231 80.0923 32.0984 79.8438 32.0984 79.5625C32.0984 79.2699 32.0231 79.0128 31.8725 78.7912C31.7248 78.5668 31.5075 78.3906 31.2205 78.2628C30.9364 78.1349 30.5927 78.071 30.1893 78.071H29.4521V76.9972H30.1893C30.5131 76.9972 30.7972 76.9389 31.0415 76.8224C31.2887 76.706 31.4819 76.544 31.6211 76.3366C31.7603 76.1264 31.8299 75.8807 31.8299 75.5994C31.8299 75.3295 31.7688 75.0952 31.6467 74.8963C31.5273 74.6946 31.3569 74.5369 31.1353 74.4233C30.9165 74.3097 30.658 74.2528 30.3597 74.2528C30.0756 74.2528 29.81 74.3054 29.5629 74.4105C29.3185 74.5128 29.1197 74.6605 28.9663 74.8537C28.8129 75.044 28.7305 75.2727 28.7191 75.5398H27.445C27.4592 75.0682 27.5984 74.6534 27.8626 74.2955C28.1296 73.9375 28.4819 73.6577 28.9194 73.456C29.3569 73.2543 29.8427 73.1534 30.3768 73.1534C30.9364 73.1534 31.4194 73.2628 31.8256 73.4815C32.2347 73.6974 32.5501 73.9858 32.7717 74.3466C32.9961 74.7074 33.1069 75.1023 33.104 75.5312C33.1069 76.0199 32.9705 76.4347 32.695 76.7756C32.4222 77.1165 32.0586 77.3452 31.604 77.4616V77.5298C32.1836 77.6179 32.6325 77.848 32.9506 78.2202C33.2717 78.5923 33.4308 79.054 33.4279 79.6051C33.4308 80.0852 33.2972 80.5156 33.0273 80.8963C32.7603 81.277 32.3952 81.5767 31.9322 81.7955C31.4691 82.0114 30.9393 82.1193 30.3427 82.1193ZM38.9123 77.0824V78.1903H35.043V77.0824H38.9123ZM43.6317 82.1449C42.9585 82.142 42.3832 81.9645 41.9059 81.6122C41.4286 81.2599 41.0636 80.7472 40.8107 80.0739C40.5579 79.4006 40.4315 78.5895 40.4315 77.6406C40.4315 76.6946 40.5579 75.8864 40.8107 75.2159C41.0664 74.5455 41.4329 74.0341 41.9102 73.6818C42.3903 73.3295 42.9641 73.1534 43.6317 73.1534C44.2994 73.1534 44.8718 73.331 45.3491 73.6861C45.8263 74.0384 46.1914 74.5497 46.4442 75.2202C46.6999 75.8878 46.8278 76.6946 46.8278 77.6406C46.8278 78.5923 46.7013 79.4048 46.4485 80.0781C46.1957 80.7486 45.8306 81.2614 45.3533 81.6165C44.8761 81.9688 44.3022 82.1449 43.6317 82.1449ZM43.6317 81.0071C44.2227 81.0071 44.6843 80.7188 45.0167 80.142C45.3519 79.5653 45.5195 78.7315 45.5195 77.6406C45.5195 76.9162 45.4428 76.304 45.2894 75.804C45.1388 75.3011 44.9215 74.9205 44.6374 74.6619C44.3562 74.4006 44.021 74.2699 43.6317 74.2699C43.0437 74.2699 42.582 74.5597 42.2468 75.1392C41.9116 75.7187 41.7425 76.5526 41.7397 77.6406C41.7397 78.3679 41.815 78.983 41.9656 79.4858C42.119 79.9858 42.3363 80.3651 42.6175 80.6236C42.8988 80.8793 43.2369 81.0071 43.6317 81.0071ZM51.2202 82.1193C50.6861 82.1193 50.206 82.017 49.7798 81.8125C49.3565 81.6051 49.0185 81.321 48.7656 80.9602C48.5128 80.5994 48.3778 80.1875 48.3608 79.7244H49.6392C49.6705 80.0994 49.8366 80.4077 50.1378 80.6491C50.4389 80.8906 50.7997 81.0114 51.2202 81.0114C51.5554 81.0114 51.8523 80.9347 52.1108 80.7812C52.3722 80.625 52.5767 80.4105 52.7244 80.1378C52.875 79.8651 52.9503 79.554 52.9503 79.2045C52.9503 78.8494 52.8736 78.5327 52.7202 78.2543C52.5668 77.9759 52.3551 77.7571 52.0852 77.598C51.8182 77.4389 51.5114 77.358 51.1648 77.3551C50.9006 77.3551 50.6349 77.4006 50.3679 77.4915C50.1009 77.5824 49.8849 77.7017 49.7202 77.8494L48.5142 77.6705L49.0043 73.2727H53.8026V74.402H50.0994L49.8224 76.8438H49.8736C50.044 76.679 50.2699 76.5412 50.5511 76.4304C50.8352 76.3196 51.1392 76.2642 51.4631 76.2642C51.9943 76.2642 52.4673 76.3906 52.8821 76.6435C53.2997 76.8963 53.6278 77.2415 53.8665 77.679C54.108 78.1136 54.2273 78.6136 54.2244 79.179C54.2273 79.7443 54.0994 80.2486 53.8409 80.6918C53.5852 81.1349 53.2301 81.4844 52.7756 81.7401C52.3239 81.9929 51.8054 82.1193 51.2202 82.1193ZM59.6545 77.0824V78.1903H55.7852V77.0824H59.6545ZM64.6467 73.2727V82H63.3256V74.5938H63.2745L61.1864 75.9574V74.696L63.364 73.2727H64.6467ZM67.3015 82L71.1112 74.4659V74.402H66.7049V73.2727H72.4748V74.4403L68.6779 82H67.3015ZM80.4435 73.2727V82H79.1225V74.5938H79.0714L76.9833 75.9574V74.696L79.1609 73.2727H80.4435ZM85.8512 82.1193C85.462 82.1136 85.0785 82.0426 84.7006 81.9062C84.3256 81.7699 83.9847 81.5426 83.6779 81.2244C83.3711 80.9062 83.1254 80.4787 82.9407 79.9418C82.7589 79.4048 82.668 78.7344 82.668 77.9304C82.668 77.169 82.7433 76.4929 82.8938 75.902C83.0472 75.3111 83.2674 74.8125 83.5543 74.4062C83.8413 73.9972 84.1879 73.6861 84.5941 73.473C85.0004 73.2599 85.4563 73.1534 85.962 73.1534C86.4819 73.1534 86.9435 73.2557 87.3469 73.4602C87.7504 73.6648 88.0771 73.9474 88.3271 74.3082C88.5799 74.669 88.7404 75.0795 88.8086 75.5398H87.5089C87.4208 75.1761 87.2461 74.8793 86.9847 74.6491C86.7234 74.419 86.3825 74.304 85.962 74.304C85.3228 74.304 84.8242 74.5824 84.4663 75.1392C84.1112 75.696 83.9322 76.4702 83.9293 77.4616H83.9933C84.1438 77.2145 84.3285 77.0043 84.5472 76.831C84.7688 76.6548 85.016 76.5199 85.2887 76.4261C85.5643 76.3295 85.854 76.2812 86.158 76.2812C86.6637 76.2812 87.1211 76.4048 87.5302 76.652C87.9421 76.8963 88.2702 77.2344 88.5146 77.6662C88.7589 78.098 88.881 78.5923 88.881 79.1491C88.881 79.706 88.7546 80.2102 88.5018 80.6619C88.2518 81.1136 87.8995 81.4716 87.445 81.7358C86.9904 81.9972 86.4592 82.125 85.8512 82.1193ZM85.8469 81.0114C86.1822 81.0114 86.4819 80.929 86.7461 80.7642C87.0103 80.5994 87.2191 80.3778 87.3725 80.0994C87.5259 79.821 87.6026 79.5099 87.6026 79.1662C87.6026 78.831 87.5273 78.5256 87.3768 78.25C87.229 77.9744 87.0245 77.7557 86.7631 77.5938C86.5046 77.4318 86.2092 77.3509 85.8768 77.3509C85.6239 77.3509 85.3896 77.3991 85.1737 77.4957C84.9606 77.5923 84.7731 77.7259 84.6112 77.8963C84.4492 78.0668 84.3214 78.2628 84.2276 78.4844C84.1367 78.7031 84.0913 78.9347 84.0913 79.179C84.0913 79.5057 84.1665 79.8082 84.3171 80.0866C84.4705 80.3651 84.6793 80.5895 84.9435 80.7599C85.2106 80.9276 85.5117 81.0114 85.8469 81.0114ZM91.2898 80.9176C91.0568 80.9176 90.8565 80.8352 90.6889 80.6705C90.5213 80.5028 90.4375 80.3011 90.4375 80.0653C90.4375 79.8324 90.5213 79.6335 90.6889 79.4688C90.8565 79.3011 91.0568 79.2173 91.2898 79.2173C91.5227 79.2173 91.723 79.3011 91.8906 79.4688C92.0582 79.6335 92.142 79.8324 92.142 80.0653C92.142 80.2216 92.1023 80.3651 92.0227 80.4957C91.946 80.6236 91.8438 80.7259 91.7159 80.8026C91.5881 80.8793 91.446 80.9176 91.2898 80.9176ZM91.2898 76.5455C91.0568 76.5455 90.8565 76.4631 90.6889 76.2983C90.5213 76.1307 90.4375 75.929 90.4375 75.6932C90.4375 75.4602 90.5213 75.2614 90.6889 75.0966C90.8565 74.929 91.0568 74.8452 91.2898 74.8452C91.5227 74.8452 91.723 74.929 91.8906 75.0966C92.0582 75.2614 92.142 75.4602 92.142 75.6932C92.142 75.8494 92.1023 75.9929 92.0227 76.1236C91.946 76.2514 91.8438 76.3537 91.7159 76.4304C91.5881 76.5071 91.446 76.5455 91.2898 76.5455ZM93.6484 80.2955V79.2301L97.4197 73.2727H98.2592V74.8409H97.7266L95.0291 79.1108V79.179H100.198V80.2955H93.6484ZM97.7862 82V79.9716L97.7947 79.4858V73.2727H99.0433V82H97.7862ZM104.722 82.1449C104.048 82.142 103.473 81.9645 102.996 81.6122C102.518 81.2599 102.153 80.7472 101.901 80.0739C101.648 79.4006 101.521 78.5895 101.521 77.6406C101.521 76.6946 101.648 75.8864 101.901 75.2159C102.156 74.5455 102.523 74.0341 103 73.6818C103.48 73.3295 104.054 73.1534 104.722 73.1534C105.389 73.1534 105.962 73.331 106.439 73.6861C106.916 74.0384 107.281 74.5497 107.534 75.2202C107.79 75.8878 107.918 76.6946 107.918 77.6406C107.918 78.5923 107.791 79.4048 107.538 80.0781C107.286 80.7486 106.92 81.2614 106.443 81.6165C105.966 81.9688 105.392 82.1449 104.722 82.1449ZM104.722 81.0071C105.313 81.0071 105.774 80.7188 106.107 80.142C106.442 79.5653 106.609 78.7315 106.609 77.6406C106.609 76.9162 106.533 76.304 106.379 75.804C106.229 75.3011 106.011 74.9205 105.727 74.6619C105.446 74.4006 105.111 74.2699 104.722 74.2699C104.134 74.2699 103.672 74.5597 103.337 75.1392C103.001 75.7187 102.832 76.5526 102.83 77.6406C102.83 78.3679 102.905 78.983 103.055 79.4858C103.209 79.9858 103.426 80.3651 103.707 80.6236C103.989 80.8793 104.327 81.0071 104.722 81.0071Z" fill="#656565"/>
<path d="M141.839 82V81.0455L144.793 77.9858C145.108 77.6534 145.368 77.3622 145.572 77.1122C145.78 76.8594 145.935 76.6193 146.037 76.392C146.139 76.1648 146.19 75.9233 146.19 75.6676C146.19 75.3778 146.122 75.1278 145.986 74.9176C145.849 74.7045 145.663 74.5412 145.428 74.4276C145.192 74.3111 144.926 74.2528 144.631 74.2528C144.318 74.2528 144.045 74.3168 143.812 74.4446C143.58 74.5724 143.401 74.7528 143.276 74.9858C143.151 75.2187 143.088 75.4915 143.088 75.804H141.831C141.831 75.2727 141.953 74.8082 142.197 74.4105C142.442 74.0128 142.777 73.7045 143.203 73.4858C143.629 73.2642 144.114 73.1534 144.656 73.1534C145.205 73.1534 145.688 73.2628 146.105 73.4815C146.526 73.6974 146.854 73.9929 147.089 74.3679C147.325 74.7401 147.443 75.1605 147.443 75.6293C147.443 75.9531 147.382 76.2699 147.26 76.5795C147.141 76.8892 146.932 77.2344 146.634 77.6151C146.335 77.9929 145.92 78.4517 145.389 78.9915L143.655 80.8068V80.8707H147.584V82H141.839ZM152.237 82.1449C151.564 82.142 150.989 81.9645 150.511 81.6122C150.034 81.2599 149.669 80.7472 149.416 80.0739C149.163 79.4006 149.037 78.5895 149.037 77.6406C149.037 76.6946 149.163 75.8864 149.416 75.2159C149.672 74.5455 150.038 74.0341 150.516 73.6818C150.996 73.3295 151.57 73.1534 152.237 73.1534C152.905 73.1534 153.477 73.331 153.955 73.6861C154.432 74.0384 154.797 74.5497 155.05 75.2202C155.305 75.8878 155.433 76.6946 155.433 77.6406C155.433 78.5923 155.307 79.4048 155.054 80.0781C154.801 80.7486 154.436 81.2614 153.959 81.6165C153.482 81.9688 152.908 82.1449 152.237 82.1449ZM152.237 81.0071C152.828 81.0071 153.29 80.7188 153.622 80.142C153.957 79.5653 154.125 78.7315 154.125 77.6406C154.125 76.9162 154.048 76.304 153.895 75.804C153.744 75.3011 153.527 74.9205 153.243 74.6619C152.962 74.4006 152.626 74.2699 152.237 74.2699C151.649 74.2699 151.188 74.5597 150.852 75.1392C150.517 75.7187 150.348 76.5526 150.345 77.6406C150.345 78.3679 150.42 78.983 150.571 79.4858C150.724 79.9858 150.942 80.3651 151.223 80.6236C151.504 80.8793 151.842 81.0071 152.237 81.0071ZM156.945 82V81.0455L159.898 77.9858C160.213 77.6534 160.473 77.3622 160.678 77.1122C160.885 76.8594 161.04 76.6193 161.142 76.392C161.245 76.1648 161.296 75.9233 161.296 75.6676C161.296 75.3778 161.228 75.1278 161.091 74.9176C160.955 74.7045 160.769 74.5412 160.533 74.4276C160.297 74.3111 160.032 74.2528 159.736 74.2528C159.424 74.2528 159.151 74.3168 158.918 74.4446C158.685 74.5724 158.506 74.7528 158.381 74.9858C158.256 75.2187 158.194 75.4915 158.194 75.804H156.936C156.936 75.2727 157.059 74.8082 157.303 74.4105C157.547 74.0128 157.882 73.7045 158.309 73.4858C158.735 73.2642 159.219 73.1534 159.762 73.1534C160.31 73.1534 160.793 73.2628 161.211 73.4815C161.631 73.6974 161.959 73.9929 162.195 74.3679C162.431 74.7401 162.549 75.1605 162.549 75.6293C162.549 75.9531 162.488 76.2699 162.365 76.5795C162.246 76.8892 162.037 77.2344 161.739 77.6151C161.441 77.9929 161.026 78.4517 160.495 78.9915L158.76 80.8068V80.8707H162.689V82H156.945ZM167.343 82.1193C166.757 82.1193 166.235 82.0185 165.775 81.8168C165.317 81.6151 164.955 81.3352 164.688 80.9773C164.424 80.6165 164.282 80.1989 164.262 79.7244H165.6C165.617 79.983 165.703 80.2074 165.86 80.3977C166.019 80.5852 166.226 80.7301 166.482 80.8324C166.738 80.9347 167.022 80.9858 167.334 80.9858C167.678 80.9858 167.982 80.9261 168.246 80.8068C168.513 80.6875 168.722 80.5213 168.873 80.3082C169.023 80.0923 169.098 79.8438 169.098 79.5625C169.098 79.2699 169.023 79.0128 168.873 78.7912C168.725 78.5668 168.507 78.3906 168.221 78.2628C167.936 78.1349 167.593 78.071 167.189 78.071H166.452V76.9972H167.189C167.513 76.9972 167.797 76.9389 168.042 76.8224C168.289 76.706 168.482 76.544 168.621 76.3366C168.76 76.1264 168.83 75.8807 168.83 75.5994C168.83 75.3295 168.769 75.0952 168.647 74.8963C168.527 74.6946 168.357 74.5369 168.135 74.4233C167.917 74.3097 167.658 74.2528 167.36 74.2528C167.076 74.2528 166.81 74.3054 166.563 74.4105C166.319 74.5128 166.12 74.6605 165.966 74.8537C165.813 75.044 165.73 75.2727 165.719 75.5398H164.445C164.459 75.0682 164.598 74.6534 164.863 74.2955C165.13 73.9375 165.482 73.6577 165.919 73.456C166.357 73.2543 166.843 73.1534 167.377 73.1534C167.936 73.1534 168.419 73.2628 168.826 73.4815C169.235 73.6974 169.55 73.9858 169.772 74.3466C169.996 74.7074 170.107 75.1023 170.104 75.5312C170.107 76.0199 169.971 76.4347 169.695 76.7756C169.422 77.1165 169.059 77.3452 168.604 77.4616V77.5298C169.184 77.6179 169.632 77.848 169.951 78.2202C170.272 78.5923 170.431 79.054 170.428 79.6051C170.431 80.0852 170.297 80.5156 170.027 80.8963C169.76 81.277 169.395 81.5767 168.932 81.7955C168.469 82.0114 167.939 82.1193 167.343 82.1193ZM175.912 77.0824V78.1903H172.043V77.0824H175.912ZM180.632 82.1449C179.958 82.142 179.383 81.9645 178.906 81.6122C178.429 81.2599 178.064 80.7472 177.811 80.0739C177.558 79.4006 177.431 78.5895 177.431 77.6406C177.431 76.6946 177.558 75.8864 177.811 75.2159C178.066 74.5455 178.433 74.0341 178.91 73.6818C179.39 73.3295 179.964 73.1534 180.632 73.1534C181.299 73.1534 181.872 73.331 182.349 73.6861C182.826 74.0384 183.191 74.5497 183.444 75.2202C183.7 75.8878 183.828 76.6946 183.828 77.6406C183.828 78.5923 183.701 79.4048 183.449 80.0781C183.196 80.7486 182.831 81.2614 182.353 81.6165C181.876 81.9688 181.302 82.1449 180.632 82.1449ZM180.632 81.0071C181.223 81.0071 181.684 80.7188 182.017 80.142C182.352 79.5653 182.52 78.7315 182.52 77.6406C182.52 76.9162 182.443 76.304 182.289 75.804C182.139 75.3011 181.922 74.9205 181.637 74.6619C181.356 74.4006 181.021 74.2699 180.632 74.2699C180.044 74.2699 179.582 74.5597 179.247 75.1392C178.912 75.7187 178.743 76.5526 178.74 77.6406C178.74 78.3679 178.815 78.983 178.966 79.4858C179.119 79.9858 179.336 80.3651 179.618 80.6236C179.899 80.8793 180.237 81.0071 180.632 81.0071ZM188.22 82.1193C187.686 82.1193 187.206 82.017 186.78 81.8125C186.357 81.6051 186.018 81.321 185.766 80.9602C185.513 80.5994 185.378 80.1875 185.361 79.7244H186.639C186.67 80.0994 186.837 80.4077 187.138 80.6491C187.439 80.8906 187.8 81.0114 188.22 81.0114C188.555 81.0114 188.852 80.9347 189.111 80.7812C189.372 80.625 189.577 80.4105 189.724 80.1378C189.875 79.8651 189.95 79.554 189.95 79.2045C189.95 78.8494 189.874 78.5327 189.72 78.2543C189.567 77.9759 189.355 77.7571 189.085 77.598C188.818 77.4389 188.511 77.358 188.165 77.3551C187.901 77.3551 187.635 77.4006 187.368 77.4915C187.101 77.5824 186.885 77.7017 186.72 77.8494L185.514 77.6705L186.004 73.2727H190.803V74.402H187.099L186.822 76.8438H186.874C187.044 76.679 187.27 76.5412 187.551 76.4304C187.835 76.3196 188.139 76.2642 188.463 76.2642C188.994 76.2642 189.467 76.3906 189.882 76.6435C190.3 76.8963 190.628 77.2415 190.866 77.679C191.108 78.1136 191.227 78.6136 191.224 79.179C191.227 79.7443 191.099 80.2486 190.841 80.6918C190.585 81.1349 190.23 81.4844 189.776 81.7401C189.324 81.9929 188.805 82.1193 188.22 82.1193ZM196.654 77.0824V78.1903H192.785V77.0824H196.654ZM201.647 73.2727V82H200.326V74.5938H200.275L198.186 75.9574V74.696L200.364 73.2727H201.647ZM204.301 82L208.111 74.4659V74.402H203.705V73.2727H209.475V74.4403L205.678 82H204.301ZM217.444 73.2727V82H216.123V74.5938H216.071L213.983 75.9574V74.696L216.161 73.2727H217.444ZM222.851 82.1193C222.462 82.1136 222.078 82.0426 221.701 81.9062C221.326 81.7699 220.985 81.5426 220.678 81.2244C220.371 80.9062 220.125 80.4787 219.941 79.9418C219.759 79.4048 219.668 78.7344 219.668 77.9304C219.668 77.169 219.743 76.4929 219.894 75.902C220.047 75.3111 220.267 74.8125 220.554 74.4062C220.841 73.9972 221.188 73.6861 221.594 73.473C222 73.2599 222.456 73.1534 222.962 73.1534C223.482 73.1534 223.944 73.2557 224.347 73.4602C224.75 73.6648 225.077 73.9474 225.327 74.3082C225.58 74.669 225.74 75.0795 225.809 75.5398H224.509C224.421 75.1761 224.246 74.8793 223.985 74.6491C223.723 74.419 223.382 74.304 222.962 74.304C222.323 74.304 221.824 74.5824 221.466 75.1392C221.111 75.696 220.932 76.4702 220.929 77.4616H220.993C221.144 77.2145 221.328 77.0043 221.547 76.831C221.769 76.6548 222.016 76.5199 222.289 76.4261C222.564 76.3295 222.854 76.2812 223.158 76.2812C223.664 76.2812 224.121 76.4048 224.53 76.652C224.942 76.8963 225.27 77.2344 225.515 77.6662C225.759 78.098 225.881 78.5923 225.881 79.1491C225.881 79.706 225.755 80.2102 225.502 80.6619C225.252 81.1136 224.9 81.4716 224.445 81.7358C223.99 81.9972 223.459 82.125 222.851 82.1193ZM222.847 81.0114C223.182 81.0114 223.482 80.929 223.746 80.7642C224.01 80.5994 224.219 80.3778 224.373 80.0994C224.526 79.821 224.603 79.5099 224.603 79.1662C224.603 78.831 224.527 78.5256 224.377 78.25C224.229 77.9744 224.025 77.7557 223.763 77.5938C223.505 77.4318 223.209 77.3509 222.877 77.3509C222.624 77.3509 222.39 77.3991 222.174 77.4957C221.961 77.5923 221.773 77.7259 221.611 77.8963C221.449 78.0668 221.321 78.2628 221.228 78.4844C221.137 78.7031 221.091 78.9347 221.091 79.179C221.091 79.5057 221.167 79.8082 221.317 80.0866C221.471 80.3651 221.679 80.5895 221.944 80.7599C222.211 80.9276 222.512 81.0114 222.847 81.0114ZM228.29 80.9176C228.057 80.9176 227.857 80.8352 227.689 80.6705C227.521 80.5028 227.438 80.3011 227.438 80.0653C227.438 79.8324 227.521 79.6335 227.689 79.4688C227.857 79.3011 228.057 79.2173 228.29 79.2173C228.523 79.2173 228.723 79.3011 228.891 79.4688C229.058 79.6335 229.142 79.8324 229.142 80.0653C229.142 80.2216 229.102 80.3651 229.023 80.4957C228.946 80.6236 228.844 80.7259 228.716 80.8026C228.588 80.8793 228.446 80.9176 228.29 80.9176ZM228.29 76.5455C228.057 76.5455 227.857 76.4631 227.689 76.2983C227.521 76.1307 227.438 75.929 227.438 75.6932C227.438 75.4602 227.521 75.2614 227.689 75.0966C227.857 74.929 228.057 74.8452 228.29 74.8452C228.523 74.8452 228.723 74.929 228.891 75.0966C229.058 75.2614 229.142 75.4602 229.142 75.6932C229.142 75.8494 229.102 75.9929 229.023 76.1236C228.946 76.2514 228.844 76.3537 228.716 76.4304C228.588 76.5071 228.446 76.5455 228.29 76.5455ZM230.648 80.2955V79.2301L234.42 73.2727H235.259V74.8409H234.727L232.029 79.1108V79.179H237.198V80.2955H230.648ZM234.786 82V79.9716L234.795 79.4858V73.2727H236.043V82H234.786ZM241.877 73.2727V82H240.556V74.5938H240.505L238.417 75.9574V74.696L240.594 73.2727H241.877Z" fill="#656565"/>
<path d="M282.839 82V81.0455L285.793 77.9858C286.108 77.6534 286.368 77.3622 286.572 77.1122C286.78 76.8594 286.935 76.6193 287.037 76.392C287.139 76.1648 287.19 75.9233 287.19 75.6676C287.19 75.3778 287.122 75.1278 286.986 74.9176C286.849 74.7045 286.663 74.5412 286.428 74.4276C286.192 74.3111 285.926 74.2528 285.631 74.2528C285.318 74.2528 285.045 74.3168 284.812 74.4446C284.58 74.5724 284.401 74.7528 284.276 74.9858C284.151 75.2187 284.088 75.4915 284.088 75.804H282.831C282.831 75.2727 282.953 74.8082 283.197 74.4105C283.442 74.0128 283.777 73.7045 284.203 73.4858C284.629 73.2642 285.114 73.1534 285.656 73.1534C286.205 73.1534 286.688 73.2628 287.105 73.4815C287.526 73.6974 287.854 73.9929 288.089 74.3679C288.325 74.7401 288.443 75.1605 288.443 75.6293C288.443 75.9531 288.382 76.2699 288.26 76.5795C288.141 76.8892 287.932 77.2344 287.634 77.6151C287.335 77.9929 286.92 78.4517 286.389 78.9915L284.655 80.8068V80.8707H288.584V82H282.839ZM293.237 82.1449C292.564 82.142 291.989 81.9645 291.511 81.6122C291.034 81.2599 290.669 80.7472 290.416 80.0739C290.163 79.4006 290.037 78.5895 290.037 77.6406C290.037 76.6946 290.163 75.8864 290.416 75.2159C290.672 74.5455 291.038 74.0341 291.516 73.6818C291.996 73.3295 292.57 73.1534 293.237 73.1534C293.905 73.1534 294.477 73.331 294.955 73.6861C295.432 74.0384 295.797 74.5497 296.05 75.2202C296.305 75.8878 296.433 76.6946 296.433 77.6406C296.433 78.5923 296.307 79.4048 296.054 80.0781C295.801 80.7486 295.436 81.2614 294.959 81.6165C294.482 81.9688 293.908 82.1449 293.237 82.1449ZM293.237 81.0071C293.828 81.0071 294.29 80.7188 294.622 80.142C294.957 79.5653 295.125 78.7315 295.125 77.6406C295.125 76.9162 295.048 76.304 294.895 75.804C294.744 75.3011 294.527 74.9205 294.243 74.6619C293.962 74.4006 293.626 74.2699 293.237 74.2699C292.649 74.2699 292.188 74.5597 291.852 75.1392C291.517 75.7187 291.348 76.5526 291.345 77.6406C291.345 78.3679 291.42 78.983 291.571 79.4858C291.724 79.9858 291.942 80.3651 292.223 80.6236C292.504 80.8793 292.842 81.0071 293.237 81.0071ZM297.945 82V81.0455L300.898 77.9858C301.213 77.6534 301.473 77.3622 301.678 77.1122C301.885 76.8594 302.04 76.6193 302.142 76.392C302.245 76.1648 302.296 75.9233 302.296 75.6676C302.296 75.3778 302.228 75.1278 302.091 74.9176C301.955 74.7045 301.769 74.5412 301.533 74.4276C301.297 74.3111 301.032 74.2528 300.736 74.2528C300.424 74.2528 300.151 74.3168 299.918 74.4446C299.685 74.5724 299.506 74.7528 299.381 74.9858C299.256 75.2187 299.194 75.4915 299.194 75.804H297.936C297.936 75.2727 298.059 74.8082 298.303 74.4105C298.547 74.0128 298.882 73.7045 299.309 73.4858C299.735 73.2642 300.219 73.1534 300.762 73.1534C301.31 73.1534 301.793 73.2628 302.211 73.4815C302.631 73.6974 302.959 73.9929 303.195 74.3679C303.431 74.7401 303.549 75.1605 303.549 75.6293C303.549 75.9531 303.488 76.2699 303.365 76.5795C303.246 76.8892 303.037 77.2344 302.739 77.6151C302.441 77.9929 302.026 78.4517 301.495 78.9915L299.76 80.8068V80.8707H303.689V82H297.945ZM308.343 82.1193C307.757 82.1193 307.235 82.0185 306.775 81.8168C306.317 81.6151 305.955 81.3352 305.688 80.9773C305.424 80.6165 305.282 80.1989 305.262 79.7244H306.6C306.617 79.983 306.703 80.2074 306.86 80.3977C307.019 80.5852 307.226 80.7301 307.482 80.8324C307.738 80.9347 308.022 80.9858 308.334 80.9858C308.678 80.9858 308.982 80.9261 309.246 80.8068C309.513 80.6875 309.722 80.5213 309.873 80.3082C310.023 80.0923 310.098 79.8438 310.098 79.5625C310.098 79.2699 310.023 79.0128 309.873 78.7912C309.725 78.5668 309.507 78.3906 309.221 78.2628C308.936 78.1349 308.593 78.071 308.189 78.071H307.452V76.9972H308.189C308.513 76.9972 308.797 76.9389 309.042 76.8224C309.289 76.706 309.482 76.544 309.621 76.3366C309.76 76.1264 309.83 75.8807 309.83 75.5994C309.83 75.3295 309.769 75.0952 309.647 74.8963C309.527 74.6946 309.357 74.5369 309.135 74.4233C308.917 74.3097 308.658 74.2528 308.36 74.2528C308.076 74.2528 307.81 74.3054 307.563 74.4105C307.319 74.5128 307.12 74.6605 306.966 74.8537C306.813 75.044 306.73 75.2727 306.719 75.5398H305.445C305.459 75.0682 305.598 74.6534 305.863 74.2955C306.13 73.9375 306.482 73.6577 306.919 73.456C307.357 73.2543 307.843 73.1534 308.377 73.1534C308.936 73.1534 309.419 73.2628 309.826 73.4815C310.235 73.6974 310.55 73.9858 310.772 74.3466C310.996 74.7074 311.107 75.1023 311.104 75.5312C311.107 76.0199 310.971 76.4347 310.695 76.7756C310.422 77.1165 310.059 77.3452 309.604 77.4616V77.5298C310.184 77.6179 310.632 77.848 310.951 78.2202C311.272 78.5923 311.431 79.054 311.428 79.6051C311.431 80.0852 311.297 80.5156 311.027 80.8963C310.76 81.277 310.395 81.5767 309.932 81.7955C309.469 82.0114 308.939 82.1193 308.343 82.1193ZM316.912 77.0824V78.1903H313.043V77.0824H316.912ZM321.632 82.1449C320.958 82.142 320.383 81.9645 319.906 81.6122C319.429 81.2599 319.064 80.7472 318.811 80.0739C318.558 79.4006 318.431 78.5895 318.431 77.6406C318.431 76.6946 318.558 75.8864 318.811 75.2159C319.066 74.5455 319.433 74.0341 319.91 73.6818C320.39 73.3295 320.964 73.1534 321.632 73.1534C322.299 73.1534 322.872 73.331 323.349 73.6861C323.826 74.0384 324.191 74.5497 324.444 75.2202C324.7 75.8878 324.828 76.6946 324.828 77.6406C324.828 78.5923 324.701 79.4048 324.449 80.0781C324.196 80.7486 323.831 81.2614 323.353 81.6165C322.876 81.9688 322.302 82.1449 321.632 82.1449ZM321.632 81.0071C322.223 81.0071 322.684 80.7188 323.017 80.142C323.352 79.5653 323.52 78.7315 323.52 77.6406C323.52 76.9162 323.443 76.304 323.289 75.804C323.139 75.3011 322.922 74.9205 322.637 74.6619C322.356 74.4006 322.021 74.2699 321.632 74.2699C321.044 74.2699 320.582 74.5597 320.247 75.1392C319.912 75.7187 319.743 76.5526 319.74 77.6406C319.74 78.3679 319.815 78.983 319.966 79.4858C320.119 79.9858 320.336 80.3651 320.618 80.6236C320.899 80.8793 321.237 81.0071 321.632 81.0071ZM329.22 82.1193C328.686 82.1193 328.206 82.017 327.78 81.8125C327.357 81.6051 327.018 81.321 326.766 80.9602C326.513 80.5994 326.378 80.1875 326.361 79.7244H327.639C327.67 80.0994 327.837 80.4077 328.138 80.6491C328.439 80.8906 328.8 81.0114 329.22 81.0114C329.555 81.0114 329.852 80.9347 330.111 80.7812C330.372 80.625 330.577 80.4105 330.724 80.1378C330.875 79.8651 330.95 79.554 330.95 79.2045C330.95 78.8494 330.874 78.5327 330.72 78.2543C330.567 77.9759 330.355 77.7571 330.085 77.598C329.818 77.4389 329.511 77.358 329.165 77.3551C328.901 77.3551 328.635 77.4006 328.368 77.4915C328.101 77.5824 327.885 77.7017 327.72 77.8494L326.514 77.6705L327.004 73.2727H331.803V74.402H328.099L327.822 76.8438H327.874C328.044 76.679 328.27 76.5412 328.551 76.4304C328.835 76.3196 329.139 76.2642 329.463 76.2642C329.994 76.2642 330.467 76.3906 330.882 76.6435C331.3 76.8963 331.628 77.2415 331.866 77.679C332.108 78.1136 332.227 78.6136 332.224 79.179C332.227 79.7443 332.099 80.2486 331.841 80.6918C331.585 81.1349 331.23 81.4844 330.776 81.7401C330.324 81.9929 329.805 82.1193 329.22 82.1193ZM337.654 77.0824V78.1903H333.785V77.0824H337.654ZM342.647 73.2727V82H341.326V74.5938H341.275L339.186 75.9574V74.696L341.364 73.2727H342.647ZM345.301 82L349.111 74.4659V74.402H344.705V73.2727H350.475V74.4403L346.678 82H345.301ZM358.444 73.2727V82H357.123V74.5938H357.071L354.983 75.9574V74.696L357.161 73.2727H358.444ZM363.851 82.1193C363.462 82.1136 363.078 82.0426 362.701 81.9062C362.326 81.7699 361.985 81.5426 361.678 81.2244C361.371 80.9062 361.125 80.4787 360.941 79.9418C360.759 79.4048 360.668 78.7344 360.668 77.9304C360.668 77.169 360.743 76.4929 360.894 75.902C361.047 75.3111 361.267 74.8125 361.554 74.4062C361.841 73.9972 362.188 73.6861 362.594 73.473C363 73.2599 363.456 73.1534 363.962 73.1534C364.482 73.1534 364.944 73.2557 365.347 73.4602C365.75 73.6648 366.077 73.9474 366.327 74.3082C366.58 74.669 366.74 75.0795 366.809 75.5398H365.509C365.421 75.1761 365.246 74.8793 364.985 74.6491C364.723 74.419 364.382 74.304 363.962 74.304C363.323 74.304 362.824 74.5824 362.466 75.1392C362.111 75.696 361.932 76.4702 361.929 77.4616H361.993C362.144 77.2145 362.328 77.0043 362.547 76.831C362.769 76.6548 363.016 76.5199 363.289 76.4261C363.564 76.3295 363.854 76.2812 364.158 76.2812C364.664 76.2812 365.121 76.4048 365.53 76.652C365.942 76.8963 366.27 77.2344 366.515 77.6662C366.759 78.098 366.881 78.5923 366.881 79.1491C366.881 79.706 366.755 80.2102 366.502 80.6619C366.252 81.1136 365.9 81.4716 365.445 81.7358C364.99 81.9972 364.459 82.125 363.851 82.1193ZM363.847 81.0114C364.182 81.0114 364.482 80.929 364.746 80.7642C365.01 80.5994 365.219 80.3778 365.373 80.0994C365.526 79.821 365.603 79.5099 365.603 79.1662C365.603 78.831 365.527 78.5256 365.377 78.25C365.229 77.9744 365.025 77.7557 364.763 77.5938C364.505 77.4318 364.209 77.3509 363.877 77.3509C363.624 77.3509 363.39 77.3991 363.174 77.4957C362.961 77.5923 362.773 77.7259 362.611 77.8963C362.449 78.0668 362.321 78.2628 362.228 78.4844C362.137 78.7031 362.091 78.9347 362.091 79.179C362.091 79.5057 362.167 79.8082 362.317 80.0866C362.471 80.3651 362.679 80.5895 362.944 80.7599C363.211 80.9276 363.512 81.0114 363.847 81.0114ZM369.29 80.9176C369.057 80.9176 368.857 80.8352 368.689 80.6705C368.521 80.5028 368.438 80.3011 368.438 80.0653C368.438 79.8324 368.521 79.6335 368.689 79.4688C368.857 79.3011 369.057 79.2173 369.29 79.2173C369.523 79.2173 369.723 79.3011 369.891 79.4688C370.058 79.6335 370.142 79.8324 370.142 80.0653C370.142 80.2216 370.102 80.3651 370.023 80.4957C369.946 80.6236 369.844 80.7259 369.716 80.8026C369.588 80.8793 369.446 80.9176 369.29 80.9176ZM369.29 76.5455C369.057 76.5455 368.857 76.4631 368.689 76.2983C368.521 76.1307 368.438 75.929 368.438 75.6932C368.438 75.4602 368.521 75.2614 368.689 75.0966C368.857 74.929 369.057 74.8452 369.29 74.8452C369.523 74.8452 369.723 74.929 369.891 75.0966C370.058 75.2614 370.142 75.4602 370.142 75.6932C370.142 75.8494 370.102 75.9929 370.023 76.1236C369.946 76.2514 369.844 76.3537 369.716 76.4304C369.588 76.5071 369.446 76.5455 369.29 76.5455ZM374.712 82.1193C374.178 82.1193 373.698 82.017 373.272 81.8125C372.849 81.6051 372.511 81.321 372.258 80.9602C372.005 80.5994 371.87 80.1875 371.853 79.7244H373.131C373.163 80.0994 373.329 80.4077 373.63 80.6491C373.931 80.8906 374.292 81.0114 374.712 81.0114C375.048 81.0114 375.344 80.9347 375.603 80.7812C375.864 80.625 376.069 80.4105 376.217 80.1378C376.367 79.8651 376.442 79.554 376.442 79.2045C376.442 78.8494 376.366 78.5327 376.212 78.2543C376.059 77.9759 375.847 77.7571 375.577 77.598C375.31 77.4389 375.004 77.358 374.657 77.3551C374.393 77.3551 374.127 77.4006 373.86 77.4915C373.593 77.5824 373.377 77.7017 373.212 77.8494L372.006 77.6705L372.496 73.2727H377.295V74.402H373.592L373.315 76.8438H373.366C373.536 76.679 373.762 76.5412 374.043 76.4304C374.327 76.3196 374.631 76.2642 374.955 76.2642C375.487 76.2642 375.96 76.3906 376.374 76.6435C376.792 76.8963 377.12 77.2415 377.359 77.679C377.6 78.1136 377.719 78.6136 377.717 79.179C377.719 79.7443 377.592 80.2486 377.333 80.6918C377.077 81.1349 376.722 81.4844 376.268 81.7401C375.816 81.9929 375.298 82.1193 374.712 82.1193ZM382.311 82.1449C381.638 82.142 381.063 81.9645 380.586 81.6122C380.108 81.2599 379.743 80.7472 379.49 80.0739C379.238 79.4006 379.111 78.5895 379.111 77.6406C379.111 76.6946 379.238 75.8864 379.49 75.2159C379.746 74.5455 380.113 74.0341 380.59 73.6818C381.07 73.3295 381.644 73.1534 382.311 73.1534C382.979 73.1534 383.551 73.331 384.029 73.6861C384.506 74.0384 384.871 74.5497 385.124 75.2202C385.38 75.8878 385.507 76.6946 385.507 77.6406C385.507 78.5923 385.381 79.4048 385.128 80.0781C384.875 80.7486 384.51 81.2614 384.033 81.6165C383.556 81.9688 382.982 82.1449 382.311 82.1449ZM382.311 81.0071C382.902 81.0071 383.364 80.7188 383.696 80.142C384.032 79.5653 384.199 78.7315 384.199 77.6406C384.199 76.9162 384.123 76.304 383.969 75.804C383.819 75.3011 383.601 74.9205 383.317 74.6619C383.036 74.4006 382.701 74.2699 382.311 74.2699C381.723 74.2699 381.262 74.5597 380.926 75.1392C380.591 75.7187 380.422 76.5526 380.419 77.6406C380.419 78.3679 380.495 78.983 380.645 79.4858C380.799 79.9858 381.016 80.3651 381.297 80.6236C381.578 80.8793 381.917 81.0071 382.311 81.0071Z" fill="#656565"/>
<path d="M456.998 18.7241L442.058 9.96063L441.938 27.2807L456.998 18.7241ZM351.99 19.5L443.487 20.131L443.508 17.1311L352.01 16.5L351.99 19.5Z" fill="#3493FB"/>
<path d="M598.998 18.7241L584.058 9.96063L583.938 27.2807L598.998 18.7241ZM493.99 19.5L585.487 20.131L585.508 17.1311L494.01 16.5L493.99 19.5Z" fill="#F4F7FE"/>
<path d="M739.998 18.7241L725.058 9.96063L724.938 27.2807L739.998 18.7241ZM634.99 19.5L726.487 20.131L726.508 17.1311L635.01 16.5L634.99 19.5Z" fill="#F4F7FE"/>
</svg>
