<svg width="444" height="70" viewBox="0 0 444 70" fill="none" xmlns="http://www.w3.org/2000/svg">
<g clip-path="url(#clip0_576_513)">
<circle cx="40" cy="18" r="18" fill="#3493FB"/>
<circle cx="226" cy="18" r="18" fill="#F4F7FE"/>
<circle cx="412" cy="18" r="18" fill="#F4F7FE"/>
<path d="M41.543 8.84375V26H39.375V11.5508L35.0039 13.1445V11.1875L41.2031 8.84375H41.543Z" fill="white"/>
<path d="M231.598 24.2188V26H220.43V24.4414L226.02 18.2188C226.707 17.4531 227.238 16.8047 227.613 16.2734C227.996 15.7344 228.262 15.2539 228.41 14.832C228.566 14.4023 228.645 13.9648 228.645 13.5195C228.645 12.957 228.527 12.4492 228.293 11.9961C228.066 11.5352 227.73 11.168 227.285 10.8945C226.84 10.6211 226.301 10.4844 225.668 10.4844C224.91 10.4844 224.277 10.6328 223.77 10.9297C223.27 11.2188 222.895 11.625 222.645 12.1484C222.395 12.6719 222.27 13.2734 222.27 13.9531H220.102C220.102 12.9922 220.312 12.1133 220.734 11.3164C221.156 10.5195 221.781 9.88672 222.609 9.41797C223.438 8.94141 224.457 8.70312 225.668 8.70312C226.746 8.70312 227.668 8.89453 228.434 9.27734C229.199 9.65234 229.785 10.1836 230.191 10.8711C230.605 11.5508 230.812 12.3477 230.812 13.2617C230.812 13.7617 230.727 14.2695 230.555 14.7852C230.391 15.293 230.16 15.8008 229.863 16.3086C229.574 16.8164 229.234 17.3164 228.844 17.8086C228.461 18.3008 228.051 18.7852 227.613 19.2617L223.043 24.2188H231.598Z" fill="#656565"/>
<path d="M409.582 16.4023H411.129C411.887 16.4023 412.512 16.2773 413.004 16.0273C413.504 15.7695 413.875 15.4219 414.117 14.9844C414.367 14.5391 414.492 14.0391 414.492 13.4844C414.492 12.8281 414.383 12.2773 414.164 11.832C413.945 11.3867 413.617 11.0508 413.18 10.8242C412.742 10.5977 412.188 10.4844 411.516 10.4844C410.906 10.4844 410.367 10.6055 409.898 10.8477C409.438 11.082 409.074 11.418 408.809 11.8555C408.551 12.293 408.422 12.8086 408.422 13.4023H406.254C406.254 12.5352 406.473 11.7461 406.91 11.0352C407.348 10.3242 407.961 9.75781 408.75 9.33594C409.547 8.91406 410.469 8.70312 411.516 8.70312C412.547 8.70312 413.449 8.88672 414.223 9.25391C414.996 9.61328 415.598 10.1523 416.027 10.8711C416.457 11.582 416.672 12.4688 416.672 13.5312C416.672 13.9609 416.57 14.4219 416.367 14.9141C416.172 15.3984 415.863 15.8516 415.441 16.2734C415.027 16.6953 414.488 17.043 413.824 17.3164C413.16 17.582 412.363 17.7148 411.434 17.7148H409.582V16.4023ZM409.582 18.1836V16.8828H411.434C412.52 16.8828 413.418 17.0117 414.129 17.2695C414.84 17.5273 415.398 17.8711 415.805 18.3008C416.219 18.7305 416.508 19.2031 416.672 19.7188C416.844 20.2266 416.93 20.7344 416.93 21.2422C416.93 22.0391 416.793 22.7461 416.52 23.3633C416.254 23.9805 415.875 24.5039 415.383 24.9336C414.898 25.3633 414.328 25.6875 413.672 25.9062C413.016 26.125 412.301 26.2344 411.527 26.2344C410.785 26.2344 410.086 26.1289 409.43 25.918C408.781 25.707 408.207 25.4023 407.707 25.0039C407.207 24.5977 406.816 24.1016 406.535 23.5156C406.254 22.9219 406.113 22.2461 406.113 21.4883H408.281C408.281 22.082 408.41 22.6016 408.668 23.0469C408.934 23.4922 409.309 23.8398 409.793 24.0898C410.285 24.332 410.863 24.4531 411.527 24.4531C412.191 24.4531 412.762 24.3398 413.238 24.1133C413.723 23.8789 414.094 23.5273 414.352 23.0586C414.617 22.5898 414.75 22 414.75 21.2891C414.75 20.5781 414.602 19.9961 414.305 19.543C414.008 19.082 413.586 18.7422 413.039 18.5234C412.5 18.2969 411.863 18.1836 411.129 18.1836H409.582Z" fill="#656565"/>
<path d="M8.336 59.304H14.592V60.232H8.336V59.304ZM8.336 61.928H14.592V62.872H8.336V61.928ZM8.352 64.568H15.264V65.592H8.352V64.568ZM6.448 53.208H14.928V55.912H13.824V54.248H7.488V55.944H6.448V53.208ZM11.152 57.4H12.256V65.112H11.152V57.4ZM8.768 56.632H14.784V57.672H8.768V66.28H7.632V57.72L8.672 56.632H8.768ZM10.416 51.544L11.552 51.768C10.56 55.08 8.864 57.8 6.512 59.528C6.384 59.272 6.016 58.776 5.776 58.536C8 57 9.568 54.52 10.416 51.544ZM10.672 55.176L11.664 54.776C12.048 55.432 12.464 56.296 12.64 56.856L11.6 57.32C11.424 56.744 11.008 55.832 10.672 55.176ZM0.832 52.68H6.08V53.8H0.832V52.68ZM2.368 57.368H5.84V64.184H2.368V63.128H4.784V58.424H2.368V57.368ZM2.832 53.08L3.984 53.256C3.472 56.536 2.608 59.608 1.136 61.624C1.008 61.368 0.656 60.808 0.432 60.552C1.712 58.792 2.432 56.008 2.832 53.08ZM1.968 57.368H3.008V65.496H1.968V57.368ZM29.6 52.2H30.736C30.736 52.2 30.736 52.568 30.72 52.712C30.56 56.792 30.384 58.232 29.984 58.744C29.712 59.064 29.424 59.16 28.976 59.208C28.576 59.24 27.872 59.24 27.152 59.208C27.12 58.888 27.008 58.44 26.816 58.136C27.536 58.216 28.224 58.216 28.496 58.216C28.736 58.216 28.864 58.184 29.008 58.04C29.296 57.704 29.472 56.28 29.6 52.408V52.2ZM26.288 52.632H27.376C27.12 55.816 26.416 58.456 23.248 59.88C23.12 59.608 22.8 59.208 22.544 59.016C25.504 57.8 26.064 55.4 26.288 52.632ZM22.896 52.2H29.984V53.24H22.896V52.2ZM24.272 60.584H25.328V64.488C25.328 64.904 25.44 64.968 26 64.968C26.24 64.968 27.504 64.968 27.856 64.968C28.384 64.968 28.48 64.712 28.528 62.824C28.752 63 29.184 63.16 29.472 63.24C29.36 65.416 29.072 65.944 27.968 65.944C27.68 65.944 26.144 65.944 25.872 65.944C24.592 65.944 24.272 65.624 24.272 64.488V60.584ZM22.976 60.952L23.84 61.208C23.632 62.376 23.28 63.848 22.736 64.728L21.856 64.344C22.4 63.48 22.784 62.056 22.976 60.952ZM25.584 59.88L26.32 59.432C26.976 60.136 27.728 61.128 28.08 61.736L27.296 62.296C26.944 61.656 26.208 60.632 25.584 59.88ZM29.2 60.616L30.064 60.312C30.64 61.368 31.248 62.776 31.488 63.64L30.544 63.992C30.336 63.128 29.76 61.688 29.2 60.616ZM23.056 54.376L23.696 53.704C24.56 54.408 25.712 55.352 26.288 55.928L25.616 56.712C25.056 56.088 23.92 55.096 23.056 54.376ZM18.272 51.96L19.28 51.592C19.696 52.264 20.128 53.144 20.336 53.704L19.28 54.136C19.088 53.544 18.64 52.632 18.272 51.96ZM17.04 56.408H21.904V57.368H17.04V56.408ZM17.04 58.552H21.904V59.512H17.04V58.552ZM16.608 54.232H22.288V55.224H16.608V54.232ZM17.584 60.712H21.824V65.384H17.584V64.376H20.784V61.704H17.584V60.712ZM17.04 60.712H18.064V66.12H17.04V60.712ZM38.512 52.952H46.96V53.864H38.512V52.952ZM38.144 56.776H47.296V57.688H38.144V56.776ZM38.096 62.712H47.36V63.64H38.096V62.712ZM38.928 54.824H46.688V55.72H38.928V54.824ZM40.464 51.576H41.536V57.144H40.464V51.576ZM43.92 51.576H44.992V57.144H43.92V51.576ZM42.16 57.176H43.232V63H42.16V57.176ZM45.296 58.616H46.4V65.032C46.4 65.624 46.272 65.928 45.856 66.104C45.408 66.28 44.672 66.264 43.52 66.264C43.472 65.992 43.328 65.576 43.184 65.288C44.016 65.32 44.8 65.32 45.008 65.304C45.232 65.288 45.296 65.24 45.296 65.032V58.616ZM39.12 58.616H45.776V59.528H40.208V66.296H39.12V58.616ZM39.68 60.68H45.744V61.512H39.68V60.68ZM34.112 62.584L35.2 62.84C34.816 64.152 34.144 65.448 33.408 66.296C33.2 66.136 32.752 65.816 32.496 65.656C33.216 64.888 33.808 63.752 34.112 62.584ZM36.128 62.984L37.024 62.568C37.552 63.352 38.128 64.392 38.368 65.048L37.408 65.512C37.168 64.84 36.624 63.768 36.128 62.984ZM34.368 56.168V58.232H36.768V56.168H34.368ZM34.368 59.16V61.256H36.768V59.16H34.368ZM34.368 53.176V55.224H36.768V53.176H34.368ZM33.312 52.168H37.84V62.248H33.312V52.168ZM56.544 51.56L57.632 51.784C57.04 54.408 55.984 56.84 54.64 58.424C54.448 58.248 53.968 57.896 53.712 57.736C55.056 56.296 56 53.992 56.544 51.56ZM62.064 54.248H63.2C63.2 54.248 63.2 54.696 63.184 54.872C62.816 62.168 62.48 64.68 61.824 65.464C61.504 65.896 61.2 66.04 60.704 66.088C60.288 66.152 59.584 66.136 58.88 66.088C58.848 65.736 58.736 65.224 58.544 64.904C59.264 64.968 59.92 64.984 60.224 64.984C60.48 64.984 60.64 64.92 60.832 64.712C61.36 64.104 61.728 61.56 62.064 54.536V54.248ZM56.432 54.248H62.544V55.384H55.92L56.432 54.248ZM58.048 54.6L58.96 55.064C58.272 57.896 56.752 61.096 54.928 62.68C54.688 62.44 54.304 62.152 53.984 61.976C55.856 60.504 57.392 57.4 58.048 54.6ZM60.336 54.696L61.296 55.144C60.496 59.448 58.704 63.864 56.016 66.024C55.776 65.768 55.344 65.464 54.992 65.288C57.792 63.288 59.568 58.952 60.336 54.696ZM48.56 60.44C50.064 60.056 52.352 59.384 54.528 58.728L54.688 59.784C52.656 60.424 50.496 61.096 48.88 61.608L48.56 60.44ZM51.552 51.576H52.672V66.28H51.552V51.576ZM49.568 52.488L50.608 52.664C50.368 54.792 49.968 56.952 49.36 58.376C49.168 58.232 48.704 57.96 48.448 57.848C49.056 56.488 49.376 54.456 49.568 52.488ZM49.664 54.84H54.32V56.008H49.472L49.664 54.84ZM65.328 53.032H78.672V54.136H65.328V53.032ZM64.832 62.856H79.216V63.96H64.832V62.856ZM71.344 51.576H72.576V66.328H71.344V51.576ZM67.664 58.888V60.552H76.32V58.888H67.664ZM67.664 56.312V57.944H76.32V56.312H67.664ZM66.512 55.304H77.52V61.544H66.512V55.304Z" fill="#3493FB"/>
<path d="M199.968 53.048H208.912V54.04H199.968V53.048ZM205.184 64.024L205.936 63.288C207.008 63.896 208.416 64.824 209.12 65.448L208.32 66.28C207.648 65.656 206.256 64.68 205.184 64.024ZM202.56 63.304L203.6 63.992C202.576 64.808 201.056 65.72 199.856 66.28C199.68 66.04 199.344 65.688 199.104 65.448C200.288 64.92 201.808 64.024 202.56 63.304ZM199.36 62.232H209.36V63.272H199.36V62.232ZM201.28 56.984H207.488V57.704H201.28V56.984ZM201.264 58.664H207.568V59.416H201.264V58.664ZM201.296 60.408H207.408V61.16H201.296V60.408ZM200.784 55.112H207.888V62.52H206.8V55.96H201.856V62.52H200.784V55.112ZM203.776 51.592L205.056 51.672C204.768 53.064 204.368 54.76 204.016 55.8L203.024 55.672C203.312 54.584 203.632 52.808 203.776 51.592ZM194.64 55.416H199.424V56.552H194.64V55.416ZM196.448 51.752H197.6V62.36H196.448V51.752ZM194.528 62.84C195.728 62.44 197.536 61.752 199.296 61.08L199.488 62.136C197.92 62.824 196.272 63.512 194.976 64.04L194.528 62.84ZM211.2 52.856H224.8V55.704H223.664V53.912H212.304V55.704H211.2V52.856ZM216.848 54.424L217.6 55.208C216.432 55.64 214.8 56.024 213.424 56.264C213.36 56.04 213.216 55.704 213.104 55.48C214.416 55.208 215.952 54.808 216.848 54.424ZM213.104 55.48L214.192 55.72V59.592H213.104V55.48ZM213.104 59.144H221.76V56.12H218.416V55.24H222.864V60.04H213.104V59.144ZM213.536 57.192H217.312V58.056H213.536V57.192ZM218.704 57.192H222.368V58.056H218.704V57.192ZM215.36 59.56L216.432 59.88C215.328 61.624 213.344 63.048 211.408 63.928C211.264 63.688 210.912 63.192 210.688 62.968C212.544 62.248 214.4 61.032 215.36 59.56ZM214.672 61.08H223.552V62.056H213.68L214.672 61.08ZM223.168 61.08H224.352C224.352 61.08 224.336 61.4 224.32 61.56C224.144 64.328 223.952 65.416 223.568 65.832C223.28 66.12 222.992 66.216 222.544 66.248C222.144 66.28 221.376 66.264 220.576 66.232C220.56 65.912 220.432 65.464 220.24 65.176C221.024 65.24 221.76 65.256 222.016 65.24C222.304 65.256 222.448 65.24 222.576 65.112C222.848 64.824 223.008 63.832 223.168 61.24V61.08ZM214.224 62.552L215.184 62.936C214.848 63.896 214.352 65.112 213.712 65.88L212.736 65.4C213.376 64.68 213.92 63.48 214.224 62.552ZM215.872 62.792L216.8 62.68C217.152 63.576 217.392 64.728 217.392 65.48L216.416 65.608C216.416 64.872 216.192 63.704 215.872 62.792ZM217.904 62.808L218.768 62.552C219.264 63.32 219.728 64.328 219.856 65L218.928 65.288C218.8 64.616 218.368 63.576 217.904 62.808ZM219.904 62.776L220.72 62.392C221.264 62.904 221.872 63.64 222.112 64.152L221.28 64.584C221.04 64.056 220.448 63.304 219.904 62.776ZM216.8 51.816L218.016 51.48C218.368 52.04 218.768 52.808 218.896 53.32L217.648 53.72C217.504 53.208 217.152 52.424 216.8 51.816ZM230.048 59.928V61.016H238.112V59.928H230.048ZM230.048 61.8V62.92H238.112V61.8H230.048ZM230.048 58.056V59.144H238.112V58.056H230.048ZM228.88 57.256H239.312V63.72H228.88V57.256ZM235.52 64.472L236.32 63.8C238.064 64.328 239.936 65.032 241.072 65.544L240 66.232C238.976 65.72 237.248 65.032 235.52 64.472ZM231.568 63.816L232.656 64.328C231.36 65.096 229.328 65.832 227.728 66.264C227.536 66.04 227.12 65.576 226.848 65.368C228.496 65.016 230.416 64.456 231.568 63.816ZM233.408 52.648H240V53.592H233.408V52.648ZM233.664 51.528L234.736 51.768C234.304 53.08 233.536 54.376 232.704 55.192C232.512 55.016 232.064 54.728 231.792 54.584C232.624 53.816 233.296 52.68 233.664 51.528ZM235.568 53.24H236.672V53.784C236.672 55 236.16 56.44 231.648 57.144C231.536 56.856 231.216 56.44 231.008 56.216C235.168 55.672 235.568 54.568 235.568 53.752V53.24ZM236.512 54.184C237.328 55.224 239.152 55.896 241.376 56.088C241.136 56.328 240.832 56.76 240.688 57.064C238.384 56.728 236.544 55.816 235.664 54.392L236.512 54.184ZM227.12 52.52H230.976V53.464H227.12V52.52ZM226.768 55.016H231.376V55.992H226.768V55.016ZM239.6 52.648H239.808L239.984 52.6L240.8 52.872C240.4 53.688 239.888 54.616 239.44 55.192L238.496 54.856C238.864 54.328 239.312 53.512 239.6 52.824V52.648ZM245.328 51.576H246.448V66.28H245.328V51.576ZM242.752 56.936H249.072V58.072H242.752V56.936ZM242.864 52.824L243.744 52.6C244.208 53.72 244.576 55.176 244.688 56.152L243.728 56.376C243.664 55.432 243.28 53.944 242.864 52.824ZM248.032 52.536L249.088 52.808C248.672 54.008 248.176 55.512 247.744 56.408L246.96 56.168C247.328 55.208 247.808 53.624 248.032 52.536ZM254.24 51.576H255.376V66.28H254.24V51.576ZM249.04 61.752L257.264 60.28L257.456 61.384L249.232 62.872L249.04 61.752ZM250.24 53.528L250.864 52.712C251.792 53.256 252.896 54.072 253.424 54.664L252.784 55.592C252.272 54.968 251.168 54.104 250.24 53.528ZM249.424 57.56L249.984 56.712C250.944 57.208 252.128 57.96 252.704 58.536L252.096 59.48C251.536 58.904 250.384 58.088 249.424 57.56ZM244.128 59L245.008 59.288C244.672 61.08 243.984 63.352 243.152 64.488C243.024 64.088 242.752 63.512 242.528 63.16C243.184 62.216 243.872 60.44 244.128 59ZM247.184 59.016C247.488 59.496 248.64 61.688 248.896 62.216L248.016 63.128C247.744 62.248 246.864 60.2 246.512 59.496L247.184 59.016Z" fill="#656565"/>
<path d="M382.72 57.56H386.704V58.68H382.72V57.56ZM386.224 57.56H387.392C387.392 57.56 387.392 57.912 387.392 58.072C387.312 61.688 387.216 63.032 386.88 63.48C386.624 63.768 386.368 63.88 385.92 63.928C385.504 63.976 384.784 63.96 384 63.928C383.968 63.576 383.84 63.112 383.664 62.808C384.384 62.872 385.088 62.872 385.36 62.872C385.584 62.872 385.744 62.856 385.856 62.712C386.096 62.424 386.176 61.224 386.224 57.768V57.56ZM390.736 52.376L391.456 51.624C392.448 52.136 393.712 52.904 394.336 53.464L393.584 54.28C392.976 53.72 391.744 52.904 390.736 52.376ZM393.024 56.712L394.224 57C392.864 61.176 390.48 64.264 387.2 66.2C387.024 65.96 386.576 65.464 386.32 65.224C389.568 63.496 391.824 60.568 393.024 56.712ZM382.816 54.28H395.2V55.464H382.816V54.28ZM382.048 54.28H383.296V58.792C383.296 61.064 383.04 64.296 381.584 66.392C381.376 66.152 380.864 65.736 380.576 65.592C381.904 63.624 382.048 60.872 382.048 58.776V54.28ZM388.688 51.592H389.936C389.904 58.952 391.472 64.952 393.552 64.952C394 64.952 394.208 64.12 394.304 61.992C394.576 62.264 395.024 62.536 395.344 62.648C395.12 65.384 394.672 66.168 393.456 66.168C390.192 66.168 388.752 59.256 388.688 51.592ZM397.536 54.584H410.496V55.784H397.536V54.584ZM396.848 64.408H411.136V65.608H396.848V64.408ZM399.76 56.936L400.944 56.648C401.6 58.808 402.272 61.544 402.544 63.4L401.28 63.704C401.04 61.88 400.368 59.064 399.76 56.936ZM407.056 56.664L408.4 56.888C407.68 59.528 406.608 62.888 405.728 64.92L404.544 64.664C405.456 62.616 406.496 59.096 407.056 56.664ZM402.848 51.784L404 51.48C404.336 52.296 404.688 53.336 404.848 54.04L403.616 54.408C403.488 53.704 403.152 52.616 402.848 51.784ZM413.456 56.408H418.368V57.368H413.456V56.408ZM413.456 58.504H418.352V59.464H413.456V58.504ZM412.752 54.28H418.864V55.288H412.752V54.28ZM414 60.648H418.304V65.32H414V64.312H417.232V61.656H414V60.648ZM413.456 60.648H414.512V66.072H413.456V60.648ZM414.544 51.976L415.488 51.496C415.952 52.152 416.464 53 416.72 53.56L415.744 54.136C415.504 53.544 414.976 52.632 414.544 51.976ZM419.184 52.92H427.376V54.088H419.184V52.92ZM423.696 53.256H424.896V64.488C424.896 65.304 424.704 65.704 424.128 65.896C423.536 66.104 422.528 66.12 420.976 66.12C420.896 65.784 420.688 65.208 420.48 64.872C421.712 64.92 422.912 64.92 423.264 64.888C423.584 64.872 423.696 64.776 423.696 64.472V53.256ZM435.328 56.68H436.56V66.28H435.328V56.68ZM431.696 59.384V60.776H440.4V59.384H431.696ZM431.696 57.096V58.456H440.4V57.096H431.696ZM430.528 56.12H441.616V61.736H430.528V56.12ZM428.912 62.968H443.104V64.024H428.912V62.968ZM431.184 53V54.52H434.256V53H431.184ZM430.096 52.2H435.376V55.32H430.096V52.2ZM437.76 53V54.52H440.864V53H437.76ZM436.672 52.2H442V55.32H436.672V52.2Z" fill="#656565"/>
<path d="M207.996 19.0345L193.057 10.271L192.937 27.5911L207.996 19.0345ZM57.9897 19.5L194.486 20.4413L194.507 17.4414L58.0103 16.5L57.9897 19.5Z" fill="#3493FB"/>
<path d="M393.996 19.0345L379.057 10.271L378.937 27.5911L393.996 19.0345ZM243.99 19.5L380.486 20.4413L380.507 17.4414L244.01 16.5L243.99 19.5Z" fill="#F4F7FE"/>
</g>
<defs>
<clipPath id="clip0_576_513">
<rect width="444" height="70" fill="white"/>
</clipPath>
</defs>
</svg>
