<svg width="23" height="24" viewBox="0 0 23 24" fill="none" xmlns="http://www.w3.org/2000/svg">
<rect width="23" height="24" rx="3" fill="black" fill-opacity="0.3"/>
<path d="M6.79785 14.668V20H5.79443V14.668H6.79785ZM8.45312 14.668V15.4626H4.15747V14.668H8.45312ZM13.7884 17.1985V17.4731C13.7884 17.876 13.7347 18.2385 13.6272 18.5608C13.5198 18.8806 13.3672 19.1528 13.1695 19.3774C12.9717 19.6021 12.7361 19.7742 12.4627 19.8938C12.1893 20.0134 11.8853 20.0732 11.5508 20.0732C11.2212 20.0732 10.9185 20.0134 10.6426 19.8938C10.3692 19.7742 10.1324 19.6021 9.93218 19.3774C9.73198 19.1528 9.57695 18.8806 9.46709 18.5608C9.35723 18.2385 9.30229 17.876 9.30229 17.4731V17.1985C9.30229 16.7932 9.35723 16.4307 9.46709 16.1108C9.57695 15.791 9.73076 15.5188 9.92852 15.2942C10.1263 15.0671 10.3619 14.8938 10.6353 14.7742C10.9112 14.6545 11.2139 14.5947 11.5435 14.5947C11.878 14.5947 12.1819 14.6545 12.4554 14.7742C12.7288 14.8938 12.9644 15.0671 13.1622 15.2942C13.3624 15.5188 13.5162 15.791 13.6236 16.1108C13.7334 16.4307 13.7884 16.7932 13.7884 17.1985ZM12.7703 17.4731V17.1912C12.7703 16.9006 12.7435 16.6455 12.6897 16.4258C12.636 16.2036 12.5567 16.0168 12.4517 15.8655C12.3467 15.7141 12.2173 15.6006 12.0635 15.5249C11.9097 15.4468 11.7364 15.4077 11.5435 15.4077C11.3482 15.4077 11.1749 15.4468 11.0235 15.5249C10.8746 15.6006 10.7476 15.7141 10.6426 15.8655C10.5376 16.0168 10.4571 16.2036 10.4009 16.4258C10.3472 16.6455 10.3204 16.9006 10.3204 17.1912V17.4731C10.3204 17.7612 10.3472 18.0164 10.4009 18.2385C10.4571 18.4607 10.5376 18.6487 10.6426 18.8025C10.75 18.9539 10.8794 19.0686 11.0308 19.1467C11.1822 19.2249 11.3555 19.2639 11.5508 19.2639C11.7461 19.2639 11.9195 19.2249 12.0708 19.1467C12.2222 19.0686 12.3492 18.9539 12.4517 18.8025C12.5567 18.6487 12.636 18.4607 12.6897 18.2385C12.7435 18.0164 12.7703 17.7612 12.7703 17.4731ZM17.1424 18.0554H15.7691V17.2644H17.1424C17.367 17.2644 17.5489 17.2278 17.6881 17.1545C17.8297 17.0789 17.9334 16.9763 17.9994 16.8469C18.0653 16.7151 18.0982 16.5649 18.0982 16.3965C18.0982 16.2329 18.0653 16.0803 17.9994 15.9387C17.9334 15.7971 17.8297 15.6824 17.6881 15.5945C17.5489 15.5066 17.367 15.4626 17.1424 15.4626H16.0987V20H15.0917V14.668H17.1424C17.5575 14.668 17.9115 14.7424 18.2044 14.8914C18.4999 15.0378 18.7245 15.2417 18.8783 15.5029C19.0345 15.7617 19.1126 16.0571 19.1126 16.3892C19.1126 16.7334 19.0345 17.03 18.8783 17.2791C18.7245 17.5281 18.4999 17.7197 18.2044 17.854C17.9115 17.9883 17.5575 18.0554 17.1424 18.0554Z" fill="white"/>
<path fill-rule="evenodd" clip-rule="evenodd" d="M11.1243 4.64645C11.3318 4.45118 11.6682 4.45118 11.8757 4.64645L18.2507 10.6464C18.4581 10.8417 18.4581 11.1583 18.2507 11.3536C18.0432 11.5488 17.7068 11.5488 17.4993 11.3536L11.5 5.70711L5.50065 11.3536C5.29318 11.5488 4.95682 11.5488 4.74935 11.3536C4.54188 11.1583 4.54188 10.8417 4.74935 10.6464L11.1243 4.64645Z" fill="white"/>
</svg>
