<svg width="24" height="24" viewBox="0 0 24 24" fill="none" xmlns="http://www.w3.org/2000/svg">
<path d="M8.53125 8.53125C8.85917 8.53125 9.125 8.79708 9.125 9.125V16.25C9.125 16.5779 8.85917 16.8438 8.53125 16.8438C8.20333 16.8438 7.9375 16.5779 7.9375 16.25V9.125C7.9375 8.79708 8.20333 8.53125 8.53125 8.53125Z" fill="#656565"/>
<path d="M11.5 8.53125C11.8279 8.53125 12.0938 8.79708 12.0938 9.125V16.25C12.0938 16.5779 11.8279 16.8438 11.5 16.8438C11.1721 16.8438 10.9062 16.5779 10.9062 16.25V9.125C10.9062 8.79708 11.1721 8.53125 11.5 8.53125Z" fill="#656565"/>
<path d="M15.0625 9.125C15.0625 8.79708 14.7967 8.53125 14.4688 8.53125C14.1408 8.53125 13.875 8.79708 13.875 9.125V16.25C13.875 16.5779 14.1408 16.8438 14.4688 16.8438C14.7967 16.8438 15.0625 16.5779 15.0625 16.25V9.125Z" fill="#656565"/>
<path fill-rule="evenodd" clip-rule="evenodd" d="M19.2188 5.5625C19.2188 6.21834 18.6871 6.75 18.0312 6.75H17.4375V17.4375C17.4375 18.7492 16.3742 19.8125 15.0625 19.8125H7.9375C6.62582 19.8125 5.5625 18.7492 5.5625 17.4375V6.75H4.96875C4.31291 6.75 3.78125 6.21834 3.78125 5.5625V4.375C3.78125 3.71916 4.31291 3.1875 4.96875 3.1875H9.125C9.125 2.53166 9.65666 2 10.3125 2H12.6875C13.3433 2 13.875 2.53166 13.875 3.1875H18.0312C18.6871 3.1875 19.2188 3.71916 19.2188 4.375V5.5625ZM6.89017 6.75L6.75 6.82008V17.4375C6.75 18.0933 7.28166 18.625 7.9375 18.625H15.0625C15.7183 18.625 16.25 18.0933 16.25 17.4375V6.82008L16.1098 6.75H6.89017ZM4.96875 5.5625V4.375H18.0312V5.5625H4.96875Z" fill="#656565"/>
</svg>
