<svg width="24" height="24" viewBox="0 0 24 24" fill="none" xmlns="http://www.w3.org/2000/svg">
<path d="M6 5C6 4.44772 6.44772 4 7 4H17C17.5523 4 18 4.44772 18 5V11.5C18 11.7761 17.7761 12 17.5 12C17.2239 12 17 11.7761 17 11.5V5H7V19H10V16.5C10 16.2239 10.2239 16 10.5 16H12V20H7C6.44771 20 6 19.5523 6 19V5Z" fill="#656565"/>
<path d="M8.5 6C8.22386 6 8 6.22386 8 6.5V7.5C8 7.77614 8.22386 8 8.5 8H9.5C9.77614 8 10 7.77614 10 7.5V6.5C10 6.22386 9.77614 6 9.5 6H8.5Z" fill="#656565"/>
<path d="M11.5 6C11.2239 6 11 6.22386 11 6.5V7.5C11 7.77614 11.2239 8 11.5 8H12.5C12.7761 8 13 7.77614 13 7.5V6.5C13 6.22386 12.7761 6 12.5 6H11.5Z" fill="#656565"/>
<path d="M14.5 6C14.2239 6 14 6.22386 14 6.5V7.5C14 7.77614 14.2239 8 14.5 8H15.5C15.7761 8 16 7.77614 16 7.5V6.5C16 6.22386 15.7761 6 15.5 6H14.5Z" fill="#656565"/>
<path d="M8.5 9C8.22386 9 8 9.22386 8 9.5V10.5C8 10.7761 8.22386 11 8.5 11H9.5C9.77614 11 10 10.7761 10 10.5V9.5C10 9.22386 9.77614 9 9.5 9H8.5Z" fill="#656565"/>
<path d="M11.5 9C11.2239 9 11 9.22386 11 9.5V10.5C11 10.7761 11.2239 11 11.5 11H12.5C12.7761 11 13 10.7761 13 10.5V9.5C13 9.22386 12.7761 9 12.5 9H11.5Z" fill="#656565"/>
<path d="M14.5 9C14.2239 9 14 9.22386 14 9.5V10.5C14 10.7761 14.2239 11 14.5 11H15.5C15.7761 11 16 10.7761 16 10.5V9.5C16 9.22386 15.7761 9 15.5 9H14.5Z" fill="#656565"/>
<path d="M8.5 12C8.22386 12 8 12.2239 8 12.5V13.5C8 13.7761 8.22386 14 8.5 14H9.5C9.77614 14 10 13.7761 10 13.5V12.5C10 12.2239 9.77614 12 9.5 12H8.5Z" fill="#656565"/>
<path d="M11.5 12C11.2239 12 11 12.2239 11 12.5V13.5C11 13.7761 11.2239 14 11.5 14H12.5C12.7761 14 13 13.7761 13 13.5V12.5C13 12.2239 12.7761 12 12.5 12H11.5Z" fill="#656565"/>
<path d="M20 16.5C20 18.433 18.433 20 16.5 20C14.567 20 13 18.433 13 16.5C13 14.567 14.567 13 16.5 13C18.433 13 20 14.567 20 16.5ZM16.5 14.5C16.2239 14.5 16 14.7239 16 15V16.5C16 16.7761 16.2239 17 16.5 17C16.7761 17 17 16.7761 17 16.5V15C17 14.7239 16.7761 14.5 16.5 14.5ZM16.5 18.5C16.7761 18.5 17 18.2761 17 18C17 17.7239 16.7761 17.5 16.5 17.5C16.2239 17.5 16 17.7239 16 18C16 18.2761 16.2239 18.5 16.5 18.5Z" fill="#656565"/>
</svg>
