<svg width="24" height="24" viewBox="0 0 24 24" fill="none" xmlns="http://www.w3.org/2000/svg">
<path d="M12 12.4784C13.8724 10.492 18.5535 13.9682 12 18.4375C5.44648 13.9682 10.1276 10.492 12 12.4784Z" fill="#656565"/>
<path d="M7.21875 3C6.86465 3 6.53121 3.17598 6.31875 3.475L3.1125 7.9875C3.03948 8.09028 3 8.21528 3 8.34375V20.8125C3 21.4683 3.50368 22 4.125 22H19.875C20.4963 22 21 21.4683 21 20.8125V8.34375C21 8.21528 20.9605 8.09028 20.8875 7.9875L17.6813 3.475C17.4688 3.17598 17.1354 3 16.7812 3H7.21875ZM7.21875 4.1875H11.4375V7.75H4.6875L7.21875 4.1875ZM12.5625 7.75V4.1875H16.7812L19.3125 7.75H12.5625ZM19.875 8.9375V20.8125H4.125V8.9375H19.875Z" fill="#656565"/>
</svg>
