<svg width="24" height="24" viewBox="0 0 24 24" fill="none" xmlns="http://www.w3.org/2000/svg">
<path d="M5.27989 3.60142C5.46828 3.57085 5.65989 3.63271 5.79484 3.76766L6.5625 4.53532L7.33016 3.76766C7.56203 3.53579 7.93797 3.53579 8.16984 3.76766L8.9375 4.53532L9.70516 3.76766C9.93703 3.53579 10.313 3.53579 10.5448 3.76766L11.3125 4.53532L12.0802 3.76766C12.312 3.53579 12.688 3.53579 12.9198 3.76766L13.6875 4.53532L14.4552 3.76766C14.687 3.53579 15.063 3.53579 15.2948 3.76766L16.0625 4.53532L16.8302 3.76766C17.062 3.53579 17.438 3.53579 17.6698 3.76766L18.4375 4.53532L19.2052 3.76766C19.3401 3.63271 19.5317 3.57085 19.7201 3.60142C19.9085 3.632 20.0707 3.75127 20.1561 3.92197L20.7498 5.10947C20.791 5.19192 20.8125 5.28283 20.8125 5.37501V19.625C20.8125 19.7172 20.791 19.8081 20.7498 19.8905L20.1561 21.078C20.0707 21.2487 19.9085 21.368 19.7201 21.3986C19.5317 21.4292 19.3401 21.3673 19.2052 21.2324L18.4375 20.4647L17.6698 21.2324C17.438 21.4642 17.062 21.4642 16.8302 21.2324L16.0625 20.4647L15.2948 21.2324C15.063 21.4642 14.687 21.4642 14.4552 21.2324L13.6875 20.4647L12.9198 21.2324C12.688 21.4642 12.312 21.4642 12.0802 21.2324L11.3125 20.4647L10.5448 21.2324C10.313 21.4642 9.93703 21.4642 9.70516 21.2324L8.9375 20.4647L8.16984 21.2324C7.93797 21.4642 7.56203 21.4642 7.33016 21.2324L6.5625 20.4647L5.79484 21.2324C5.65989 21.3673 5.46828 21.4292 5.27989 21.3986C5.0915 21.368 4.92929 21.2487 4.84393 21.078L4.25018 19.8905C4.20896 19.8081 4.1875 19.7172 4.1875 19.625V5.37501C4.1875 5.28283 4.20896 5.19192 4.25018 5.10947L4.84393 3.92197C4.92929 3.75127 5.0915 3.632 5.27989 3.60142ZM5.53766 5.18986L5.375 5.51517V19.4848L5.53766 19.8102L6.14266 19.2052C6.37453 18.9733 6.75047 18.9733 6.98234 19.2052L7.75 19.9728L8.51766 19.2052C8.74953 18.9733 9.12547 18.9733 9.35734 19.2052L10.125 19.9728L10.8927 19.2052C11.1245 18.9733 11.5005 18.9733 11.7323 19.2052L12.5 19.9728L13.2677 19.2052C13.4995 18.9733 13.8755 18.9733 14.1073 19.2052L14.875 19.9728L15.6427 19.2052C15.8745 18.9733 16.2505 18.9733 16.4823 19.2052L17.25 19.9728L18.0177 19.2052C18.2495 18.9733 18.6255 18.9733 18.8573 19.2052L19.4623 19.8102L19.625 19.4848V5.51517L19.4623 5.18986L18.8573 5.79485C18.6255 6.02673 18.2495 6.02673 18.0177 5.79485L17.25 5.0272L16.4823 5.79485C16.2505 6.02673 15.8745 6.02673 15.6427 5.79485L14.875 5.0272L14.1073 5.79485C13.8755 6.02673 13.4995 6.02673 13.2677 5.79485L12.5 5.0272L11.7323 5.79485C11.5005 6.02673 11.1245 6.02673 10.8927 5.79485L10.125 5.0272L9.35734 5.79485C9.12547 6.02673 8.74953 6.02673 8.51766 5.79485L7.75 5.0272L6.98234 5.79485C6.75047 6.02673 6.37453 6.02673 6.14266 5.79485L5.53766 5.18986Z" fill="#656565"/>
<path d="M6.5625 8.34376C6.5625 8.01584 6.82833 7.75001 7.15625 7.75001H14.2812C14.6092 7.75001 14.875 8.01584 14.875 8.34376C14.875 8.67168 14.6092 8.93751 14.2812 8.93751H7.15625C6.82833 8.93751 6.5625 8.67168 6.5625 8.34376ZM6.5625 10.7188C6.5625 10.3908 6.82833 10.125 7.15625 10.125H14.2812C14.6092 10.125 14.875 10.3908 14.875 10.7188C14.875 11.0467 14.6092 11.3125 14.2812 11.3125H7.15625C6.82833 11.3125 6.5625 11.0467 6.5625 10.7188ZM6.5625 13.0938C6.5625 12.7658 6.82833 12.5 7.15625 12.5H14.2812C14.6092 12.5 14.875 12.7658 14.875 13.0938C14.875 13.4217 14.6092 13.6875 14.2812 13.6875H7.15625C6.82833 13.6875 6.5625 13.4217 6.5625 13.0938ZM6.5625 15.4688C6.5625 15.1408 6.82833 14.875 7.15625 14.875H14.2812C14.6092 14.875 14.875 15.1408 14.875 15.4688C14.875 15.7967 14.6092 16.0625 14.2812 16.0625H7.15625C6.82833 16.0625 6.5625 15.7967 6.5625 15.4688Z" fill="#656565"/>
<path d="M16.0625 8.34376C16.0625 8.01584 16.3283 7.75001 16.6562 7.75001H17.8438C18.1717 7.75001 18.4375 8.01584 18.4375 8.34376C18.4375 8.67168 18.1717 8.93751 17.8438 8.93751H16.6562C16.3283 8.93751 16.0625 8.67168 16.0625 8.34376ZM16.0625 10.7188C16.0625 10.3908 16.3283 10.125 16.6562 10.125H17.8438C18.1717 10.125 18.4375 10.3908 18.4375 10.7188C18.4375 11.0467 18.1717 11.3125 17.8438 11.3125H16.6562C16.3283 11.3125 16.0625 11.0467 16.0625 10.7188ZM16.0625 13.0938C16.0625 12.7658 16.3283 12.5 16.6562 12.5H17.8438C18.1717 12.5 18.4375 12.7658 18.4375 13.0938C18.4375 13.4217 18.1717 13.6875 17.8438 13.6875H16.6562C16.3283 13.6875 16.0625 13.4217 16.0625 13.0938ZM16.0625 15.4688C16.0625 15.1408 16.3283 14.875 16.6562 14.875H17.8438C18.1717 14.875 18.4375 15.1408 18.4375 15.4688C18.4375 15.7967 18.1717 16.0625 17.8438 16.0625H16.6562C16.3283 16.0625 16.0625 15.7967 16.0625 15.4688Z" fill="#656565"/>
</svg>
