<svg width="24" height="24" viewBox="0 0 24 24" fill="none" xmlns="http://www.w3.org/2000/svg">
<path fill-rule="evenodd" clip-rule="evenodd" d="M7.1875 15.0625C7.1875 14.8209 7.38338 14.625 7.625 14.625H16.375C16.6166 14.625 16.8125 14.8209 16.8125 15.0625C16.8125 15.3041 16.6166 15.5 16.375 15.5H7.625C7.38338 15.5 7.1875 15.3041 7.1875 15.0625Z" fill="#3493FB"/>
<path fill-rule="evenodd" clip-rule="evenodd" d="M7.1875 11.5625C7.1875 11.3209 7.38338 11.125 7.625 11.125H16.375C16.6166 11.125 16.8125 11.3209 16.8125 11.5625C16.8125 11.8041 16.6166 12 16.375 12H7.625C7.38338 12 7.1875 11.8041 7.1875 11.5625Z" fill="#3493FB"/>
<path fill-rule="evenodd" clip-rule="evenodd" d="M7.1875 8.0625C7.1875 7.82088 7.38338 7.625 7.625 7.625H16.375C16.6166 7.625 16.8125 7.82088 16.8125 8.0625C16.8125 8.30412 16.6166 8.5 16.375 8.5H7.625C7.38338 8.5 7.1875 8.30412 7.1875 8.0625Z" fill="#3493FB"/>
</svg>
