<svg width="24" height="24" viewBox="0 0 24 24" fill="none" xmlns="http://www.w3.org/2000/svg">
<path d="M16.6777 14.9299C17.6661 13.5841 18.25 11.9227 18.25 10.125C18.25 5.63769 14.6123 2 10.125 2C5.63769 2 2 5.63769 2 10.125C2 14.6123 5.63769 18.25 10.125 18.25C11.9232 18.25 13.585 17.6658 14.9309 16.6769L14.9299 16.6777C14.9667 16.7277 15.0078 16.7756 15.053 16.8208L19.8661 21.6339C20.3543 22.122 21.1457 22.122 21.6339 21.6339C22.122 21.1457 22.122 20.3543 21.6339 19.8661L16.8208 15.053C16.7756 15.0078 16.7277 14.9667 16.6777 14.9299ZM17 10.125C17 13.922 13.922 17 10.125 17C6.32804 17 3.25 13.922 3.25 10.125C3.25 6.32804 6.32804 3.25 10.125 3.25C13.922 3.25 17 6.32804 17 10.125Z" fill="#3493FB"/>
</svg>
