<svg width="158" height="24" viewBox="0 0 158 24" fill="none" xmlns="http://www.w3.org/2000/svg">
<g clip-path="url(#clip0_770_525)">
<path d="M9.322 2.923C9.448 2.664 9.712 2.5 10 2.5C10.289 2.5 10.552 2.664 10.678 2.923C11.652 4.921 13.328 8.363 13.328 8.363C13.328 8.363 17.139 8.887 19.35 9.192C19.753 9.247 20 9.588 20 9.939C20 10.129 19.928 10.322 19.769 10.475C18.159 12.013 15.387 14.666 15.387 14.666C15.387 14.666 16.064 18.433 16.456 20.618C16.539 21.08 16.181 21.5 15.714 21.5C15.592 21.5 15.47 21.471 15.359 21.411C13.391 20.363 10 18.56 10 18.56C10 18.56 6.609 20.363 4.641 21.411C4.53 21.471 4.407 21.5 4.285 21.5C3.82 21.5 3.46 21.079 3.544 20.618C3.937 18.433 4.614 14.666 4.614 14.666C4.614 14.666 1.841 12.013 0.232 10.475C0.0720001 10.322 0 10.129 0 9.94C0 9.588 0.249 9.246 0.651 9.192C2.862 8.887 6.672 8.363 6.672 8.363C6.672 8.363 8.349 4.921 9.322 2.923Z" fill="#FFCD78"/>
<path d="M35.322 2.923C35.448 2.664 35.712 2.5 36 2.5C36.289 2.5 36.552 2.664 36.678 2.923C37.652 4.921 39.328 8.363 39.328 8.363C39.328 8.363 43.139 8.887 45.35 9.192C45.753 9.247 46 9.588 46 9.939C46 10.129 45.928 10.322 45.769 10.475C44.159 12.013 41.387 14.666 41.387 14.666C41.387 14.666 42.064 18.433 42.456 20.618C42.539 21.08 42.181 21.5 41.714 21.5C41.592 21.5 41.47 21.471 41.359 21.411C39.391 20.363 36 18.56 36 18.56C36 18.56 32.609 20.363 30.641 21.411C30.53 21.471 30.407 21.5 30.285 21.5C29.82 21.5 29.46 21.079 29.544 20.618C29.937 18.433 30.614 14.666 30.614 14.666C30.614 14.666 27.841 12.013 26.232 10.475C26.072 10.322 26 10.129 26 9.94C26 9.588 26.249 9.246 26.651 9.192C28.862 8.887 32.672 8.363 32.672 8.363C32.672 8.363 34.349 4.921 35.322 2.923Z" fill="#FFCD78"/>
<path d="M61.322 2.923C61.448 2.664 61.712 2.5 62 2.5C62.289 2.5 62.552 2.664 62.678 2.923C63.652 4.921 65.328 8.363 65.328 8.363C65.328 8.363 69.139 8.887 71.35 9.192C71.753 9.247 72 9.588 72 9.939C72 10.129 71.928 10.322 71.769 10.475C70.159 12.013 67.387 14.666 67.387 14.666C67.387 14.666 68.064 18.433 68.456 20.618C68.539 21.08 68.181 21.5 67.714 21.5C67.592 21.5 67.47 21.471 67.359 21.411C65.391 20.363 62 18.56 62 18.56C62 18.56 58.609 20.363 56.641 21.411C56.53 21.471 56.407 21.5 56.285 21.5C55.82 21.5 55.46 21.079 55.544 20.618C55.937 18.433 56.614 14.666 56.614 14.666C56.614 14.666 53.841 12.013 52.232 10.475C52.072 10.322 52 10.129 52 9.94C52 9.588 52.249 9.246 52.651 9.192C54.862 8.887 58.672 8.363 58.672 8.363C58.672 8.363 60.349 4.921 61.322 2.923Z" fill="#FFCD78"/>
<path d="M87.322 2.923C87.448 2.664 87.712 2.5 88 2.5C88.289 2.5 88.552 2.664 88.678 2.923C89.652 4.921 91.328 8.363 91.328 8.363C91.328 8.363 95.139 8.887 97.35 9.192C97.753 9.247 98 9.588 98 9.939C98 10.129 97.928 10.322 97.769 10.475C96.159 12.013 93.387 14.666 93.387 14.666C93.387 14.666 94.064 18.433 94.456 20.618C94.539 21.08 94.181 21.5 93.714 21.5C93.592 21.5 93.47 21.471 93.359 21.411C91.391 20.363 88 18.56 88 18.56C88 18.56 84.609 20.363 82.641 21.411C82.53 21.471 82.407 21.5 82.285 21.5C81.82 21.5 81.46 21.079 81.544 20.618C81.937 18.433 82.614 14.666 82.614 14.666C82.614 14.666 79.841 12.013 78.232 10.475C78.072 10.322 78 10.129 78 9.94C78 9.588 78.249 9.246 78.651 9.192C80.862 8.887 84.672 8.363 84.672 8.363C84.672 8.363 86.349 4.921 87.322 2.923ZM88 4.956L85.639 9.748L80.393 10.467L84.241 14.11L83.293 19.365L88 16.86L92.707 19.365L91.756 14.129L95.607 10.467L90.293 9.711L88 4.956Z" fill="#FFCD78"/>
<path d="M113.322 2.923C113.448 2.664 113.712 2.5 114 2.5C114.289 2.5 114.552 2.664 114.678 2.923C115.652 4.921 117.328 8.363 117.328 8.363C117.328 8.363 121.139 8.887 123.35 9.192C123.753 9.247 124 9.588 124 9.939C124 10.129 123.928 10.322 123.769 10.475C122.159 12.013 119.387 14.666 119.387 14.666C119.387 14.666 120.064 18.433 120.456 20.618C120.539 21.08 120.181 21.5 119.714 21.5C119.592 21.5 119.47 21.471 119.359 21.411C117.391 20.363 114 18.56 114 18.56C114 18.56 110.609 20.363 108.641 21.411C108.53 21.471 108.407 21.5 108.285 21.5C107.82 21.5 107.46 21.079 107.544 20.618C107.937 18.433 108.614 14.666 108.614 14.666C108.614 14.666 105.841 12.013 104.232 10.475C104.072 10.322 104 10.129 104 9.94C104 9.588 104.249 9.246 104.651 9.192C106.862 8.887 110.672 8.363 110.672 8.363C110.672 8.363 112.349 4.921 113.322 2.923ZM114 4.956L111.639 9.748L106.393 10.467L110.241 14.11L109.293 19.365L114 16.86L118.707 19.365L117.756 14.129L121.607 10.467L116.293 9.711L114 4.956Z" fill="#FFCD78"/>
<path d="M135.246 12.2017H136.341C136.878 12.2017 137.321 12.1131 137.669 11.936C138.024 11.7534 138.286 11.5072 138.458 11.1973C138.635 10.8818 138.724 10.5277 138.724 10.1348C138.724 9.66992 138.646 9.27979 138.491 8.96436C138.336 8.64893 138.104 8.41097 137.794 8.25049C137.484 8.09001 137.091 8.00977 136.615 8.00977C136.184 8.00977 135.802 8.09554 135.47 8.26709C135.143 8.43311 134.886 8.67106 134.698 8.98096C134.515 9.29085 134.424 9.65609 134.424 10.0767H132.888C132.888 9.4624 133.043 8.90348 133.353 8.3999C133.663 7.89632 134.097 7.49512 134.656 7.19629C135.221 6.89746 135.874 6.74805 136.615 6.74805C137.346 6.74805 137.985 6.87809 138.533 7.13818C139.081 7.39274 139.507 7.77458 139.811 8.28369C140.115 8.78727 140.268 9.41536 140.268 10.168C140.268 10.4723 140.196 10.7988 140.052 11.1475C139.913 11.4906 139.695 11.8115 139.396 12.1104C139.103 12.4092 138.721 12.6554 138.25 12.8491C137.78 13.0373 137.216 13.1313 136.557 13.1313H135.246V12.2017ZM135.246 13.4634V12.542H136.557C137.326 12.542 137.963 12.6333 138.466 12.8159C138.97 12.9985 139.366 13.242 139.653 13.5464C139.947 13.8507 140.151 14.1855 140.268 14.5508C140.389 14.9105 140.45 15.2702 140.45 15.6299C140.45 16.1943 140.353 16.6951 140.16 17.1323C139.972 17.5695 139.703 17.9403 139.354 18.2446C139.011 18.549 138.607 18.7786 138.143 18.9336C137.678 19.0885 137.171 19.166 136.624 19.166C136.098 19.166 135.603 19.0913 135.138 18.9419C134.678 18.7925 134.272 18.5767 133.917 18.2944C133.563 18.0067 133.287 17.6553 133.087 17.2402C132.888 16.8197 132.789 16.341 132.789 15.8042H134.324C134.324 16.2248 134.416 16.5928 134.598 16.9082C134.786 17.2236 135.052 17.4699 135.395 17.647C135.744 17.8185 136.153 17.9043 136.624 17.9043C137.094 17.9043 137.498 17.8241 137.835 17.6636C138.179 17.4976 138.441 17.2485 138.624 16.9165C138.812 16.5845 138.906 16.1667 138.906 15.6631C138.906 15.1595 138.801 14.7472 138.591 14.4263C138.381 14.0998 138.082 13.859 137.694 13.7041C137.312 13.5436 136.861 13.4634 136.341 13.4634H135.246ZM142.758 18.1865C142.758 17.9264 142.838 17.7078 142.999 17.5308C143.165 17.3481 143.403 17.2568 143.712 17.2568C144.022 17.2568 144.257 17.3481 144.418 17.5308C144.584 17.7078 144.667 17.9264 144.667 18.1865C144.667 18.4411 144.584 18.6569 144.418 18.834C144.257 19.0111 144.022 19.0996 143.712 19.0996C143.403 19.0996 143.165 19.0111 142.999 18.834C142.838 18.6569 142.758 18.4411 142.758 18.1865ZM154.636 11.9941V13.8369C154.636 14.8275 154.548 15.6631 154.371 16.3438C154.194 17.0244 153.939 17.5723 153.607 17.9873C153.275 18.4023 152.874 18.7039 152.403 18.8921C151.938 19.0747 151.413 19.166 150.826 19.166C150.361 19.166 149.932 19.1079 149.54 18.9917C149.147 18.8755 148.792 18.6901 148.477 18.4355C148.167 18.1755 147.902 17.8379 147.68 17.4229C147.459 17.0078 147.29 16.5042 147.174 15.9121C147.058 15.32 147 14.6283 147 13.8369V11.9941C147 11.0036 147.088 10.1735 147.265 9.50391C147.448 8.83431 147.705 8.29753 148.037 7.89355C148.369 7.48405 148.768 7.19076 149.232 7.01367C149.703 6.83659 150.229 6.74805 150.81 6.74805C151.28 6.74805 151.712 6.80615 152.104 6.92236C152.503 7.03304 152.857 7.21289 153.167 7.46191C153.477 7.7054 153.74 8.0319 153.956 8.44141C154.177 8.84538 154.346 9.34066 154.462 9.92725C154.578 10.5138 154.636 11.2028 154.636 11.9941ZM153.092 14.0859V11.7368C153.092 11.1945 153.059 10.7186 152.993 10.3091C152.932 9.89404 152.84 9.53988 152.719 9.24658C152.597 8.95329 152.442 8.71533 152.254 8.53271C152.071 8.3501 151.858 8.21729 151.615 8.13428C151.377 8.04574 151.108 8.00146 150.81 8.00146C150.444 8.00146 150.121 8.07064 149.838 8.20898C149.556 8.3418 149.318 8.55485 149.125 8.84814C148.936 9.14144 148.792 9.52604 148.693 10.002C148.593 10.4779 148.543 11.0562 148.543 11.7368V14.0859C148.543 14.6283 148.574 15.1069 148.635 15.522C148.701 15.937 148.798 16.2967 148.925 16.6011C149.053 16.8999 149.208 17.1462 149.39 17.3398C149.573 17.5335 149.783 17.6774 150.021 17.7715C150.264 17.86 150.533 17.9043 150.826 17.9043C151.202 17.9043 151.532 17.8324 151.814 17.6885C152.096 17.5446 152.331 17.3205 152.52 17.0161C152.713 16.7062 152.857 16.3105 152.951 15.8291C153.045 15.3421 153.092 14.7611 153.092 14.0859Z" fill="#656565"/>
</g>
<defs>
<clipPath id="clip0_770_525">
<rect width="158" height="24" fill="white"/>
</clipPath>
</defs>
</svg>
