<svg width="50" height="50" viewBox="0 0 50 50" fill="none" xmlns="http://www.w3.org/2000/svg">
<circle cx="25" cy="25" r="22.5" fill="#00897B" stroke="#E3E6E9" stroke-width="3"/>
<path d="M17.328 19.38H18.77V30.44C18.77 31.336 18.546 31.714 17.986 31.924C17.412 32.148 16.502 32.19 15.158 32.176C15.088 31.798 14.836 31.168 14.626 30.804C15.606 30.846 16.628 30.832 16.922 30.818C17.216 30.818 17.328 30.72 17.328 30.44V19.38ZM20.702 23.006L21.99 22.516C23.18 24.49 24.356 27.052 24.72 28.774L23.278 29.348C22.97 27.668 21.864 25.036 20.702 23.006ZM13.66 22.642L15.158 22.894C14.682 24.966 13.898 27.542 12.666 29.096C12.344 28.858 11.742 28.55 11.392 28.396C12.582 26.94 13.338 24.504 13.66 22.642ZM33.624 27.318H34.926V32.162H33.624V27.318ZM34.968 25.064L35.738 24.742C36.102 25.484 36.494 26.45 36.662 27.08L35.85 27.458C35.696 26.8 35.304 25.82 34.968 25.064ZM30.362 20.43H38.3V21.536H30.362V20.43ZM30.404 28.228H38.44V29.404H30.404V28.228ZM33.232 19.422L34.408 19.114C34.702 19.604 35.01 20.262 35.164 20.668L33.932 21.018C33.806 20.598 33.498 19.912 33.232 19.422ZM32.588 24.7C32.532 24.476 32.35 23.958 32.224 23.678C32.392 23.636 32.574 23.496 32.728 23.272C32.91 23.048 33.456 22.236 33.75 21.424L34.786 21.886C34.296 22.726 33.61 23.608 33.008 24.168V24.196C33.008 24.196 32.588 24.504 32.588 24.7ZM32.588 24.7L32.574 23.972L33.036 23.706L35.052 23.58C34.996 23.832 34.954 24.196 34.954 24.392C33.148 24.532 32.784 24.602 32.588 24.7ZM32.434 27.29C32.378 27.08 32.224 26.576 32.098 26.296C32.35 26.254 32.616 26.03 32.938 25.694C33.26 25.358 34.408 24.056 35.094 22.81L36.004 23.37C35.136 24.616 34.03 25.876 32.938 26.758V26.8C32.938 26.8 32.434 27.094 32.434 27.29ZM32.434 27.29L32.406 26.464L32.924 26.128L35.948 25.862C35.962 26.142 36.018 26.534 36.074 26.744C33.148 27.066 32.7 27.164 32.434 27.29ZM30.208 26.394C30.712 25.946 31.468 25.218 32.224 24.462L32.7 25.232C32.126 25.862 31.44 26.548 30.824 27.108L30.208 26.394ZM30.32 22.474L31.132 22.026C31.524 22.516 32.042 23.23 32.28 23.65L31.44 24.182C31.216 23.748 30.726 23.006 30.32 22.474ZM37.6 21.942L38.44 22.558C37.936 23.216 37.32 23.888 36.858 24.35L36.144 23.776C36.606 23.3 37.236 22.502 37.6 21.942ZM36.172 25.162L36.928 24.602C37.502 25.162 38.118 25.876 38.482 26.38L37.67 27.024C37.32 26.492 36.662 25.708 36.172 25.162ZM27.506 19.24H28.5V22.348H27.506V19.24ZM26.4 21.676H30.096V27.094H26.4V25.988H29.13V22.768H26.4V21.676ZM25.924 21.676H26.82V27.808H25.924V21.676ZM27.59 22.194H28.36V26.352H28.458V30.048H27.492V26.352H27.59V22.194ZM25.532 30.09C26.666 29.936 28.29 29.684 29.914 29.418L29.984 30.538C28.486 30.818 26.932 31.084 25.742 31.308L25.532 30.09ZM28.934 28.032L29.816 27.878C30.166 28.984 30.544 30.412 30.698 31.336L29.774 31.546C29.634 30.594 29.27 29.138 28.934 28.032Z" fill="white"/>
</svg>
