<svg width="70" height="40" viewBox="0 0 70 40" fill="none" xmlns="http://www.w3.org/2000/svg">
<rect width="70" height="30" rx="5" fill="#3493FB"/>
<path d="M21.448 8.376H32.616V22.232H30.552V10.312H23.432V22.248H21.448V8.376ZM22.808 13.752H31.416V15.656H22.808V13.752ZM22.792 19.272H31.416V21.208H22.792V19.272ZM38.872 17.784L40.824 18.488C39.88 19.72 38.456 21.032 37.288 21.832C36.888 21.464 36.088 20.84 35.608 20.552C36.824 19.896 38.12 18.808 38.872 17.784ZM44.904 18.584L46.472 17.576C47.688 18.408 49.272 19.64 50.072 20.52L48.376 21.656C47.672 20.808 46.136 19.496 44.904 18.584ZM42.088 16.36H44.04V20.392C44.04 21.336 43.864 21.832 43.144 22.12C42.456 22.408 41.544 22.44 40.376 22.44C40.28 21.88 39.944 21.064 39.656 20.552C40.488 20.6 41.464 20.6 41.752 20.584C42.024 20.568 42.088 20.52 42.088 20.344V16.36ZM46.344 7.32L47.768 8.84C44.712 10.04 40.456 10.824 36.664 11.304C36.6 10.824 36.328 10.104 36.12 9.688C39.832 9.192 43.88 8.344 46.344 7.32ZM37.176 17.976C37.096 17.624 36.808 16.712 36.616 16.216C37.24 16.136 37.848 15.896 38.84 15.416C39.944 14.936 43.288 13.16 45.752 11.096L47.176 12.376C44.456 14.44 41.336 16.024 38.408 17.176V17.24C38.408 17.24 37.176 17.656 37.176 17.976ZM37.176 17.976L37.112 16.552L38.264 15.928L47.944 15.272C47.896 15.768 47.896 16.504 47.912 16.888C39.032 17.592 37.944 17.688 37.176 17.976ZM37.864 14.488C37.784 14.136 37.512 13.224 37.32 12.728C37.736 12.664 38.12 12.488 38.68 12.2C39.272 11.912 41.064 10.856 42.36 9.656L44.024 10.728C42.488 11.896 40.696 12.952 39 13.64V13.688C39 13.688 37.864 14.168 37.864 14.488ZM37.864 14.488L37.848 13.176L38.792 12.632L44.776 12.36C44.664 12.824 44.552 13.512 44.536 13.88C39.176 14.216 38.392 14.296 37.864 14.488ZM45.256 14.232L46.84 13.432C47.976 14.568 49.304 16.072 49.992 17.048L48.344 18.056C47.704 17.064 46.36 15.416 45.256 14.232Z" fill="white"/>
</svg>
