<svg width="70" height="40" viewBox="0 0 70 40" fill="none" xmlns="http://www.w3.org/2000/svg">
<rect width="70" height="30" rx="5" fill="#003060"/>
<path d="M24.12 9.176H29.576V10.776H24.12V9.176ZM30.184 8.28H34.232V9.96H30.184V8.28ZM30.088 12.568H34.488V14.28H30.088V12.568ZM23.816 12.328H29.816V13.992H23.816V12.328ZM25.928 7.416H27.736V13.288H25.928V7.416ZM23.912 15.864H29.704V17.512H23.912V15.864ZM25.896 14.264H27.72V19.96L25.896 20.264V14.264ZM23.464 19.624C25.144 19.496 27.624 19.256 29.976 19L30.008 20.664C27.784 20.936 25.416 21.192 23.656 21.384L23.464 19.624ZM31.384 13.288H33.272V20.312C33.272 21.24 33.144 21.784 32.552 22.088C31.976 22.392 31.176 22.424 30.088 22.424C30.024 21.896 29.8 21.064 29.56 20.52C30.216 20.536 30.888 20.552 31.112 20.536C31.32 20.52 31.384 20.488 31.384 20.28V13.288ZM22.056 7.416L23.784 8.056C22.936 9.448 21.592 10.968 20.344 11.928C20.12 11.528 19.656 10.84 19.352 10.488C20.392 9.72 21.512 8.44 22.056 7.416ZM21.192 14.28L22.696 12.776L22.952 12.856V22.44H21.192V14.28ZM22.424 10.792L24.136 11.384C23.208 13.432 21.688 15.592 20.216 16.952C20.024 16.552 19.512 15.608 19.176 15.192C20.44 14.12 21.688 12.472 22.424 10.792ZM35.72 8.152H42.184V9.928H35.72V8.152ZM37.768 12.552V14.04H40.12V12.552H37.768ZM36.152 11.048H41.832V15.544H36.152V11.048ZM39.72 15.768L41.592 16.168C41.256 17.336 40.92 18.6 40.632 19.416L39.16 19.048C39.4 18.152 39.64 16.76 39.72 15.768ZM36.344 16.296L37.88 15.912C38.216 16.808 38.456 17.96 38.504 18.744L36.872 19.16C36.856 18.392 36.648 17.208 36.344 16.296ZM35.448 19.944C37.176 19.64 39.8 19.096 42.28 18.568L42.44 20.2C40.168 20.744 37.72 21.304 35.896 21.736L35.448 19.944ZM42.568 8.056H50.344V9.672H42.568V8.056ZM44.712 14.472V15.496H48.136V14.472H44.712ZM44.712 16.808V17.848H48.136V16.808H44.712ZM44.712 12.152V13.176H48.136V12.152H44.712ZM42.952 10.76H49.976V19.24H42.952V10.76ZM45.288 8.952L47.48 9.192C47.176 10.2 46.84 11.208 46.568 11.896L44.904 11.592C45.064 10.824 45.24 9.736 45.288 8.952ZM44.472 19.32L46.04 20.328C45.16 21.128 43.704 22.008 42.472 22.472C42.184 22.12 41.624 21.576 41.208 21.24C42.408 20.824 43.8 19.976 44.472 19.32ZM46.68 20.36L48.136 19.448C49 20.008 50.216 20.872 50.84 21.448L49.304 22.456C48.76 21.88 47.576 20.968 46.68 20.36Z" fill="white"/>
<path d="M35.366 37.5C34.9811 38.1667 34.0189 38.1667 33.634 37.5L29.7369 30.75C29.352 30.0833 29.8331 29.25 30.6029 29.25L38.3971 29.25C39.1669 29.25 39.648 30.0833 39.2631 30.75L35.366 37.5Z" fill="#003060"/>
</svg>
