<svg width="70" height="40" viewBox="0 0 70 40" fill="none" xmlns="http://www.w3.org/2000/svg">
<rect width="70" height="30" rx="5" fill="#3493FB"/>
<path d="M20.6 9.08H33.432V11.08H20.6V9.08ZM19.704 19.4H34.344V21.336H19.704V19.4ZM25.832 10.168H28.024V20.168H25.832V10.168ZM41.784 16.376L43.272 17.016C41.72 18.52 39.08 19.624 36.44 20.104C36.216 19.704 35.752 19.08 35.416 18.744C37.928 18.36 40.504 17.512 41.784 16.376ZM44.248 16.408C45.208 18.808 47.288 20.344 50.6 20.888C50.216 21.256 49.736 21.976 49.528 22.456C45.912 21.672 43.832 19.832 42.632 16.744L44.248 16.408ZM48.28 17.208L49.656 18.216C48.664 18.904 47.416 19.576 46.456 19.992L45.304 19.064C46.248 18.6 47.528 17.816 48.28 17.208ZM35.704 15.928H50.296V17.368H35.704V15.928ZM41.992 9.4H50.184V11H41.992V9.4ZM42.408 12.968H49.832V14.584H42.408V12.968ZM39.704 7.416H41.512V15.384H39.704V7.416ZM45.112 7.416H47.016V13.944H45.112V7.416ZM35.688 11.48H40.6V12.936H35.688V11.48ZM36.872 11.976H38.616C38.504 13.72 38.12 14.984 36.376 15.736C36.2 15.352 35.752 14.776 35.4 14.488C36.6 13.992 36.808 13.144 36.872 11.976ZM36.36 7.624H37.976V9.24H40.408V10.76H36.36V7.624ZM38.888 22.568L38.776 21.224L39.512 20.68L44.072 19.816C43.992 20.264 43.928 20.952 43.944 21.32C39.864 22.184 39.256 22.344 38.888 22.568ZM38.888 22.568C38.76 22.168 38.424 21.448 38.168 21.128C38.52 20.936 39.016 20.504 39.016 19.688V18.088L40.872 18.072V20.776C40.872 20.776 38.888 21.928 38.888 22.568ZM41.64 15.128L43.528 14.6C43.864 15.176 44.2 15.928 44.328 16.44L42.328 17.032C42.248 16.536 41.944 15.736 41.64 15.128Z" fill="white"/>
</svg>
