<svg width="24" height="24" viewBox="0 0 24 24" fill="none" xmlns="http://www.w3.org/2000/svg">
<rect width="24" height="24" rx="3" fill="black" fill-opacity="0.15"/>
<path d="M19.5016 5.93934C19.6969 6.1346 19.6969 6.45118 19.5016 6.64645L18.4587 7.68933L16.4587 5.68933L17.5016 4.64645C17.6969 4.45118 18.0134 4.45118 18.2087 4.64645L19.5016 5.93934Z" fill="#3493FB"/>
<path d="M17.7516 8.39644L15.7516 6.39644L8.93861 13.2094C8.88372 13.2643 8.84237 13.3312 8.81782 13.4049L8.01326 15.8186C7.94812 16.014 8.13405 16.1999 8.32949 16.1348L10.7432 15.3302C10.8168 15.3057 10.8837 15.2643 10.9386 15.2094L17.7516 8.39644Z" fill="#3493FB"/>
<path fill-rule="evenodd" clip-rule="evenodd" d="M5 17.5C5 18.3284 5.67157 19 6.5 19H17.5C18.3284 19 19 18.3284 19 17.5V11.5C19 11.2239 18.7761 11 18.5 11C18.2239 11 18 11.2239 18 11.5V17.5C18 17.7761 17.7761 18 17.5 18H6.5C6.22386 18 6 17.7761 6 17.5V6.5C6 6.22386 6.22386 6 6.5 6H13C13.2761 6 13.5 5.77614 13.5 5.5C13.5 5.22386 13.2761 5 13 5H6.5C5.67157 5 5 5.67157 5 6.5V17.5Z" fill="#3493FB"/>
</svg>
