<svg width="350" height="150" viewBox="0 0 350 150" fill="none" xmlns="http://www.w3.org/2000/svg">
<rect width="350" height="150" fill="white"/>
<g filter="url(#filter0_d_1130_584)">
<path d="M128 25H326C327.105 25 328 25.8954 328 27V123C328 124.105 327.105 125 326 125H128V25Z" fill="white"/>
</g>
<g filter="url(#filter1_d_1130_584)">
<path d="M28 27C28 25.8954 28.8954 25 30 25H126C127.105 25 128 25.8954 128 27V123C128 124.105 127.105 125 126 125H30C28.8954 125 28 124.105 28 123V27Z" fill="#7A7A7A"/>
</g>
<ellipse cx="28.7277" cy="115.259" rx="4" ry="3.33807" transform="rotate(-15 28.7277 115.259)" fill="white"/>
<ellipse cx="28.7277" cy="102.259" rx="4" ry="3.33807" transform="rotate(-15 28.7277 102.259)" fill="white"/>
<ellipse cx="28.7277" cy="89.2594" rx="4" ry="3.33807" transform="rotate(-15 28.7277 89.2594)" fill="white"/>
<ellipse cx="28.7277" cy="76.2594" rx="4" ry="3.33807" transform="rotate(-15 28.7277 76.2594)" fill="white"/>
<ellipse cx="28.7277" cy="63.2594" rx="4" ry="3.33807" transform="rotate(-15 28.7277 63.2594)" fill="white"/>
<ellipse cx="28.7277" cy="50.2594" rx="4" ry="3.33807" transform="rotate(-15 28.7277 50.2594)" fill="white"/>
<ellipse cx="28.7277" cy="31.2594" rx="4" ry="3.33807" transform="rotate(-15 28.7277 31.2594)" fill="white"/>
<line x1="126.5" y1="25" x2="126.5" y2="125" stroke="white" stroke-width="3" stroke-dasharray="2 2"/>
<path d="M48.7648 112.168C47.8408 112.168 46.7728 111.736 46.1008 111.112L46.7368 110.164C47.3488 110.668 47.9968 111.028 48.7648 111.028C49.6888 111.028 50.1448 110.56 50.1448 109.792C50.1448 107.848 46.4488 108.184 46.4488 105.616C46.4488 104.188 47.4568 103.252 48.9688 103.252C50.0728 103.252 50.7568 103.696 51.3328 104.308L50.6128 105.124C50.1208 104.644 49.7128 104.392 49.0288 104.392C48.2488 104.392 47.7808 104.824 47.7808 105.544C47.7808 107.296 51.4888 106.888 51.4888 109.684C51.4888 111.16 50.4688 112.168 48.7648 112.168ZM48.4288 113.488V111.64H49.4008V113.488H48.4288ZM48.4288 103.72V101.92H49.4008V103.72H48.4288ZM55.2246 112.168C54.2046 112.168 53.4726 111.748 52.9686 111.22L53.7126 110.368C54.0726 110.764 54.6126 111.028 55.1646 111.028C56.2806 111.028 57.2286 110.092 57.2286 107.284C57.2286 105.076 56.5446 104.068 55.4646 104.068C54.6966 104.068 54.0966 104.752 54.0966 105.916C54.0966 107.032 54.6126 107.68 55.5366 107.68C56.0886 107.68 56.7126 107.368 57.2286 106.564L57.3006 107.572C56.7846 108.256 55.9926 108.688 55.2846 108.688C53.8086 108.688 52.8126 107.764 52.8126 105.916C52.8126 104.152 54.0126 103.012 55.4526 103.012C57.1446 103.012 58.5126 104.368 58.5126 107.284C58.5126 110.764 56.9286 112.168 55.2246 112.168ZM62.0683 112.168C61.0483 112.168 60.3163 111.748 59.8123 111.22L60.5563 110.368C60.9163 110.764 61.4563 111.028 62.0083 111.028C63.1243 111.028 64.0723 110.092 64.0723 107.284C64.0723 105.076 63.3883 104.068 62.3083 104.068C61.5403 104.068 60.9403 104.752 60.9403 105.916C60.9403 107.032 61.4563 107.68 62.3803 107.68C62.9323 107.68 63.5563 107.368 64.0723 106.564L64.1443 107.572C63.6283 108.256 62.8363 108.688 62.1283 108.688C60.6523 108.688 59.6563 107.764 59.6563 105.916C59.6563 104.152 60.8563 103.012 62.2963 103.012C63.9883 103.012 65.3563 104.368 65.3563 107.284C65.3563 110.764 63.7723 112.168 62.0683 112.168ZM68.9121 112.168C67.8921 112.168 67.1601 111.748 66.6561 111.22L67.4001 110.368C67.7601 110.764 68.3001 111.028 68.8521 111.028C69.9681 111.028 70.9161 110.092 70.9161 107.284C70.9161 105.076 70.2321 104.068 69.1521 104.068C68.3841 104.068 67.7841 104.752 67.7841 105.916C67.7841 107.032 68.3001 107.68 69.2241 107.68C69.7761 107.68 70.4001 107.368 70.9161 106.564L70.9881 107.572C70.4721 108.256 69.6801 108.688 68.9721 108.688C67.4961 108.688 66.5001 107.764 66.5001 105.916C66.5001 104.152 67.7001 103.012 69.1401 103.012C70.8321 103.012 72.2001 104.368 72.2001 107.284C72.2001 110.764 70.6161 112.168 68.9121 112.168ZM82.0512 108.352H83.2272V111.328C83.2272 111.712 83.3112 111.76 83.8272 111.76C84.0552 111.76 85.1232 111.76 85.4232 111.76C85.8912 111.76 85.9752 111.544 86.0232 110.152C86.2752 110.332 86.7432 110.512 87.0672 110.584C86.9352 112.324 86.6232 112.78 85.5192 112.78C85.2432 112.78 83.9352 112.78 83.6712 112.78C82.3872 112.78 82.0512 112.444 82.0512 111.34V108.352ZM79.3632 101.836L80.5992 102.076C79.7232 103.576 78.4752 105.148 76.7232 106.408C76.5552 106.144 76.1832 105.76 75.9192 105.58C77.5392 104.488 78.7272 103.036 79.3632 101.836ZM78.4272 105.904V107.764H84.9072V105.904H78.4272ZM77.2872 104.896H86.1072V108.784H77.2872V104.896ZM82.6632 102.736H82.9152L83.1072 102.688L83.8872 103.192C83.4312 103.996 82.6752 104.992 82.0512 105.616C81.8352 105.448 81.4512 105.208 81.1992 105.064C81.7512 104.5 82.3872 103.564 82.6632 102.952V102.736ZM79.3272 102.736H82.9992V103.672H78.7512L79.3272 102.736ZM81.0192 105.568H82.2192C81.9552 108.868 81.3792 111.64 76.7232 112.912C76.6032 112.624 76.3272 112.192 76.0752 111.952C80.4672 110.86 80.8032 108.448 81.0192 105.568ZM94.4472 103.552H95.5512V111.388H94.4472V103.552ZM92.9232 107.572V108.244H97.1352V107.572H92.9232ZM92.9232 106.228V106.888H97.1352V106.228H92.9232ZM91.9872 105.496H98.1072V108.976H91.9872V105.496ZM91.3272 102.28H98.6232V104.512H97.5312V103.132H92.3712V104.512H91.3272V102.28ZM92.2752 104.08H97.7472V104.896H92.2752V104.08ZM91.4232 109.624H98.7672V110.488H91.4232V109.624ZM88.4352 102.376L89.2992 101.872C89.8272 102.46 90.4512 103.228 90.7632 103.72L89.8632 104.32C89.5752 103.816 88.9392 102.976 88.4352 102.376ZM88.0632 104.68H90.5832V105.604H88.0632V104.68ZM90.3312 110.032C91.0272 111.628 92.5272 111.832 94.8312 111.844C96.1032 111.844 97.9632 111.784 99.2472 111.664C99.0792 111.892 98.9472 112.408 98.8872 112.72C97.6992 112.792 96.1752 112.816 94.8192 112.816C92.0112 112.816 90.4752 112.48 89.5752 110.356L90.3312 110.032ZM90.1272 107.62H90.4632L90.6432 107.596L91.1352 107.788C90.7752 110.368 89.8512 112.108 88.5912 113.044C88.4472 112.816 88.0632 112.432 87.8472 112.276C89.0352 111.46 89.8392 109.936 90.1272 107.8V107.62ZM88.2672 108.688V107.86L88.7352 107.62H90.5712V108.52H88.9872C88.6872 108.52 88.3632 108.592 88.2672 108.688ZM88.2672 108.688C88.1952 108.448 87.9792 107.944 87.8712 107.728C88.0632 107.68 88.2552 107.596 88.4712 107.356C88.8192 107.008 89.9112 105.412 90.3072 104.764V104.728L90.6192 104.596L91.3272 104.92C90.7752 105.748 89.7312 107.26 89.0712 108.04C89.0712 108.04 88.2672 108.424 88.2672 108.688ZM100.231 105.928H110.851V106.948H100.231V105.928ZM100.975 103.888H110.059V104.896H100.975V103.888ZM107.359 106.132C108.103 107.296 109.615 108.244 111.283 108.664C111.031 108.892 110.707 109.324 110.539 109.612C108.799 109.06 107.275 107.92 106.387 106.468L107.359 106.132ZM105.211 101.824L106.399 101.944C105.895 104.992 104.263 107.968 100.603 109.624C100.483 109.336 100.147 108.892 99.8952 108.676C103.387 107.212 104.851 104.488 105.211 101.824ZM101.971 102.52L102.871 102.088C103.255 102.532 103.699 103.156 103.879 103.576L102.931 104.068C102.763 103.66 102.343 103 101.971 102.52ZM108.235 102.136L109.279 102.472C108.859 103.144 108.355 103.852 107.947 104.32L107.083 104.008C107.479 103.516 107.971 102.7 108.235 102.136ZM102.091 108.256H107.911V109.288H102.091V108.256ZM107.743 108.256H108.895C108.895 108.256 108.883 108.568 108.871 108.724C108.715 111.112 108.547 112.108 108.199 112.48C107.959 112.744 107.707 112.828 107.323 112.876C106.987 112.912 106.375 112.912 105.727 112.876C105.715 112.552 105.583 112.096 105.403 111.808C105.991 111.868 106.567 111.868 106.783 111.868C106.999 111.868 107.119 111.844 107.239 111.736C107.467 111.508 107.611 110.632 107.743 108.424V108.256ZM103.927 108.628H105.103C104.851 110.728 104.179 112.204 101.299 112.984C101.191 112.696 100.891 112.24 100.663 112.012C103.219 111.424 103.711 110.26 103.927 108.628Z" fill="white"/>
<path d="M170.759 103.384H181.355V104.452H170.759V103.384ZM173.687 107.692H179.255V108.652H173.687V107.692ZM178.859 105.652H179.975V111.7C179.975 112.312 179.855 112.636 179.411 112.816C178.979 112.996 178.307 112.996 177.299 112.996C177.251 112.684 177.095 112.204 176.939 111.904C177.659 111.94 178.379 111.928 178.595 111.928C178.799 111.916 178.859 111.856 178.859 111.688V105.652ZM174.599 101.872L175.763 102.136C174.947 104.764 173.507 107.428 171.251 109.024C171.083 108.76 170.723 108.364 170.507 108.148C172.607 106.72 173.975 104.2 174.599 101.872ZM173.627 109.696H179.255V110.656H173.627V109.696ZM173.615 105.652H179.147V106.66H173.615V105.652ZM173.003 105.652H174.143V108.844C174.143 110.224 173.915 112 172.691 113.092C172.547 112.852 172.103 112.372 171.887 112.216C172.895 111.28 173.003 109.96 173.003 108.832V105.652ZM182.675 103.588H188.267V104.608H182.675V103.588ZM183.983 104.788L184.955 105.088C184.499 106.168 183.791 107.368 183.167 108.136C182.999 107.956 182.603 107.596 182.375 107.428C182.987 106.744 183.599 105.736 183.983 104.788ZM185.999 106.72L187.067 106.912C186.359 109.504 185.063 111.496 183.215 112.744C183.059 112.528 182.663 112.108 182.435 111.916C184.223 110.836 185.411 109.024 185.999 106.72ZM185.963 105.172L186.803 104.728C187.367 105.388 187.991 106.3 188.231 106.912L187.331 107.428C187.115 106.816 186.515 105.868 185.963 105.172ZM183.623 107.764L184.463 107.152C185.675 108.34 187.127 109.972 187.763 111.088L186.851 111.808C186.263 110.692 184.847 108.976 183.623 107.764ZM189.527 104.02H193.523V105.076H189.527V104.02ZM189.707 101.86L190.775 102.028C190.355 104.452 189.659 106.756 188.543 108.256C188.411 108.028 188.039 107.572 187.811 107.368C188.807 106.072 189.383 104.008 189.707 101.86ZM191.843 104.728L192.923 104.86C192.335 108.976 191.003 111.556 188.051 113.068C187.907 112.852 187.511 112.42 187.271 112.216C190.151 110.92 191.363 108.52 191.843 104.728ZM189.743 105.736C190.355 108.52 191.639 110.992 193.703 112.108C193.451 112.324 193.091 112.732 192.911 113.02C190.751 111.7 189.491 109.096 188.783 105.952L189.743 105.736ZM184.415 102.208L185.375 101.848C185.723 102.292 186.071 102.88 186.227 103.288L185.219 103.708C185.075 103.288 184.739 102.664 184.415 102.208ZM196.043 102.652H204.131V112.84H202.919V103.792H197.207V112.876H196.043V102.652ZM196.835 106.756H203.423V107.872H196.835V106.756ZM196.823 110.956H203.435V112.096H196.823V110.956ZM213.395 102.448H216.623V103.48H213.395V102.448ZM213.395 105.184H216.623V106.192H213.395V105.184ZM213.383 107.956H216.647V108.976H213.383V107.956ZM216.131 102.448H217.223V111.676C217.223 112.276 217.103 112.6 216.719 112.78C216.347 112.96 215.759 112.984 214.871 112.984C214.835 112.684 214.679 112.18 214.535 111.892C215.111 111.916 215.711 111.916 215.891 111.904C216.059 111.904 216.131 111.844 216.131 111.664V102.448ZM212.927 102.448H213.995V106.828C213.995 108.7 213.839 111.352 212.783 113.056C212.603 112.852 212.135 112.516 211.883 112.408C212.843 110.836 212.927 108.556 212.927 106.828V102.448ZM206.615 103.396H212.423V104.392H206.615V103.396ZM208.091 105.304H211.055V106.192H208.091V105.304ZM208.091 107.188H211.067V108.076H208.091V107.188ZM206.459 109.108H212.387V110.116H206.459V109.108ZM207.599 102.016H208.631V109.492H207.599V102.016ZM210.515 102.016H211.559V109.492H210.515V102.016ZM208.055 110.296L209.135 110.608C208.691 111.508 207.995 112.432 207.347 113.032C207.131 112.84 206.687 112.516 206.423 112.36C207.083 111.844 207.707 111.064 208.055 110.296ZM209.807 110.74L210.671 110.272C211.151 110.812 211.727 111.544 211.991 112.036L211.067 112.576C210.839 112.096 210.275 111.304 209.807 110.74ZM224.051 105.628C223.499 105.628 223.043 105.22 223.043 104.632C223.043 104.032 223.499 103.624 224.051 103.624C224.591 103.624 225.059 104.032 225.059 104.632C225.059 105.22 224.591 105.628 224.051 105.628ZM224.051 111.436C223.499 111.436 223.043 111.028 223.043 110.44C223.043 109.84 223.499 109.432 224.051 109.432C224.591 109.432 225.059 109.84 225.059 110.44C225.059 111.028 224.591 111.436 224.051 111.436ZM230.567 112V111.196C233.183 108.892 234.515 107.176 234.515 105.724C234.515 104.776 234.011 104.116 233.027 104.116C232.331 104.116 231.755 104.548 231.287 105.088L230.495 104.332C231.263 103.504 232.043 103.012 233.195 103.012C234.815 103.012 235.859 104.056 235.859 105.664C235.859 107.356 234.491 109.12 232.619 110.92C233.075 110.872 233.639 110.824 234.071 110.824H236.279V112H230.567ZM240.315 112.168C238.575 112.168 237.459 110.62 237.459 107.548C237.459 104.5 238.575 103.012 240.315 103.012C242.043 103.012 243.171 104.5 243.171 107.548C243.171 110.62 242.043 112.168 240.315 112.168ZM240.315 111.064C241.215 111.064 241.839 110.104 241.839 107.548C241.839 105.028 241.215 104.092 240.315 104.092C239.415 104.092 238.779 105.028 238.779 107.548C238.779 110.104 239.415 111.064 240.315 111.064ZM244.254 112V111.196C246.87 108.892 248.202 107.176 248.202 105.724C248.202 104.776 247.698 104.116 246.714 104.116C246.018 104.116 245.442 104.548 244.974 105.088L244.182 104.332C244.95 103.504 245.73 103.012 246.882 103.012C248.502 103.012 249.546 104.056 249.546 105.664C249.546 107.356 248.178 109.12 246.306 110.92C246.762 110.872 247.326 110.824 247.758 110.824H249.966V112H244.254ZM253.786 112.168C252.406 112.168 251.506 111.616 250.906 110.944L251.59 110.056C252.106 110.584 252.754 111.028 253.678 111.028C254.662 111.028 255.346 110.476 255.346 109.564C255.346 108.58 254.722 107.956 252.742 107.956V106.924C254.47 106.924 255.046 106.276 255.046 105.388C255.046 104.608 254.542 104.116 253.69 104.116C253.018 104.116 252.442 104.44 251.938 104.944L251.206 104.068C251.914 103.444 252.73 103.012 253.75 103.012C255.334 103.012 256.45 103.828 256.45 105.28C256.45 106.3 255.862 107.008 254.926 107.356V107.416C255.946 107.68 256.75 108.436 256.75 109.636C256.75 111.232 255.418 112.168 253.786 112.168ZM259.214 112.168C258.686 112.168 258.29 111.76 258.29 111.196C258.29 110.62 258.686 110.224 259.214 110.224C259.73 110.224 260.138 110.62 260.138 111.196C260.138 111.76 259.73 112.168 259.214 112.168ZM264.42 112.168C262.68 112.168 261.564 110.62 261.564 107.548C261.564 104.5 262.68 103.012 264.42 103.012C266.148 103.012 267.276 104.5 267.276 107.548C267.276 110.62 266.148 112.168 264.42 112.168ZM264.42 111.064C265.32 111.064 265.944 110.104 265.944 107.548C265.944 105.028 265.32 104.092 264.42 104.092C263.52 104.092 262.884 105.028 262.884 107.548C262.884 110.104 263.52 111.064 264.42 111.064ZM271.528 112.168C269.848 112.168 268.48 110.752 268.48 107.752C268.48 104.368 270.064 103.012 271.816 103.012C272.8 103.012 273.52 103.42 274.024 103.96L273.268 104.8C272.944 104.416 272.404 104.14 271.888 104.14C270.712 104.14 269.764 105.052 269.764 107.752C269.764 110.032 270.436 111.1 271.516 111.1C272.284 111.1 272.884 110.404 272.884 109.264C272.884 108.124 272.368 107.488 271.432 107.488C270.904 107.488 270.268 107.8 269.74 108.604L269.68 107.596C270.196 106.9 271.012 106.492 271.672 106.492C273.16 106.492 274.168 107.392 274.168 109.264C274.168 111.016 272.956 112.168 271.528 112.168ZM276.476 112.168C275.948 112.168 275.552 111.76 275.552 111.196C275.552 110.62 275.948 110.224 276.476 110.224C276.992 110.224 277.4 110.62 277.4 111.196C277.4 111.76 276.992 112.168 276.476 112.168ZM278.778 112V111.196C281.394 108.892 282.726 107.176 282.726 105.724C282.726 104.776 282.222 104.116 281.238 104.116C280.542 104.116 279.966 104.548 279.498 105.088L278.706 104.332C279.474 103.504 280.254 103.012 281.406 103.012C283.026 103.012 284.07 104.056 284.07 105.664C284.07 107.356 282.702 109.12 280.83 110.92C281.286 110.872 281.85 110.824 282.282 110.824H284.49V112H278.778ZM287.409 112C287.565 108.784 288.129 106.72 289.845 104.344H285.693V103.168H291.369V104.008C289.305 106.6 288.981 108.556 288.825 112H287.409Z" fill="#7A7A7A"/>
<path d="M148.556 65.612H152.48V66.668H148.556V65.612ZM148.544 71.096H152.684V72.164H148.544V71.096ZM148.484 68.348H152.216V69.38H148.484V68.348ZM142.028 65.6H145.7V66.668H142.028V65.6ZM142.196 68.336H145.652V69.368H142.196V68.336ZM147.968 63.932H149.096V75.008H147.968V63.932ZM141.656 71.288C142.7 71.144 144.26 70.916 145.784 70.688L145.832 71.696C144.452 71.948 143 72.212 141.884 72.416L141.656 71.288ZM145.172 63.932H146.3V69.548C146.3 71.36 145.784 73.796 142.868 75.164C142.688 74.888 142.34 74.528 142.064 74.312C144.692 73.244 145.172 70.856 145.172 69.56V63.932ZM158.096 67.184H159.164C158.948 69.164 158.6 71.732 158.348 73.232H157.244C157.556 71.684 157.916 69.104 158.096 67.184ZM159.872 68.468L160.484 68.072C160.94 68.432 161.492 68.96 161.756 69.32L161.12 69.764C160.88 69.392 160.34 68.852 159.872 68.468ZM159.56 70.988L160.196 70.58C160.688 70.964 161.3 71.54 161.588 71.924L160.928 72.392C160.652 71.996 160.052 71.396 159.56 70.988ZM158.24 65.168H164.444V66.2H158.24V65.168ZM158.564 67.184H163.22V68.168H158.564V67.184ZM156.584 69.62H164.756V70.652H156.584V69.62ZM157.82 72.26H164.432V73.232H157.82V72.26ZM158.384 63.86L159.488 64.148C158.984 65.648 158.192 67.172 157.388 68.144C157.16 67.964 156.68 67.664 156.404 67.52C157.232 66.632 157.964 65.24 158.384 63.86ZM162.896 67.184H163.952C163.952 67.184 163.94 67.544 163.928 67.7C163.748 72.296 163.556 73.892 163.148 74.408C162.896 74.744 162.62 74.84 162.236 74.888C161.888 74.936 161.3 74.924 160.724 74.888C160.7 74.612 160.592 74.204 160.424 73.94C161.012 73.988 161.528 74 161.768 74C161.972 74 162.092 73.964 162.212 73.82C162.536 73.448 162.74 71.816 162.896 67.412V67.184ZM154.268 64.82L154.904 64.052C155.612 64.364 156.548 64.892 157.016 65.276L156.356 66.14C155.9 65.744 154.988 65.18 154.268 64.82ZM153.608 68.276L154.232 67.508C154.916 67.82 155.792 68.324 156.224 68.708L155.576 69.572C155.168 69.176 154.292 68.624 153.608 68.276ZM153.956 74.192C154.448 73.256 155.12 71.696 155.624 70.304L156.488 70.928C156.044 72.2 155.468 73.664 154.952 74.816L153.956 74.192ZM167.792 65.672H170.72V66.752H167.792V65.672ZM172.364 63.884H173.552V75.008H172.364V63.884ZM166.688 68.42L167.444 67.712C168.284 68.444 169.412 69.488 169.94 70.172L169.124 70.976C168.62 70.292 167.54 69.188 166.688 68.42ZM167.756 63.86L168.896 64.076C168.404 66.368 167.576 68.516 166.484 69.896C166.28 69.704 165.788 69.344 165.524 69.176C166.604 67.952 167.348 65.96 167.756 63.86ZM170.324 65.672H170.552L170.768 65.636L171.572 65.864C170.972 70.676 169.16 73.568 166.544 74.984C166.352 74.708 165.884 74.228 165.584 74.036C168.164 72.764 169.832 70.232 170.324 65.96V65.672ZM173.084 68.168L173.972 67.508C174.908 68.312 176.192 69.476 176.804 70.232L175.856 71.012C175.28 70.244 174.044 69.032 173.084 68.168ZM177.812 64.424H181.676V65.42H177.812V64.424ZM177.536 68.252H182.108V69.272H177.536V68.252ZM179.432 68.78H180.524V73.748C180.524 74.312 180.428 74.624 180.032 74.792C179.648 74.972 179.084 74.984 178.268 74.984C178.22 74.672 178.064 74.216 177.92 73.904C178.484 73.916 179.048 73.916 179.216 73.916C179.384 73.904 179.432 73.868 179.432 73.724V68.78ZM181.328 64.424H181.58L181.784 64.364L182.492 64.856C181.904 65.792 181.052 66.848 180.284 67.508C180.128 67.304 179.828 66.992 179.636 66.836C180.272 66.272 180.992 65.3 181.328 64.64V64.424ZM181.784 68.252H181.94L182.096 68.216L182.804 68.396C182.516 69.356 182.156 70.436 181.856 71.12L181.004 70.916C181.268 70.292 181.58 69.248 181.784 68.408V68.252ZM178.088 66.74L178.676 65.996C179.672 66.488 180.908 67.268 181.508 67.856L180.872 68.696C180.308 68.084 179.096 67.256 178.088 66.74ZM182.504 64.4H188.624V65.36H182.504V64.4ZM183.992 69.008V70.004H187.148V69.008H183.992ZM183.992 70.808V71.816H187.148V70.808H183.992ZM183.992 67.208V68.204H187.148V67.208H183.992ZM182.948 66.356H188.24V72.668H182.948V66.356ZM184.988 64.892L186.272 65.048C186.068 65.768 185.828 66.524 185.636 67.04L184.64 66.848C184.772 66.296 184.928 65.468 184.988 64.892ZM184.136 72.8L185.096 73.4C184.436 74.036 183.296 74.696 182.348 75.056C182.18 74.84 181.832 74.492 181.592 74.3C182.54 73.964 183.62 73.328 184.136 72.8ZM185.948 73.448L186.788 72.872C187.496 73.304 188.42 73.952 188.9 74.408L188 75.044C187.568 74.6 186.656 73.916 185.948 73.448ZM194.084 64.868H200.432V65.696H194.084V64.868ZM193.844 67.748H200.672V68.576H193.844V67.748ZM193.796 72.212H200.708V73.052H193.796V72.212ZM194.384 66.296H200.24V67.088H194.384V66.296ZM195.476 63.884H196.472V68.096H195.476V63.884ZM198.02 63.884H199.028V68.096H198.02V63.884ZM196.736 68.12H197.732V72.464H196.736V68.12ZM199.016 69.164H200.06V73.916C200.06 74.432 199.952 74.696 199.604 74.852C199.232 75.008 198.68 75.008 197.852 75.008C197.804 74.744 197.672 74.348 197.54 74.096C198.104 74.108 198.656 74.108 198.812 74.108C198.968 74.096 199.016 74.06 199.016 73.916V69.164ZM194.504 69.164H199.46V69.992H195.524V75.032H194.504V69.164ZM195.02 70.712H199.448V71.456H195.02V70.712ZM190.688 72.164L191.696 72.392C191.396 73.388 190.868 74.384 190.316 75.032C190.124 74.876 189.704 74.588 189.464 74.456C190.004 73.88 190.46 73.016 190.688 72.164ZM192.152 72.512L193.004 72.14C193.4 72.74 193.832 73.532 194.024 74.048L193.136 74.468C192.956 73.952 192.536 73.124 192.152 72.512ZM191.084 67.46V68.828H192.62V67.46H191.084ZM191.084 69.68V71.06H192.62V69.68H191.084ZM191.084 65.252V66.596H192.62V65.252H191.084ZM190.1 64.328H193.616V71.984H190.1V64.328ZM202.484 67.688H211.388V68.624H203.564V74.984H202.484V67.688ZM210.812 67.688H211.856V73.868C211.856 74.408 211.724 74.66 211.328 74.804C210.944 74.936 210.308 74.948 209.312 74.948C209.264 74.696 209.12 74.336 208.988 74.096C209.66 74.12 210.356 74.108 210.536 74.096C210.74 74.096 210.812 74.036 210.812 73.868V67.688ZM205.448 70.664H209.384V73.496H205.448V72.692H208.448V71.48H205.448V70.664ZM204.848 70.664H205.808V74.036H204.848V70.664ZM201.848 65.108H212.468V66.08H201.848V65.108ZM204.38 66.344L205.352 66.032C205.604 66.452 205.928 67.016 206.084 67.364L205.076 67.748C204.932 67.388 204.632 66.788 204.38 66.344ZM208.892 66.092L210.032 66.344C209.648 66.98 209.216 67.688 208.868 68.132L207.992 67.892C208.304 67.4 208.7 66.632 208.892 66.092ZM206.372 64.076L207.452 63.8C207.656 64.292 207.884 64.928 208.004 65.336L206.876 65.66C206.78 65.24 206.564 64.568 206.372 64.076ZM205.52 68.18H206.516C206.396 69.632 205.928 70.412 204.068 70.82C203.996 70.592 203.744 70.22 203.552 70.04C205.1 69.764 205.436 69.26 205.52 68.18ZM207.608 68.192H208.616V69.188C208.616 69.452 208.64 69.548 208.844 69.548C209 69.548 209.552 69.548 209.72 69.548C209.9 69.548 210.224 69.536 210.392 69.488C210.416 69.752 210.428 70.028 210.464 70.268C210.308 70.328 209.996 70.34 209.744 70.34C209.516 70.34 208.808 70.34 208.604 70.34C207.764 70.34 207.608 69.968 207.608 69.176V68.192ZM216.884 65.456V67.448H221.432V65.456H216.884ZM215.78 64.376H222.584V68.528H215.78V64.376ZM214.076 69.692H218.492V74.924H217.352V70.772H215.156V75.008H214.076V69.692ZM219.668 69.692H224.288V74.948H223.148V70.772H220.76V75.008H219.668V69.692ZM214.556 73.292H217.82V74.384H214.556V73.292ZM220.208 73.292H223.688V74.384H220.208V73.292ZM228.868 64.364H231.748V65.384H229.864V74.984H228.868V64.364ZM231.544 64.364H231.736L231.904 64.316L232.648 64.748C232.312 65.744 231.892 66.932 231.52 67.88C232.324 68.864 232.504 69.716 232.504 70.448C232.504 71.156 232.36 71.672 232 71.936C231.832 72.068 231.604 72.14 231.352 72.176C231.124 72.212 230.824 72.212 230.548 72.2C230.548 71.924 230.452 71.492 230.284 71.216C230.536 71.228 230.74 71.24 230.92 71.228C231.04 71.216 231.172 71.192 231.268 71.12C231.424 71 231.496 70.7 231.496 70.34C231.496 69.716 231.316 68.9 230.524 68C230.92 66.92 231.328 65.456 231.544 64.676V64.364ZM233.692 64.388H238.504V69.776H233.692V68.78H237.4V65.372H233.692V64.388ZM233.764 66.596H238.012V67.532H233.764V66.596ZM236.056 69.188C236.548 71.384 237.64 73.184 239.476 73.964C239.224 74.192 238.876 74.636 238.708 74.948C236.764 73.952 235.684 71.948 235.12 69.368L236.056 69.188ZM238.468 70.04L239.212 70.844C238.528 71.396 237.64 71.996 236.98 72.368L236.38 71.66C237.016 71.264 237.94 70.568 238.468 70.04ZM233.14 75.032L233.044 74.036L233.548 73.652L236.176 73.04C236.176 73.364 236.188 73.82 236.224 74.072C233.8 74.708 233.392 74.864 233.14 75.032ZM233.14 75.032C233.056 74.78 232.816 74.324 232.648 74.12C232.852 73.988 233.14 73.712 233.14 73.184V64.388H234.244V73.964C234.244 73.964 233.14 74.624 233.14 75.032ZM243.04 66.02V66.572H248.584V66.02H243.04ZM243.04 64.88V65.42H248.584V64.88H243.04ZM241.948 64.256H249.724V67.196H241.948V64.256ZM242.8 70.76V71.336H248.932V70.76H242.8ZM242.8 69.584V70.148H248.932V69.584H242.8ZM241.732 68.936H250.048V71.984H241.732V68.936ZM245.272 69.164H246.376V74.324H245.272V69.164ZM240.436 67.64H251.272V68.48H240.436V67.64ZM241.432 72.524H250.3V73.28H241.432V72.524ZM240.388 73.868H251.32V74.72H240.388V73.868ZM258.364 70.352H259.54V73.328C259.54 73.712 259.624 73.76 260.14 73.76C260.368 73.76 261.436 73.76 261.736 73.76C262.204 73.76 262.288 73.544 262.336 72.152C262.588 72.332 263.056 72.512 263.38 72.584C263.248 74.324 262.936 74.78 261.832 74.78C261.556 74.78 260.248 74.78 259.984 74.78C258.7 74.78 258.364 74.444 258.364 73.34V70.352ZM255.676 63.836L256.912 64.076C256.036 65.576 254.788 67.148 253.036 68.408C252.868 68.144 252.496 67.76 252.232 67.58C253.852 66.488 255.04 65.036 255.676 63.836ZM254.74 67.904V69.764H261.22V67.904H254.74ZM253.6 66.896H262.42V70.784H253.6V66.896ZM258.976 64.736H259.228L259.42 64.688L260.2 65.192C259.744 65.996 258.988 66.992 258.364 67.616C258.148 67.448 257.764 67.208 257.512 67.064C258.064 66.5 258.7 65.564 258.976 64.952V64.736ZM255.64 64.736H259.312V65.672H255.064L255.64 64.736ZM257.332 67.568H258.532C258.268 70.868 257.692 73.64 253.036 74.912C252.916 74.624 252.64 74.192 252.388 73.952C256.78 72.86 257.116 70.448 257.332 67.568ZM270.76 65.552H271.864V73.388H270.76V65.552ZM269.236 69.572V70.244H273.448V69.572H269.236ZM269.236 68.228V68.888H273.448V68.228H269.236ZM268.3 67.496H274.42V70.976H268.3V67.496ZM267.64 64.28H274.936V66.512H273.844V65.132H268.684V66.512H267.64V64.28ZM268.588 66.08H274.06V66.896H268.588V66.08ZM267.736 71.624H275.08V72.488H267.736V71.624ZM264.748 64.376L265.612 63.872C266.14 64.46 266.764 65.228 267.076 65.72L266.176 66.32C265.888 65.816 265.252 64.976 264.748 64.376ZM264.376 66.68H266.896V67.604H264.376V66.68ZM266.644 72.032C267.34 73.628 268.84 73.832 271.144 73.844C272.416 73.844 274.276 73.784 275.56 73.664C275.392 73.892 275.26 74.408 275.2 74.72C274.012 74.792 272.488 74.816 271.132 74.816C268.324 74.816 266.788 74.48 265.888 72.356L266.644 72.032ZM266.44 69.62H266.776L266.956 69.596L267.448 69.788C267.088 72.368 266.164 74.108 264.904 75.044C264.76 74.816 264.376 74.432 264.16 74.276C265.348 73.46 266.152 71.936 266.44 69.8V69.62ZM264.58 70.688V69.86L265.048 69.62H266.884V70.52H265.3C265 70.52 264.676 70.592 264.58 70.688ZM264.58 70.688C264.508 70.448 264.292 69.944 264.184 69.728C264.376 69.68 264.568 69.596 264.784 69.356C265.132 69.008 266.224 67.412 266.62 66.764V66.728L266.932 66.596L267.64 66.92C267.088 67.748 266.044 69.26 265.384 70.04C265.384 70.04 264.58 70.424 264.58 70.688Z" fill="#003060"/>
<path d="M144.852 80.388H152.34V81.228H144.852V80.388ZM146.256 82.812H150.924V83.328H146.256V82.812ZM146.256 83.784H150.924V84.312H146.256V83.784ZM145.668 81.768H151.476V85.092H150.42V82.368H146.7V85.092H145.668V81.768ZM144.528 84.78H152.568V86.436H151.536V85.452H145.5V86.436H144.528V84.78ZM146.196 85.74L146.88 86.112C146.592 86.58 146.16 87.12 145.644 87.456L144.996 86.94C145.476 86.664 145.932 86.172 146.196 85.74ZM146.796 85.764H147.708V86.412C147.708 86.64 147.78 86.676 148.152 86.676C148.32 86.676 149.208 86.676 149.448 86.676C149.712 86.676 149.772 86.616 149.82 86.196C149.988 86.304 150.324 86.4 150.552 86.436C150.468 87.132 150.24 87.324 149.58 87.324C149.364 87.324 148.248 87.324 148.032 87.324C147.048 87.324 146.796 87.144 146.796 86.412V85.764ZM147.852 85.68L148.476 85.32C148.848 85.548 149.316 85.908 149.556 86.148L148.908 86.556C148.68 86.304 148.224 85.932 147.852 85.68ZM150.132 86.076L150.744 85.704C151.224 86.112 151.8 86.688 152.076 87.084L151.44 87.492C151.176 87.108 150.612 86.508 150.132 86.076ZM147.384 87.036L148.38 87.228C147.612 88.164 146.544 89.004 145.068 89.688C144.936 89.472 144.636 89.16 144.432 89.028C145.8 88.476 146.808 87.72 147.384 87.036ZM150.444 87.768H150.66L150.852 87.732L151.548 88.116C150.516 89.652 148.176 90.612 144.804 91.044C144.696 90.804 144.468 90.444 144.252 90.216C147.456 89.88 149.676 89.052 150.444 87.948V87.768ZM145.956 87.66C147.096 89.124 149.58 89.916 152.52 90.156C152.316 90.372 152.076 90.756 151.956 91.02C148.932 90.684 146.448 89.748 145.104 87.96L145.956 87.66ZM147.024 87.768H150.732V88.488H146.316L147.024 87.768ZM147.924 80.772L149.16 80.916C148.968 81.396 148.776 81.852 148.632 82.176L147.648 82.02C147.756 81.636 147.876 81.132 147.924 80.772ZM143.64 79.92L144.696 80.22C144.036 82.296 143.004 84.492 141.84 85.908C141.744 85.632 141.456 85.008 141.264 84.708C142.236 83.532 143.112 81.732 143.64 79.92ZM142.764 83.016L143.808 81.972L143.844 81.996V91.008H142.764V83.016ZM153.852 80.544H164.1V81.456H153.852V80.544ZM158.328 79.884H159.492V86.772H158.328V79.884ZM155.688 84.18V84.864H162.156V84.18H155.688ZM155.688 82.824V83.508H162.156V82.824H155.688ZM154.62 82.128H163.272V85.584H154.62V82.128ZM160.644 85.98L161.412 85.44C162.42 85.872 163.608 86.64 164.208 87.228L163.428 87.852C162.828 87.24 161.664 86.436 160.644 85.98ZM153.864 86.412C156.072 86.424 159.6 86.412 162.9 86.364L162.84 87.24C159.6 87.312 156.156 87.372 153.912 87.384L153.864 86.412ZM156.108 87.984H157.236V89.532C157.236 89.856 157.356 89.904 158.088 89.904C158.424 89.904 160.032 89.904 160.476 89.904C161.052 89.904 161.16 89.76 161.208 88.764C161.46 88.92 161.904 89.076 162.204 89.136C162.06 90.516 161.736 90.84 160.572 90.84C160.236 90.84 158.316 90.84 158.004 90.84C156.504 90.84 156.108 90.564 156.108 89.544V87.984ZM157.872 87.888L158.604 87.276C159.288 87.636 160.14 88.212 160.548 88.632L159.78 89.316C159.396 88.884 158.568 88.272 157.872 87.888ZM161.988 88.272L162.96 87.936C163.536 88.644 164.112 89.592 164.316 90.252L163.284 90.6C163.08 89.976 162.54 89.004 161.988 88.272ZM154.656 87.9L155.628 88.308C155.364 89.076 154.98 90.036 154.5 90.66L153.528 90.108C154.008 89.544 154.416 88.632 154.656 87.9ZM165.528 80.388H170.004V81.42H165.528V80.388ZM166.836 84.168H169.596V89.508H166.836V88.524H168.6V85.164H166.836V84.168ZM166.92 80.916L167.988 81.072C167.628 83.628 167.004 86.076 165.864 87.672C165.756 87.42 165.432 86.868 165.228 86.616C166.164 85.272 166.644 83.136 166.92 80.916ZM166.344 84.168H167.328V90.48H166.344V84.168ZM171.012 82.248H175.848V83.148H171.012V82.248ZM171.012 84.072H175.848V84.984H171.012V84.072ZM170.46 85.944H175.692V86.94H170.46V85.944ZM172.944 80.868H173.964V86.352H172.944V80.868ZM171.468 87.84L172.224 87.732C172.368 88.44 172.452 89.34 172.44 89.928L171.636 90.06C171.66 89.46 171.588 88.548 171.468 87.84ZM172.728 87.756L173.436 87.564C173.676 88.14 173.892 88.896 173.976 89.388L173.232 89.604C173.16 89.112 172.956 88.344 172.728 87.756ZM173.928 87.504L174.516 87.264C174.84 87.696 175.152 88.284 175.296 88.656L174.66 88.944C174.528 88.548 174.228 87.96 173.928 87.504ZM170.292 87.408L171.132 87.624C171.024 88.668 170.808 89.796 170.244 90.468L169.452 90.036C169.956 89.424 170.184 88.392 170.292 87.408ZM170.46 80.352H176.16V81.336H171.504V86.46H170.46V80.352ZM175.356 85.944H176.4C176.4 85.944 176.388 86.244 176.376 86.388C176.256 89.184 176.124 90.252 175.812 90.624C175.596 90.876 175.368 90.972 175.044 91.008C174.756 91.032 174.252 91.044 173.724 91.02C173.712 90.72 173.604 90.312 173.436 90.036C173.916 90.084 174.36 90.096 174.54 90.096C174.72 90.096 174.816 90.06 174.924 89.952C175.128 89.712 175.26 88.74 175.356 86.124V85.944ZM183 83.628C182.448 83.628 181.992 83.22 181.992 82.632C181.992 82.032 182.448 81.624 183 81.624C183.54 81.624 184.008 82.032 184.008 82.632C184.008 83.22 183.54 83.628 183 83.628ZM183 89.436C182.448 89.436 181.992 89.028 181.992 88.44C181.992 87.84 182.448 87.432 183 87.432C183.54 87.432 184.008 87.84 184.008 88.44C184.008 89.028 183.54 89.436 183 89.436Z" fill="#003060"/>
<path d="M191.736 90L188.976 81.168H190.452L191.76 85.74C192.048 86.76 192.264 87.612 192.564 88.632H192.624C192.936 87.612 193.14 86.76 193.428 85.74L194.724 81.168H196.152L193.392 90H191.736ZM197.277 90V81.168H198.681V90H197.277ZM200.98 90V81.168H203.668C205.636 81.168 207.04 81.84 207.04 83.844C207.04 85.776 205.636 86.652 203.716 86.652H202.384V90H200.98ZM202.384 85.536H203.584C204.988 85.536 205.66 84.996 205.66 83.844C205.66 82.668 204.94 82.296 203.524 82.296H202.384V85.536ZM211.281 90.168C209.589 90.168 208.221 88.836 208.221 85.992C208.221 82.608 209.817 81.252 211.557 81.252C212.553 81.252 213.273 81.672 213.777 82.188L213.021 83.04C212.697 82.656 212.157 82.392 211.629 82.392C210.477 82.392 209.517 83.292 209.517 85.992C209.517 88.116 210.189 89.1 211.257 89.1C212.037 89.1 212.637 88.452 212.637 87.372C212.637 86.316 212.121 85.728 211.185 85.728C210.657 85.728 210.033 86.028 209.493 86.856L209.445 85.836C209.961 85.14 210.765 84.72 211.425 84.72C212.913 84.72 213.921 85.596 213.921 87.372C213.921 89.064 212.709 90.168 211.281 90.168ZM218.125 90.168C216.433 90.168 215.065 88.836 215.065 85.992C215.065 82.608 216.661 81.252 218.401 81.252C219.397 81.252 220.117 81.672 220.621 82.188L219.865 83.04C219.541 82.656 219.001 82.392 218.473 82.392C217.321 82.392 216.361 83.292 216.361 85.992C216.361 88.116 217.033 89.1 218.101 89.1C218.881 89.1 219.481 88.452 219.481 87.372C219.481 86.316 218.965 85.728 218.029 85.728C217.501 85.728 216.877 86.028 216.337 86.856L216.289 85.836C216.805 85.14 217.609 84.72 218.269 84.72C219.757 84.72 220.765 85.596 220.765 87.372C220.765 89.064 219.553 90.168 218.125 90.168ZM224.969 90.168C223.277 90.168 221.909 88.836 221.909 85.992C221.909 82.608 223.505 81.252 225.245 81.252C226.241 81.252 226.961 81.672 227.465 82.188L226.709 83.04C226.385 82.656 225.845 82.392 225.317 82.392C224.165 82.392 223.205 83.292 223.205 85.992C223.205 88.116 223.877 89.1 224.945 89.1C225.725 89.1 226.325 88.452 226.325 87.372C226.325 86.316 225.809 85.728 224.873 85.728C224.345 85.728 223.721 86.028 223.181 86.856L223.133 85.836C223.649 85.14 224.453 84.72 225.113 84.72C226.601 84.72 227.609 85.596 227.609 87.372C227.609 89.064 226.397 90.168 224.969 90.168ZM231.573 90.168C229.905 90.168 228.693 89.184 228.693 87.816C228.693 86.712 229.461 85.98 230.265 85.548V85.5C229.617 85.044 229.077 84.408 229.077 83.508C229.077 82.14 230.157 81.252 231.609 81.252C233.145 81.252 234.093 82.188 234.093 83.556C234.093 84.432 233.481 85.164 232.941 85.56V85.62C233.721 86.076 234.429 86.7 234.429 87.852C234.429 89.16 233.277 90.168 231.573 90.168ZM232.149 85.224C232.665 84.732 232.941 84.216 232.941 83.628C232.941 82.848 232.437 82.248 231.585 82.248C230.865 82.248 230.325 82.728 230.325 83.508C230.325 84.432 231.165 84.828 232.149 85.224ZM231.597 89.16C232.497 89.16 233.121 88.632 233.121 87.804C233.121 86.796 232.137 86.448 230.949 85.956C230.349 86.376 229.905 86.952 229.905 87.672C229.905 88.548 230.637 89.16 231.597 89.16ZM239.04 90V84.492C239.04 84.012 239.076 83.232 239.112 82.752H239.052C238.836 83.184 238.596 83.592 238.344 84.048L236.616 86.652H241.464V87.732H235.224V86.796L238.728 81.408H240.336V90H239.04ZM244.132 90C244.288 86.892 244.9 84.912 246.568 82.584H242.416V81.408H248.092V82.26C246.076 84.792 245.704 86.652 245.548 90H244.132Z" fill="#BD001E"/>
<g filter="url(#filter2_d_1130_584)">
<path d="M23 40C23 38.3431 24.3431 37 26 37H56C57.6569 37 59 38.3431 59 40V52C59 53.6569 57.6569 55 56 55H23V40Z" fill="#FFCD78"/>
</g>
<path d="M23 55H28V60L25.5 57.5L23 55Z" fill="#FFCD78"/>
<path d="M31.85 41.97H34.25V42.82H32.68V50.82H31.85V41.97ZM34.08 41.97H34.24L34.38 41.93L35 42.29C34.72 43.12 34.37 44.11 34.06 44.9C34.73 45.72 34.88 46.43 34.88 47.04C34.88 47.63 34.76 48.06 34.46 48.28C34.32 48.39 34.13 48.45 33.92 48.48C33.73 48.51 33.48 48.51 33.25 48.5C33.25 48.27 33.17 47.91 33.03 47.68C33.24 47.69 33.41 47.7 33.56 47.69C33.66 47.68 33.77 47.66 33.85 47.6C33.98 47.5 34.04 47.25 34.04 46.95C34.04 46.43 33.89 45.75 33.23 45C33.56 44.1 33.9 42.88 34.08 42.23V41.97ZM35.87 41.99H39.88V46.48H35.87V45.65H38.96V42.81H35.87V41.99ZM35.93 43.83H39.47V44.61H35.93V43.83ZM37.84 45.99C38.25 47.82 39.16 49.32 40.69 49.97C40.48 50.16 40.19 50.53 40.05 50.79C38.43 49.96 37.53 48.29 37.06 46.14L37.84 45.99ZM39.85 46.7L40.47 47.37C39.9 47.83 39.16 48.33 38.61 48.64L38.11 48.05C38.64 47.72 39.41 47.14 39.85 46.7ZM35.41 50.86L35.33 50.03L35.75 49.71L37.94 49.2C37.94 49.47 37.95 49.85 37.98 50.06C35.96 50.59 35.62 50.72 35.41 50.86ZM35.41 50.86C35.34 50.65 35.14 50.27 35 50.1C35.17 49.99 35.41 49.76 35.41 49.32V41.99H36.33V49.97C36.33 49.97 35.41 50.52 35.41 50.86ZM43.66 43.35V43.81H48.28V43.35H43.66ZM43.66 42.4V42.85H48.28V42.4H43.66ZM42.75 41.88H49.23V44.33H42.75V41.88ZM43.46 47.3V47.78H48.57V47.3H43.46ZM43.46 46.32V46.79H48.57V46.32H43.46ZM42.57 45.78H49.5V48.32H42.57V45.78ZM45.52 45.97H46.44V50.27H45.52V45.97ZM41.49 44.7H50.52V45.4H41.49V44.7ZM42.32 48.77H49.71V49.4H42.32V48.77ZM41.45 49.89H50.56V50.6H41.45V49.89Z" fill="white"/>
<path d="M144.85 41.97H147.25V42.82H145.68V50.82H144.85V41.97ZM147.08 41.97H147.24L147.38 41.93L148 42.29C147.72 43.12 147.37 44.11 147.06 44.9C147.73 45.72 147.88 46.43 147.88 47.04C147.88 47.63 147.76 48.06 147.46 48.28C147.32 48.39 147.13 48.45 146.92 48.48C146.73 48.51 146.48 48.51 146.25 48.5C146.25 48.27 146.17 47.91 146.03 47.68C146.24 47.69 146.41 47.7 146.56 47.69C146.66 47.68 146.77 47.66 146.85 47.6C146.98 47.5 147.04 47.25 147.04 46.95C147.04 46.43 146.89 45.75 146.23 45C146.56 44.1 146.9 42.88 147.08 42.23V41.97ZM148.87 41.99H152.88V46.48H148.87V45.65H151.96V42.81H148.87V41.99ZM148.93 43.83H152.47V44.61H148.93V43.83ZM150.84 45.99C151.25 47.82 152.16 49.32 153.69 49.97C153.48 50.16 153.19 50.53 153.05 50.79C151.43 49.96 150.53 48.29 150.06 46.14L150.84 45.99ZM152.85 46.7L153.47 47.37C152.9 47.83 152.16 48.33 151.61 48.64L151.11 48.05C151.64 47.72 152.41 47.14 152.85 46.7ZM148.41 50.86L148.33 50.03L148.75 49.71L150.94 49.2C150.94 49.47 150.95 49.85 150.98 50.06C148.96 50.59 148.62 50.72 148.41 50.86ZM148.41 50.86C148.34 50.65 148.14 50.27 148 50.1C148.17 49.99 148.41 49.76 148.41 49.32V41.99H149.33V49.97C149.33 49.97 148.41 50.52 148.41 50.86ZM156.66 43.35V43.81H161.28V43.35H156.66ZM156.66 42.4V42.85H161.28V42.4H156.66ZM155.75 41.88H162.23V44.33H155.75V41.88ZM156.46 47.3V47.78H161.57V47.3H156.46ZM156.46 46.32V46.79H161.57V46.32H156.46ZM155.57 45.78H162.5V48.32H155.57V45.78ZM158.52 45.97H159.44V50.27H158.52V45.97ZM154.49 44.7H163.52V45.4H154.49V44.7ZM155.32 48.77H162.71V49.4H155.32V48.77ZM154.45 49.89H163.56V50.6H154.45V49.89Z" fill="white"/>
<path d="M152 117C157.523 117 162 112.523 162 107C162 101.477 157.523 97 152 97C146.477 97 142 101.477 142 107C142 112.523 146.477 117 152 117Z" stroke="#7A7A7A" stroke-width="2" stroke-linecap="round" stroke-linejoin="round"/>
<path d="M152 101V107L156 109" stroke="#7A7A7A" stroke-width="2" stroke-linecap="round" stroke-linejoin="round"/>
<rect x="141" y="37" width="49" height="18" rx="2" fill="#003060"/>
<path d="M149.47 44.82H150.45V50.84H149.47V44.82ZM147.46 46.55V47.27H152.59V46.55H147.46ZM147.46 45.13V45.85H152.59V45.13H147.46ZM146.53 44.39H153.56V48.01H146.53V44.39ZM145.55 48.67H154.46V49.5H145.55V48.67ZM147.07 42.55V43.34H148.77V42.55H147.07ZM146.23 41.95H149.66V43.93H146.23V41.95ZM151.22 42.55V43.34H152.94V42.55H151.22ZM150.37 41.95H153.83V43.93H150.37V41.95ZM155.47 45.52H164.54V46.22H155.47V45.52ZM156.28 47.93H163.72V48.64H156.28V47.93ZM155.65 49.15H164.37V49.88H155.65V49.15ZM156.67 44.35H163.48V47.44H156.58V46.76H162.52V45.03H156.67V44.35ZM159.48 43.84H160.45V50.84H159.48V43.84ZM156.75 42.13H159.91V42.86H156.75V42.13ZM160.83 42.13H164.59V42.86H160.83V42.13ZM156.89 41.48L157.72 41.73C157.32 42.57 156.65 43.41 156.01 43.95C155.88 43.78 155.56 43.46 155.37 43.3C155.98 42.85 156.56 42.17 156.89 41.48ZM160.94 41.48L161.81 41.71C161.47 42.52 160.88 43.32 160.3 43.82C160.14 43.67 159.79 43.39 159.59 43.25C160.16 42.82 160.66 42.16 160.94 41.48ZM157.43 43.22L158.04 42.77C158.35 43.05 158.74 43.45 158.92 43.71L158.28 44.22C158.11 43.95 157.73 43.52 157.43 43.22ZM161.79 43.19L162.45 42.76C162.76 43.03 163.15 43.43 163.34 43.69L162.66 44.19C162.49 43.91 162.11 43.49 161.79 43.19ZM165.87 44.6H169.01V45.33H165.87V44.6ZM165.87 45.93H169V46.66H165.87V45.93ZM165.43 43.24H169.31V44.01H165.43V43.24ZM166.3 47.29H168.97V50.26H166.3V49.49H168.15V48.06H166.3V47.29ZM165.87 47.29H166.69V50.71H165.87V47.29ZM166.53 41.88L167.27 41.52C167.56 41.93 167.87 42.47 168.03 42.83L167.26 43.26C167.12 42.89 166.8 42.3 166.53 41.88ZM169.51 42.37H174.64V43.29H169.51V42.37ZM172.25 42.66H173.21V49.53C173.21 50.12 173.07 50.41 172.67 50.57C172.26 50.73 171.6 50.74 170.63 50.74C170.58 50.47 170.41 50.02 170.25 49.76C170.98 49.8 171.75 49.79 171.97 49.78C172.17 49.77 172.25 49.71 172.25 49.52V42.66ZM179.47 44.82H180.45V50.84H179.47V44.82ZM177.46 46.55V47.27H182.59V46.55H177.46ZM177.46 45.13V45.85H182.59V45.13H177.46ZM176.53 44.39H183.56V48.01H176.53V44.39ZM175.55 48.67H184.46V49.5H175.55V48.67ZM177.07 42.55V43.34H178.77V42.55H177.07ZM176.23 41.95H179.66V43.93H176.23V41.95ZM181.22 42.55V43.34H182.94V42.55H181.22ZM180.37 41.95H183.83V43.93H180.37V41.95Z" fill="white"/>
<path d="M201.559 41.6H211.669V42.86H201.559V41.6ZM203.554 47.975H204.739V48.875H203.554V47.975ZM205.864 44.87H207.124V54.125H205.864V44.87ZM210.019 46.07H211.294V52.97C211.294 53.57 211.174 53.87 210.769 54.05C210.379 54.23 209.764 54.23 208.864 54.23C208.819 53.915 208.669 53.48 208.534 53.18C209.089 53.195 209.644 53.195 209.809 53.18C209.974 53.18 210.019 53.135 210.019 52.97V46.07ZM201.844 46.07H210.649V47.27H203.059V54.245H201.844V46.07ZM198.409 41.51L199.219 40.49C200.059 40.865 201.094 41.48 201.619 41.96L200.764 43.1C200.284 42.605 199.249 41.93 198.409 41.51ZM197.794 45.545L198.574 44.495C199.444 44.84 200.509 45.395 201.034 45.86L200.209 47.015C199.699 46.55 198.649 45.92 197.794 45.545ZM198.079 53.345C198.679 52.19 199.504 50.255 200.104 48.545L201.244 49.28C200.704 50.87 199.999 52.67 199.354 54.095L198.079 53.345ZM203.719 40.325H205.069V43.94H208.009V40.325H209.404V45.155H203.719V40.325ZM204.109 47.975H205.009C205.069 49.67 205.399 51.02 206.059 51.665C205.879 51.77 205.564 52.055 205.429 52.265C204.739 51.5 204.379 50.12 204.304 48.41H204.109V47.975ZM204.094 49.37H204.904C204.769 50.54 204.409 51.68 203.584 52.4C203.464 52.22 203.194 51.935 203.014 51.815C203.689 51.245 204.004 50.27 204.094 49.37ZM207.589 47.975H208.729V48.875H207.589V47.975ZM208.129 47.975H209.044C209.104 49.67 209.479 51.005 210.184 51.62C209.989 51.755 209.674 52.025 209.524 52.235C208.804 51.47 208.399 50.12 208.324 48.41H208.129V47.975ZM208.129 49.355H208.954C208.819 50.495 208.459 51.575 207.604 52.265C207.484 52.085 207.229 51.8 207.019 51.68C207.724 51.155 208.039 50.225 208.129 49.355ZM219.313 53.21C218.038 53.21 217.123 52.685 216.493 52.025L217.423 50.96C217.873 51.455 218.548 51.785 219.238 51.785C220.633 51.785 221.818 50.615 221.818 47.105C221.818 44.345 220.963 43.085 219.613 43.085C218.653 43.085 217.903 43.94 217.903 45.395C217.903 46.79 218.548 47.6 219.703 47.6C220.393 47.6 221.173 47.21 221.818 46.205L221.908 47.465C221.263 48.32 220.273 48.86 219.388 48.86C217.543 48.86 216.298 47.705 216.298 45.395C216.298 43.19 217.798 41.765 219.598 41.765C221.713 41.765 223.423 43.46 223.423 47.105C223.423 51.455 221.443 53.21 219.313 53.21ZM227.868 53.21C226.593 53.21 225.678 52.685 225.048 52.025L225.978 50.96C226.428 51.455 227.103 51.785 227.793 51.785C229.188 51.785 230.373 50.615 230.373 47.105C230.373 44.345 229.518 43.085 228.168 43.085C227.208 43.085 226.458 43.94 226.458 45.395C226.458 46.79 227.103 47.6 228.258 47.6C228.948 47.6 229.728 47.21 230.373 46.205L230.463 47.465C229.818 48.32 228.828 48.86 227.943 48.86C226.098 48.86 224.853 47.705 224.853 45.395C224.853 43.19 226.353 41.765 228.153 41.765C230.268 41.765 231.978 43.46 231.978 47.105C231.978 51.455 229.998 53.21 227.868 53.21ZM236.422 53.21C235.147 53.21 234.232 52.685 233.602 52.025L234.532 50.96C234.982 51.455 235.657 51.785 236.347 51.785C237.742 51.785 238.927 50.615 238.927 47.105C238.927 44.345 238.072 43.085 236.722 43.085C235.762 43.085 235.012 43.94 235.012 45.395C235.012 46.79 235.657 47.6 236.812 47.6C237.502 47.6 238.282 47.21 238.927 46.205L239.017 47.465C238.372 48.32 237.382 48.86 236.497 48.86C234.652 48.86 233.407 47.705 233.407 45.395C233.407 43.19 234.907 41.765 236.707 41.765C238.822 41.765 240.532 43.46 240.532 47.105C240.532 51.455 238.552 53.21 236.422 53.21ZM252.846 48.44H254.316V52.16C254.316 52.64 254.421 52.7 255.066 52.7C255.351 52.7 256.686 52.7 257.061 52.7C257.646 52.7 257.751 52.43 257.811 50.69C258.126 50.915 258.711 51.14 259.116 51.23C258.951 53.405 258.561 53.975 257.181 53.975C256.836 53.975 255.201 53.975 254.871 53.975C253.266 53.975 252.846 53.555 252.846 52.175V48.44ZM249.486 40.295L251.031 40.595C249.936 42.47 248.376 44.435 246.186 46.01C245.976 45.68 245.511 45.2 245.181 44.975C247.206 43.61 248.691 41.795 249.486 40.295ZM248.316 45.38V47.705H256.416V45.38H248.316ZM246.891 44.12H257.916V48.98H246.891V44.12ZM253.611 41.42H253.926L254.166 41.36L255.141 41.99C254.571 42.995 253.626 44.24 252.846 45.02C252.576 44.81 252.096 44.51 251.781 44.33C252.471 43.625 253.266 42.455 253.611 41.69V41.42ZM249.441 41.42H254.031V42.59H248.721L249.441 41.42ZM251.556 44.96H253.056C252.726 49.085 252.006 52.55 246.186 54.14C246.036 53.78 245.691 53.24 245.376 52.94C250.866 51.575 251.286 48.56 251.556 44.96ZM268.341 42.44H269.721V52.235H268.341V42.44ZM266.436 47.465V48.305H271.701V47.465H266.436ZM266.436 45.785V46.61H271.701V45.785H266.436ZM265.266 44.87H272.916V49.22H265.266V44.87ZM264.441 40.85H273.561V43.64H272.196V41.915H265.746V43.64H264.441V40.85ZM265.626 43.1H272.466V44.12H265.626V43.1ZM264.561 50.03H273.741V51.11H264.561V50.03ZM260.826 40.97L261.906 40.34C262.566 41.075 263.346 42.035 263.736 42.65L262.611 43.4C262.251 42.77 261.456 41.72 260.826 40.97ZM260.361 43.85H263.511V45.005H260.361V43.85ZM263.196 50.54C264.066 52.535 265.941 52.79 268.821 52.805C270.411 52.805 272.736 52.73 274.341 52.58C274.131 52.865 273.966 53.51 273.891 53.9C272.406 53.99 270.501 54.02 268.806 54.02C265.296 54.02 263.376 53.6 262.251 50.945L263.196 50.54ZM262.941 47.525H263.361L263.586 47.495L264.201 47.735C263.751 50.96 262.596 53.135 261.021 54.305C260.841 54.02 260.361 53.54 260.091 53.345C261.576 52.325 262.581 50.42 262.941 47.75V47.525ZM260.616 48.86V47.825L261.201 47.525H263.496V48.65H261.516C261.141 48.65 260.736 48.74 260.616 48.86ZM260.616 48.86C260.526 48.56 260.256 47.93 260.121 47.66C260.361 47.6 260.601 47.495 260.871 47.195C261.306 46.76 262.671 44.765 263.166 43.955V43.91L263.556 43.745L264.441 44.15C263.751 45.185 262.446 47.075 261.621 48.05C261.621 48.05 260.616 48.53 260.616 48.86Z" fill="#003060"/>
<path d="M84.6667 60H59.6667V81.6667H84.6667V60Z" stroke="white" stroke-width="2" stroke-linecap="round" stroke-linejoin="round"/>
<path d="M84.6667 68.3335H91.3334L96.3334 73.3335V81.6668H84.6667V68.3335Z" stroke="white" stroke-width="2" stroke-linecap="round" stroke-linejoin="round"/>
<path d="M67.1667 89.9998C69.4679 89.9998 71.3333 88.1344 71.3333 85.8332C71.3333 83.532 69.4679 81.6665 67.1667 81.6665C64.8655 81.6665 63 83.532 63 85.8332C63 88.1344 64.8655 89.9998 67.1667 89.9998Z" stroke="white" stroke-width="2" stroke-linecap="round" stroke-linejoin="round"/>
<path d="M88.8334 89.9998C91.1346 89.9998 93.0001 88.1344 93.0001 85.8332C93.0001 83.532 91.1346 81.6665 88.8334 81.6665C86.5322 81.6665 84.6667 83.532 84.6667 85.8332C84.6667 88.1344 86.5322 89.9998 88.8334 89.9998Z" stroke="white" stroke-width="2" stroke-linecap="round" stroke-linejoin="round"/>
<path d="M63.1329 76V68.64H67.5029V69.62H64.3029V71.86H67.0229V72.84H64.3029V76H63.1329ZM68.4235 76V70.5H69.3635L69.4635 71.49H69.4935C69.8835 70.78 70.4635 70.36 71.0535 70.36C71.3235 70.36 71.4935 70.4 71.6635 70.48L71.4635 71.48C71.2735 71.42 71.1335 71.39 70.9035 71.39C70.4635 71.39 69.9235 71.71 69.5835 72.58V76H68.4235ZM74.659 76.14C73.159 76.14 71.979 75.07 71.979 73.26C71.979 71.47 73.209 70.36 74.489 70.36C75.939 70.36 76.729 71.41 76.729 72.97C76.729 73.2 76.709 73.42 76.679 73.56H73.109C73.199 74.61 73.859 75.23 74.809 75.23C75.299 75.23 75.709 75.08 76.119 74.82L76.519 75.56C76.009 75.9 75.379 76.14 74.659 76.14ZM73.089 72.76H75.729C75.729 71.81 75.309 71.27 74.509 71.27C73.819 71.27 73.209 71.8 73.089 72.76ZM80.3231 76.14C78.8231 76.14 77.6431 75.07 77.6431 73.26C77.6431 71.47 78.8731 70.36 80.1531 70.36C81.6031 70.36 82.3931 71.41 82.3931 72.97C82.3931 73.2 82.3731 73.42 82.3431 73.56H78.7731C78.8631 74.61 79.5231 75.23 80.4731 75.23C80.9631 75.23 81.3731 75.08 81.7831 74.82L82.1831 75.56C81.6731 75.9 81.0431 76.14 80.3231 76.14ZM78.7531 72.76H81.3931C81.3931 71.81 80.9731 71.27 80.1731 71.27C79.4831 71.27 78.8731 71.8 78.7531 72.76Z" fill="white"/>
<defs>
<filter id="filter0_d_1130_584" x="124" y="21" width="216" height="116" filterUnits="userSpaceOnUse" color-interpolation-filters="sRGB">
<feFlood flood-opacity="0" result="BackgroundImageFix"/>
<feColorMatrix in="SourceAlpha" type="matrix" values="0 0 0 0 0 0 0 0 0 0 0 0 0 0 0 0 0 0 127 0" result="hardAlpha"/>
<feMorphology radius="4" operator="dilate" in="SourceAlpha" result="effect1_dropShadow_1130_584"/>
<feOffset dx="4" dy="4"/>
<feGaussianBlur stdDeviation="2"/>
<feComposite in2="hardAlpha" operator="out"/>
<feColorMatrix type="matrix" values="0 0 0 0 0 0 0 0 0 0 0 0 0 0 0 0 0 0 0.25 0"/>
<feBlend mode="normal" in2="BackgroundImageFix" result="effect1_dropShadow_1130_584"/>
<feBlend mode="normal" in="SourceGraphic" in2="effect1_dropShadow_1130_584" result="shape"/>
</filter>
<filter id="filter1_d_1130_584" x="24" y="25" width="108" height="108" filterUnits="userSpaceOnUse" color-interpolation-filters="sRGB">
<feFlood flood-opacity="0" result="BackgroundImageFix"/>
<feColorMatrix in="SourceAlpha" type="matrix" values="0 0 0 0 0 0 0 0 0 0 0 0 0 0 0 0 0 0 127 0" result="hardAlpha"/>
<feOffset dy="4"/>
<feGaussianBlur stdDeviation="2"/>
<feComposite in2="hardAlpha" operator="out"/>
<feColorMatrix type="matrix" values="0 0 0 0 0 0 0 0 0 0 0 0 0 0 0 0 0 0 0.25 0"/>
<feBlend mode="normal" in2="BackgroundImageFix" result="effect1_dropShadow_1130_584"/>
<feBlend mode="normal" in="SourceGraphic" in2="effect1_dropShadow_1130_584" result="shape"/>
</filter>
<filter id="filter2_d_1130_584" x="19" y="37" width="44" height="26" filterUnits="userSpaceOnUse" color-interpolation-filters="sRGB">
<feFlood flood-opacity="0" result="BackgroundImageFix"/>
<feColorMatrix in="SourceAlpha" type="matrix" values="0 0 0 0 0 0 0 0 0 0 0 0 0 0 0 0 0 0 127 0" result="hardAlpha"/>
<feOffset dy="4"/>
<feGaussianBlur stdDeviation="2"/>
<feComposite in2="hardAlpha" operator="out"/>
<feColorMatrix type="matrix" values="0 0 0 0 0 0 0 0 0 0 0 0 0 0 0 0 0 0 0.25 0"/>
<feBlend mode="normal" in2="BackgroundImageFix" result="effect1_dropShadow_1130_584"/>
<feBlend mode="normal" in="SourceGraphic" in2="effect1_dropShadow_1130_584" result="shape"/>
</filter>
</defs>
</svg>
