<svg width="350" height="150" viewBox="0 0 350 150" fill="none" xmlns="http://www.w3.org/2000/svg">
<rect width="350" height="150" fill="white"/>
<g filter="url(#filter0_d_1130_561)">
<path d="M128 25H326C327.105 25 328 25.8954 328 27V123C328 124.105 327.105 125 326 125H128V25Z" fill="white"/>
</g>
<g filter="url(#filter1_d_1130_561)">
<path d="M28 27C28 25.8954 28.8954 25 30 25H126C127.105 25 128 25.8954 128 27V123C128 124.105 127.105 125 126 125H30C28.8954 125 28 124.105 28 123V27Z" fill="#3493FB"/>
</g>
<ellipse cx="28.7277" cy="115.259" rx="4" ry="3.33807" transform="rotate(-15 28.7277 115.259)" fill="white"/>
<ellipse cx="28.7277" cy="102.259" rx="4" ry="3.33807" transform="rotate(-15 28.7277 102.259)" fill="white"/>
<ellipse cx="28.7277" cy="89.2594" rx="4" ry="3.33807" transform="rotate(-15 28.7277 89.2594)" fill="white"/>
<ellipse cx="28.7277" cy="76.2594" rx="4" ry="3.33807" transform="rotate(-15 28.7277 76.2594)" fill="white"/>
<ellipse cx="28.7277" cy="63.2594" rx="4" ry="3.33807" transform="rotate(-15 28.7277 63.2594)" fill="white"/>
<ellipse cx="28.7277" cy="50.2594" rx="4" ry="3.33807" transform="rotate(-15 28.7277 50.2594)" fill="white"/>
<ellipse cx="28.7277" cy="31.2594" rx="4" ry="3.33807" transform="rotate(-15 28.7277 31.2594)" fill="white"/>
<line x1="126.5" y1="25" x2="126.5" y2="125" stroke="white" stroke-width="3" stroke-dasharray="2 2"/>
<path d="M91.3334 75V91.6667H64.6667V75" stroke="white" stroke-width="2" stroke-linecap="round" stroke-linejoin="round"/>
<path d="M94.6666 66.6665H61.3333V74.9998H94.6666V66.6665Z" stroke="white" stroke-width="2" stroke-linecap="round" stroke-linejoin="round"/>
<path d="M78 91.6665V66.6665" stroke="white" stroke-width="2" stroke-linecap="round" stroke-linejoin="round"/>
<path d="M77.9999 66.6668H70.4999C69.3949 66.6668 68.335 66.2278 67.5536 65.4464C66.7722 64.665 66.3333 63.6052 66.3333 62.5002C66.3333 61.3951 66.7722 60.3353 67.5536 59.5539C68.335 58.7725 69.3949 58.3335 70.4999 58.3335C76.3333 58.3335 77.9999 66.6668 77.9999 66.6668Z" stroke="white" stroke-width="2" stroke-linecap="round" stroke-linejoin="round"/>
<path d="M78 66.6668H85.5C86.6051 66.6668 87.6649 66.2278 88.4463 65.4464C89.2277 64.665 89.6667 63.6052 89.6667 62.5002C89.6667 61.3951 89.2277 60.3353 88.4463 59.5539C87.6649 58.7725 86.6051 58.3335 85.5 58.3335C79.6667 58.3335 78 66.6668 78 66.6668Z" stroke="white" stroke-width="2" stroke-linecap="round" stroke-linejoin="round"/>
<path d="M53.7468 105.784H54.9228V113.008H53.7468V105.784ZM51.3348 107.86V108.724H57.4908V107.86H51.3348ZM51.3348 106.156V107.02H57.4908V106.156H51.3348ZM50.2188 105.268H58.6548V109.612H50.2188V105.268ZM49.0428 110.404H59.7348V111.4H49.0428V110.404ZM50.8668 103.06V104.008H52.9068V103.06H50.8668ZM49.8588 102.34H53.9748V104.716H49.8588V102.34ZM55.8468 103.06V104.008H57.9108V103.06H55.8468ZM54.8268 102.34H58.9788V104.716H54.8268V102.34ZM64.1148 103.456V105.448H68.6628V103.456H64.1148ZM63.0108 102.376H69.8148V106.528H63.0108V102.376ZM61.3068 107.692H65.7228V112.924H64.5828V108.772H62.3868V113.008H61.3068V107.692ZM66.8988 107.692H71.5188V112.948H70.3788V108.772H67.9908V113.008H66.8988V107.692ZM61.7868 111.292H65.0508V112.384H61.7868V111.292ZM67.4388 111.292H70.9188V112.384H67.4388V111.292ZM77.9941 112.168C76.9741 112.168 76.2421 111.748 75.7381 111.22L76.4821 110.368C76.8421 110.764 77.3821 111.028 77.9341 111.028C79.0501 111.028 79.9981 110.092 79.9981 107.284C79.9981 105.076 79.3141 104.068 78.2341 104.068C77.4661 104.068 76.8661 104.752 76.8661 105.916C76.8661 107.032 77.3821 107.68 78.3061 107.68C78.8581 107.68 79.4821 107.368 79.9981 106.564L80.0701 107.572C79.5541 108.256 78.7621 108.688 78.0541 108.688C76.5781 108.688 75.5821 107.764 75.5821 105.916C75.5821 104.152 76.7821 103.012 78.2221 103.012C79.9141 103.012 81.2821 104.368 81.2821 107.284C81.2821 110.764 79.6981 112.168 77.9941 112.168ZM95.0572 101.968L95.7412 102.928C94.2532 103.372 92.1292 103.708 90.3412 103.9C90.3052 103.624 90.1492 103.216 90.0292 102.964C91.7812 102.748 93.8092 102.376 95.0572 101.968ZM90.5932 105.88H96.1732V106.96H90.5932V105.88ZM93.1372 106.468H94.2652V112.96H93.1372V106.468ZM85.0012 108.136C86.1172 107.872 87.8092 107.416 89.3932 106.972L89.5372 108.016C88.0732 108.448 86.4892 108.904 85.3012 109.228L85.0012 108.136ZM85.1932 104.224H89.4532V105.292H85.1932V104.224ZM86.7772 101.872H87.8932V111.7C87.8932 112.288 87.7732 112.588 87.4252 112.756C87.0652 112.936 86.5372 112.96 85.7212 112.96C85.6852 112.672 85.5292 112.204 85.3852 111.916C85.9012 111.94 86.3932 111.928 86.5492 111.928C86.7172 111.916 86.7772 111.868 86.7772 111.712V101.872ZM90.0292 102.964H91.1452V106.684C91.1452 108.88 90.9412 111.088 89.6452 113.02C89.4292 112.768 89.0332 112.468 88.7332 112.276C89.8852 110.512 90.0292 108.52 90.0292 106.672V102.964ZM97.3132 105.928H107.933V106.948H97.3132V105.928ZM98.0572 103.888H107.141V104.896H98.0572V103.888ZM104.441 106.132C105.185 107.296 106.697 108.244 108.365 108.664C108.113 108.892 107.789 109.324 107.621 109.612C105.881 109.06 104.357 107.92 103.469 106.468L104.441 106.132ZM102.293 101.824L103.481 101.944C102.977 104.992 101.345 107.968 97.6852 109.624C97.5652 109.336 97.2292 108.892 96.9772 108.676C100.469 107.212 101.933 104.488 102.293 101.824ZM99.0532 102.52L99.9532 102.088C100.337 102.532 100.781 103.156 100.961 103.576L100.013 104.068C99.8452 103.66 99.4252 103 99.0532 102.52ZM105.317 102.136L106.361 102.472C105.941 103.144 105.437 103.852 105.029 104.32L104.165 104.008C104.561 103.516 105.053 102.7 105.317 102.136ZM99.1732 108.256H104.993V109.288H99.1732V108.256ZM104.825 108.256H105.977C105.977 108.256 105.965 108.568 105.953 108.724C105.797 111.112 105.629 112.108 105.281 112.48C105.041 112.744 104.789 112.828 104.405 112.876C104.069 112.912 103.457 112.912 102.809 112.876C102.797 112.552 102.665 112.096 102.485 111.808C103.073 111.868 103.649 111.868 103.865 111.868C104.081 111.868 104.201 111.844 104.321 111.736C104.549 111.508 104.693 110.632 104.825 108.424V108.256ZM101.009 108.628H102.185C101.933 110.728 101.261 112.204 98.3812 112.984C98.2732 112.696 97.9732 112.24 97.7452 112.012C100.301 111.424 100.793 110.26 101.009 108.628Z" fill="white"/>
<path d="M170.759 103.384H181.355V104.452H170.759V103.384ZM173.687 107.692H179.255V108.652H173.687V107.692ZM178.859 105.652H179.975V111.7C179.975 112.312 179.855 112.636 179.411 112.816C178.979 112.996 178.307 112.996 177.299 112.996C177.251 112.684 177.095 112.204 176.939 111.904C177.659 111.94 178.379 111.928 178.595 111.928C178.799 111.916 178.859 111.856 178.859 111.688V105.652ZM174.599 101.872L175.763 102.136C174.947 104.764 173.507 107.428 171.251 109.024C171.083 108.76 170.723 108.364 170.507 108.148C172.607 106.72 173.975 104.2 174.599 101.872ZM173.627 109.696H179.255V110.656H173.627V109.696ZM173.615 105.652H179.147V106.66H173.615V105.652ZM173.003 105.652H174.143V108.844C174.143 110.224 173.915 112 172.691 113.092C172.547 112.852 172.103 112.372 171.887 112.216C172.895 111.28 173.003 109.96 173.003 108.832V105.652ZM182.675 103.588H188.267V104.608H182.675V103.588ZM183.983 104.788L184.955 105.088C184.499 106.168 183.791 107.368 183.167 108.136C182.999 107.956 182.603 107.596 182.375 107.428C182.987 106.744 183.599 105.736 183.983 104.788ZM185.999 106.72L187.067 106.912C186.359 109.504 185.063 111.496 183.215 112.744C183.059 112.528 182.663 112.108 182.435 111.916C184.223 110.836 185.411 109.024 185.999 106.72ZM185.963 105.172L186.803 104.728C187.367 105.388 187.991 106.3 188.231 106.912L187.331 107.428C187.115 106.816 186.515 105.868 185.963 105.172ZM183.623 107.764L184.463 107.152C185.675 108.34 187.127 109.972 187.763 111.088L186.851 111.808C186.263 110.692 184.847 108.976 183.623 107.764ZM189.527 104.02H193.523V105.076H189.527V104.02ZM189.707 101.86L190.775 102.028C190.355 104.452 189.659 106.756 188.543 108.256C188.411 108.028 188.039 107.572 187.811 107.368C188.807 106.072 189.383 104.008 189.707 101.86ZM191.843 104.728L192.923 104.86C192.335 108.976 191.003 111.556 188.051 113.068C187.907 112.852 187.511 112.42 187.271 112.216C190.151 110.92 191.363 108.52 191.843 104.728ZM189.743 105.736C190.355 108.52 191.639 110.992 193.703 112.108C193.451 112.324 193.091 112.732 192.911 113.02C190.751 111.7 189.491 109.096 188.783 105.952L189.743 105.736ZM184.415 102.208L185.375 101.848C185.723 102.292 186.071 102.88 186.227 103.288L185.219 103.708C185.075 103.288 184.739 102.664 184.415 102.208ZM196.043 102.652H204.131V112.84H202.919V103.792H197.207V112.876H196.043V102.652ZM196.835 106.756H203.423V107.872H196.835V106.756ZM196.823 110.956H203.435V112.096H196.823V110.956ZM213.395 102.448H216.623V103.48H213.395V102.448ZM213.395 105.184H216.623V106.192H213.395V105.184ZM213.383 107.956H216.647V108.976H213.383V107.956ZM216.131 102.448H217.223V111.676C217.223 112.276 217.103 112.6 216.719 112.78C216.347 112.96 215.759 112.984 214.871 112.984C214.835 112.684 214.679 112.18 214.535 111.892C215.111 111.916 215.711 111.916 215.891 111.904C216.059 111.904 216.131 111.844 216.131 111.664V102.448ZM212.927 102.448H213.995V106.828C213.995 108.7 213.839 111.352 212.783 113.056C212.603 112.852 212.135 112.516 211.883 112.408C212.843 110.836 212.927 108.556 212.927 106.828V102.448ZM206.615 103.396H212.423V104.392H206.615V103.396ZM208.091 105.304H211.055V106.192H208.091V105.304ZM208.091 107.188H211.067V108.076H208.091V107.188ZM206.459 109.108H212.387V110.116H206.459V109.108ZM207.599 102.016H208.631V109.492H207.599V102.016ZM210.515 102.016H211.559V109.492H210.515V102.016ZM208.055 110.296L209.135 110.608C208.691 111.508 207.995 112.432 207.347 113.032C207.131 112.84 206.687 112.516 206.423 112.36C207.083 111.844 207.707 111.064 208.055 110.296ZM209.807 110.74L210.671 110.272C211.151 110.812 211.727 111.544 211.991 112.036L211.067 112.576C210.839 112.096 210.275 111.304 209.807 110.74ZM224.051 105.628C223.499 105.628 223.043 105.22 223.043 104.632C223.043 104.032 223.499 103.624 224.051 103.624C224.591 103.624 225.059 104.032 225.059 104.632C225.059 105.22 224.591 105.628 224.051 105.628ZM224.051 111.436C223.499 111.436 223.043 111.028 223.043 110.44C223.043 109.84 223.499 109.432 224.051 109.432C224.591 109.432 225.059 109.84 225.059 110.44C225.059 111.028 224.591 111.436 224.051 111.436ZM230.567 112V111.196C233.183 108.892 234.515 107.176 234.515 105.724C234.515 104.776 234.011 104.116 233.027 104.116C232.331 104.116 231.755 104.548 231.287 105.088L230.495 104.332C231.263 103.504 232.043 103.012 233.195 103.012C234.815 103.012 235.859 104.056 235.859 105.664C235.859 107.356 234.491 109.12 232.619 110.92C233.075 110.872 233.639 110.824 234.071 110.824H236.279V112H230.567ZM240.315 112.168C238.575 112.168 237.459 110.62 237.459 107.548C237.459 104.5 238.575 103.012 240.315 103.012C242.043 103.012 243.171 104.5 243.171 107.548C243.171 110.62 242.043 112.168 240.315 112.168ZM240.315 111.064C241.215 111.064 241.839 110.104 241.839 107.548C241.839 105.028 241.215 104.092 240.315 104.092C239.415 104.092 238.779 105.028 238.779 107.548C238.779 110.104 239.415 111.064 240.315 111.064ZM244.254 112V111.196C246.87 108.892 248.202 107.176 248.202 105.724C248.202 104.776 247.698 104.116 246.714 104.116C246.018 104.116 245.442 104.548 244.974 105.088L244.182 104.332C244.95 103.504 245.73 103.012 246.882 103.012C248.502 103.012 249.546 104.056 249.546 105.664C249.546 107.356 248.178 109.12 246.306 110.92C246.762 110.872 247.326 110.824 247.758 110.824H249.966V112H244.254ZM253.786 112.168C252.406 112.168 251.506 111.616 250.906 110.944L251.59 110.056C252.106 110.584 252.754 111.028 253.678 111.028C254.662 111.028 255.346 110.476 255.346 109.564C255.346 108.58 254.722 107.956 252.742 107.956V106.924C254.47 106.924 255.046 106.276 255.046 105.388C255.046 104.608 254.542 104.116 253.69 104.116C253.018 104.116 252.442 104.44 251.938 104.944L251.206 104.068C251.914 103.444 252.73 103.012 253.75 103.012C255.334 103.012 256.45 103.828 256.45 105.28C256.45 106.3 255.862 107.008 254.926 107.356V107.416C255.946 107.68 256.75 108.436 256.75 109.636C256.75 111.232 255.418 112.168 253.786 112.168ZM259.214 112.168C258.686 112.168 258.29 111.76 258.29 111.196C258.29 110.62 258.686 110.224 259.214 110.224C259.73 110.224 260.138 110.62 260.138 111.196C260.138 111.76 259.73 112.168 259.214 112.168ZM264.42 112.168C262.68 112.168 261.564 110.62 261.564 107.548C261.564 104.5 262.68 103.012 264.42 103.012C266.148 103.012 267.276 104.5 267.276 107.548C267.276 110.62 266.148 112.168 264.42 112.168ZM264.42 111.064C265.32 111.064 265.944 110.104 265.944 107.548C265.944 105.028 265.32 104.092 264.42 104.092C263.52 104.092 262.884 105.028 262.884 107.548C262.884 110.104 263.52 111.064 264.42 111.064ZM271.528 112.168C269.848 112.168 268.48 110.752 268.48 107.752C268.48 104.368 270.064 103.012 271.816 103.012C272.8 103.012 273.52 103.42 274.024 103.96L273.268 104.8C272.944 104.416 272.404 104.14 271.888 104.14C270.712 104.14 269.764 105.052 269.764 107.752C269.764 110.032 270.436 111.1 271.516 111.1C272.284 111.1 272.884 110.404 272.884 109.264C272.884 108.124 272.368 107.488 271.432 107.488C270.904 107.488 270.268 107.8 269.74 108.604L269.68 107.596C270.196 106.9 271.012 106.492 271.672 106.492C273.16 106.492 274.168 107.392 274.168 109.264C274.168 111.016 272.956 112.168 271.528 112.168ZM276.476 112.168C275.948 112.168 275.552 111.76 275.552 111.196C275.552 110.62 275.948 110.224 276.476 110.224C276.992 110.224 277.4 110.62 277.4 111.196C277.4 111.76 276.992 112.168 276.476 112.168ZM278.778 112V111.196C281.394 108.892 282.726 107.176 282.726 105.724C282.726 104.776 282.222 104.116 281.238 104.116C280.542 104.116 279.966 104.548 279.498 105.088L278.706 104.332C279.474 103.504 280.254 103.012 281.406 103.012C283.026 103.012 284.07 104.056 284.07 105.664C284.07 107.356 282.702 109.12 280.83 110.92C281.286 110.872 281.85 110.824 282.282 110.824H284.49V112H278.778ZM287.409 112C287.565 108.784 288.129 106.72 289.845 104.344H285.693V103.168H291.369V104.008C289.305 106.6 288.981 108.556 288.825 112H287.409Z" fill="#3493FB"/>
<path d="M144.196 63.92L145.264 64.256C144.484 66.296 143.248 68.384 141.94 69.74C141.832 69.464 141.52 68.852 141.328 68.588C142.468 67.46 143.548 65.696 144.196 63.92ZM142.984 67.112L144.052 66.032L144.064 66.044V74.996H142.984V67.112ZM146.452 68.42H152.524V69.476H146.452V68.42ZM151.288 63.812L152.164 64.664C150.472 65.264 148.072 65.72 145.972 65.996C145.924 65.744 145.768 65.348 145.636 65.108C147.676 64.808 149.956 64.328 151.288 63.812ZM149.032 65.156H150.064C150.172 69.68 150.82 73.604 151.624 73.628C151.816 73.64 151.96 73.04 152.032 71.984C152.212 72.2 152.632 72.464 152.812 72.548C152.56 74.408 152.092 74.912 151.624 74.9C149.86 74.876 149.212 70.616 149.032 65.156ZM145.504 73.964L145.42 73.04L145.9 72.68L148.804 71.96C148.78 72.248 148.792 72.68 148.816 72.92C146.176 73.652 145.768 73.796 145.504 73.964ZM145.504 73.964C145.444 73.712 145.252 73.268 145.084 73.052C145.324 72.956 145.636 72.728 145.636 72.248V65.108L146.704 65.384V73.052C146.704 73.052 145.504 73.604 145.504 73.964ZM146.764 73.784H149.98V74.72H146.764V73.784ZM158.176 67.28H163.288V68.312H158.176V67.28ZM157.648 67.28H158.704V70.772C158.704 72.128 158.596 73.916 157.9 75.08C157.72 74.9 157.264 74.564 157.012 74.444C157.6 73.4 157.648 71.948 157.648 70.772V67.28ZM158.788 71.696C159.892 71.48 161.572 71.096 163.168 70.724L163.276 71.612C161.848 71.984 160.312 72.368 159.148 72.644L158.788 71.696ZM158.98 69.644L159.436 68.936C160.42 69.152 161.704 69.572 162.376 69.932L161.896 70.724C161.248 70.352 159.976 69.884 158.98 69.644ZM163.396 64.184L164.488 64.592C164.08 65.408 163.6 66.272 163.192 66.86L162.22 66.476C162.616 65.864 163.12 64.904 163.396 64.184ZM157.324 64.688L158.284 64.256C158.788 64.928 159.316 65.828 159.508 66.44L158.488 66.932C158.308 66.32 157.816 65.384 157.324 64.688ZM162.952 67.28H164.056V73.712C164.056 74.288 163.936 74.6 163.54 74.78C163.132 74.96 162.52 74.972 161.608 74.972C161.56 74.672 161.404 74.192 161.26 73.892C161.884 73.928 162.52 73.928 162.7 73.916C162.892 73.904 162.952 73.856 162.952 73.688V67.28ZM160.312 63.86H161.452V67.952H160.312V63.86ZM154.204 64.844L154.864 64.04C155.56 64.424 156.556 65 157.072 65.348L156.376 66.26C155.896 65.876 154.912 65.264 154.204 64.844ZM153.532 68.156L154.144 67.316C154.84 67.652 155.872 68.18 156.388 68.516L155.764 69.452C155.272 69.116 154.252 68.54 153.532 68.156ZM153.94 74.096C154.576 73.184 155.512 71.636 156.22 70.268L157.048 71.012C156.412 72.284 155.608 73.724 154.9 74.864L153.94 74.096ZM171.155 74.168C170.231 74.168 169.163 73.736 168.491 73.112L169.127 72.164C169.739 72.668 170.387 73.028 171.155 73.028C172.079 73.028 172.535 72.56 172.535 71.792C172.535 69.848 168.839 70.184 168.839 67.616C168.839 66.188 169.847 65.252 171.359 65.252C172.463 65.252 173.147 65.696 173.723 66.308L173.003 67.124C172.511 66.644 172.103 66.392 171.419 66.392C170.639 66.392 170.171 66.824 170.171 67.544C170.171 69.296 173.879 68.888 173.879 71.684C173.879 73.16 172.859 74.168 171.155 74.168ZM170.819 75.488V73.64H171.791V75.488H170.819ZM170.819 65.72V63.92H171.791V65.72H170.819ZM175.719 74V72.86H177.663V66.716H176.067V65.84C176.907 65.696 177.483 65.48 177.999 65.168H179.043V72.86H180.771V74H175.719ZM184.963 74.168C183.223 74.168 182.107 72.62 182.107 69.548C182.107 66.5 183.223 65.012 184.963 65.012C186.691 65.012 187.819 66.5 187.819 69.548C187.819 72.62 186.691 74.168 184.963 74.168ZM184.963 73.064C185.863 73.064 186.487 72.104 186.487 69.548C186.487 67.028 185.863 66.092 184.963 66.092C184.063 66.092 183.427 67.028 183.427 69.548C183.427 72.104 184.063 73.064 184.963 73.064ZM191.807 74.168C190.067 74.168 188.951 72.62 188.951 69.548C188.951 66.5 190.067 65.012 191.807 65.012C193.535 65.012 194.663 66.5 194.663 69.548C194.663 72.62 193.535 74.168 191.807 74.168ZM191.807 73.064C192.707 73.064 193.331 72.104 193.331 69.548C193.331 67.028 192.707 66.092 191.807 66.092C190.907 66.092 190.271 67.028 190.271 69.548C190.271 72.104 190.907 73.064 191.807 73.064ZM198.65 74.168C196.91 74.168 195.794 72.62 195.794 69.548C195.794 66.5 196.91 65.012 198.65 65.012C200.378 65.012 201.506 66.5 201.506 69.548C201.506 72.62 200.378 74.168 198.65 74.168ZM198.65 73.064C199.55 73.064 200.174 72.104 200.174 69.548C200.174 67.028 199.55 66.092 198.65 66.092C197.75 66.092 197.114 67.028 197.114 69.548C197.114 72.104 197.75 73.064 198.65 73.064ZM206.678 64.292H214.886V68.06H213.734V65.12H207.782V68.06H206.678V64.292ZM208.25 65.732H213.266V66.44H208.25V65.732ZM208.25 67.052H213.242V67.796H208.25V67.052ZM205.418 68.456H216.086V69.38H205.418V68.456ZM210.734 69.992H214.898V70.892H210.734V69.992ZM207.086 70.028H209.942V70.844H207.086V70.028ZM207.086 71.516H209.942V72.332H207.086V71.516ZM212.15 70.808C212.846 72.416 214.322 73.64 216.314 74.12C216.074 74.324 215.786 74.744 215.63 75.008C213.542 74.396 212.042 73.004 211.238 71.072L212.15 70.808ZM214.634 69.992H214.838L215.03 69.956L215.726 70.232C214.97 72.716 213.146 74.24 211.022 74.984C210.89 74.72 210.614 74.312 210.41 74.096C212.318 73.532 214.034 72.128 214.634 70.172V69.992ZM205.274 73.34C206.45 73.256 208.226 73.088 209.954 72.92L209.978 73.808C208.334 74 206.63 74.18 205.382 74.312L205.274 73.34ZM209.354 68.756H210.434V75.008H209.354V68.756ZM206.39 68.768H207.434V73.616H206.39V68.768ZM217.454 65.072H228.038V66.044H217.454V65.072ZM220.31 67.412V68.312H225.278V67.412H220.31ZM219.17 66.62H226.466V69.104H219.17V66.62ZM217.838 69.692H227.354V70.64H218.942V75.008H217.838V69.692ZM226.562 69.692H227.702V73.904C227.702 74.42 227.57 74.648 227.186 74.792C226.814 74.912 226.238 74.924 225.434 74.912C225.386 74.66 225.23 74.312 225.098 74.084C225.59 74.108 226.19 74.096 226.334 74.096C226.49 74.084 226.562 74.048 226.562 73.904V69.692ZM221.93 64.088L223.07 63.812C223.274 64.328 223.538 65.012 223.646 65.408L222.446 65.744C222.35 65.324 222.11 64.616 221.93 64.088ZM220.718 71.228H225.266V73.796H220.718V72.98H224.258V72.044H220.718V71.228ZM220.106 71.228H221.162V74.348H220.106V71.228ZM239.21 63.968L239.894 64.928C238.406 65.372 236.282 65.708 234.494 65.9C234.458 65.624 234.302 65.216 234.182 64.964C235.934 64.748 237.962 64.376 239.21 63.968ZM234.746 67.88H240.326V68.96H234.746V67.88ZM237.29 68.468H238.418V74.96H237.29V68.468ZM229.154 70.136C230.27 69.872 231.962 69.416 233.546 68.972L233.69 70.016C232.226 70.448 230.642 70.904 229.454 71.228L229.154 70.136ZM229.346 66.224H233.606V67.292H229.346V66.224ZM230.93 63.872H232.046V73.7C232.046 74.288 231.926 74.588 231.578 74.756C231.218 74.936 230.69 74.96 229.874 74.96C229.838 74.672 229.682 74.204 229.538 73.916C230.054 73.94 230.546 73.928 230.702 73.928C230.87 73.916 230.93 73.868 230.93 73.712V63.872ZM234.182 64.964H235.298V68.684C235.298 70.88 235.094 73.088 233.798 75.02C233.582 74.768 233.186 74.468 232.886 74.276C234.038 72.512 234.182 70.52 234.182 68.672V64.964ZM246.765 74.168C245.841 74.168 244.773 73.736 244.101 73.112L244.737 72.164C245.349 72.668 245.997 73.028 246.765 73.028C247.689 73.028 248.145 72.56 248.145 71.792C248.145 69.848 244.449 70.184 244.449 67.616C244.449 66.188 245.457 65.252 246.969 65.252C248.073 65.252 248.757 65.696 249.333 66.308L248.613 67.124C248.121 66.644 247.713 66.392 247.029 66.392C246.249 66.392 245.781 66.824 245.781 67.544C245.781 69.296 249.489 68.888 249.489 71.684C249.489 73.16 248.469 74.168 246.765 74.168ZM246.429 75.488V73.64H247.401V75.488H246.429ZM246.429 65.72V63.92H247.401V65.72H246.429ZM253.525 74.168C252.133 74.168 251.257 73.604 250.621 72.98L251.293 72.08C251.785 72.584 252.433 73.028 253.357 73.028C254.353 73.028 255.097 72.32 255.097 71.144C255.097 69.98 254.425 69.308 253.417 69.308C252.865 69.308 252.529 69.464 252.013 69.8L251.329 69.368L251.593 65.168H256.081V66.344H252.805L252.601 68.6C252.973 68.408 253.333 68.3 253.813 68.3C255.289 68.3 256.501 69.164 256.501 71.108C256.501 73.052 255.061 74.168 253.525 74.168ZM260.572 74.168C258.832 74.168 257.716 72.62 257.716 69.548C257.716 66.5 258.832 65.012 260.572 65.012C262.3 65.012 263.428 66.5 263.428 69.548C263.428 72.62 262.3 74.168 260.572 74.168ZM260.572 73.064C261.472 73.064 262.096 72.104 262.096 69.548C262.096 67.028 261.472 66.092 260.572 66.092C259.672 66.092 259.036 67.028 259.036 69.548C259.036 72.104 259.672 73.064 260.572 73.064ZM267.416 74.168C265.676 74.168 264.56 72.62 264.56 69.548C264.56 66.5 265.676 65.012 267.416 65.012C269.144 65.012 270.272 66.5 270.272 69.548C270.272 72.62 269.144 74.168 267.416 74.168ZM267.416 73.064C268.316 73.064 268.94 72.104 268.94 69.548C268.94 67.028 268.316 66.092 267.416 66.092C266.516 66.092 265.88 67.028 265.88 69.548C265.88 72.104 266.516 73.064 267.416 73.064Z" fill="#003060"/>
<g filter="url(#filter2_d_1130_561)">
<path d="M23 40C23 38.3431 24.3431 37 26 37H56C57.6569 37 59 38.3431 59 40V52C59 53.6569 57.6569 55 56 55H23V40Z" fill="#FFCD78"/>
</g>
<path d="M23 55H28V60L25.5 57.5L23 55Z" fill="#FFCD78"/>
<path d="M31.85 41.97H34.25V42.82H32.68V50.82H31.85V41.97ZM34.08 41.97H34.24L34.38 41.93L35 42.29C34.72 43.12 34.37 44.11 34.06 44.9C34.73 45.72 34.88 46.43 34.88 47.04C34.88 47.63 34.76 48.06 34.46 48.28C34.32 48.39 34.13 48.45 33.92 48.48C33.73 48.51 33.48 48.51 33.25 48.5C33.25 48.27 33.17 47.91 33.03 47.68C33.24 47.69 33.41 47.7 33.56 47.69C33.66 47.68 33.77 47.66 33.85 47.6C33.98 47.5 34.04 47.25 34.04 46.95C34.04 46.43 33.89 45.75 33.23 45C33.56 44.1 33.9 42.88 34.08 42.23V41.97ZM35.87 41.99H39.88V46.48H35.87V45.65H38.96V42.81H35.87V41.99ZM35.93 43.83H39.47V44.61H35.93V43.83ZM37.84 45.99C38.25 47.82 39.16 49.32 40.69 49.97C40.48 50.16 40.19 50.53 40.05 50.79C38.43 49.96 37.53 48.29 37.06 46.14L37.84 45.99ZM39.85 46.7L40.47 47.37C39.9 47.83 39.16 48.33 38.61 48.64L38.11 48.05C38.64 47.72 39.41 47.14 39.85 46.7ZM35.41 50.86L35.33 50.03L35.75 49.71L37.94 49.2C37.94 49.47 37.95 49.85 37.98 50.06C35.96 50.59 35.62 50.72 35.41 50.86ZM35.41 50.86C35.34 50.65 35.14 50.27 35 50.1C35.17 49.99 35.41 49.76 35.41 49.32V41.99H36.33V49.97C36.33 49.97 35.41 50.52 35.41 50.86ZM43.66 43.35V43.81H48.28V43.35H43.66ZM43.66 42.4V42.85H48.28V42.4H43.66ZM42.75 41.88H49.23V44.33H42.75V41.88ZM43.46 47.3V47.78H48.57V47.3H43.46ZM43.46 46.32V46.79H48.57V46.32H43.46ZM42.57 45.78H49.5V48.32H42.57V45.78ZM45.52 45.97H46.44V50.27H45.52V45.97ZM41.49 44.7H50.52V45.4H41.49V44.7ZM42.32 48.77H49.71V49.4H42.32V48.77ZM41.45 49.89H50.56V50.6H41.45V49.89Z" fill="white"/>
<path d="M144.85 41.97H147.25V42.82H145.68V50.82H144.85V41.97ZM147.08 41.97H147.24L147.38 41.93L148 42.29C147.72 43.12 147.37 44.11 147.06 44.9C147.73 45.72 147.88 46.43 147.88 47.04C147.88 47.63 147.76 48.06 147.46 48.28C147.32 48.39 147.13 48.45 146.92 48.48C146.73 48.51 146.48 48.51 146.25 48.5C146.25 48.27 146.17 47.91 146.03 47.68C146.24 47.69 146.41 47.7 146.56 47.69C146.66 47.68 146.77 47.66 146.85 47.6C146.98 47.5 147.04 47.25 147.04 46.95C147.04 46.43 146.89 45.75 146.23 45C146.56 44.1 146.9 42.88 147.08 42.23V41.97ZM148.87 41.99H152.88V46.48H148.87V45.65H151.96V42.81H148.87V41.99ZM148.93 43.83H152.47V44.61H148.93V43.83ZM150.84 45.99C151.25 47.82 152.16 49.32 153.69 49.97C153.48 50.16 153.19 50.53 153.05 50.79C151.43 49.96 150.53 48.29 150.06 46.14L150.84 45.99ZM152.85 46.7L153.47 47.37C152.9 47.83 152.16 48.33 151.61 48.64L151.11 48.05C151.64 47.72 152.41 47.14 152.85 46.7ZM148.41 50.86L148.33 50.03L148.75 49.71L150.94 49.2C150.94 49.47 150.95 49.85 150.98 50.06C148.96 50.59 148.62 50.72 148.41 50.86ZM148.41 50.86C148.34 50.65 148.14 50.27 148 50.1C148.17 49.99 148.41 49.76 148.41 49.32V41.99H149.33V49.97C149.33 49.97 148.41 50.52 148.41 50.86ZM156.66 43.35V43.81H161.28V43.35H156.66ZM156.66 42.4V42.85H161.28V42.4H156.66ZM155.75 41.88H162.23V44.33H155.75V41.88ZM156.46 47.3V47.78H161.57V47.3H156.46ZM156.46 46.32V46.79H161.57V46.32H156.46ZM155.57 45.78H162.5V48.32H155.57V45.78ZM158.52 45.97H159.44V50.27H158.52V45.97ZM154.49 44.7H163.52V45.4H154.49V44.7ZM155.32 48.77H162.71V49.4H155.32V48.77ZM154.45 49.89H163.56V50.6H154.45V49.89Z" fill="white"/>
<path d="M152 117C157.523 117 162 112.523 162 107C162 101.477 157.523 97 152 97C146.477 97 142 101.477 142 107C142 112.523 146.477 117 152 117Z" stroke="#3493FB" stroke-width="2" stroke-linecap="round" stroke-linejoin="round"/>
<path d="M152 101V107L156 109" stroke="#3493FB" stroke-width="2" stroke-linecap="round" stroke-linejoin="round"/>
<rect x="141" y="37" width="49" height="18" rx="2" fill="#003060"/>
<path d="M145.41 45.59H154.61V46.62H145.41V45.59ZM155.36 46.02C156.45 45.95 158.13 45.82 159.78 45.67L159.79 46.43C158.24 46.6 156.61 46.77 155.44 46.89L155.36 46.02ZM156.67 42.57H158.93V43.33H156.67V42.57ZM157.43 41.53L158.38 41.66C158.2 42.12 158.01 42.57 157.86 42.88L157.06 42.75C157.2 42.39 157.36 41.89 157.43 41.53ZM156.09 42.57H156.93V45.57C156.93 47.11 156.82 49.36 156.09 50.87C155.93 50.72 155.56 50.47 155.36 50.39C156.03 48.98 156.09 47.01 156.09 45.57V42.57ZM161.01 42.01H163.11V42.82H161.01V42.01ZM160.08 45.8H163.65V46.64H160.08V45.8ZM160.44 42.01H161.32V43.3C161.32 44.06 161.17 44.97 160.41 45.54C160.28 45.37 159.91 45.06 159.73 44.94C160.37 44.46 160.44 43.85 160.44 43.28V42.01ZM158.69 42.57H159.55V49.75C159.55 50.21 159.45 50.45 159.15 50.6C158.85 50.74 158.37 50.75 157.69 50.75C157.66 50.52 157.55 50.14 157.43 49.92C157.88 49.94 158.36 49.93 158.5 49.93C158.65 49.92 158.69 49.88 158.69 49.74V42.57ZM157.09 44.08L157.69 43.79C157.97 44.21 158.28 44.75 158.43 45.11L157.81 45.45C157.67 45.08 157.36 44.5 157.09 44.08ZM163.46 45.8H163.64L163.8 45.78L164.35 45.99C163.77 48.7 162.25 50.12 160.23 50.79C160.12 50.58 159.86 50.2 159.68 50.04C161.61 49.47 163 48.26 163.46 45.96V45.8ZM161.03 46.52C161.62 48.16 162.88 49.42 164.69 49.95C164.48 50.13 164.21 50.49 164.07 50.74C162.17 50.09 160.9 48.69 160.2 46.76L161.03 46.52ZM157.11 47.34L157.73 47.05C158.02 47.51 158.34 48.11 158.48 48.5L157.85 48.84C157.7 48.44 157.39 47.81 157.11 47.34ZM162.7 42.01H163.56V44.06C163.56 44.33 163.58 44.42 163.71 44.42C163.8 44.42 164.08 44.42 164.17 44.42C164.29 44.42 164.51 44.4 164.62 44.36C164.64 44.59 164.66 44.91 164.69 45.12C164.57 45.17 164.36 45.18 164.19 45.18C164.06 45.18 163.74 45.18 163.62 45.18C162.85 45.18 162.7 44.85 162.7 44.05V42.01ZM166.11 44.74H173.53V45.52H167.01V50.82H166.11V44.74ZM173.05 44.74H173.92V49.89C173.92 50.34 173.81 50.55 173.48 50.67C173.16 50.78 172.63 50.79 171.8 50.79C171.76 50.58 171.64 50.28 171.53 50.08C172.09 50.1 172.67 50.09 172.82 50.08C172.99 50.08 173.05 50.03 173.05 49.89V44.74ZM168.58 47.22H171.86V49.58H168.58V48.91H171.08V47.9H168.58V47.22ZM168.08 47.22H168.88V50.03H168.08V47.22ZM165.58 42.59H174.43V43.4H165.58V42.59ZM167.69 43.62L168.5 43.36C168.71 43.71 168.98 44.18 169.11 44.47L168.27 44.79C168.15 44.49 167.9 43.99 167.69 43.62ZM171.45 43.41L172.4 43.62C172.08 44.15 171.72 44.74 171.43 45.11L170.7 44.91C170.96 44.5 171.29 43.86 171.45 43.41ZM169.35 41.73L170.25 41.5C170.42 41.91 170.61 42.44 170.71 42.78L169.77 43.05C169.69 42.7 169.51 42.14 169.35 41.73ZM168.64 45.15H169.47C169.37 46.36 168.98 47.01 167.43 47.35C167.37 47.16 167.16 46.85 167 46.7C168.29 46.47 168.57 46.05 168.64 45.15ZM170.38 45.16H171.22V45.99C171.22 46.21 171.24 46.29 171.41 46.29C171.54 46.29 172 46.29 172.14 46.29C172.29 46.29 172.56 46.28 172.7 46.24C172.72 46.46 172.73 46.69 172.76 46.89C172.63 46.94 172.37 46.95 172.16 46.95C171.97 46.95 171.38 46.95 171.21 46.95C170.51 46.95 170.38 46.64 170.38 45.98V45.16ZM178.11 42.88V44.54H181.9V42.88H178.11ZM177.19 41.98H182.86V45.44H177.19V41.98ZM175.77 46.41H179.45V50.77H178.5V47.31H176.67V50.84H175.77V46.41ZM180.43 46.41H184.28V50.79H183.33V47.31H181.34V50.84H180.43V46.41ZM176.17 49.41H178.89V50.32H176.17V49.41ZM180.88 49.41H183.78V50.32H180.88V49.41Z" fill="white"/>
<path d="M205.059 45.23H206.529V54.26H205.059V45.23ZM202.044 47.825V48.905H209.739V47.825H202.044ZM202.044 45.695V46.775H209.739V45.695H202.044ZM200.649 44.585H211.194V50.015H200.649V44.585ZM199.179 51.005H212.544V52.25H199.179V51.005ZM201.459 41.825V43.01H204.009V41.825H201.459ZM200.199 40.925H205.344V43.895H200.199V40.925ZM207.684 41.825V43.01H210.264V41.825H207.684ZM206.409 40.925H211.599V43.895H206.409V40.925ZM222.294 40.535H223.734V54.26H222.294V40.535ZM219.729 41.135L221.094 41.405C220.674 43.475 219.969 45.545 219.144 46.88C218.859 46.67 218.259 46.34 217.914 46.19C218.754 44.96 219.384 43.04 219.729 41.135ZM220.059 43.34H227.049V44.735H219.714L220.059 43.34ZM218.094 47.735H227.724V49.115H218.094V47.735ZM217.194 40.4L218.544 40.82C217.584 43.355 216.099 45.965 214.524 47.675C214.389 47.33 213.984 46.58 213.729 46.235C215.109 44.825 216.414 42.62 217.194 40.4ZM215.694 44.39L217.044 43.04V43.055V54.245H215.694V44.39ZM235.368 53.21C234.093 53.21 233.178 52.685 232.548 52.025L233.478 50.96C233.928 51.455 234.603 51.785 235.293 51.785C236.688 51.785 237.873 50.615 237.873 47.105C237.873 44.345 237.018 43.085 235.668 43.085C234.708 43.085 233.958 43.94 233.958 45.395C233.958 46.79 234.603 47.6 235.758 47.6C236.448 47.6 237.228 47.21 237.873 46.205L237.963 47.465C237.318 48.32 236.328 48.86 235.443 48.86C233.598 48.86 232.353 47.705 232.353 45.395C232.353 43.19 233.853 41.765 235.653 41.765C237.768 41.765 239.478 43.46 239.478 47.105C239.478 51.455 237.498 53.21 235.368 53.21ZM256.696 40.46L257.551 41.66C255.691 42.215 253.036 42.635 250.801 42.875C250.756 42.53 250.561 42.02 250.411 41.705C252.601 41.435 255.136 40.97 256.696 40.46ZM251.116 45.35H258.091V46.7H251.116V45.35ZM254.296 46.085H255.706V54.2H254.296V46.085ZM244.126 48.17C245.521 47.84 247.636 47.27 249.616 46.715L249.796 48.02C247.966 48.56 245.986 49.13 244.501 49.535L244.126 48.17ZM244.366 43.28H249.691V44.615H244.366V43.28ZM246.346 40.34H247.741V52.625C247.741 53.36 247.591 53.735 247.156 53.945C246.706 54.17 246.046 54.2 245.026 54.2C244.981 53.84 244.786 53.255 244.606 52.895C245.251 52.925 245.866 52.91 246.061 52.91C246.271 52.895 246.346 52.835 246.346 52.64V40.34ZM250.411 41.705H251.806V46.355C251.806 49.1 251.551 51.86 249.931 54.275C249.661 53.96 249.166 53.585 248.791 53.345C250.231 51.14 250.411 48.65 250.411 46.34V41.705Z" fill="#003060"/>
<path d="M144.852 80.388H152.34V81.228H144.852V80.388ZM146.256 82.812H150.924V83.328H146.256V82.812ZM146.256 83.784H150.924V84.312H146.256V83.784ZM145.668 81.768H151.476V85.092H150.42V82.368H146.7V85.092H145.668V81.768ZM144.528 84.78H152.568V86.436H151.536V85.452H145.5V86.436H144.528V84.78ZM146.196 85.74L146.88 86.112C146.592 86.58 146.16 87.12 145.644 87.456L144.996 86.94C145.476 86.664 145.932 86.172 146.196 85.74ZM146.796 85.764H147.708V86.412C147.708 86.64 147.78 86.676 148.152 86.676C148.32 86.676 149.208 86.676 149.448 86.676C149.712 86.676 149.772 86.616 149.82 86.196C149.988 86.304 150.324 86.4 150.552 86.436C150.468 87.132 150.24 87.324 149.58 87.324C149.364 87.324 148.248 87.324 148.032 87.324C147.048 87.324 146.796 87.144 146.796 86.412V85.764ZM147.852 85.68L148.476 85.32C148.848 85.548 149.316 85.908 149.556 86.148L148.908 86.556C148.68 86.304 148.224 85.932 147.852 85.68ZM150.132 86.076L150.744 85.704C151.224 86.112 151.8 86.688 152.076 87.084L151.44 87.492C151.176 87.108 150.612 86.508 150.132 86.076ZM147.384 87.036L148.38 87.228C147.612 88.164 146.544 89.004 145.068 89.688C144.936 89.472 144.636 89.16 144.432 89.028C145.8 88.476 146.808 87.72 147.384 87.036ZM150.444 87.768H150.66L150.852 87.732L151.548 88.116C150.516 89.652 148.176 90.612 144.804 91.044C144.696 90.804 144.468 90.444 144.252 90.216C147.456 89.88 149.676 89.052 150.444 87.948V87.768ZM145.956 87.66C147.096 89.124 149.58 89.916 152.52 90.156C152.316 90.372 152.076 90.756 151.956 91.02C148.932 90.684 146.448 89.748 145.104 87.96L145.956 87.66ZM147.024 87.768H150.732V88.488H146.316L147.024 87.768ZM147.924 80.772L149.16 80.916C148.968 81.396 148.776 81.852 148.632 82.176L147.648 82.02C147.756 81.636 147.876 81.132 147.924 80.772ZM143.64 79.92L144.696 80.22C144.036 82.296 143.004 84.492 141.84 85.908C141.744 85.632 141.456 85.008 141.264 84.708C142.236 83.532 143.112 81.732 143.64 79.92ZM142.764 83.016L143.808 81.972L143.844 81.996V91.008H142.764V83.016ZM153.852 80.544H164.1V81.456H153.852V80.544ZM158.328 79.884H159.492V86.772H158.328V79.884ZM155.688 84.18V84.864H162.156V84.18H155.688ZM155.688 82.824V83.508H162.156V82.824H155.688ZM154.62 82.128H163.272V85.584H154.62V82.128ZM160.644 85.98L161.412 85.44C162.42 85.872 163.608 86.64 164.208 87.228L163.428 87.852C162.828 87.24 161.664 86.436 160.644 85.98ZM153.864 86.412C156.072 86.424 159.6 86.412 162.9 86.364L162.84 87.24C159.6 87.312 156.156 87.372 153.912 87.384L153.864 86.412ZM156.108 87.984H157.236V89.532C157.236 89.856 157.356 89.904 158.088 89.904C158.424 89.904 160.032 89.904 160.476 89.904C161.052 89.904 161.16 89.76 161.208 88.764C161.46 88.92 161.904 89.076 162.204 89.136C162.06 90.516 161.736 90.84 160.572 90.84C160.236 90.84 158.316 90.84 158.004 90.84C156.504 90.84 156.108 90.564 156.108 89.544V87.984ZM157.872 87.888L158.604 87.276C159.288 87.636 160.14 88.212 160.548 88.632L159.78 89.316C159.396 88.884 158.568 88.272 157.872 87.888ZM161.988 88.272L162.96 87.936C163.536 88.644 164.112 89.592 164.316 90.252L163.284 90.6C163.08 89.976 162.54 89.004 161.988 88.272ZM154.656 87.9L155.628 88.308C155.364 89.076 154.98 90.036 154.5 90.66L153.528 90.108C154.008 89.544 154.416 88.632 154.656 87.9ZM165.528 80.388H170.004V81.42H165.528V80.388ZM166.836 84.168H169.596V89.508H166.836V88.524H168.6V85.164H166.836V84.168ZM166.92 80.916L167.988 81.072C167.628 83.628 167.004 86.076 165.864 87.672C165.756 87.42 165.432 86.868 165.228 86.616C166.164 85.272 166.644 83.136 166.92 80.916ZM166.344 84.168H167.328V90.48H166.344V84.168ZM171.012 82.248H175.848V83.148H171.012V82.248ZM171.012 84.072H175.848V84.984H171.012V84.072ZM170.46 85.944H175.692V86.94H170.46V85.944ZM172.944 80.868H173.964V86.352H172.944V80.868ZM171.468 87.84L172.224 87.732C172.368 88.44 172.452 89.34 172.44 89.928L171.636 90.06C171.66 89.46 171.588 88.548 171.468 87.84ZM172.728 87.756L173.436 87.564C173.676 88.14 173.892 88.896 173.976 89.388L173.232 89.604C173.16 89.112 172.956 88.344 172.728 87.756ZM173.928 87.504L174.516 87.264C174.84 87.696 175.152 88.284 175.296 88.656L174.66 88.944C174.528 88.548 174.228 87.96 173.928 87.504ZM170.292 87.408L171.132 87.624C171.024 88.668 170.808 89.796 170.244 90.468L169.452 90.036C169.956 89.424 170.184 88.392 170.292 87.408ZM170.46 80.352H176.16V81.336H171.504V86.46H170.46V80.352ZM175.356 85.944H176.4C176.4 85.944 176.388 86.244 176.376 86.388C176.256 89.184 176.124 90.252 175.812 90.624C175.596 90.876 175.368 90.972 175.044 91.008C174.756 91.032 174.252 91.044 173.724 91.02C173.712 90.72 173.604 90.312 173.436 90.036C173.916 90.084 174.36 90.096 174.54 90.096C174.72 90.096 174.816 90.06 174.924 89.952C175.128 89.712 175.26 88.74 175.356 86.124V85.944ZM183 83.628C182.448 83.628 181.992 83.22 181.992 82.632C181.992 82.032 182.448 81.624 183 81.624C183.54 81.624 184.008 82.032 184.008 82.632C184.008 83.22 183.54 83.628 183 83.628ZM183 89.436C182.448 89.436 181.992 89.028 181.992 88.44C181.992 87.84 182.448 87.432 183 87.432C183.54 87.432 184.008 87.84 184.008 88.44C184.008 89.028 183.54 89.436 183 89.436Z" fill="#003060"/>
<path d="M191.736 90L188.976 81.168H190.452L191.76 85.74C192.048 86.76 192.264 87.612 192.564 88.632H192.624C192.936 87.612 193.14 86.76 193.428 85.74L194.724 81.168H196.152L193.392 90H191.736ZM197.277 90V81.168H198.681V90H197.277ZM200.98 90V81.168H203.668C205.636 81.168 207.04 81.84 207.04 83.844C207.04 85.776 205.636 86.652 203.716 86.652H202.384V90H200.98ZM202.384 85.536H203.584C204.988 85.536 205.66 84.996 205.66 83.844C205.66 82.668 204.94 82.296 203.524 82.296H202.384V85.536ZM211.281 90.168C209.589 90.168 208.221 88.836 208.221 85.992C208.221 82.608 209.817 81.252 211.557 81.252C212.553 81.252 213.273 81.672 213.777 82.188L213.021 83.04C212.697 82.656 212.157 82.392 211.629 82.392C210.477 82.392 209.517 83.292 209.517 85.992C209.517 88.116 210.189 89.1 211.257 89.1C212.037 89.1 212.637 88.452 212.637 87.372C212.637 86.316 212.121 85.728 211.185 85.728C210.657 85.728 210.033 86.028 209.493 86.856L209.445 85.836C209.961 85.14 210.765 84.72 211.425 84.72C212.913 84.72 213.921 85.596 213.921 87.372C213.921 89.064 212.709 90.168 211.281 90.168ZM218.125 90.168C216.433 90.168 215.065 88.836 215.065 85.992C215.065 82.608 216.661 81.252 218.401 81.252C219.397 81.252 220.117 81.672 220.621 82.188L219.865 83.04C219.541 82.656 219.001 82.392 218.473 82.392C217.321 82.392 216.361 83.292 216.361 85.992C216.361 88.116 217.033 89.1 218.101 89.1C218.881 89.1 219.481 88.452 219.481 87.372C219.481 86.316 218.965 85.728 218.029 85.728C217.501 85.728 216.877 86.028 216.337 86.856L216.289 85.836C216.805 85.14 217.609 84.72 218.269 84.72C219.757 84.72 220.765 85.596 220.765 87.372C220.765 89.064 219.553 90.168 218.125 90.168ZM224.969 90.168C223.277 90.168 221.909 88.836 221.909 85.992C221.909 82.608 223.505 81.252 225.245 81.252C226.241 81.252 226.961 81.672 227.465 82.188L226.709 83.04C226.385 82.656 225.845 82.392 225.317 82.392C224.165 82.392 223.205 83.292 223.205 85.992C223.205 88.116 223.877 89.1 224.945 89.1C225.725 89.1 226.325 88.452 226.325 87.372C226.325 86.316 225.809 85.728 224.873 85.728C224.345 85.728 223.721 86.028 223.181 86.856L223.133 85.836C223.649 85.14 224.453 84.72 225.113 84.72C226.601 84.72 227.609 85.596 227.609 87.372C227.609 89.064 226.397 90.168 224.969 90.168ZM230.445 90C230.601 86.892 231.213 84.912 232.881 82.584H228.729V81.408H234.405V82.26C232.389 84.792 232.017 86.652 231.861 90H230.445ZM238.416 90.168C236.748 90.168 235.536 89.184 235.536 87.816C235.536 86.712 236.304 85.98 237.108 85.548V85.5C236.46 85.044 235.92 84.408 235.92 83.508C235.92 82.14 237 81.252 238.452 81.252C239.988 81.252 240.936 82.188 240.936 83.556C240.936 84.432 240.324 85.164 239.784 85.56V85.62C240.564 86.076 241.272 86.7 241.272 87.852C241.272 89.16 240.12 90.168 238.416 90.168ZM238.992 85.224C239.508 84.732 239.784 84.216 239.784 83.628C239.784 82.848 239.28 82.248 238.428 82.248C237.708 82.248 237.168 82.728 237.168 83.508C237.168 84.432 238.008 84.828 238.992 85.224ZM238.44 89.16C239.34 89.16 239.964 88.632 239.964 87.804C239.964 86.796 238.98 86.448 237.792 85.956C237.192 86.376 236.748 86.952 236.748 87.672C236.748 88.548 237.48 89.16 238.44 89.16ZM244.696 90.168C243.7 90.168 242.968 89.748 242.488 89.22L243.232 88.368C243.568 88.764 244.108 89.028 244.624 89.028C245.788 89.028 246.748 88.128 246.748 85.428C246.748 83.292 246.064 82.308 244.984 82.308C244.216 82.308 243.616 82.956 243.616 84.048C243.616 85.104 244.132 85.692 245.068 85.692C245.596 85.692 246.232 85.38 246.748 84.564L246.82 85.572C246.292 86.268 245.488 86.7 244.816 86.7C243.328 86.7 242.332 85.824 242.332 84.048C242.332 82.356 243.532 81.252 244.972 81.252C246.664 81.252 248.032 82.584 248.032 85.428C248.032 88.8 246.436 90.168 244.696 90.168Z" fill="#BD001E"/>
<defs>
<filter id="filter0_d_1130_561" x="124" y="21" width="216" height="116" filterUnits="userSpaceOnUse" color-interpolation-filters="sRGB">
<feFlood flood-opacity="0" result="BackgroundImageFix"/>
<feColorMatrix in="SourceAlpha" type="matrix" values="0 0 0 0 0 0 0 0 0 0 0 0 0 0 0 0 0 0 127 0" result="hardAlpha"/>
<feMorphology radius="4" operator="dilate" in="SourceAlpha" result="effect1_dropShadow_1130_561"/>
<feOffset dx="4" dy="4"/>
<feGaussianBlur stdDeviation="2"/>
<feComposite in2="hardAlpha" operator="out"/>
<feColorMatrix type="matrix" values="0 0 0 0 0 0 0 0 0 0 0 0 0 0 0 0 0 0 0.25 0"/>
<feBlend mode="normal" in2="BackgroundImageFix" result="effect1_dropShadow_1130_561"/>
<feBlend mode="normal" in="SourceGraphic" in2="effect1_dropShadow_1130_561" result="shape"/>
</filter>
<filter id="filter1_d_1130_561" x="24" y="25" width="108" height="108" filterUnits="userSpaceOnUse" color-interpolation-filters="sRGB">
<feFlood flood-opacity="0" result="BackgroundImageFix"/>
<feColorMatrix in="SourceAlpha" type="matrix" values="0 0 0 0 0 0 0 0 0 0 0 0 0 0 0 0 0 0 127 0" result="hardAlpha"/>
<feOffset dy="4"/>
<feGaussianBlur stdDeviation="2"/>
<feComposite in2="hardAlpha" operator="out"/>
<feColorMatrix type="matrix" values="0 0 0 0 0 0 0 0 0 0 0 0 0 0 0 0 0 0 0.25 0"/>
<feBlend mode="normal" in2="BackgroundImageFix" result="effect1_dropShadow_1130_561"/>
<feBlend mode="normal" in="SourceGraphic" in2="effect1_dropShadow_1130_561" result="shape"/>
</filter>
<filter id="filter2_d_1130_561" x="19" y="37" width="44" height="26" filterUnits="userSpaceOnUse" color-interpolation-filters="sRGB">
<feFlood flood-opacity="0" result="BackgroundImageFix"/>
<feColorMatrix in="SourceAlpha" type="matrix" values="0 0 0 0 0 0 0 0 0 0 0 0 0 0 0 0 0 0 127 0" result="hardAlpha"/>
<feOffset dy="4"/>
<feGaussianBlur stdDeviation="2"/>
<feComposite in2="hardAlpha" operator="out"/>
<feColorMatrix type="matrix" values="0 0 0 0 0 0 0 0 0 0 0 0 0 0 0 0 0 0 0.25 0"/>
<feBlend mode="normal" in2="BackgroundImageFix" result="effect1_dropShadow_1130_561"/>
<feBlend mode="normal" in="SourceGraphic" in2="effect1_dropShadow_1130_561" result="shape"/>
</filter>
</defs>
</svg>
