<svg width="350" height="150" viewBox="0 0 350 150" fill="none" xmlns="http://www.w3.org/2000/svg">
<rect width="350" height="150" fill="white"/>
<g filter="url(#filter0_d_1135_574)">
<path d="M128 25H326C327.105 25 328 25.8954 328 27V123C328 124.105 327.105 125 326 125H128V25Z" fill="white"/>
</g>
<g filter="url(#filter1_d_1135_574)">
<path d="M28 27C28 25.8954 28.8954 25 30 25H126C127.105 25 128 25.8954 128 27V123C128 124.105 127.105 125 126 125H30C28.8954 125 28 124.105 28 123V27Z" fill="#3493FB"/>
</g>
<ellipse cx="28.7277" cy="115.259" rx="4" ry="3.33807" transform="rotate(-15 28.7277 115.259)" fill="white"/>
<ellipse cx="28.7277" cy="102.259" rx="4" ry="3.33807" transform="rotate(-15 28.7277 102.259)" fill="white"/>
<ellipse cx="28.7277" cy="89.2594" rx="4" ry="3.33807" transform="rotate(-15 28.7277 89.2594)" fill="white"/>
<ellipse cx="28.7277" cy="76.2594" rx="4" ry="3.33807" transform="rotate(-15 28.7277 76.2594)" fill="white"/>
<ellipse cx="28.7277" cy="63.2594" rx="4" ry="3.33807" transform="rotate(-15 28.7277 63.2594)" fill="white"/>
<ellipse cx="28.7277" cy="50.2594" rx="4" ry="3.33807" transform="rotate(-15 28.7277 50.2594)" fill="white"/>
<ellipse cx="28.7277" cy="31.2594" rx="4" ry="3.33807" transform="rotate(-15 28.7277 31.2594)" fill="white"/>
<line x1="126.5" y1="25" x2="126.5" y2="125" stroke="white" stroke-width="3" stroke-dasharray="2 2"/>
<path d="M91.3334 75V91.6667H64.6667V75" stroke="white" stroke-width="2" stroke-linecap="round" stroke-linejoin="round"/>
<path d="M94.6666 66.6665H61.3333V74.9998H94.6666V66.6665Z" stroke="white" stroke-width="2" stroke-linecap="round" stroke-linejoin="round"/>
<path d="M78 91.6665V66.6665" stroke="white" stroke-width="2" stroke-linecap="round" stroke-linejoin="round"/>
<path d="M77.9999 66.6668H70.4999C69.3949 66.6668 68.335 66.2278 67.5536 65.4464C66.7722 64.665 66.3333 63.6052 66.3333 62.5002C66.3333 61.3951 66.7722 60.3353 67.5536 59.5539C68.335 58.7725 69.3949 58.3335 70.4999 58.3335C76.3333 58.3335 77.9999 66.6668 77.9999 66.6668Z" stroke="white" stroke-width="2" stroke-linecap="round" stroke-linejoin="round"/>
<path d="M78 66.6668H85.5C86.6051 66.6668 87.6649 66.2278 88.4463 65.4464C89.2277 64.665 89.6667 63.6052 89.6667 62.5002C89.6667 61.3951 89.2277 60.3353 88.4463 59.5539C87.6649 58.7725 86.6051 58.3335 85.5 58.3335C79.6667 58.3335 78 66.6668 78 66.6668Z" stroke="white" stroke-width="2" stroke-linecap="round" stroke-linejoin="round"/>
<path d="M53.7468 105.784H54.9228V113.008H53.7468V105.784ZM51.3348 107.86V108.724H57.4908V107.86H51.3348ZM51.3348 106.156V107.02H57.4908V106.156H51.3348ZM50.2188 105.268H58.6548V109.612H50.2188V105.268ZM49.0428 110.404H59.7348V111.4H49.0428V110.404ZM50.8668 103.06V104.008H52.9068V103.06H50.8668ZM49.8588 102.34H53.9748V104.716H49.8588V102.34ZM55.8468 103.06V104.008H57.9108V103.06H55.8468ZM54.8268 102.34H58.9788V104.716H54.8268V102.34ZM64.1148 103.456V105.448H68.6628V103.456H64.1148ZM63.0108 102.376H69.8148V106.528H63.0108V102.376ZM61.3068 107.692H65.7228V112.924H64.5828V108.772H62.3868V113.008H61.3068V107.692ZM66.8988 107.692H71.5188V112.948H70.3788V108.772H67.9908V113.008H66.8988V107.692ZM61.7868 111.292H65.0508V112.384H61.7868V111.292ZM67.4388 111.292H70.9188V112.384H67.4388V111.292ZM77.9941 112.168C76.9741 112.168 76.2421 111.748 75.7381 111.22L76.4821 110.368C76.8421 110.764 77.3821 111.028 77.9341 111.028C79.0501 111.028 79.9981 110.092 79.9981 107.284C79.9981 105.076 79.3141 104.068 78.2341 104.068C77.4661 104.068 76.8661 104.752 76.8661 105.916C76.8661 107.032 77.3821 107.68 78.3061 107.68C78.8581 107.68 79.4821 107.368 79.9981 106.564L80.0701 107.572C79.5541 108.256 78.7621 108.688 78.0541 108.688C76.5781 108.688 75.5821 107.764 75.5821 105.916C75.5821 104.152 76.7821 103.012 78.2221 103.012C79.9141 103.012 81.2821 104.368 81.2821 107.284C81.2821 110.764 79.6981 112.168 77.9941 112.168ZM95.0572 101.968L95.7412 102.928C94.2532 103.372 92.1292 103.708 90.3412 103.9C90.3052 103.624 90.1492 103.216 90.0292 102.964C91.7812 102.748 93.8092 102.376 95.0572 101.968ZM90.5932 105.88H96.1732V106.96H90.5932V105.88ZM93.1372 106.468H94.2652V112.96H93.1372V106.468ZM85.0012 108.136C86.1172 107.872 87.8092 107.416 89.3932 106.972L89.5372 108.016C88.0732 108.448 86.4892 108.904 85.3012 109.228L85.0012 108.136ZM85.1932 104.224H89.4532V105.292H85.1932V104.224ZM86.7772 101.872H87.8932V111.7C87.8932 112.288 87.7732 112.588 87.4252 112.756C87.0652 112.936 86.5372 112.96 85.7212 112.96C85.6852 112.672 85.5292 112.204 85.3852 111.916C85.9012 111.94 86.3932 111.928 86.5492 111.928C86.7172 111.916 86.7772 111.868 86.7772 111.712V101.872ZM90.0292 102.964H91.1452V106.684C91.1452 108.88 90.9412 111.088 89.6452 113.02C89.4292 112.768 89.0332 112.468 88.7332 112.276C89.8852 110.512 90.0292 108.52 90.0292 106.672V102.964ZM97.3132 105.928H107.933V106.948H97.3132V105.928ZM98.0572 103.888H107.141V104.896H98.0572V103.888ZM104.441 106.132C105.185 107.296 106.697 108.244 108.365 108.664C108.113 108.892 107.789 109.324 107.621 109.612C105.881 109.06 104.357 107.92 103.469 106.468L104.441 106.132ZM102.293 101.824L103.481 101.944C102.977 104.992 101.345 107.968 97.6852 109.624C97.5652 109.336 97.2292 108.892 96.9772 108.676C100.469 107.212 101.933 104.488 102.293 101.824ZM99.0532 102.52L99.9532 102.088C100.337 102.532 100.781 103.156 100.961 103.576L100.013 104.068C99.8452 103.66 99.4252 103 99.0532 102.52ZM105.317 102.136L106.361 102.472C105.941 103.144 105.437 103.852 105.029 104.32L104.165 104.008C104.561 103.516 105.053 102.7 105.317 102.136ZM99.1732 108.256H104.993V109.288H99.1732V108.256ZM104.825 108.256H105.977C105.977 108.256 105.965 108.568 105.953 108.724C105.797 111.112 105.629 112.108 105.281 112.48C105.041 112.744 104.789 112.828 104.405 112.876C104.069 112.912 103.457 112.912 102.809 112.876C102.797 112.552 102.665 112.096 102.485 111.808C103.073 111.868 103.649 111.868 103.865 111.868C104.081 111.868 104.201 111.844 104.321 111.736C104.549 111.508 104.693 110.632 104.825 108.424V108.256ZM101.009 108.628H102.185C101.933 110.728 101.261 112.204 98.3812 112.984C98.2732 112.696 97.9732 112.24 97.7452 112.012C100.301 111.424 100.793 110.26 101.009 108.628Z" fill="white"/>
<path d="M170.759 103.384H181.355V104.452H170.759V103.384ZM173.687 107.692H179.255V108.652H173.687V107.692ZM178.859 105.652H179.975V111.7C179.975 112.312 179.855 112.636 179.411 112.816C178.979 112.996 178.307 112.996 177.299 112.996C177.251 112.684 177.095 112.204 176.939 111.904C177.659 111.94 178.379 111.928 178.595 111.928C178.799 111.916 178.859 111.856 178.859 111.688V105.652ZM174.599 101.872L175.763 102.136C174.947 104.764 173.507 107.428 171.251 109.024C171.083 108.76 170.723 108.364 170.507 108.148C172.607 106.72 173.975 104.2 174.599 101.872ZM173.627 109.696H179.255V110.656H173.627V109.696ZM173.615 105.652H179.147V106.66H173.615V105.652ZM173.003 105.652H174.143V108.844C174.143 110.224 173.915 112 172.691 113.092C172.547 112.852 172.103 112.372 171.887 112.216C172.895 111.28 173.003 109.96 173.003 108.832V105.652ZM182.675 103.588H188.267V104.608H182.675V103.588ZM183.983 104.788L184.955 105.088C184.499 106.168 183.791 107.368 183.167 108.136C182.999 107.956 182.603 107.596 182.375 107.428C182.987 106.744 183.599 105.736 183.983 104.788ZM185.999 106.72L187.067 106.912C186.359 109.504 185.063 111.496 183.215 112.744C183.059 112.528 182.663 112.108 182.435 111.916C184.223 110.836 185.411 109.024 185.999 106.72ZM185.963 105.172L186.803 104.728C187.367 105.388 187.991 106.3 188.231 106.912L187.331 107.428C187.115 106.816 186.515 105.868 185.963 105.172ZM183.623 107.764L184.463 107.152C185.675 108.34 187.127 109.972 187.763 111.088L186.851 111.808C186.263 110.692 184.847 108.976 183.623 107.764ZM189.527 104.02H193.523V105.076H189.527V104.02ZM189.707 101.86L190.775 102.028C190.355 104.452 189.659 106.756 188.543 108.256C188.411 108.028 188.039 107.572 187.811 107.368C188.807 106.072 189.383 104.008 189.707 101.86ZM191.843 104.728L192.923 104.86C192.335 108.976 191.003 111.556 188.051 113.068C187.907 112.852 187.511 112.42 187.271 112.216C190.151 110.92 191.363 108.52 191.843 104.728ZM189.743 105.736C190.355 108.52 191.639 110.992 193.703 112.108C193.451 112.324 193.091 112.732 192.911 113.02C190.751 111.7 189.491 109.096 188.783 105.952L189.743 105.736ZM184.415 102.208L185.375 101.848C185.723 102.292 186.071 102.88 186.227 103.288L185.219 103.708C185.075 103.288 184.739 102.664 184.415 102.208ZM196.043 102.652H204.131V112.84H202.919V103.792H197.207V112.876H196.043V102.652ZM196.835 106.756H203.423V107.872H196.835V106.756ZM196.823 110.956H203.435V112.096H196.823V110.956ZM213.395 102.448H216.623V103.48H213.395V102.448ZM213.395 105.184H216.623V106.192H213.395V105.184ZM213.383 107.956H216.647V108.976H213.383V107.956ZM216.131 102.448H217.223V111.676C217.223 112.276 217.103 112.6 216.719 112.78C216.347 112.96 215.759 112.984 214.871 112.984C214.835 112.684 214.679 112.18 214.535 111.892C215.111 111.916 215.711 111.916 215.891 111.904C216.059 111.904 216.131 111.844 216.131 111.664V102.448ZM212.927 102.448H213.995V106.828C213.995 108.7 213.839 111.352 212.783 113.056C212.603 112.852 212.135 112.516 211.883 112.408C212.843 110.836 212.927 108.556 212.927 106.828V102.448ZM206.615 103.396H212.423V104.392H206.615V103.396ZM208.091 105.304H211.055V106.192H208.091V105.304ZM208.091 107.188H211.067V108.076H208.091V107.188ZM206.459 109.108H212.387V110.116H206.459V109.108ZM207.599 102.016H208.631V109.492H207.599V102.016ZM210.515 102.016H211.559V109.492H210.515V102.016ZM208.055 110.296L209.135 110.608C208.691 111.508 207.995 112.432 207.347 113.032C207.131 112.84 206.687 112.516 206.423 112.36C207.083 111.844 207.707 111.064 208.055 110.296ZM209.807 110.74L210.671 110.272C211.151 110.812 211.727 111.544 211.991 112.036L211.067 112.576C210.839 112.096 210.275 111.304 209.807 110.74ZM224.051 105.628C223.499 105.628 223.043 105.22 223.043 104.632C223.043 104.032 223.499 103.624 224.051 103.624C224.591 103.624 225.059 104.032 225.059 104.632C225.059 105.22 224.591 105.628 224.051 105.628ZM224.051 111.436C223.499 111.436 223.043 111.028 223.043 110.44C223.043 109.84 223.499 109.432 224.051 109.432C224.591 109.432 225.059 109.84 225.059 110.44C225.059 111.028 224.591 111.436 224.051 111.436ZM230.567 112V111.196C233.183 108.892 234.515 107.176 234.515 105.724C234.515 104.776 234.011 104.116 233.027 104.116C232.331 104.116 231.755 104.548 231.287 105.088L230.495 104.332C231.263 103.504 232.043 103.012 233.195 103.012C234.815 103.012 235.859 104.056 235.859 105.664C235.859 107.356 234.491 109.12 232.619 110.92C233.075 110.872 233.639 110.824 234.071 110.824H236.279V112H230.567ZM240.315 112.168C238.575 112.168 237.459 110.62 237.459 107.548C237.459 104.5 238.575 103.012 240.315 103.012C242.043 103.012 243.171 104.5 243.171 107.548C243.171 110.62 242.043 112.168 240.315 112.168ZM240.315 111.064C241.215 111.064 241.839 110.104 241.839 107.548C241.839 105.028 241.215 104.092 240.315 104.092C239.415 104.092 238.779 105.028 238.779 107.548C238.779 110.104 239.415 111.064 240.315 111.064ZM244.254 112V111.196C246.87 108.892 248.202 107.176 248.202 105.724C248.202 104.776 247.698 104.116 246.714 104.116C246.018 104.116 245.442 104.548 244.974 105.088L244.182 104.332C244.95 103.504 245.73 103.012 246.882 103.012C248.502 103.012 249.546 104.056 249.546 105.664C249.546 107.356 248.178 109.12 246.306 110.92C246.762 110.872 247.326 110.824 247.758 110.824H249.966V112H244.254ZM253.786 112.168C252.406 112.168 251.506 111.616 250.906 110.944L251.59 110.056C252.106 110.584 252.754 111.028 253.678 111.028C254.662 111.028 255.346 110.476 255.346 109.564C255.346 108.58 254.722 107.956 252.742 107.956V106.924C254.47 106.924 255.046 106.276 255.046 105.388C255.046 104.608 254.542 104.116 253.69 104.116C253.018 104.116 252.442 104.44 251.938 104.944L251.206 104.068C251.914 103.444 252.73 103.012 253.75 103.012C255.334 103.012 256.45 103.828 256.45 105.28C256.45 106.3 255.862 107.008 254.926 107.356V107.416C255.946 107.68 256.75 108.436 256.75 109.636C256.75 111.232 255.418 112.168 253.786 112.168ZM259.214 112.168C258.686 112.168 258.29 111.76 258.29 111.196C258.29 110.62 258.686 110.224 259.214 110.224C259.73 110.224 260.138 110.62 260.138 111.196C260.138 111.76 259.73 112.168 259.214 112.168ZM264.42 112.168C262.68 112.168 261.564 110.62 261.564 107.548C261.564 104.5 262.68 103.012 264.42 103.012C266.148 103.012 267.276 104.5 267.276 107.548C267.276 110.62 266.148 112.168 264.42 112.168ZM264.42 111.064C265.32 111.064 265.944 110.104 265.944 107.548C265.944 105.028 265.32 104.092 264.42 104.092C263.52 104.092 262.884 105.028 262.884 107.548C262.884 110.104 263.52 111.064 264.42 111.064ZM271.528 112.168C269.848 112.168 268.48 110.752 268.48 107.752C268.48 104.368 270.064 103.012 271.816 103.012C272.8 103.012 273.52 103.42 274.024 103.96L273.268 104.8C272.944 104.416 272.404 104.14 271.888 104.14C270.712 104.14 269.764 105.052 269.764 107.752C269.764 110.032 270.436 111.1 271.516 111.1C272.284 111.1 272.884 110.404 272.884 109.264C272.884 108.124 272.368 107.488 271.432 107.488C270.904 107.488 270.268 107.8 269.74 108.604L269.68 107.596C270.196 106.9 271.012 106.492 271.672 106.492C273.16 106.492 274.168 107.392 274.168 109.264C274.168 111.016 272.956 112.168 271.528 112.168ZM276.476 112.168C275.948 112.168 275.552 111.76 275.552 111.196C275.552 110.62 275.948 110.224 276.476 110.224C276.992 110.224 277.4 110.62 277.4 111.196C277.4 111.76 276.992 112.168 276.476 112.168ZM278.778 112V111.196C281.394 108.892 282.726 107.176 282.726 105.724C282.726 104.776 282.222 104.116 281.238 104.116C280.542 104.116 279.966 104.548 279.498 105.088L278.706 104.332C279.474 103.504 280.254 103.012 281.406 103.012C283.026 103.012 284.07 104.056 284.07 105.664C284.07 107.356 282.702 109.12 280.83 110.92C281.286 110.872 281.85 110.824 282.282 110.824H284.49V112H278.778ZM287.409 112C287.565 108.784 288.129 106.72 289.845 104.344H285.693V103.168H291.369V104.008C289.305 106.6 288.981 108.556 288.825 112H287.409Z" fill="#3493FB"/>
<g filter="url(#filter2_d_1135_574)">
<path d="M23 40C23 38.3431 24.3431 37 26 37H56C57.6569 37 59 38.3431 59 40V52C59 53.6569 57.6569 55 56 55H23V40Z" fill="#FFCD78"/>
</g>
<path d="M23 55H28V60L25.5 57.5L23 55Z" fill="#FFCD78"/>
<path d="M31.85 41.97H34.25V42.82H32.68V50.82H31.85V41.97ZM34.08 41.97H34.24L34.38 41.93L35 42.29C34.72 43.12 34.37 44.11 34.06 44.9C34.73 45.72 34.88 46.43 34.88 47.04C34.88 47.63 34.76 48.06 34.46 48.28C34.32 48.39 34.13 48.45 33.92 48.48C33.73 48.51 33.48 48.51 33.25 48.5C33.25 48.27 33.17 47.91 33.03 47.68C33.24 47.69 33.41 47.7 33.56 47.69C33.66 47.68 33.77 47.66 33.85 47.6C33.98 47.5 34.04 47.25 34.04 46.95C34.04 46.43 33.89 45.75 33.23 45C33.56 44.1 33.9 42.88 34.08 42.23V41.97ZM35.87 41.99H39.88V46.48H35.87V45.65H38.96V42.81H35.87V41.99ZM35.93 43.83H39.47V44.61H35.93V43.83ZM37.84 45.99C38.25 47.82 39.16 49.32 40.69 49.97C40.48 50.16 40.19 50.53 40.05 50.79C38.43 49.96 37.53 48.29 37.06 46.14L37.84 45.99ZM39.85 46.7L40.47 47.37C39.9 47.83 39.16 48.33 38.61 48.64L38.11 48.05C38.64 47.72 39.41 47.14 39.85 46.7ZM35.41 50.86L35.33 50.03L35.75 49.71L37.94 49.2C37.94 49.47 37.95 49.85 37.98 50.06C35.96 50.59 35.62 50.72 35.41 50.86ZM35.41 50.86C35.34 50.65 35.14 50.27 35 50.1C35.17 49.99 35.41 49.76 35.41 49.32V41.99H36.33V49.97C36.33 49.97 35.41 50.52 35.41 50.86ZM43.66 43.35V43.81H48.28V43.35H43.66ZM43.66 42.4V42.85H48.28V42.4H43.66ZM42.75 41.88H49.23V44.33H42.75V41.88ZM43.46 47.3V47.78H48.57V47.3H43.46ZM43.46 46.32V46.79H48.57V46.32H43.46ZM42.57 45.78H49.5V48.32H42.57V45.78ZM45.52 45.97H46.44V50.27H45.52V45.97ZM41.49 44.7H50.52V45.4H41.49V44.7ZM42.32 48.77H49.71V49.4H42.32V48.77ZM41.45 49.89H50.56V50.6H41.45V49.89Z" fill="white"/>
<path d="M144.85 41.97H147.25V42.82H145.68V50.82H144.85V41.97ZM147.08 41.97H147.24L147.38 41.93L148 42.29C147.72 43.12 147.37 44.11 147.06 44.9C147.73 45.72 147.88 46.43 147.88 47.04C147.88 47.63 147.76 48.06 147.46 48.28C147.32 48.39 147.13 48.45 146.92 48.48C146.73 48.51 146.48 48.51 146.25 48.5C146.25 48.27 146.17 47.91 146.03 47.68C146.24 47.69 146.41 47.7 146.56 47.69C146.66 47.68 146.77 47.66 146.85 47.6C146.98 47.5 147.04 47.25 147.04 46.95C147.04 46.43 146.89 45.75 146.23 45C146.56 44.1 146.9 42.88 147.08 42.23V41.97ZM148.87 41.99H152.88V46.48H148.87V45.65H151.96V42.81H148.87V41.99ZM148.93 43.83H152.47V44.61H148.93V43.83ZM150.84 45.99C151.25 47.82 152.16 49.32 153.69 49.97C153.48 50.16 153.19 50.53 153.05 50.79C151.43 49.96 150.53 48.29 150.06 46.14L150.84 45.99ZM152.85 46.7L153.47 47.37C152.9 47.83 152.16 48.33 151.61 48.64L151.11 48.05C151.64 47.72 152.41 47.14 152.85 46.7ZM148.41 50.86L148.33 50.03L148.75 49.71L150.94 49.2C150.94 49.47 150.95 49.85 150.98 50.06C148.96 50.59 148.62 50.72 148.41 50.86ZM148.41 50.86C148.34 50.65 148.14 50.27 148 50.1C148.17 49.99 148.41 49.76 148.41 49.32V41.99H149.33V49.97C149.33 49.97 148.41 50.52 148.41 50.86ZM156.66 43.35V43.81H161.28V43.35H156.66ZM156.66 42.4V42.85H161.28V42.4H156.66ZM155.75 41.88H162.23V44.33H155.75V41.88ZM156.46 47.3V47.78H161.57V47.3H156.46ZM156.46 46.32V46.79H161.57V46.32H156.46ZM155.57 45.78H162.5V48.32H155.57V45.78ZM158.52 45.97H159.44V50.27H158.52V45.97ZM154.49 44.7H163.52V45.4H154.49V44.7ZM155.32 48.77H162.71V49.4H155.32V48.77ZM154.45 49.89H163.56V50.6H154.45V49.89Z" fill="white"/>
<path d="M152 117C157.523 117 162 112.523 162 107C162 101.477 157.523 97 152 97C146.477 97 142 101.477 142 107C142 112.523 146.477 117 152 117Z" stroke="#3493FB" stroke-width="2" stroke-linecap="round" stroke-linejoin="round"/>
<path d="M152 101V107L156 109" stroke="#3493FB" stroke-width="2" stroke-linecap="round" stroke-linejoin="round"/>
<path d="M144.196 78.92L145.264 79.256C144.484 81.296 143.248 83.384 141.94 84.74C141.832 84.464 141.52 83.852 141.328 83.588C142.468 82.46 143.548 80.696 144.196 78.92ZM142.984 82.112L144.052 81.032L144.064 81.044V89.996H142.984V82.112ZM146.452 83.42H152.524V84.476H146.452V83.42ZM151.288 78.812L152.164 79.664C150.472 80.264 148.072 80.72 145.972 80.996C145.924 80.744 145.768 80.348 145.636 80.108C147.676 79.808 149.956 79.328 151.288 78.812ZM149.032 80.156H150.064C150.172 84.68 150.82 88.604 151.624 88.628C151.816 88.64 151.96 88.04 152.032 86.984C152.212 87.2 152.632 87.464 152.812 87.548C152.56 89.408 152.092 89.912 151.624 89.9C149.86 89.876 149.212 85.616 149.032 80.156ZM145.504 88.964L145.42 88.04L145.9 87.68L148.804 86.96C148.78 87.248 148.792 87.68 148.816 87.92C146.176 88.652 145.768 88.796 145.504 88.964ZM145.504 88.964C145.444 88.712 145.252 88.268 145.084 88.052C145.324 87.956 145.636 87.728 145.636 87.248V80.108L146.704 80.384V88.052C146.704 88.052 145.504 88.604 145.504 88.964ZM146.764 88.784H149.98V89.72H146.764V88.784ZM158.176 82.28H163.288V83.312H158.176V82.28ZM157.648 82.28H158.704V85.772C158.704 87.128 158.596 88.916 157.9 90.08C157.72 89.9 157.264 89.564 157.012 89.444C157.6 88.4 157.648 86.948 157.648 85.772V82.28ZM158.788 86.696C159.892 86.48 161.572 86.096 163.168 85.724L163.276 86.612C161.848 86.984 160.312 87.368 159.148 87.644L158.788 86.696ZM158.98 84.644L159.436 83.936C160.42 84.152 161.704 84.572 162.376 84.932L161.896 85.724C161.248 85.352 159.976 84.884 158.98 84.644ZM163.396 79.184L164.488 79.592C164.08 80.408 163.6 81.272 163.192 81.86L162.22 81.476C162.616 80.864 163.12 79.904 163.396 79.184ZM157.324 79.688L158.284 79.256C158.788 79.928 159.316 80.828 159.508 81.44L158.488 81.932C158.308 81.32 157.816 80.384 157.324 79.688ZM162.952 82.28H164.056V88.712C164.056 89.288 163.936 89.6 163.54 89.78C163.132 89.96 162.52 89.972 161.608 89.972C161.56 89.672 161.404 89.192 161.26 88.892C161.884 88.928 162.52 88.928 162.7 88.916C162.892 88.904 162.952 88.856 162.952 88.688V82.28ZM160.312 78.86H161.452V82.952H160.312V78.86ZM154.204 79.844L154.864 79.04C155.56 79.424 156.556 80 157.072 80.348L156.376 81.26C155.896 80.876 154.912 80.264 154.204 79.844ZM153.532 83.156L154.144 82.316C154.84 82.652 155.872 83.18 156.388 83.516L155.764 84.452C155.272 84.116 154.252 83.54 153.532 83.156ZM153.94 89.096C154.576 88.184 155.512 86.636 156.22 85.268L157.048 86.012C156.412 87.284 155.608 88.724 154.9 89.864L153.94 89.096ZM171.155 89.168C170.231 89.168 169.163 88.736 168.491 88.112L169.127 87.164C169.739 87.668 170.387 88.028 171.155 88.028C172.079 88.028 172.535 87.56 172.535 86.792C172.535 84.848 168.839 85.184 168.839 82.616C168.839 81.188 169.847 80.252 171.359 80.252C172.463 80.252 173.147 80.696 173.723 81.308L173.003 82.124C172.511 81.644 172.103 81.392 171.419 81.392C170.639 81.392 170.171 81.824 170.171 82.544C170.171 84.296 173.879 83.888 173.879 86.684C173.879 88.16 172.859 89.168 171.155 89.168ZM170.819 90.488V88.64H171.791V90.488H170.819ZM170.819 80.72V78.92H171.791V80.72H170.819ZM175.719 89V87.86H177.663V81.716H176.067V80.84C176.907 80.696 177.483 80.48 177.999 80.168H179.043V87.86H180.771V89H175.719ZM184.963 89.168C183.223 89.168 182.107 87.62 182.107 84.548C182.107 81.5 183.223 80.012 184.963 80.012C186.691 80.012 187.819 81.5 187.819 84.548C187.819 87.62 186.691 89.168 184.963 89.168ZM184.963 88.064C185.863 88.064 186.487 87.104 186.487 84.548C186.487 82.028 185.863 81.092 184.963 81.092C184.063 81.092 183.427 82.028 183.427 84.548C183.427 87.104 184.063 88.064 184.963 88.064ZM191.807 89.168C190.067 89.168 188.951 87.62 188.951 84.548C188.951 81.5 190.067 80.012 191.807 80.012C193.535 80.012 194.663 81.5 194.663 84.548C194.663 87.62 193.535 89.168 191.807 89.168ZM191.807 88.064C192.707 88.064 193.331 87.104 193.331 84.548C193.331 82.028 192.707 81.092 191.807 81.092C190.907 81.092 190.271 82.028 190.271 84.548C190.271 87.104 190.907 88.064 191.807 88.064ZM198.65 89.168C196.91 89.168 195.794 87.62 195.794 84.548C195.794 81.5 196.91 80.012 198.65 80.012C200.378 80.012 201.506 81.5 201.506 84.548C201.506 87.62 200.378 89.168 198.65 89.168ZM198.65 88.064C199.55 88.064 200.174 87.104 200.174 84.548C200.174 82.028 199.55 81.092 198.65 81.092C197.75 81.092 197.114 82.028 197.114 84.548C197.114 87.104 197.75 88.064 198.65 88.064ZM206.678 79.292H214.886V83.06H213.734V80.12H207.782V83.06H206.678V79.292ZM208.25 80.732H213.266V81.44H208.25V80.732ZM208.25 82.052H213.242V82.796H208.25V82.052ZM205.418 83.456H216.086V84.38H205.418V83.456ZM210.734 84.992H214.898V85.892H210.734V84.992ZM207.086 85.028H209.942V85.844H207.086V85.028ZM207.086 86.516H209.942V87.332H207.086V86.516ZM212.15 85.808C212.846 87.416 214.322 88.64 216.314 89.12C216.074 89.324 215.786 89.744 215.63 90.008C213.542 89.396 212.042 88.004 211.238 86.072L212.15 85.808ZM214.634 84.992H214.838L215.03 84.956L215.726 85.232C214.97 87.716 213.146 89.24 211.022 89.984C210.89 89.72 210.614 89.312 210.41 89.096C212.318 88.532 214.034 87.128 214.634 85.172V84.992ZM205.274 88.34C206.45 88.256 208.226 88.088 209.954 87.92L209.978 88.808C208.334 89 206.63 89.18 205.382 89.312L205.274 88.34ZM209.354 83.756H210.434V90.008H209.354V83.756ZM206.39 83.768H207.434V88.616H206.39V83.768ZM217.454 80.072H228.038V81.044H217.454V80.072ZM220.31 82.412V83.312H225.278V82.412H220.31ZM219.17 81.62H226.466V84.104H219.17V81.62ZM217.838 84.692H227.354V85.64H218.942V90.008H217.838V84.692ZM226.562 84.692H227.702V88.904C227.702 89.42 227.57 89.648 227.186 89.792C226.814 89.912 226.238 89.924 225.434 89.912C225.386 89.66 225.23 89.312 225.098 89.084C225.59 89.108 226.19 89.096 226.334 89.096C226.49 89.084 226.562 89.048 226.562 88.904V84.692ZM221.93 79.088L223.07 78.812C223.274 79.328 223.538 80.012 223.646 80.408L222.446 80.744C222.35 80.324 222.11 79.616 221.93 79.088ZM220.718 86.228H225.266V88.796H220.718V87.98H224.258V87.044H220.718V86.228ZM220.106 86.228H221.162V89.348H220.106V86.228ZM239.21 78.968L239.894 79.928C238.406 80.372 236.282 80.708 234.494 80.9C234.458 80.624 234.302 80.216 234.182 79.964C235.934 79.748 237.962 79.376 239.21 78.968ZM234.746 82.88H240.326V83.96H234.746V82.88ZM237.29 83.468H238.418V89.96H237.29V83.468ZM229.154 85.136C230.27 84.872 231.962 84.416 233.546 83.972L233.69 85.016C232.226 85.448 230.642 85.904 229.454 86.228L229.154 85.136ZM229.346 81.224H233.606V82.292H229.346V81.224ZM230.93 78.872H232.046V88.7C232.046 89.288 231.926 89.588 231.578 89.756C231.218 89.936 230.69 89.96 229.874 89.96C229.838 89.672 229.682 89.204 229.538 88.916C230.054 88.94 230.546 88.928 230.702 88.928C230.87 88.916 230.93 88.868 230.93 88.712V78.872ZM234.182 79.964H235.298V83.684C235.298 85.88 235.094 88.088 233.798 90.02C233.582 89.768 233.186 89.468 232.886 89.276C234.038 87.512 234.182 85.52 234.182 83.672V79.964ZM246.765 89.168C245.841 89.168 244.773 88.736 244.101 88.112L244.737 87.164C245.349 87.668 245.997 88.028 246.765 88.028C247.689 88.028 248.145 87.56 248.145 86.792C248.145 84.848 244.449 85.184 244.449 82.616C244.449 81.188 245.457 80.252 246.969 80.252C248.073 80.252 248.757 80.696 249.333 81.308L248.613 82.124C248.121 81.644 247.713 81.392 247.029 81.392C246.249 81.392 245.781 81.824 245.781 82.544C245.781 84.296 249.489 83.888 249.489 86.684C249.489 88.16 248.469 89.168 246.765 89.168ZM246.429 90.488V88.64H247.401V90.488H246.429ZM246.429 80.72V78.92H247.401V80.72H246.429ZM253.525 89.168C252.133 89.168 251.257 88.604 250.621 87.98L251.293 87.08C251.785 87.584 252.433 88.028 253.357 88.028C254.353 88.028 255.097 87.32 255.097 86.144C255.097 84.98 254.425 84.308 253.417 84.308C252.865 84.308 252.529 84.464 252.013 84.8L251.329 84.368L251.593 80.168H256.081V81.344H252.805L252.601 83.6C252.973 83.408 253.333 83.3 253.813 83.3C255.289 83.3 256.501 84.164 256.501 86.108C256.501 88.052 255.061 89.168 253.525 89.168ZM260.572 89.168C258.832 89.168 257.716 87.62 257.716 84.548C257.716 81.5 258.832 80.012 260.572 80.012C262.3 80.012 263.428 81.5 263.428 84.548C263.428 87.62 262.3 89.168 260.572 89.168ZM260.572 88.064C261.472 88.064 262.096 87.104 262.096 84.548C262.096 82.028 261.472 81.092 260.572 81.092C259.672 81.092 259.036 82.028 259.036 84.548C259.036 87.104 259.672 88.064 260.572 88.064ZM267.416 89.168C265.676 89.168 264.56 87.62 264.56 84.548C264.56 81.5 265.676 80.012 267.416 80.012C269.144 80.012 270.272 81.5 270.272 84.548C270.272 87.62 269.144 89.168 267.416 89.168ZM267.416 88.064C268.316 88.064 268.94 87.104 268.94 84.548C268.94 82.028 268.316 81.092 267.416 81.092C266.516 81.092 265.88 82.028 265.88 84.548C265.88 87.104 266.516 88.064 267.416 88.064Z" fill="#003060"/>
<rect x="141" y="52" width="49" height="18" rx="2" fill="#003060"/>
<path d="M145.41 60.59H154.61V61.62H145.41V60.59ZM155.36 61.02C156.45 60.95 158.13 60.82 159.78 60.67L159.79 61.43C158.24 61.6 156.61 61.77 155.44 61.89L155.36 61.02ZM156.67 57.57H158.93V58.33H156.67V57.57ZM157.43 56.53L158.38 56.66C158.2 57.12 158.01 57.57 157.86 57.88L157.06 57.75C157.2 57.39 157.36 56.89 157.43 56.53ZM156.09 57.57H156.93V60.57C156.93 62.11 156.82 64.36 156.09 65.87C155.93 65.72 155.56 65.47 155.36 65.39C156.03 63.98 156.09 62.01 156.09 60.57V57.57ZM161.01 57.01H163.11V57.82H161.01V57.01ZM160.08 60.8H163.65V61.64H160.08V60.8ZM160.44 57.01H161.32V58.3C161.32 59.06 161.17 59.97 160.41 60.54C160.28 60.37 159.91 60.06 159.73 59.94C160.37 59.46 160.44 58.85 160.44 58.28V57.01ZM158.69 57.57H159.55V64.75C159.55 65.21 159.45 65.45 159.15 65.6C158.85 65.74 158.37 65.75 157.69 65.75C157.66 65.52 157.55 65.14 157.43 64.92C157.88 64.94 158.36 64.93 158.5 64.93C158.65 64.92 158.69 64.88 158.69 64.74V57.57ZM157.09 59.08L157.69 58.79C157.97 59.21 158.28 59.75 158.43 60.11L157.81 60.45C157.67 60.08 157.36 59.5 157.09 59.08ZM163.46 60.8H163.64L163.8 60.78L164.35 60.99C163.77 63.7 162.25 65.12 160.23 65.79C160.12 65.58 159.86 65.2 159.68 65.04C161.61 64.47 163 63.26 163.46 60.96V60.8ZM161.03 61.52C161.62 63.16 162.88 64.42 164.69 64.95C164.48 65.13 164.21 65.49 164.07 65.74C162.17 65.09 160.9 63.69 160.2 61.76L161.03 61.52ZM157.11 62.34L157.73 62.05C158.02 62.51 158.34 63.11 158.48 63.5L157.85 63.84C157.7 63.44 157.39 62.81 157.11 62.34ZM162.7 57.01H163.56V59.06C163.56 59.33 163.58 59.42 163.71 59.42C163.8 59.42 164.08 59.42 164.17 59.42C164.29 59.42 164.51 59.4 164.62 59.36C164.64 59.59 164.66 59.91 164.69 60.12C164.57 60.17 164.36 60.18 164.19 60.18C164.06 60.18 163.74 60.18 163.62 60.18C162.85 60.18 162.7 59.85 162.7 59.05V57.01ZM166.11 59.74H173.53V60.52H167.01V65.82H166.11V59.74ZM173.05 59.74H173.92V64.89C173.92 65.34 173.81 65.55 173.48 65.67C173.16 65.78 172.63 65.79 171.8 65.79C171.76 65.58 171.64 65.28 171.53 65.08C172.09 65.1 172.67 65.09 172.82 65.08C172.99 65.08 173.05 65.03 173.05 64.89V59.74ZM168.58 62.22H171.86V64.58H168.58V63.91H171.08V62.9H168.58V62.22ZM168.08 62.22H168.88V65.03H168.08V62.22ZM165.58 57.59H174.43V58.4H165.58V57.59ZM167.69 58.62L168.5 58.36C168.71 58.71 168.98 59.18 169.11 59.47L168.27 59.79C168.15 59.49 167.9 58.99 167.69 58.62ZM171.45 58.41L172.4 58.62C172.08 59.15 171.72 59.74 171.43 60.11L170.7 59.91C170.96 59.5 171.29 58.86 171.45 58.41ZM169.35 56.73L170.25 56.5C170.42 56.91 170.61 57.44 170.71 57.78L169.77 58.05C169.69 57.7 169.51 57.14 169.35 56.73ZM168.64 60.15H169.47C169.37 61.36 168.98 62.01 167.43 62.35C167.37 62.16 167.16 61.85 167 61.7C168.29 61.47 168.57 61.05 168.64 60.15ZM170.38 60.16H171.22V60.99C171.22 61.21 171.24 61.29 171.41 61.29C171.54 61.29 172 61.29 172.14 61.29C172.29 61.29 172.56 61.28 172.7 61.24C172.72 61.46 172.73 61.69 172.76 61.89C172.63 61.94 172.37 61.95 172.16 61.95C171.97 61.95 171.38 61.95 171.21 61.95C170.51 61.95 170.38 61.64 170.38 60.98V60.16ZM178.11 57.88V59.54H181.9V57.88H178.11ZM177.19 56.98H182.86V60.44H177.19V56.98ZM175.77 61.41H179.45V65.77H178.5V62.31H176.67V65.84H175.77V61.41ZM180.43 61.41H184.28V65.79H183.33V62.31H181.34V65.84H180.43V61.41ZM176.17 64.41H178.89V65.32H176.17V64.41ZM180.88 64.41H183.78V65.32H180.88V64.41Z" fill="white"/>
<path d="M205.059 60.23H206.529V69.26H205.059V60.23ZM202.044 62.825V63.905H209.739V62.825H202.044ZM202.044 60.695V61.775H209.739V60.695H202.044ZM200.649 59.585H211.194V65.015H200.649V59.585ZM199.179 66.005H212.544V67.25H199.179V66.005ZM201.459 56.825V58.01H204.009V56.825H201.459ZM200.199 55.925H205.344V58.895H200.199V55.925ZM207.684 56.825V58.01H210.264V56.825H207.684ZM206.409 55.925H211.599V58.895H206.409V55.925ZM222.294 55.535H223.734V69.26H222.294V55.535ZM219.729 56.135L221.094 56.405C220.674 58.475 219.969 60.545 219.144 61.88C218.859 61.67 218.259 61.34 217.914 61.19C218.754 59.96 219.384 58.04 219.729 56.135ZM220.059 58.34H227.049V59.735H219.714L220.059 58.34ZM218.094 62.735H227.724V64.115H218.094V62.735ZM217.194 55.4L218.544 55.82C217.584 58.355 216.099 60.965 214.524 62.675C214.389 62.33 213.984 61.58 213.729 61.235C215.109 59.825 216.414 57.62 217.194 55.4ZM215.694 59.39L217.044 58.04V58.055V69.245H215.694V59.39ZM235.368 68.21C234.093 68.21 233.178 67.685 232.548 67.025L233.478 65.96C233.928 66.455 234.603 66.785 235.293 66.785C236.688 66.785 237.873 65.615 237.873 62.105C237.873 59.345 237.018 58.085 235.668 58.085C234.708 58.085 233.958 58.94 233.958 60.395C233.958 61.79 234.603 62.6 235.758 62.6C236.448 62.6 237.228 62.21 237.873 61.205L237.963 62.465C237.318 63.32 236.328 63.86 235.443 63.86C233.598 63.86 232.353 62.705 232.353 60.395C232.353 58.19 233.853 56.765 235.653 56.765C237.768 56.765 239.478 58.46 239.478 62.105C239.478 66.455 237.498 68.21 235.368 68.21ZM256.696 55.46L257.551 56.66C255.691 57.215 253.036 57.635 250.801 57.875C250.756 57.53 250.561 57.02 250.411 56.705C252.601 56.435 255.136 55.97 256.696 55.46ZM251.116 60.35H258.091V61.7H251.116V60.35ZM254.296 61.085H255.706V69.2H254.296V61.085ZM244.126 63.17C245.521 62.84 247.636 62.27 249.616 61.715L249.796 63.02C247.966 63.56 245.986 64.13 244.501 64.535L244.126 63.17ZM244.366 58.28H249.691V59.615H244.366V58.28ZM246.346 55.34H247.741V67.625C247.741 68.36 247.591 68.735 247.156 68.945C246.706 69.17 246.046 69.2 245.026 69.2C244.981 68.84 244.786 68.255 244.606 67.895C245.251 67.925 245.866 67.91 246.061 67.91C246.271 67.895 246.346 67.835 246.346 67.64V55.34ZM250.411 56.705H251.806V61.355C251.806 64.1 251.551 66.86 249.931 69.275C249.661 68.96 249.166 68.585 248.791 68.345C250.231 66.14 250.411 63.65 250.411 61.34V56.705Z" fill="#003060"/>
<path d="M141.648 38.7H152.376V39.744H141.648V38.7ZM142.404 36.252H151.572V37.296H142.404V36.252ZM144.588 39.168L145.692 39.468C144.9 40.908 143.532 42.06 142.104 42.78C141.936 42.552 141.528 42.108 141.288 41.916C142.68 41.328 143.94 40.368 144.588 39.168ZM149.256 39.204C149.928 40.284 151.284 41.304 152.652 41.76C152.412 41.976 152.076 42.384 151.92 42.66C150.468 42.072 149.112 40.86 148.32 39.504L149.256 39.204ZM144.492 34.86H145.62V39.348H144.492V34.86ZM148.32 34.86H149.448V39.348H148.32V34.86ZM145.704 40.74H146.784V44.784C146.784 45.348 146.676 45.648 146.28 45.828C145.896 45.996 145.308 46.008 144.48 46.008C144.444 45.696 144.3 45.252 144.156 44.94C144.744 44.964 145.308 44.964 145.488 44.964C145.656 44.952 145.704 44.916 145.704 44.772V40.74ZM143.916 41.76L144.876 42.156C144.492 43.044 143.964 44.076 143.268 44.748L142.32 44.196C143.004 43.584 143.592 42.6 143.916 41.76ZM147.276 42.132L148.2 41.928C148.56 42.732 148.86 43.788 148.956 44.496L147.984 44.724C147.9 44.016 147.612 42.948 147.276 42.132ZM148.836 41.82L149.748 41.448C150.48 42.336 151.224 43.524 151.56 44.352L150.576 44.796C150.276 43.98 149.532 42.72 148.836 41.82ZM155.784 44.868H162.288V45.66H155.784V44.868ZM155.088 43.08H162.996V46.008H161.832V43.872H156.204V46.02H155.088V43.08ZM153.924 35.664H164.1V36.504H153.924V35.664ZM154.764 37.176H163.332V37.992H154.764V37.176ZM153.528 41.628H164.448V42.516H153.528V41.628ZM158.376 34.86H159.54V37.5H158.376V34.86ZM156.108 40.92L157.14 40.644C157.368 40.968 157.572 41.412 157.656 41.712L156.576 42.024C156.516 41.724 156.312 41.244 156.108 40.92ZM160.752 40.608L161.988 40.824C161.712 41.292 161.424 41.712 161.196 42.012L160.224 41.784C160.416 41.436 160.644 40.944 160.752 40.608ZM156.384 39.252V40.056H161.616V39.252H156.384ZM155.304 38.508H162.756V40.788H155.304V38.508ZM170.532 34.884L171.576 35.136C171.12 36.42 170.352 37.644 169.524 38.436C169.344 38.244 168.924 37.884 168.684 37.728C169.476 37.044 170.148 35.976 170.532 34.884ZM170.508 38.232L171.54 38.52C171.144 39.456 170.484 40.416 169.836 41.028C169.656 40.836 169.236 40.512 168.996 40.356C169.62 39.828 170.184 39.024 170.508 38.232ZM170.544 35.94H175.56V36.912H170.148L170.544 35.94ZM173.88 38.64L174.792 38.208C175.392 38.928 176.004 39.888 176.28 40.536L175.32 41.04C175.056 40.392 174.444 39.372 173.88 38.64ZM175.26 35.94H175.428L175.608 35.904L176.4 36.084C176.1 36.816 175.728 37.644 175.44 38.172L174.468 37.968C174.732 37.488 175.056 36.708 175.26 36.084V35.94ZM168.204 34.836L169.212 35.172C168.444 36.684 167.232 38.184 166.068 39.144C165.936 38.928 165.576 38.46 165.36 38.244C166.464 37.428 167.544 36.132 168.204 34.836ZM167.1 37.236L168.168 36.168L168.192 36.18V41.82H167.1V37.236ZM168.096 42.396H169.236V44.34C169.236 44.7 169.368 44.748 170.124 44.748C170.472 44.748 172.14 44.748 172.608 44.748C173.232 44.748 173.34 44.592 173.4 43.392C173.652 43.584 174.132 43.752 174.444 43.812C174.3 45.408 173.952 45.792 172.68 45.792C172.356 45.792 170.364 45.792 170.04 45.792C168.492 45.792 168.096 45.48 168.096 44.364V42.396ZM169.956 41.928L170.82 41.436C171.468 42.024 172.2 42.876 172.524 43.464L171.576 44.028C171.288 43.44 170.58 42.552 169.956 41.928ZM174.096 42.576L175.104 42.18C175.656 43.044 176.22 44.172 176.412 44.928L175.332 45.36C175.164 44.616 174.636 43.452 174.096 42.576ZM166.68 42.408L167.7 42.828C167.4 43.656 166.98 44.784 166.56 45.528L165.492 45.024C165.96 44.316 166.416 43.236 166.68 42.408ZM172.272 37.296H173.364V41.772H172.272V37.296ZM182.508 42.024L182.232 37.608L182.184 36.024H183.804L183.756 37.608L183.48 42.024H182.508ZM183 45.084C182.484 45.084 182.1 44.724 182.1 44.184C182.1 43.632 182.496 43.26 183 43.26C183.492 43.26 183.888 43.632 183.888 44.184C183.888 44.724 183.492 45.084 183 45.084ZM189.708 35.736L190.452 35.124C192.636 36.996 192.912 39.108 192.912 41.364C192.912 43.044 192.78 44.592 192.288 45.3C192.12 45.528 191.892 45.684 191.604 45.732C191.184 45.828 190.68 45.84 190.14 45.804C190.14 45.444 190.02 45.024 189.828 44.7C190.428 44.76 190.872 44.748 191.124 44.724C191.316 44.7 191.412 44.64 191.508 44.508C191.772 44.136 191.88 42.84 191.88 41.328C191.88 39.204 191.58 37.392 189.708 35.736ZM191.88 39.144L192.66 39.636C192.096 40.92 191.028 42.336 190.032 43.14C189.888 42.852 189.624 42.42 189.396 42.18C190.344 41.568 191.376 40.296 191.88 39.144ZM192.372 35.124L193.188 35.664C192.444 36.96 191.088 38.496 189.948 39.384C189.816 39.084 189.54 38.616 189.324 38.364C190.416 37.68 191.724 36.288 192.372 35.124ZM196.572 38.304H197.592V41.856H196.572V38.304ZM194.52 39.108H199.776V39.732H194.52V39.108ZM194.52 40.248H199.776V40.86H194.52V40.248ZM193.428 42.588H199.332V43.416H193.428V42.588ZM194.376 36.972L195.336 37.296C194.844 38.196 194.076 39.156 193.416 39.78C193.26 39.6 192.888 39.228 192.672 39.048C193.308 38.52 193.968 37.74 194.376 36.972ZM199.02 42.588H199.26L199.44 42.552L200.088 42.972C198.732 44.748 195.924 45.612 193.116 45.996C193.044 45.756 192.792 45.324 192.612 45.12C195.324 44.844 197.952 44.124 199.02 42.732V42.588ZM194.7 43.212C195.852 44.256 198.252 44.892 200.7 45.108C200.472 45.324 200.184 45.732 200.052 45.996C197.544 45.696 195.132 44.904 193.776 43.596L194.7 43.212ZM195.156 34.884H196.176V37.248H195.156V34.884ZM197.364 34.884H198.408V37.272H197.364V34.884ZM193.272 35.712H195.708V36.552H193.272V35.712ZM196.056 37.272L196.86 36.852C197.208 37.212 197.628 37.68 197.832 37.992L197.016 38.496C196.812 38.172 196.392 37.644 196.056 37.272ZM194.088 41.388H200.208V42.096H194.088V41.388ZM194.856 37.932H200.064V38.628H194.856V42.372H193.872V38.748L194.652 37.932H194.856ZM197.892 35.688H200.532V36.528H197.892V35.688ZM206.976 37.644V38.472H210.588V37.644H206.976ZM206.976 36.06V36.864H210.588V36.06H206.976ZM205.884 35.232H211.728V39.3H205.884V35.232ZM205.2 39.996H212.22V40.932H205.2V39.996ZM204.912 41.808H212.448V42.792H204.912V41.808ZM209.568 40.812H210.708V44.832C210.708 45.396 210.6 45.684 210.192 45.84C209.796 46.008 209.208 46.02 208.344 46.02C208.296 45.708 208.128 45.288 207.984 45C208.584 45.024 209.172 45.024 209.34 45.012C209.52 45 209.568 44.952 209.568 44.808V40.812ZM205.848 43.392L206.64 42.864C207.18 43.344 207.828 44.04 208.14 44.496L207.288 45.108C207 44.64 206.376 43.908 205.848 43.392ZM204.168 37.536L205.164 37.944C204.324 39.396 202.992 40.908 201.768 41.868C201.684 41.628 201.384 41.004 201.204 40.74C202.284 39.96 203.448 38.748 204.168 37.536ZM203.904 34.896L204.984 35.328C204.228 36.396 203.052 37.548 201.948 38.268C201.828 38.004 201.552 37.548 201.372 37.32C202.308 36.72 203.388 35.724 203.904 34.896ZM203.04 39.9L204.096 38.844L204.144 38.868V46.008H203.04V39.9ZM223.44 34.968L224.124 35.928C222.636 36.372 220.512 36.708 218.724 36.9C218.688 36.624 218.532 36.216 218.412 35.964C220.164 35.748 222.192 35.376 223.44 34.968ZM218.976 38.88H224.556V39.96H218.976V38.88ZM221.52 39.468H222.648V45.96H221.52V39.468ZM213.384 41.136C214.5 40.872 216.192 40.416 217.776 39.972L217.92 41.016C216.456 41.448 214.872 41.904 213.684 42.228L213.384 41.136ZM213.576 37.224H217.836V38.292H213.576V37.224ZM215.16 34.872H216.276V44.7C216.276 45.288 216.156 45.588 215.808 45.756C215.448 45.936 214.92 45.96 214.104 45.96C214.068 45.672 213.912 45.204 213.768 44.916C214.284 44.94 214.776 44.928 214.932 44.928C215.1 44.916 215.16 44.868 215.16 44.712V34.872ZM218.412 35.964H219.528V39.684C219.528 41.88 219.324 44.088 218.028 46.02C217.812 45.768 217.416 45.468 217.116 45.276C218.268 43.512 218.412 41.52 218.412 39.672V35.964ZM230.22 35.88H235.872V45.564H234.684V36.948H231.348V45.66H230.22V35.88ZM230.88 43.512H235.272V44.58H230.88V43.512ZM225.336 41.34C226.428 41.088 228.072 40.632 229.632 40.2L229.764 41.244C228.324 41.676 226.764 42.108 225.588 42.444L225.336 41.34ZM225.48 37.008H229.62V38.064H225.48V37.008ZM227.124 34.872H228.276V44.712C228.276 45.324 228.156 45.624 227.796 45.792C227.436 45.972 226.896 46.008 226.08 45.996C226.032 45.708 225.876 45.24 225.732 44.928C226.236 44.94 226.74 44.94 226.896 44.94C227.064 44.94 227.124 44.88 227.124 44.712V34.872ZM237.696 38.928H248.316V39.948H237.696V38.928ZM238.44 36.888H247.524V37.896H238.44V36.888ZM244.824 39.132C245.568 40.296 247.08 41.244 248.748 41.664C248.496 41.892 248.172 42.324 248.004 42.612C246.264 42.06 244.74 40.92 243.852 39.468L244.824 39.132ZM242.676 34.824L243.864 34.944C243.36 37.992 241.728 40.968 238.068 42.624C237.948 42.336 237.612 41.892 237.36 41.676C240.852 40.212 242.316 37.488 242.676 34.824ZM239.436 35.52L240.336 35.088C240.72 35.532 241.164 36.156 241.344 36.576L240.396 37.068C240.228 36.66 239.808 36 239.436 35.52ZM245.7 35.136L246.744 35.472C246.324 36.144 245.82 36.852 245.412 37.32L244.548 37.008C244.944 36.516 245.436 35.7 245.7 35.136ZM239.556 41.256H245.376V42.288H239.556V41.256ZM245.208 41.256H246.36C246.36 41.256 246.348 41.568 246.336 41.724C246.18 44.112 246.012 45.108 245.664 45.48C245.424 45.744 245.172 45.828 244.788 45.876C244.452 45.912 243.84 45.912 243.192 45.876C243.18 45.552 243.048 45.096 242.868 44.808C243.456 44.868 244.032 44.868 244.248 44.868C244.464 44.868 244.584 44.844 244.704 44.736C244.932 44.508 245.076 43.632 245.208 41.424V41.256ZM241.392 41.628H242.568C242.316 43.728 241.644 45.204 238.764 45.984C238.656 45.696 238.356 45.24 238.128 45.012C240.684 44.424 241.176 43.26 241.392 41.628ZM250.14 35.82H257.736V36.996H250.14V35.82ZM257.568 35.82H257.784L258.06 35.748L258.864 36.336C258.804 36.384 258.744 36.444 258.648 36.492C251.676 42.024 251.268 42.888 251.268 43.524C251.268 44.1 251.832 44.34 252.756 44.34H258.024C258.852 44.34 259.104 43.932 259.188 41.832C259.512 42 259.992 42.168 260.34 42.252C260.172 44.904 259.56 45.516 257.904 45.516H252.876C250.944 45.516 250.032 44.796 250.032 43.62C250.032 42.588 250.38 41.604 257.568 35.82ZM266.808 35.412H272.184V36.312H266.808V35.412ZM266.736 37.092H271.716V37.92H266.736V37.092ZM265.464 40.368H272.4V41.34H265.464V40.368ZM266.34 35.412H267.444V41.016H266.34V35.412ZM271.356 41.58L272.196 42.288C271.548 42.792 270.792 43.32 270.216 43.656L269.604 43.08C270.156 42.708 270.924 42.048 271.356 41.58ZM268.824 40.944C269.544 42.648 270.996 44.22 272.652 44.94C272.4 45.156 272.064 45.576 271.884 45.864C270.168 44.976 268.752 43.212 267.936 41.232L268.824 40.944ZM266.796 38.712H271.728V39.54H266.796V38.712ZM266.148 46.044L266.052 45.132L266.484 44.76L268.944 43.992C268.944 44.28 268.968 44.7 269.016 44.928C266.748 45.696 266.376 45.876 266.148 46.044ZM264.168 40.776H265.224C265.224 40.776 265.224 41.088 265.212 41.232C265.068 44.028 264.924 45.144 264.588 45.54C264.36 45.816 264.12 45.912 263.748 45.96C263.436 45.984 262.86 45.984 262.284 45.972C262.26 45.612 262.14 45.156 261.936 44.844C262.5 44.904 263.04 44.916 263.268 44.916C263.46 44.916 263.58 44.892 263.7 44.772C263.916 44.532 264.048 43.536 264.168 40.932V40.776ZM261.936 38.052H262.932C262.932 39.288 262.884 40.824 262.812 41.76H261.792C261.876 40.788 261.948 39.252 261.936 38.052ZM262.26 40.776H264.384V41.76H262.152L262.26 40.776ZM262.164 38.052H264.144V36.432H261.72V35.424H265.188V39.084H262.164V38.052ZM266.148 46.044C266.076 45.792 265.836 45.324 265.668 45.108C265.872 44.988 266.1 44.76 266.1 44.268V40.992H267.168V45.084C267.168 45.084 266.148 45.672 266.148 46.044Z" fill="#BD001E"/>
<defs>
<filter id="filter0_d_1135_574" x="124" y="21" width="216" height="116" filterUnits="userSpaceOnUse" color-interpolation-filters="sRGB">
<feFlood flood-opacity="0" result="BackgroundImageFix"/>
<feColorMatrix in="SourceAlpha" type="matrix" values="0 0 0 0 0 0 0 0 0 0 0 0 0 0 0 0 0 0 127 0" result="hardAlpha"/>
<feMorphology radius="4" operator="dilate" in="SourceAlpha" result="effect1_dropShadow_1135_574"/>
<feOffset dx="4" dy="4"/>
<feGaussianBlur stdDeviation="2"/>
<feComposite in2="hardAlpha" operator="out"/>
<feColorMatrix type="matrix" values="0 0 0 0 0 0 0 0 0 0 0 0 0 0 0 0 0 0 0.25 0"/>
<feBlend mode="normal" in2="BackgroundImageFix" result="effect1_dropShadow_1135_574"/>
<feBlend mode="normal" in="SourceGraphic" in2="effect1_dropShadow_1135_574" result="shape"/>
</filter>
<filter id="filter1_d_1135_574" x="24" y="25" width="108" height="108" filterUnits="userSpaceOnUse" color-interpolation-filters="sRGB">
<feFlood flood-opacity="0" result="BackgroundImageFix"/>
<feColorMatrix in="SourceAlpha" type="matrix" values="0 0 0 0 0 0 0 0 0 0 0 0 0 0 0 0 0 0 127 0" result="hardAlpha"/>
<feOffset dy="4"/>
<feGaussianBlur stdDeviation="2"/>
<feComposite in2="hardAlpha" operator="out"/>
<feColorMatrix type="matrix" values="0 0 0 0 0 0 0 0 0 0 0 0 0 0 0 0 0 0 0.25 0"/>
<feBlend mode="normal" in2="BackgroundImageFix" result="effect1_dropShadow_1135_574"/>
<feBlend mode="normal" in="SourceGraphic" in2="effect1_dropShadow_1135_574" result="shape"/>
</filter>
<filter id="filter2_d_1135_574" x="19" y="37" width="44" height="26" filterUnits="userSpaceOnUse" color-interpolation-filters="sRGB">
<feFlood flood-opacity="0" result="BackgroundImageFix"/>
<feColorMatrix in="SourceAlpha" type="matrix" values="0 0 0 0 0 0 0 0 0 0 0 0 0 0 0 0 0 0 127 0" result="hardAlpha"/>
<feOffset dy="4"/>
<feGaussianBlur stdDeviation="2"/>
<feComposite in2="hardAlpha" operator="out"/>
<feColorMatrix type="matrix" values="0 0 0 0 0 0 0 0 0 0 0 0 0 0 0 0 0 0 0.25 0"/>
<feBlend mode="normal" in2="BackgroundImageFix" result="effect1_dropShadow_1135_574"/>
<feBlend mode="normal" in="SourceGraphic" in2="effect1_dropShadow_1135_574" result="shape"/>
</filter>
</defs>
</svg>
