<svg width="350" height="150" viewBox="0 0 350 150" fill="none" xmlns="http://www.w3.org/2000/svg">
<rect width="350" height="150" fill="white"/>
<g filter="url(#filter0_d_1135_598)">
<path d="M128 25H326C327.105 25 328 25.8954 328 27V123C328 124.105 327.105 125 326 125H128V25Z" fill="white"/>
</g>
<g filter="url(#filter1_d_1135_598)">
<path d="M28 27C28 25.8954 28.8954 25 30 25H126C127.105 25 128 25.8954 128 27V123C128 124.105 127.105 125 126 125H30C28.8954 125 28 124.105 28 123V27Z" fill="#7A7A7A"/>
</g>
<ellipse cx="28.7277" cy="115.259" rx="4" ry="3.33807" transform="rotate(-15 28.7277 115.259)" fill="white"/>
<ellipse cx="28.7277" cy="102.259" rx="4" ry="3.33807" transform="rotate(-15 28.7277 102.259)" fill="white"/>
<ellipse cx="28.7277" cy="89.2594" rx="4" ry="3.33807" transform="rotate(-15 28.7277 89.2594)" fill="white"/>
<ellipse cx="28.7277" cy="76.2594" rx="4" ry="3.33807" transform="rotate(-15 28.7277 76.2594)" fill="white"/>
<ellipse cx="28.7277" cy="63.2594" rx="4" ry="3.33807" transform="rotate(-15 28.7277 63.2594)" fill="white"/>
<ellipse cx="28.7277" cy="50.2594" rx="4" ry="3.33807" transform="rotate(-15 28.7277 50.2594)" fill="white"/>
<ellipse cx="28.7277" cy="31.2594" rx="4" ry="3.33807" transform="rotate(-15 28.7277 31.2594)" fill="white"/>
<line x1="126.5" y1="25" x2="126.5" y2="125" stroke="white" stroke-width="3" stroke-dasharray="2 2"/>
<path d="M48.7648 112.168C47.8408 112.168 46.7728 111.736 46.1008 111.112L46.7368 110.164C47.3488 110.668 47.9968 111.028 48.7648 111.028C49.6888 111.028 50.1448 110.56 50.1448 109.792C50.1448 107.848 46.4488 108.184 46.4488 105.616C46.4488 104.188 47.4568 103.252 48.9688 103.252C50.0728 103.252 50.7568 103.696 51.3328 104.308L50.6128 105.124C50.1208 104.644 49.7128 104.392 49.0288 104.392C48.2488 104.392 47.7808 104.824 47.7808 105.544C47.7808 107.296 51.4888 106.888 51.4888 109.684C51.4888 111.16 50.4688 112.168 48.7648 112.168ZM48.4288 113.488V111.64H49.4008V113.488H48.4288ZM48.4288 103.72V101.92H49.4008V103.72H48.4288ZM55.2246 112.168C54.2046 112.168 53.4726 111.748 52.9686 111.22L53.7126 110.368C54.0726 110.764 54.6126 111.028 55.1646 111.028C56.2806 111.028 57.2286 110.092 57.2286 107.284C57.2286 105.076 56.5446 104.068 55.4646 104.068C54.6966 104.068 54.0966 104.752 54.0966 105.916C54.0966 107.032 54.6126 107.68 55.5366 107.68C56.0886 107.68 56.7126 107.368 57.2286 106.564L57.3006 107.572C56.7846 108.256 55.9926 108.688 55.2846 108.688C53.8086 108.688 52.8126 107.764 52.8126 105.916C52.8126 104.152 54.0126 103.012 55.4526 103.012C57.1446 103.012 58.5126 104.368 58.5126 107.284C58.5126 110.764 56.9286 112.168 55.2246 112.168ZM62.0683 112.168C61.0483 112.168 60.3163 111.748 59.8123 111.22L60.5563 110.368C60.9163 110.764 61.4563 111.028 62.0083 111.028C63.1243 111.028 64.0723 110.092 64.0723 107.284C64.0723 105.076 63.3883 104.068 62.3083 104.068C61.5403 104.068 60.9403 104.752 60.9403 105.916C60.9403 107.032 61.4563 107.68 62.3803 107.68C62.9323 107.68 63.5563 107.368 64.0723 106.564L64.1443 107.572C63.6283 108.256 62.8363 108.688 62.1283 108.688C60.6523 108.688 59.6563 107.764 59.6563 105.916C59.6563 104.152 60.8563 103.012 62.2963 103.012C63.9883 103.012 65.3563 104.368 65.3563 107.284C65.3563 110.764 63.7723 112.168 62.0683 112.168ZM68.9121 112.168C67.8921 112.168 67.1601 111.748 66.6561 111.22L67.4001 110.368C67.7601 110.764 68.3001 111.028 68.8521 111.028C69.9681 111.028 70.9161 110.092 70.9161 107.284C70.9161 105.076 70.2321 104.068 69.1521 104.068C68.3841 104.068 67.7841 104.752 67.7841 105.916C67.7841 107.032 68.3001 107.68 69.2241 107.68C69.7761 107.68 70.4001 107.368 70.9161 106.564L70.9881 107.572C70.4721 108.256 69.6801 108.688 68.9721 108.688C67.4961 108.688 66.5001 107.764 66.5001 105.916C66.5001 104.152 67.7001 103.012 69.1401 103.012C70.8321 103.012 72.2001 104.368 72.2001 107.284C72.2001 110.764 70.6161 112.168 68.9121 112.168ZM82.0512 108.352H83.2272V111.328C83.2272 111.712 83.3112 111.76 83.8272 111.76C84.0552 111.76 85.1232 111.76 85.4232 111.76C85.8912 111.76 85.9752 111.544 86.0232 110.152C86.2752 110.332 86.7432 110.512 87.0672 110.584C86.9352 112.324 86.6232 112.78 85.5192 112.78C85.2432 112.78 83.9352 112.78 83.6712 112.78C82.3872 112.78 82.0512 112.444 82.0512 111.34V108.352ZM79.3632 101.836L80.5992 102.076C79.7232 103.576 78.4752 105.148 76.7232 106.408C76.5552 106.144 76.1832 105.76 75.9192 105.58C77.5392 104.488 78.7272 103.036 79.3632 101.836ZM78.4272 105.904V107.764H84.9072V105.904H78.4272ZM77.2872 104.896H86.1072V108.784H77.2872V104.896ZM82.6632 102.736H82.9152L83.1072 102.688L83.8872 103.192C83.4312 103.996 82.6752 104.992 82.0512 105.616C81.8352 105.448 81.4512 105.208 81.1992 105.064C81.7512 104.5 82.3872 103.564 82.6632 102.952V102.736ZM79.3272 102.736H82.9992V103.672H78.7512L79.3272 102.736ZM81.0192 105.568H82.2192C81.9552 108.868 81.3792 111.64 76.7232 112.912C76.6032 112.624 76.3272 112.192 76.0752 111.952C80.4672 110.86 80.8032 108.448 81.0192 105.568ZM94.4472 103.552H95.5512V111.388H94.4472V103.552ZM92.9232 107.572V108.244H97.1352V107.572H92.9232ZM92.9232 106.228V106.888H97.1352V106.228H92.9232ZM91.9872 105.496H98.1072V108.976H91.9872V105.496ZM91.3272 102.28H98.6232V104.512H97.5312V103.132H92.3712V104.512H91.3272V102.28ZM92.2752 104.08H97.7472V104.896H92.2752V104.08ZM91.4232 109.624H98.7672V110.488H91.4232V109.624ZM88.4352 102.376L89.2992 101.872C89.8272 102.46 90.4512 103.228 90.7632 103.72L89.8632 104.32C89.5752 103.816 88.9392 102.976 88.4352 102.376ZM88.0632 104.68H90.5832V105.604H88.0632V104.68ZM90.3312 110.032C91.0272 111.628 92.5272 111.832 94.8312 111.844C96.1032 111.844 97.9632 111.784 99.2472 111.664C99.0792 111.892 98.9472 112.408 98.8872 112.72C97.6992 112.792 96.1752 112.816 94.8192 112.816C92.0112 112.816 90.4752 112.48 89.5752 110.356L90.3312 110.032ZM90.1272 107.62H90.4632L90.6432 107.596L91.1352 107.788C90.7752 110.368 89.8512 112.108 88.5912 113.044C88.4472 112.816 88.0632 112.432 87.8472 112.276C89.0352 111.46 89.8392 109.936 90.1272 107.8V107.62ZM88.2672 108.688V107.86L88.7352 107.62H90.5712V108.52H88.9872C88.6872 108.52 88.3632 108.592 88.2672 108.688ZM88.2672 108.688C88.1952 108.448 87.9792 107.944 87.8712 107.728C88.0632 107.68 88.2552 107.596 88.4712 107.356C88.8192 107.008 89.9112 105.412 90.3072 104.764V104.728L90.6192 104.596L91.3272 104.92C90.7752 105.748 89.7312 107.26 89.0712 108.04C89.0712 108.04 88.2672 108.424 88.2672 108.688ZM100.231 105.928H110.851V106.948H100.231V105.928ZM100.975 103.888H110.059V104.896H100.975V103.888ZM107.359 106.132C108.103 107.296 109.615 108.244 111.283 108.664C111.031 108.892 110.707 109.324 110.539 109.612C108.799 109.06 107.275 107.92 106.387 106.468L107.359 106.132ZM105.211 101.824L106.399 101.944C105.895 104.992 104.263 107.968 100.603 109.624C100.483 109.336 100.147 108.892 99.8952 108.676C103.387 107.212 104.851 104.488 105.211 101.824ZM101.971 102.52L102.871 102.088C103.255 102.532 103.699 103.156 103.879 103.576L102.931 104.068C102.763 103.66 102.343 103 101.971 102.52ZM108.235 102.136L109.279 102.472C108.859 103.144 108.355 103.852 107.947 104.32L107.083 104.008C107.479 103.516 107.971 102.7 108.235 102.136ZM102.091 108.256H107.911V109.288H102.091V108.256ZM107.743 108.256H108.895C108.895 108.256 108.883 108.568 108.871 108.724C108.715 111.112 108.547 112.108 108.199 112.48C107.959 112.744 107.707 112.828 107.323 112.876C106.987 112.912 106.375 112.912 105.727 112.876C105.715 112.552 105.583 112.096 105.403 111.808C105.991 111.868 106.567 111.868 106.783 111.868C106.999 111.868 107.119 111.844 107.239 111.736C107.467 111.508 107.611 110.632 107.743 108.424V108.256ZM103.927 108.628H105.103C104.851 110.728 104.179 112.204 101.299 112.984C101.191 112.696 100.891 112.24 100.663 112.012C103.219 111.424 103.711 110.26 103.927 108.628Z" fill="white"/>
<path d="M170.759 103.384H181.355V104.452H170.759V103.384ZM173.687 107.692H179.255V108.652H173.687V107.692ZM178.859 105.652H179.975V111.7C179.975 112.312 179.855 112.636 179.411 112.816C178.979 112.996 178.307 112.996 177.299 112.996C177.251 112.684 177.095 112.204 176.939 111.904C177.659 111.94 178.379 111.928 178.595 111.928C178.799 111.916 178.859 111.856 178.859 111.688V105.652ZM174.599 101.872L175.763 102.136C174.947 104.764 173.507 107.428 171.251 109.024C171.083 108.76 170.723 108.364 170.507 108.148C172.607 106.72 173.975 104.2 174.599 101.872ZM173.627 109.696H179.255V110.656H173.627V109.696ZM173.615 105.652H179.147V106.66H173.615V105.652ZM173.003 105.652H174.143V108.844C174.143 110.224 173.915 112 172.691 113.092C172.547 112.852 172.103 112.372 171.887 112.216C172.895 111.28 173.003 109.96 173.003 108.832V105.652ZM182.675 103.588H188.267V104.608H182.675V103.588ZM183.983 104.788L184.955 105.088C184.499 106.168 183.791 107.368 183.167 108.136C182.999 107.956 182.603 107.596 182.375 107.428C182.987 106.744 183.599 105.736 183.983 104.788ZM185.999 106.72L187.067 106.912C186.359 109.504 185.063 111.496 183.215 112.744C183.059 112.528 182.663 112.108 182.435 111.916C184.223 110.836 185.411 109.024 185.999 106.72ZM185.963 105.172L186.803 104.728C187.367 105.388 187.991 106.3 188.231 106.912L187.331 107.428C187.115 106.816 186.515 105.868 185.963 105.172ZM183.623 107.764L184.463 107.152C185.675 108.34 187.127 109.972 187.763 111.088L186.851 111.808C186.263 110.692 184.847 108.976 183.623 107.764ZM189.527 104.02H193.523V105.076H189.527V104.02ZM189.707 101.86L190.775 102.028C190.355 104.452 189.659 106.756 188.543 108.256C188.411 108.028 188.039 107.572 187.811 107.368C188.807 106.072 189.383 104.008 189.707 101.86ZM191.843 104.728L192.923 104.86C192.335 108.976 191.003 111.556 188.051 113.068C187.907 112.852 187.511 112.42 187.271 112.216C190.151 110.92 191.363 108.52 191.843 104.728ZM189.743 105.736C190.355 108.52 191.639 110.992 193.703 112.108C193.451 112.324 193.091 112.732 192.911 113.02C190.751 111.7 189.491 109.096 188.783 105.952L189.743 105.736ZM184.415 102.208L185.375 101.848C185.723 102.292 186.071 102.88 186.227 103.288L185.219 103.708C185.075 103.288 184.739 102.664 184.415 102.208ZM196.043 102.652H204.131V112.84H202.919V103.792H197.207V112.876H196.043V102.652ZM196.835 106.756H203.423V107.872H196.835V106.756ZM196.823 110.956H203.435V112.096H196.823V110.956ZM213.395 102.448H216.623V103.48H213.395V102.448ZM213.395 105.184H216.623V106.192H213.395V105.184ZM213.383 107.956H216.647V108.976H213.383V107.956ZM216.131 102.448H217.223V111.676C217.223 112.276 217.103 112.6 216.719 112.78C216.347 112.96 215.759 112.984 214.871 112.984C214.835 112.684 214.679 112.18 214.535 111.892C215.111 111.916 215.711 111.916 215.891 111.904C216.059 111.904 216.131 111.844 216.131 111.664V102.448ZM212.927 102.448H213.995V106.828C213.995 108.7 213.839 111.352 212.783 113.056C212.603 112.852 212.135 112.516 211.883 112.408C212.843 110.836 212.927 108.556 212.927 106.828V102.448ZM206.615 103.396H212.423V104.392H206.615V103.396ZM208.091 105.304H211.055V106.192H208.091V105.304ZM208.091 107.188H211.067V108.076H208.091V107.188ZM206.459 109.108H212.387V110.116H206.459V109.108ZM207.599 102.016H208.631V109.492H207.599V102.016ZM210.515 102.016H211.559V109.492H210.515V102.016ZM208.055 110.296L209.135 110.608C208.691 111.508 207.995 112.432 207.347 113.032C207.131 112.84 206.687 112.516 206.423 112.36C207.083 111.844 207.707 111.064 208.055 110.296ZM209.807 110.74L210.671 110.272C211.151 110.812 211.727 111.544 211.991 112.036L211.067 112.576C210.839 112.096 210.275 111.304 209.807 110.74ZM224.051 105.628C223.499 105.628 223.043 105.22 223.043 104.632C223.043 104.032 223.499 103.624 224.051 103.624C224.591 103.624 225.059 104.032 225.059 104.632C225.059 105.22 224.591 105.628 224.051 105.628ZM224.051 111.436C223.499 111.436 223.043 111.028 223.043 110.44C223.043 109.84 223.499 109.432 224.051 109.432C224.591 109.432 225.059 109.84 225.059 110.44C225.059 111.028 224.591 111.436 224.051 111.436ZM230.567 112V111.196C233.183 108.892 234.515 107.176 234.515 105.724C234.515 104.776 234.011 104.116 233.027 104.116C232.331 104.116 231.755 104.548 231.287 105.088L230.495 104.332C231.263 103.504 232.043 103.012 233.195 103.012C234.815 103.012 235.859 104.056 235.859 105.664C235.859 107.356 234.491 109.12 232.619 110.92C233.075 110.872 233.639 110.824 234.071 110.824H236.279V112H230.567ZM240.315 112.168C238.575 112.168 237.459 110.62 237.459 107.548C237.459 104.5 238.575 103.012 240.315 103.012C242.043 103.012 243.171 104.5 243.171 107.548C243.171 110.62 242.043 112.168 240.315 112.168ZM240.315 111.064C241.215 111.064 241.839 110.104 241.839 107.548C241.839 105.028 241.215 104.092 240.315 104.092C239.415 104.092 238.779 105.028 238.779 107.548C238.779 110.104 239.415 111.064 240.315 111.064ZM244.254 112V111.196C246.87 108.892 248.202 107.176 248.202 105.724C248.202 104.776 247.698 104.116 246.714 104.116C246.018 104.116 245.442 104.548 244.974 105.088L244.182 104.332C244.95 103.504 245.73 103.012 246.882 103.012C248.502 103.012 249.546 104.056 249.546 105.664C249.546 107.356 248.178 109.12 246.306 110.92C246.762 110.872 247.326 110.824 247.758 110.824H249.966V112H244.254ZM253.786 112.168C252.406 112.168 251.506 111.616 250.906 110.944L251.59 110.056C252.106 110.584 252.754 111.028 253.678 111.028C254.662 111.028 255.346 110.476 255.346 109.564C255.346 108.58 254.722 107.956 252.742 107.956V106.924C254.47 106.924 255.046 106.276 255.046 105.388C255.046 104.608 254.542 104.116 253.69 104.116C253.018 104.116 252.442 104.44 251.938 104.944L251.206 104.068C251.914 103.444 252.73 103.012 253.75 103.012C255.334 103.012 256.45 103.828 256.45 105.28C256.45 106.3 255.862 107.008 254.926 107.356V107.416C255.946 107.68 256.75 108.436 256.75 109.636C256.75 111.232 255.418 112.168 253.786 112.168ZM259.214 112.168C258.686 112.168 258.29 111.76 258.29 111.196C258.29 110.62 258.686 110.224 259.214 110.224C259.73 110.224 260.138 110.62 260.138 111.196C260.138 111.76 259.73 112.168 259.214 112.168ZM264.42 112.168C262.68 112.168 261.564 110.62 261.564 107.548C261.564 104.5 262.68 103.012 264.42 103.012C266.148 103.012 267.276 104.5 267.276 107.548C267.276 110.62 266.148 112.168 264.42 112.168ZM264.42 111.064C265.32 111.064 265.944 110.104 265.944 107.548C265.944 105.028 265.32 104.092 264.42 104.092C263.52 104.092 262.884 105.028 262.884 107.548C262.884 110.104 263.52 111.064 264.42 111.064ZM271.528 112.168C269.848 112.168 268.48 110.752 268.48 107.752C268.48 104.368 270.064 103.012 271.816 103.012C272.8 103.012 273.52 103.42 274.024 103.96L273.268 104.8C272.944 104.416 272.404 104.14 271.888 104.14C270.712 104.14 269.764 105.052 269.764 107.752C269.764 110.032 270.436 111.1 271.516 111.1C272.284 111.1 272.884 110.404 272.884 109.264C272.884 108.124 272.368 107.488 271.432 107.488C270.904 107.488 270.268 107.8 269.74 108.604L269.68 107.596C270.196 106.9 271.012 106.492 271.672 106.492C273.16 106.492 274.168 107.392 274.168 109.264C274.168 111.016 272.956 112.168 271.528 112.168ZM276.476 112.168C275.948 112.168 275.552 111.76 275.552 111.196C275.552 110.62 275.948 110.224 276.476 110.224C276.992 110.224 277.4 110.62 277.4 111.196C277.4 111.76 276.992 112.168 276.476 112.168ZM278.778 112V111.196C281.394 108.892 282.726 107.176 282.726 105.724C282.726 104.776 282.222 104.116 281.238 104.116C280.542 104.116 279.966 104.548 279.498 105.088L278.706 104.332C279.474 103.504 280.254 103.012 281.406 103.012C283.026 103.012 284.07 104.056 284.07 105.664C284.07 107.356 282.702 109.12 280.83 110.92C281.286 110.872 281.85 110.824 282.282 110.824H284.49V112H278.778ZM287.409 112C287.565 108.784 288.129 106.72 289.845 104.344H285.693V103.168H291.369V104.008C289.305 106.6 288.981 108.556 288.825 112H287.409Z" fill="#7A7A7A"/>
<g filter="url(#filter2_d_1135_598)">
<path d="M23 40C23 38.3431 24.3431 37 26 37H56C57.6569 37 59 38.3431 59 40V52C59 53.6569 57.6569 55 56 55H23V40Z" fill="#FFCD78"/>
</g>
<path d="M23 55H28V60L25.5 57.5L23 55Z" fill="#FFCD78"/>
<path d="M31.85 41.97H34.25V42.82H32.68V50.82H31.85V41.97ZM34.08 41.97H34.24L34.38 41.93L35 42.29C34.72 43.12 34.37 44.11 34.06 44.9C34.73 45.72 34.88 46.43 34.88 47.04C34.88 47.63 34.76 48.06 34.46 48.28C34.32 48.39 34.13 48.45 33.92 48.48C33.73 48.51 33.48 48.51 33.25 48.5C33.25 48.27 33.17 47.91 33.03 47.68C33.24 47.69 33.41 47.7 33.56 47.69C33.66 47.68 33.77 47.66 33.85 47.6C33.98 47.5 34.04 47.25 34.04 46.95C34.04 46.43 33.89 45.75 33.23 45C33.56 44.1 33.9 42.88 34.08 42.23V41.97ZM35.87 41.99H39.88V46.48H35.87V45.65H38.96V42.81H35.87V41.99ZM35.93 43.83H39.47V44.61H35.93V43.83ZM37.84 45.99C38.25 47.82 39.16 49.32 40.69 49.97C40.48 50.16 40.19 50.53 40.05 50.79C38.43 49.96 37.53 48.29 37.06 46.14L37.84 45.99ZM39.85 46.7L40.47 47.37C39.9 47.83 39.16 48.33 38.61 48.64L38.11 48.05C38.64 47.72 39.41 47.14 39.85 46.7ZM35.41 50.86L35.33 50.03L35.75 49.71L37.94 49.2C37.94 49.47 37.95 49.85 37.98 50.06C35.96 50.59 35.62 50.72 35.41 50.86ZM35.41 50.86C35.34 50.65 35.14 50.27 35 50.1C35.17 49.99 35.41 49.76 35.41 49.32V41.99H36.33V49.97C36.33 49.97 35.41 50.52 35.41 50.86ZM43.66 43.35V43.81H48.28V43.35H43.66ZM43.66 42.4V42.85H48.28V42.4H43.66ZM42.75 41.88H49.23V44.33H42.75V41.88ZM43.46 47.3V47.78H48.57V47.3H43.46ZM43.46 46.32V46.79H48.57V46.32H43.46ZM42.57 45.78H49.5V48.32H42.57V45.78ZM45.52 45.97H46.44V50.27H45.52V45.97ZM41.49 44.7H50.52V45.4H41.49V44.7ZM42.32 48.77H49.71V49.4H42.32V48.77ZM41.45 49.89H50.56V50.6H41.45V49.89Z" fill="white"/>
<path d="M144.85 41.97H147.25V42.82H145.68V50.82H144.85V41.97ZM147.08 41.97H147.24L147.38 41.93L148 42.29C147.72 43.12 147.37 44.11 147.06 44.9C147.73 45.72 147.88 46.43 147.88 47.04C147.88 47.63 147.76 48.06 147.46 48.28C147.32 48.39 147.13 48.45 146.92 48.48C146.73 48.51 146.48 48.51 146.25 48.5C146.25 48.27 146.17 47.91 146.03 47.68C146.24 47.69 146.41 47.7 146.56 47.69C146.66 47.68 146.77 47.66 146.85 47.6C146.98 47.5 147.04 47.25 147.04 46.95C147.04 46.43 146.89 45.75 146.23 45C146.56 44.1 146.9 42.88 147.08 42.23V41.97ZM148.87 41.99H152.88V46.48H148.87V45.65H151.96V42.81H148.87V41.99ZM148.93 43.83H152.47V44.61H148.93V43.83ZM150.84 45.99C151.25 47.82 152.16 49.32 153.69 49.97C153.48 50.16 153.19 50.53 153.05 50.79C151.43 49.96 150.53 48.29 150.06 46.14L150.84 45.99ZM152.85 46.7L153.47 47.37C152.9 47.83 152.16 48.33 151.61 48.64L151.11 48.05C151.64 47.72 152.41 47.14 152.85 46.7ZM148.41 50.86L148.33 50.03L148.75 49.71L150.94 49.2C150.94 49.47 150.95 49.85 150.98 50.06C148.96 50.59 148.62 50.72 148.41 50.86ZM148.41 50.86C148.34 50.65 148.14 50.27 148 50.1C148.17 49.99 148.41 49.76 148.41 49.32V41.99H149.33V49.97C149.33 49.97 148.41 50.52 148.41 50.86ZM156.66 43.35V43.81H161.28V43.35H156.66ZM156.66 42.4V42.85H161.28V42.4H156.66ZM155.75 41.88H162.23V44.33H155.75V41.88ZM156.46 47.3V47.78H161.57V47.3H156.46ZM156.46 46.32V46.79H161.57V46.32H156.46ZM155.57 45.78H162.5V48.32H155.57V45.78ZM158.52 45.97H159.44V50.27H158.52V45.97ZM154.49 44.7H163.52V45.4H154.49V44.7ZM155.32 48.77H162.71V49.4H155.32V48.77ZM154.45 49.89H163.56V50.6H154.45V49.89Z" fill="white"/>
<path d="M141.648 38.7H152.376V39.744H141.648V38.7ZM142.404 36.252H151.572V37.296H142.404V36.252ZM144.588 39.168L145.692 39.468C144.9 40.908 143.532 42.06 142.104 42.78C141.936 42.552 141.528 42.108 141.288 41.916C142.68 41.328 143.94 40.368 144.588 39.168ZM149.256 39.204C149.928 40.284 151.284 41.304 152.652 41.76C152.412 41.976 152.076 42.384 151.92 42.66C150.468 42.072 149.112 40.86 148.32 39.504L149.256 39.204ZM144.492 34.86H145.62V39.348H144.492V34.86ZM148.32 34.86H149.448V39.348H148.32V34.86ZM145.704 40.74H146.784V44.784C146.784 45.348 146.676 45.648 146.28 45.828C145.896 45.996 145.308 46.008 144.48 46.008C144.444 45.696 144.3 45.252 144.156 44.94C144.744 44.964 145.308 44.964 145.488 44.964C145.656 44.952 145.704 44.916 145.704 44.772V40.74ZM143.916 41.76L144.876 42.156C144.492 43.044 143.964 44.076 143.268 44.748L142.32 44.196C143.004 43.584 143.592 42.6 143.916 41.76ZM147.276 42.132L148.2 41.928C148.56 42.732 148.86 43.788 148.956 44.496L147.984 44.724C147.9 44.016 147.612 42.948 147.276 42.132ZM148.836 41.82L149.748 41.448C150.48 42.336 151.224 43.524 151.56 44.352L150.576 44.796C150.276 43.98 149.532 42.72 148.836 41.82ZM155.784 44.868H162.288V45.66H155.784V44.868ZM155.088 43.08H162.996V46.008H161.832V43.872H156.204V46.02H155.088V43.08ZM153.924 35.664H164.1V36.504H153.924V35.664ZM154.764 37.176H163.332V37.992H154.764V37.176ZM153.528 41.628H164.448V42.516H153.528V41.628ZM158.376 34.86H159.54V37.5H158.376V34.86ZM156.108 40.92L157.14 40.644C157.368 40.968 157.572 41.412 157.656 41.712L156.576 42.024C156.516 41.724 156.312 41.244 156.108 40.92ZM160.752 40.608L161.988 40.824C161.712 41.292 161.424 41.712 161.196 42.012L160.224 41.784C160.416 41.436 160.644 40.944 160.752 40.608ZM156.384 39.252V40.056H161.616V39.252H156.384ZM155.304 38.508H162.756V40.788H155.304V38.508ZM170.532 34.884L171.576 35.136C171.12 36.42 170.352 37.644 169.524 38.436C169.344 38.244 168.924 37.884 168.684 37.728C169.476 37.044 170.148 35.976 170.532 34.884ZM170.508 38.232L171.54 38.52C171.144 39.456 170.484 40.416 169.836 41.028C169.656 40.836 169.236 40.512 168.996 40.356C169.62 39.828 170.184 39.024 170.508 38.232ZM170.544 35.94H175.56V36.912H170.148L170.544 35.94ZM173.88 38.64L174.792 38.208C175.392 38.928 176.004 39.888 176.28 40.536L175.32 41.04C175.056 40.392 174.444 39.372 173.88 38.64ZM175.26 35.94H175.428L175.608 35.904L176.4 36.084C176.1 36.816 175.728 37.644 175.44 38.172L174.468 37.968C174.732 37.488 175.056 36.708 175.26 36.084V35.94ZM168.204 34.836L169.212 35.172C168.444 36.684 167.232 38.184 166.068 39.144C165.936 38.928 165.576 38.46 165.36 38.244C166.464 37.428 167.544 36.132 168.204 34.836ZM167.1 37.236L168.168 36.168L168.192 36.18V41.82H167.1V37.236ZM168.096 42.396H169.236V44.34C169.236 44.7 169.368 44.748 170.124 44.748C170.472 44.748 172.14 44.748 172.608 44.748C173.232 44.748 173.34 44.592 173.4 43.392C173.652 43.584 174.132 43.752 174.444 43.812C174.3 45.408 173.952 45.792 172.68 45.792C172.356 45.792 170.364 45.792 170.04 45.792C168.492 45.792 168.096 45.48 168.096 44.364V42.396ZM169.956 41.928L170.82 41.436C171.468 42.024 172.2 42.876 172.524 43.464L171.576 44.028C171.288 43.44 170.58 42.552 169.956 41.928ZM174.096 42.576L175.104 42.18C175.656 43.044 176.22 44.172 176.412 44.928L175.332 45.36C175.164 44.616 174.636 43.452 174.096 42.576ZM166.68 42.408L167.7 42.828C167.4 43.656 166.98 44.784 166.56 45.528L165.492 45.024C165.96 44.316 166.416 43.236 166.68 42.408ZM172.272 37.296H173.364V41.772H172.272V37.296ZM182.508 42.024L182.232 37.608L182.184 36.024H183.804L183.756 37.608L183.48 42.024H182.508ZM183 45.084C182.484 45.084 182.1 44.724 182.1 44.184C182.1 43.632 182.496 43.26 183 43.26C183.492 43.26 183.888 43.632 183.888 44.184C183.888 44.724 183.492 45.084 183 45.084ZM189.708 35.736L190.452 35.124C192.636 36.996 192.912 39.108 192.912 41.364C192.912 43.044 192.78 44.592 192.288 45.3C192.12 45.528 191.892 45.684 191.604 45.732C191.184 45.828 190.68 45.84 190.14 45.804C190.14 45.444 190.02 45.024 189.828 44.7C190.428 44.76 190.872 44.748 191.124 44.724C191.316 44.7 191.412 44.64 191.508 44.508C191.772 44.136 191.88 42.84 191.88 41.328C191.88 39.204 191.58 37.392 189.708 35.736ZM191.88 39.144L192.66 39.636C192.096 40.92 191.028 42.336 190.032 43.14C189.888 42.852 189.624 42.42 189.396 42.18C190.344 41.568 191.376 40.296 191.88 39.144ZM192.372 35.124L193.188 35.664C192.444 36.96 191.088 38.496 189.948 39.384C189.816 39.084 189.54 38.616 189.324 38.364C190.416 37.68 191.724 36.288 192.372 35.124ZM196.572 38.304H197.592V41.856H196.572V38.304ZM194.52 39.108H199.776V39.732H194.52V39.108ZM194.52 40.248H199.776V40.86H194.52V40.248ZM193.428 42.588H199.332V43.416H193.428V42.588ZM194.376 36.972L195.336 37.296C194.844 38.196 194.076 39.156 193.416 39.78C193.26 39.6 192.888 39.228 192.672 39.048C193.308 38.52 193.968 37.74 194.376 36.972ZM199.02 42.588H199.26L199.44 42.552L200.088 42.972C198.732 44.748 195.924 45.612 193.116 45.996C193.044 45.756 192.792 45.324 192.612 45.12C195.324 44.844 197.952 44.124 199.02 42.732V42.588ZM194.7 43.212C195.852 44.256 198.252 44.892 200.7 45.108C200.472 45.324 200.184 45.732 200.052 45.996C197.544 45.696 195.132 44.904 193.776 43.596L194.7 43.212ZM195.156 34.884H196.176V37.248H195.156V34.884ZM197.364 34.884H198.408V37.272H197.364V34.884ZM193.272 35.712H195.708V36.552H193.272V35.712ZM196.056 37.272L196.86 36.852C197.208 37.212 197.628 37.68 197.832 37.992L197.016 38.496C196.812 38.172 196.392 37.644 196.056 37.272ZM194.088 41.388H200.208V42.096H194.088V41.388ZM194.856 37.932H200.064V38.628H194.856V42.372H193.872V38.748L194.652 37.932H194.856ZM197.892 35.688H200.532V36.528H197.892V35.688ZM206.976 37.644V38.472H210.588V37.644H206.976ZM206.976 36.06V36.864H210.588V36.06H206.976ZM205.884 35.232H211.728V39.3H205.884V35.232ZM205.2 39.996H212.22V40.932H205.2V39.996ZM204.912 41.808H212.448V42.792H204.912V41.808ZM209.568 40.812H210.708V44.832C210.708 45.396 210.6 45.684 210.192 45.84C209.796 46.008 209.208 46.02 208.344 46.02C208.296 45.708 208.128 45.288 207.984 45C208.584 45.024 209.172 45.024 209.34 45.012C209.52 45 209.568 44.952 209.568 44.808V40.812ZM205.848 43.392L206.64 42.864C207.18 43.344 207.828 44.04 208.14 44.496L207.288 45.108C207 44.64 206.376 43.908 205.848 43.392ZM204.168 37.536L205.164 37.944C204.324 39.396 202.992 40.908 201.768 41.868C201.684 41.628 201.384 41.004 201.204 40.74C202.284 39.96 203.448 38.748 204.168 37.536ZM203.904 34.896L204.984 35.328C204.228 36.396 203.052 37.548 201.948 38.268C201.828 38.004 201.552 37.548 201.372 37.32C202.308 36.72 203.388 35.724 203.904 34.896ZM203.04 39.9L204.096 38.844L204.144 38.868V46.008H203.04V39.9ZM219.516 41.352H220.692V44.328C220.692 44.712 220.776 44.76 221.292 44.76C221.52 44.76 222.588 44.76 222.888 44.76C223.356 44.76 223.44 44.544 223.488 43.152C223.74 43.332 224.208 43.512 224.532 43.584C224.4 45.324 224.088 45.78 222.984 45.78C222.708 45.78 221.4 45.78 221.136 45.78C219.852 45.78 219.516 45.444 219.516 44.34V41.352ZM216.828 34.836L218.064 35.076C217.188 36.576 215.94 38.148 214.188 39.408C214.02 39.144 213.648 38.76 213.384 38.58C215.004 37.488 216.192 36.036 216.828 34.836ZM215.892 38.904V40.764H222.372V38.904H215.892ZM214.752 37.896H223.572V41.784H214.752V37.896ZM220.128 35.736H220.38L220.572 35.688L221.352 36.192C220.896 36.996 220.14 37.992 219.516 38.616C219.3 38.448 218.916 38.208 218.664 38.064C219.216 37.5 219.852 36.564 220.128 35.952V35.736ZM216.792 35.736H220.464V36.672H216.216L216.792 35.736ZM218.484 38.568H219.684C219.42 41.868 218.844 44.64 214.188 45.912C214.068 45.624 213.792 45.192 213.54 44.952C217.932 43.86 218.268 41.448 218.484 38.568ZM231.912 36.552H233.016V44.388H231.912V36.552ZM230.388 40.572V41.244H234.6V40.572H230.388ZM230.388 39.228V39.888H234.6V39.228H230.388ZM229.452 38.496H235.572V41.976H229.452V38.496ZM228.792 35.28H236.088V37.512H234.996V36.132H229.836V37.512H228.792V35.28ZM229.74 37.08H235.212V37.896H229.74V37.08ZM228.888 42.624H236.232V43.488H228.888V42.624ZM225.9 35.376L226.764 34.872C227.292 35.46 227.916 36.228 228.228 36.72L227.328 37.32C227.04 36.816 226.404 35.976 225.9 35.376ZM225.528 37.68H228.048V38.604H225.528V37.68ZM227.796 43.032C228.492 44.628 229.992 44.832 232.296 44.844C233.568 44.844 235.428 44.784 236.712 44.664C236.544 44.892 236.412 45.408 236.352 45.72C235.164 45.792 233.64 45.816 232.284 45.816C229.476 45.816 227.94 45.48 227.04 43.356L227.796 43.032ZM227.592 40.62H227.928L228.108 40.596L228.6 40.788C228.24 43.368 227.316 45.108 226.056 46.044C225.912 45.816 225.528 45.432 225.312 45.276C226.5 44.46 227.304 42.936 227.592 40.8V40.62ZM225.732 41.688V40.86L226.2 40.62H228.036V41.52H226.452C226.152 41.52 225.828 41.592 225.732 41.688ZM225.732 41.688C225.66 41.448 225.444 40.944 225.336 40.728C225.528 40.68 225.72 40.596 225.936 40.356C226.284 40.008 227.376 38.412 227.772 37.764V37.728L228.084 37.596L228.792 37.92C228.24 38.748 227.196 40.26 226.536 41.04C226.536 41.04 225.732 41.424 225.732 41.688ZM237.696 38.928H248.316V39.948H237.696V38.928ZM238.44 36.888H247.524V37.896H238.44V36.888ZM244.824 39.132C245.568 40.296 247.08 41.244 248.748 41.664C248.496 41.892 248.172 42.324 248.004 42.612C246.264 42.06 244.74 40.92 243.852 39.468L244.824 39.132ZM242.676 34.824L243.864 34.944C243.36 37.992 241.728 40.968 238.068 42.624C237.948 42.336 237.612 41.892 237.36 41.676C240.852 40.212 242.316 37.488 242.676 34.824ZM239.436 35.52L240.336 35.088C240.72 35.532 241.164 36.156 241.344 36.576L240.396 37.068C240.228 36.66 239.808 36 239.436 35.52ZM245.7 35.136L246.744 35.472C246.324 36.144 245.82 36.852 245.412 37.32L244.548 37.008C244.944 36.516 245.436 35.7 245.7 35.136ZM239.556 41.256H245.376V42.288H239.556V41.256ZM245.208 41.256H246.36C246.36 41.256 246.348 41.568 246.336 41.724C246.18 44.112 246.012 45.108 245.664 45.48C245.424 45.744 245.172 45.828 244.788 45.876C244.452 45.912 243.84 45.912 243.192 45.876C243.18 45.552 243.048 45.096 242.868 44.808C243.456 44.868 244.032 44.868 244.248 44.868C244.464 44.868 244.584 44.844 244.704 44.736C244.932 44.508 245.076 43.632 245.208 41.424V41.256ZM241.392 41.628H242.568C242.316 43.728 241.644 45.204 238.764 45.984C238.656 45.696 238.356 45.24 238.128 45.012C240.684 44.424 241.176 43.26 241.392 41.628ZM250.14 35.82H257.736V36.996H250.14V35.82ZM257.568 35.82H257.784L258.06 35.748L258.864 36.336C258.804 36.384 258.744 36.444 258.648 36.492C251.676 42.024 251.268 42.888 251.268 43.524C251.268 44.1 251.832 44.34 252.756 44.34H258.024C258.852 44.34 259.104 43.932 259.188 41.832C259.512 42 259.992 42.168 260.34 42.252C260.172 44.904 259.56 45.516 257.904 45.516H252.876C250.944 45.516 250.032 44.796 250.032 43.62C250.032 42.588 250.38 41.604 257.568 35.82ZM266.808 35.412H272.184V36.312H266.808V35.412ZM266.736 37.092H271.716V37.92H266.736V37.092ZM265.464 40.368H272.4V41.34H265.464V40.368ZM266.34 35.412H267.444V41.016H266.34V35.412ZM271.356 41.58L272.196 42.288C271.548 42.792 270.792 43.32 270.216 43.656L269.604 43.08C270.156 42.708 270.924 42.048 271.356 41.58ZM268.824 40.944C269.544 42.648 270.996 44.22 272.652 44.94C272.4 45.156 272.064 45.576 271.884 45.864C270.168 44.976 268.752 43.212 267.936 41.232L268.824 40.944ZM266.796 38.712H271.728V39.54H266.796V38.712ZM266.148 46.044L266.052 45.132L266.484 44.76L268.944 43.992C268.944 44.28 268.968 44.7 269.016 44.928C266.748 45.696 266.376 45.876 266.148 46.044ZM264.168 40.776H265.224C265.224 40.776 265.224 41.088 265.212 41.232C265.068 44.028 264.924 45.144 264.588 45.54C264.36 45.816 264.12 45.912 263.748 45.96C263.436 45.984 262.86 45.984 262.284 45.972C262.26 45.612 262.14 45.156 261.936 44.844C262.5 44.904 263.04 44.916 263.268 44.916C263.46 44.916 263.58 44.892 263.7 44.772C263.916 44.532 264.048 43.536 264.168 40.932V40.776ZM261.936 38.052H262.932C262.932 39.288 262.884 40.824 262.812 41.76H261.792C261.876 40.788 261.948 39.252 261.936 38.052ZM262.26 40.776H264.384V41.76H262.152L262.26 40.776ZM262.164 38.052H264.144V36.432H261.72V35.424H265.188V39.084H262.164V38.052ZM266.148 46.044C266.076 45.792 265.836 45.324 265.668 45.108C265.872 44.988 266.1 44.76 266.1 44.268V40.992H267.168V45.084C267.168 45.084 266.148 45.672 266.148 46.044Z" fill="#BD001E"/>
<path d="M152 117C157.523 117 162 112.523 162 107C162 101.477 157.523 97 152 97C146.477 97 142 101.477 142 107C142 112.523 146.477 117 152 117Z" stroke="#7A7A7A" stroke-width="2" stroke-linecap="round" stroke-linejoin="round"/>
<path d="M152 101V107L156 109" stroke="#7A7A7A" stroke-width="2" stroke-linecap="round" stroke-linejoin="round"/>
<path d="M147.556 80.612H151.48V81.668H147.556V80.612ZM147.544 86.096H151.684V87.164H147.544V86.096ZM147.484 83.348H151.216V84.38H147.484V83.348ZM141.028 80.6H144.7V81.668H141.028V80.6ZM141.196 83.336H144.652V84.368H141.196V83.336ZM146.968 78.932H148.096V90.008H146.968V78.932ZM140.656 86.288C141.7 86.144 143.26 85.916 144.784 85.688L144.832 86.696C143.452 86.948 142 87.212 140.884 87.416L140.656 86.288ZM144.172 78.932H145.3V84.548C145.3 86.36 144.784 88.796 141.868 90.164C141.688 89.888 141.34 89.528 141.064 89.312C143.692 88.244 144.172 85.856 144.172 84.56V78.932ZM157.096 82.184H158.164C157.948 84.164 157.6 86.732 157.348 88.232H156.244C156.556 86.684 156.916 84.104 157.096 82.184ZM158.872 83.468L159.484 83.072C159.94 83.432 160.492 83.96 160.756 84.32L160.12 84.764C159.88 84.392 159.34 83.852 158.872 83.468ZM158.56 85.988L159.196 85.58C159.688 85.964 160.3 86.54 160.588 86.924L159.928 87.392C159.652 86.996 159.052 86.396 158.56 85.988ZM157.24 80.168H163.444V81.2H157.24V80.168ZM157.564 82.184H162.22V83.168H157.564V82.184ZM155.584 84.62H163.756V85.652H155.584V84.62ZM156.82 87.26H163.432V88.232H156.82V87.26ZM157.384 78.86L158.488 79.148C157.984 80.648 157.192 82.172 156.388 83.144C156.16 82.964 155.68 82.664 155.404 82.52C156.232 81.632 156.964 80.24 157.384 78.86ZM161.896 82.184H162.952C162.952 82.184 162.94 82.544 162.928 82.7C162.748 87.296 162.556 88.892 162.148 89.408C161.896 89.744 161.62 89.84 161.236 89.888C160.888 89.936 160.3 89.924 159.724 89.888C159.7 89.612 159.592 89.204 159.424 88.94C160.012 88.988 160.528 89 160.768 89C160.972 89 161.092 88.964 161.212 88.82C161.536 88.448 161.74 86.816 161.896 82.412V82.184ZM153.268 79.82L153.904 79.052C154.612 79.364 155.548 79.892 156.016 80.276L155.356 81.14C154.9 80.744 153.988 80.18 153.268 79.82ZM152.608 83.276L153.232 82.508C153.916 82.82 154.792 83.324 155.224 83.708L154.576 84.572C154.168 84.176 153.292 83.624 152.608 83.276ZM152.956 89.192C153.448 88.256 154.12 86.696 154.624 85.304L155.488 85.928C155.044 87.2 154.468 88.664 153.952 89.816L152.956 89.192ZM166.792 80.672H169.72V81.752H166.792V80.672ZM171.364 78.884H172.552V90.008H171.364V78.884ZM165.688 83.42L166.444 82.712C167.284 83.444 168.412 84.488 168.94 85.172L168.124 85.976C167.62 85.292 166.54 84.188 165.688 83.42ZM166.756 78.86L167.896 79.076C167.404 81.368 166.576 83.516 165.484 84.896C165.28 84.704 164.788 84.344 164.524 84.176C165.604 82.952 166.348 80.96 166.756 78.86ZM169.324 80.672H169.552L169.768 80.636L170.572 80.864C169.972 85.676 168.16 88.568 165.544 89.984C165.352 89.708 164.884 89.228 164.584 89.036C167.164 87.764 168.832 85.232 169.324 80.96V80.672ZM172.084 83.168L172.972 82.508C173.908 83.312 175.192 84.476 175.804 85.232L174.856 86.012C174.28 85.244 173.044 84.032 172.084 83.168ZM176.812 79.424H180.676V80.42H176.812V79.424ZM176.536 83.252H181.108V84.272H176.536V83.252ZM178.432 83.78H179.524V88.748C179.524 89.312 179.428 89.624 179.032 89.792C178.648 89.972 178.084 89.984 177.268 89.984C177.22 89.672 177.064 89.216 176.92 88.904C177.484 88.916 178.048 88.916 178.216 88.916C178.384 88.904 178.432 88.868 178.432 88.724V83.78ZM180.328 79.424H180.58L180.784 79.364L181.492 79.856C180.904 80.792 180.052 81.848 179.284 82.508C179.128 82.304 178.828 81.992 178.636 81.836C179.272 81.272 179.992 80.3 180.328 79.64V79.424ZM180.784 83.252H180.94L181.096 83.216L181.804 83.396C181.516 84.356 181.156 85.436 180.856 86.12L180.004 85.916C180.268 85.292 180.58 84.248 180.784 83.408V83.252ZM177.088 81.74L177.676 80.996C178.672 81.488 179.908 82.268 180.508 82.856L179.872 83.696C179.308 83.084 178.096 82.256 177.088 81.74ZM181.504 79.4H187.624V80.36H181.504V79.4ZM182.992 84.008V85.004H186.148V84.008H182.992ZM182.992 85.808V86.816H186.148V85.808H182.992ZM182.992 82.208V83.204H186.148V82.208H182.992ZM181.948 81.356H187.24V87.668H181.948V81.356ZM183.988 79.892L185.272 80.048C185.068 80.768 184.828 81.524 184.636 82.04L183.64 81.848C183.772 81.296 183.928 80.468 183.988 79.892ZM183.136 87.8L184.096 88.4C183.436 89.036 182.296 89.696 181.348 90.056C181.18 89.84 180.832 89.492 180.592 89.3C181.54 88.964 182.62 88.328 183.136 87.8ZM184.948 88.448L185.788 87.872C186.496 88.304 187.42 88.952 187.9 89.408L187 90.044C186.568 89.6 185.656 88.916 184.948 88.448ZM193.084 79.868H199.432V80.696H193.084V79.868ZM192.844 82.748H199.672V83.576H192.844V82.748ZM192.796 87.212H199.708V88.052H192.796V87.212ZM193.384 81.296H199.24V82.088H193.384V81.296ZM194.476 78.884H195.472V83.096H194.476V78.884ZM197.02 78.884H198.028V83.096H197.02V78.884ZM195.736 83.12H196.732V87.464H195.736V83.12ZM198.016 84.164H199.06V88.916C199.06 89.432 198.952 89.696 198.604 89.852C198.232 90.008 197.68 90.008 196.852 90.008C196.804 89.744 196.672 89.348 196.54 89.096C197.104 89.108 197.656 89.108 197.812 89.108C197.968 89.096 198.016 89.06 198.016 88.916V84.164ZM193.504 84.164H198.46V84.992H194.524V90.032H193.504V84.164ZM194.02 85.712H198.448V86.456H194.02V85.712ZM189.688 87.164L190.696 87.392C190.396 88.388 189.868 89.384 189.316 90.032C189.124 89.876 188.704 89.588 188.464 89.456C189.004 88.88 189.46 88.016 189.688 87.164ZM191.152 87.512L192.004 87.14C192.4 87.74 192.832 88.532 193.024 89.048L192.136 89.468C191.956 88.952 191.536 88.124 191.152 87.512ZM190.084 82.46V83.828H191.62V82.46H190.084ZM190.084 84.68V86.06H191.62V84.68H190.084ZM190.084 80.252V81.596H191.62V80.252H190.084ZM189.1 79.328H192.616V86.984H189.1V79.328ZM201.484 82.688H210.388V83.624H202.564V89.984H201.484V82.688ZM209.812 82.688H210.856V88.868C210.856 89.408 210.724 89.66 210.328 89.804C209.944 89.936 209.308 89.948 208.312 89.948C208.264 89.696 208.12 89.336 207.988 89.096C208.66 89.12 209.356 89.108 209.536 89.096C209.74 89.096 209.812 89.036 209.812 88.868V82.688ZM204.448 85.664H208.384V88.496H204.448V87.692H207.448V86.48H204.448V85.664ZM203.848 85.664H204.808V89.036H203.848V85.664ZM200.848 80.108H211.468V81.08H200.848V80.108ZM203.38 81.344L204.352 81.032C204.604 81.452 204.928 82.016 205.084 82.364L204.076 82.748C203.932 82.388 203.632 81.788 203.38 81.344ZM207.892 81.092L209.032 81.344C208.648 81.98 208.216 82.688 207.868 83.132L206.992 82.892C207.304 82.4 207.7 81.632 207.892 81.092ZM205.372 79.076L206.452 78.8C206.656 79.292 206.884 79.928 207.004 80.336L205.876 80.66C205.78 80.24 205.564 79.568 205.372 79.076ZM204.52 83.18H205.516C205.396 84.632 204.928 85.412 203.068 85.82C202.996 85.592 202.744 85.22 202.552 85.04C204.1 84.764 204.436 84.26 204.52 83.18ZM206.608 83.192H207.616V84.188C207.616 84.452 207.64 84.548 207.844 84.548C208 84.548 208.552 84.548 208.72 84.548C208.9 84.548 209.224 84.536 209.392 84.488C209.416 84.752 209.428 85.028 209.464 85.268C209.308 85.328 208.996 85.34 208.744 85.34C208.516 85.34 207.808 85.34 207.604 85.34C206.764 85.34 206.608 84.968 206.608 84.176V83.192ZM215.884 80.456V82.448H220.432V80.456H215.884ZM214.78 79.376H221.584V83.528H214.78V79.376ZM213.076 84.692H217.492V89.924H216.352V85.772H214.156V90.008H213.076V84.692ZM218.668 84.692H223.288V89.948H222.148V85.772H219.76V90.008H218.668V84.692ZM213.556 88.292H216.82V89.384H213.556V88.292ZM219.208 88.292H222.688V89.384H219.208V88.292ZM227.868 79.364H230.748V80.384H228.864V89.984H227.868V79.364ZM230.544 79.364H230.736L230.904 79.316L231.648 79.748C231.312 80.744 230.892 81.932 230.52 82.88C231.324 83.864 231.504 84.716 231.504 85.448C231.504 86.156 231.36 86.672 231 86.936C230.832 87.068 230.604 87.14 230.352 87.176C230.124 87.212 229.824 87.212 229.548 87.2C229.548 86.924 229.452 86.492 229.284 86.216C229.536 86.228 229.74 86.24 229.92 86.228C230.04 86.216 230.172 86.192 230.268 86.12C230.424 86 230.496 85.7 230.496 85.34C230.496 84.716 230.316 83.9 229.524 83C229.92 81.92 230.328 80.456 230.544 79.676V79.364ZM232.692 79.388H237.504V84.776H232.692V83.78H236.4V80.372H232.692V79.388ZM232.764 81.596H237.012V82.532H232.764V81.596ZM235.056 84.188C235.548 86.384 236.64 88.184 238.476 88.964C238.224 89.192 237.876 89.636 237.708 89.948C235.764 88.952 234.684 86.948 234.12 84.368L235.056 84.188ZM237.468 85.04L238.212 85.844C237.528 86.396 236.64 86.996 235.98 87.368L235.38 86.66C236.016 86.264 236.94 85.568 237.468 85.04ZM232.14 90.032L232.044 89.036L232.548 88.652L235.176 88.04C235.176 88.364 235.188 88.82 235.224 89.072C232.8 89.708 232.392 89.864 232.14 90.032ZM232.14 90.032C232.056 89.78 231.816 89.324 231.648 89.12C231.852 88.988 232.14 88.712 232.14 88.184V79.388H233.244V88.964C233.244 88.964 232.14 89.624 232.14 90.032ZM242.04 81.02V81.572H247.584V81.02H242.04ZM242.04 79.88V80.42H247.584V79.88H242.04ZM240.948 79.256H248.724V82.196H240.948V79.256ZM241.8 85.76V86.336H247.932V85.76H241.8ZM241.8 84.584V85.148H247.932V84.584H241.8ZM240.732 83.936H249.048V86.984H240.732V83.936ZM244.272 84.164H245.376V89.324H244.272V84.164ZM239.436 82.64H250.272V83.48H239.436V82.64ZM240.432 87.524H249.3V88.28H240.432V87.524ZM239.388 88.868H250.32V89.72H239.388V88.868ZM257.364 85.352H258.54V88.328C258.54 88.712 258.624 88.76 259.14 88.76C259.368 88.76 260.436 88.76 260.736 88.76C261.204 88.76 261.288 88.544 261.336 87.152C261.588 87.332 262.056 87.512 262.38 87.584C262.248 89.324 261.936 89.78 260.832 89.78C260.556 89.78 259.248 89.78 258.984 89.78C257.7 89.78 257.364 89.444 257.364 88.34V85.352ZM254.676 78.836L255.912 79.076C255.036 80.576 253.788 82.148 252.036 83.408C251.868 83.144 251.496 82.76 251.232 82.58C252.852 81.488 254.04 80.036 254.676 78.836ZM253.74 82.904V84.764H260.22V82.904H253.74ZM252.6 81.896H261.42V85.784H252.6V81.896ZM257.976 79.736H258.228L258.42 79.688L259.2 80.192C258.744 80.996 257.988 81.992 257.364 82.616C257.148 82.448 256.764 82.208 256.512 82.064C257.064 81.5 257.7 80.564 257.976 79.952V79.736ZM254.64 79.736H258.312V80.672H254.064L254.64 79.736ZM256.332 82.568H257.532C257.268 85.868 256.692 88.64 252.036 89.912C251.916 89.624 251.64 89.192 251.388 88.952C255.78 87.86 256.116 85.448 256.332 82.568ZM269.76 80.552H270.864V88.388H269.76V80.552ZM268.236 84.572V85.244H272.448V84.572H268.236ZM268.236 83.228V83.888H272.448V83.228H268.236ZM267.3 82.496H273.42V85.976H267.3V82.496ZM266.64 79.28H273.936V81.512H272.844V80.132H267.684V81.512H266.64V79.28ZM267.588 81.08H273.06V81.896H267.588V81.08ZM266.736 86.624H274.08V87.488H266.736V86.624ZM263.748 79.376L264.612 78.872C265.14 79.46 265.764 80.228 266.076 80.72L265.176 81.32C264.888 80.816 264.252 79.976 263.748 79.376ZM263.376 81.68H265.896V82.604H263.376V81.68ZM265.644 87.032C266.34 88.628 267.84 88.832 270.144 88.844C271.416 88.844 273.276 88.784 274.56 88.664C274.392 88.892 274.26 89.408 274.2 89.72C273.012 89.792 271.488 89.816 270.132 89.816C267.324 89.816 265.788 89.48 264.888 87.356L265.644 87.032ZM265.44 84.62H265.776L265.956 84.596L266.448 84.788C266.088 87.368 265.164 89.108 263.904 90.044C263.76 89.816 263.376 89.432 263.16 89.276C264.348 88.46 265.152 86.936 265.44 84.8V84.62ZM263.58 85.688V84.86L264.048 84.62H265.884V85.52H264.3C264 85.52 263.676 85.592 263.58 85.688ZM263.58 85.688C263.508 85.448 263.292 84.944 263.184 84.728C263.376 84.68 263.568 84.596 263.784 84.356C264.132 84.008 265.224 82.412 265.62 81.764V81.728L265.932 81.596L266.64 81.92C266.088 82.748 265.044 84.26 264.384 85.04C264.384 85.04 263.58 85.424 263.58 85.688Z" fill="#003060"/>
<rect x="140" y="52" width="49" height="18" rx="2" fill="#003060"/>
<path d="M148.47 59.82H149.45V65.84H148.47V59.82ZM146.46 61.55V62.27H151.59V61.55H146.46ZM146.46 60.13V60.85H151.59V60.13H146.46ZM145.53 59.39H152.56V63.01H145.53V59.39ZM144.55 63.67H153.46V64.5H144.55V63.67ZM146.07 57.55V58.34H147.77V57.55H146.07ZM145.23 56.95H148.66V58.93H145.23V56.95ZM150.22 57.55V58.34H151.94V57.55H150.22ZM149.37 56.95H152.83V58.93H149.37V56.95ZM154.47 60.52H163.54V61.22H154.47V60.52ZM155.28 62.93H162.72V63.64H155.28V62.93ZM154.65 64.15H163.37V64.88H154.65V64.15ZM155.67 59.35H162.48V62.44H155.58V61.76H161.52V60.03H155.67V59.35ZM158.48 58.84H159.45V65.84H158.48V58.84ZM155.75 57.13H158.91V57.86H155.75V57.13ZM159.83 57.13H163.59V57.86H159.83V57.13ZM155.89 56.48L156.72 56.73C156.32 57.57 155.65 58.41 155.01 58.95C154.88 58.78 154.56 58.46 154.37 58.3C154.98 57.85 155.56 57.17 155.89 56.48ZM159.94 56.48L160.81 56.71C160.47 57.52 159.88 58.32 159.3 58.82C159.14 58.67 158.79 58.39 158.59 58.25C159.16 57.82 159.66 57.16 159.94 56.48ZM156.43 58.22L157.04 57.77C157.35 58.05 157.74 58.45 157.92 58.71L157.28 59.22C157.11 58.95 156.73 58.52 156.43 58.22ZM160.79 58.19L161.45 57.76C161.76 58.03 162.15 58.43 162.34 58.69L161.66 59.19C161.49 58.91 161.11 58.49 160.79 58.19ZM164.87 59.6H168.01V60.33H164.87V59.6ZM164.87 60.93H168V61.66H164.87V60.93ZM164.43 58.24H168.31V59.01H164.43V58.24ZM165.3 62.29H167.97V65.26H165.3V64.49H167.15V63.06H165.3V62.29ZM164.87 62.29H165.69V65.71H164.87V62.29ZM165.53 56.88L166.27 56.52C166.56 56.93 166.87 57.47 167.03 57.83L166.26 58.26C166.12 57.89 165.8 57.3 165.53 56.88ZM168.51 57.37H173.64V58.29H168.51V57.37ZM171.25 57.66H172.21V64.53C172.21 65.12 172.07 65.41 171.67 65.57C171.26 65.73 170.6 65.74 169.63 65.74C169.58 65.47 169.41 65.02 169.25 64.76C169.98 64.8 170.75 64.79 170.97 64.78C171.17 64.77 171.25 64.71 171.25 64.52V57.66ZM178.47 59.82H179.45V65.84H178.47V59.82ZM176.46 61.55V62.27H181.59V61.55H176.46ZM176.46 60.13V60.85H181.59V60.13H176.46ZM175.53 59.39H182.56V63.01H175.53V59.39ZM174.55 63.67H183.46V64.5H174.55V63.67ZM176.07 57.55V58.34H177.77V57.55H176.07ZM175.23 56.95H178.66V58.93H175.23V56.95ZM180.22 57.55V58.34H181.94V57.55H180.22ZM179.37 56.95H182.83V58.93H179.37V56.95Z" fill="white"/>
<path d="M200.559 56.6H210.669V57.86H200.559V56.6ZM202.554 62.975H203.739V63.875H202.554V62.975ZM204.864 59.87H206.124V69.125H204.864V59.87ZM209.019 61.07H210.294V67.97C210.294 68.57 210.174 68.87 209.769 69.05C209.379 69.23 208.764 69.23 207.864 69.23C207.819 68.915 207.669 68.48 207.534 68.18C208.089 68.195 208.644 68.195 208.809 68.18C208.974 68.18 209.019 68.135 209.019 67.97V61.07ZM200.844 61.07H209.649V62.27H202.059V69.245H200.844V61.07ZM197.409 56.51L198.219 55.49C199.059 55.865 200.094 56.48 200.619 56.96L199.764 58.1C199.284 57.605 198.249 56.93 197.409 56.51ZM196.794 60.545L197.574 59.495C198.444 59.84 199.509 60.395 200.034 60.86L199.209 62.015C198.699 61.55 197.649 60.92 196.794 60.545ZM197.079 68.345C197.679 67.19 198.504 65.255 199.104 63.545L200.244 64.28C199.704 65.87 198.999 67.67 198.354 69.095L197.079 68.345ZM202.719 55.325H204.069V58.94H207.009V55.325H208.404V60.155H202.719V55.325ZM203.109 62.975H204.009C204.069 64.67 204.399 66.02 205.059 66.665C204.879 66.77 204.564 67.055 204.429 67.265C203.739 66.5 203.379 65.12 203.304 63.41H203.109V62.975ZM203.094 64.37H203.904C203.769 65.54 203.409 66.68 202.584 67.4C202.464 67.22 202.194 66.935 202.014 66.815C202.689 66.245 203.004 65.27 203.094 64.37ZM206.589 62.975H207.729V63.875H206.589V62.975ZM207.129 62.975H208.044C208.104 64.67 208.479 66.005 209.184 66.62C208.989 66.755 208.674 67.025 208.524 67.235C207.804 66.47 207.399 65.12 207.324 63.41H207.129V62.975ZM207.129 64.355H207.954C207.819 65.495 207.459 66.575 206.604 67.265C206.484 67.085 206.229 66.8 206.019 66.68C206.724 66.155 207.039 65.225 207.129 64.355ZM218.313 68.21C217.038 68.21 216.123 67.685 215.493 67.025L216.423 65.96C216.873 66.455 217.548 66.785 218.238 66.785C219.633 66.785 220.818 65.615 220.818 62.105C220.818 59.345 219.963 58.085 218.613 58.085C217.653 58.085 216.903 58.94 216.903 60.395C216.903 61.79 217.548 62.6 218.703 62.6C219.393 62.6 220.173 62.21 220.818 61.205L220.908 62.465C220.263 63.32 219.273 63.86 218.388 63.86C216.543 63.86 215.298 62.705 215.298 60.395C215.298 58.19 216.798 56.765 218.598 56.765C220.713 56.765 222.423 58.46 222.423 62.105C222.423 66.455 220.443 68.21 218.313 68.21ZM226.868 68.21C225.593 68.21 224.678 67.685 224.048 67.025L224.978 65.96C225.428 66.455 226.103 66.785 226.793 66.785C228.188 66.785 229.373 65.615 229.373 62.105C229.373 59.345 228.518 58.085 227.168 58.085C226.208 58.085 225.458 58.94 225.458 60.395C225.458 61.79 226.103 62.6 227.258 62.6C227.948 62.6 228.728 62.21 229.373 61.205L229.463 62.465C228.818 63.32 227.828 63.86 226.943 63.86C225.098 63.86 223.853 62.705 223.853 60.395C223.853 58.19 225.353 56.765 227.153 56.765C229.268 56.765 230.978 58.46 230.978 62.105C230.978 66.455 228.998 68.21 226.868 68.21ZM235.422 68.21C234.147 68.21 233.232 67.685 232.602 67.025L233.532 65.96C233.982 66.455 234.657 66.785 235.347 66.785C236.742 66.785 237.927 65.615 237.927 62.105C237.927 59.345 237.072 58.085 235.722 58.085C234.762 58.085 234.012 58.94 234.012 60.395C234.012 61.79 234.657 62.6 235.812 62.6C236.502 62.6 237.282 62.21 237.927 61.205L238.017 62.465C237.372 63.32 236.382 63.86 235.497 63.86C233.652 63.86 232.407 62.705 232.407 60.395C232.407 58.19 233.907 56.765 235.707 56.765C237.822 56.765 239.532 58.46 239.532 62.105C239.532 66.455 237.552 68.21 235.422 68.21ZM251.846 63.44H253.316V67.16C253.316 67.64 253.421 67.7 254.066 67.7C254.351 67.7 255.686 67.7 256.061 67.7C256.646 67.7 256.751 67.43 256.811 65.69C257.126 65.915 257.711 66.14 258.116 66.23C257.951 68.405 257.561 68.975 256.181 68.975C255.836 68.975 254.201 68.975 253.871 68.975C252.266 68.975 251.846 68.555 251.846 67.175V63.44ZM248.486 55.295L250.031 55.595C248.936 57.47 247.376 59.435 245.186 61.01C244.976 60.68 244.511 60.2 244.181 59.975C246.206 58.61 247.691 56.795 248.486 55.295ZM247.316 60.38V62.705H255.416V60.38H247.316ZM245.891 59.12H256.916V63.98H245.891V59.12ZM252.611 56.42H252.926L253.166 56.36L254.141 56.99C253.571 57.995 252.626 59.24 251.846 60.02C251.576 59.81 251.096 59.51 250.781 59.33C251.471 58.625 252.266 57.455 252.611 56.69V56.42ZM248.441 56.42H253.031V57.59H247.721L248.441 56.42ZM250.556 59.96H252.056C251.726 64.085 251.006 67.55 245.186 69.14C245.036 68.78 244.691 68.24 244.376 67.94C249.866 66.575 250.286 63.56 250.556 59.96ZM267.341 57.44H268.721V67.235H267.341V57.44ZM265.436 62.465V63.305H270.701V62.465H265.436ZM265.436 60.785V61.61H270.701V60.785H265.436ZM264.266 59.87H271.916V64.22H264.266V59.87ZM263.441 55.85H272.561V58.64H271.196V56.915H264.746V58.64H263.441V55.85ZM264.626 58.1H271.466V59.12H264.626V58.1ZM263.561 65.03H272.741V66.11H263.561V65.03ZM259.826 55.97L260.906 55.34C261.566 56.075 262.346 57.035 262.736 57.65L261.611 58.4C261.251 57.77 260.456 56.72 259.826 55.97ZM259.361 58.85H262.511V60.005H259.361V58.85ZM262.196 65.54C263.066 67.535 264.941 67.79 267.821 67.805C269.411 67.805 271.736 67.73 273.341 67.58C273.131 67.865 272.966 68.51 272.891 68.9C271.406 68.99 269.501 69.02 267.806 69.02C264.296 69.02 262.376 68.6 261.251 65.945L262.196 65.54ZM261.941 62.525H262.361L262.586 62.495L263.201 62.735C262.751 65.96 261.596 68.135 260.021 69.305C259.841 69.02 259.361 68.54 259.091 68.345C260.576 67.325 261.581 65.42 261.941 62.75V62.525ZM259.616 63.86V62.825L260.201 62.525H262.496V63.65H260.516C260.141 63.65 259.736 63.74 259.616 63.86ZM259.616 63.86C259.526 63.56 259.256 62.93 259.121 62.66C259.361 62.6 259.601 62.495 259.871 62.195C260.306 61.76 261.671 59.765 262.166 58.955V58.91L262.556 58.745L263.441 59.15C262.751 60.185 261.446 62.075 260.621 63.05C260.621 63.05 259.616 63.53 259.616 63.86Z" fill="#003060"/>
<path d="M84.6667 60H59.6667V81.6667H84.6667V60Z" stroke="white" stroke-width="2" stroke-linecap="round" stroke-linejoin="round"/>
<path d="M84.6667 68.3335H91.3334L96.3334 73.3335V81.6668H84.6667V68.3335Z" stroke="white" stroke-width="2" stroke-linecap="round" stroke-linejoin="round"/>
<path d="M67.1667 89.9998C69.4679 89.9998 71.3333 88.1344 71.3333 85.8332C71.3333 83.532 69.4679 81.6665 67.1667 81.6665C64.8655 81.6665 63 83.532 63 85.8332C63 88.1344 64.8655 89.9998 67.1667 89.9998Z" stroke="white" stroke-width="2" stroke-linecap="round" stroke-linejoin="round"/>
<path d="M88.8334 89.9998C91.1346 89.9998 93.0001 88.1344 93.0001 85.8332C93.0001 83.532 91.1346 81.6665 88.8334 81.6665C86.5322 81.6665 84.6667 83.532 84.6667 85.8332C84.6667 88.1344 86.5322 89.9998 88.8334 89.9998Z" stroke="white" stroke-width="2" stroke-linecap="round" stroke-linejoin="round"/>
<path d="M63.1329 76V68.64H67.5029V69.62H64.3029V71.86H67.0229V72.84H64.3029V76H63.1329ZM68.4235 76V70.5H69.3635L69.4635 71.49H69.4935C69.8835 70.78 70.4635 70.36 71.0535 70.36C71.3235 70.36 71.4935 70.4 71.6635 70.48L71.4635 71.48C71.2735 71.42 71.1335 71.39 70.9035 71.39C70.4635 71.39 69.9235 71.71 69.5835 72.58V76H68.4235ZM74.659 76.14C73.159 76.14 71.979 75.07 71.979 73.26C71.979 71.47 73.209 70.36 74.489 70.36C75.939 70.36 76.729 71.41 76.729 72.97C76.729 73.2 76.709 73.42 76.679 73.56H73.109C73.199 74.61 73.859 75.23 74.809 75.23C75.299 75.23 75.709 75.08 76.119 74.82L76.519 75.56C76.009 75.9 75.379 76.14 74.659 76.14ZM73.089 72.76H75.729C75.729 71.81 75.309 71.27 74.509 71.27C73.819 71.27 73.209 71.8 73.089 72.76ZM80.3231 76.14C78.8231 76.14 77.6431 75.07 77.6431 73.26C77.6431 71.47 78.8731 70.36 80.1531 70.36C81.6031 70.36 82.3931 71.41 82.3931 72.97C82.3931 73.2 82.3731 73.42 82.3431 73.56H78.7731C78.8631 74.61 79.5231 75.23 80.4731 75.23C80.9631 75.23 81.3731 75.08 81.7831 74.82L82.1831 75.56C81.6731 75.9 81.0431 76.14 80.3231 76.14ZM78.7531 72.76H81.3931C81.3931 71.81 80.9731 71.27 80.1731 71.27C79.4831 71.27 78.8731 71.8 78.7531 72.76Z" fill="white"/>
<defs>
<filter id="filter0_d_1135_598" x="124" y="21" width="216" height="116" filterUnits="userSpaceOnUse" color-interpolation-filters="sRGB">
<feFlood flood-opacity="0" result="BackgroundImageFix"/>
<feColorMatrix in="SourceAlpha" type="matrix" values="0 0 0 0 0 0 0 0 0 0 0 0 0 0 0 0 0 0 127 0" result="hardAlpha"/>
<feMorphology radius="4" operator="dilate" in="SourceAlpha" result="effect1_dropShadow_1135_598"/>
<feOffset dx="4" dy="4"/>
<feGaussianBlur stdDeviation="2"/>
<feComposite in2="hardAlpha" operator="out"/>
<feColorMatrix type="matrix" values="0 0 0 0 0 0 0 0 0 0 0 0 0 0 0 0 0 0 0.25 0"/>
<feBlend mode="normal" in2="BackgroundImageFix" result="effect1_dropShadow_1135_598"/>
<feBlend mode="normal" in="SourceGraphic" in2="effect1_dropShadow_1135_598" result="shape"/>
</filter>
<filter id="filter1_d_1135_598" x="24" y="25" width="108" height="108" filterUnits="userSpaceOnUse" color-interpolation-filters="sRGB">
<feFlood flood-opacity="0" result="BackgroundImageFix"/>
<feColorMatrix in="SourceAlpha" type="matrix" values="0 0 0 0 0 0 0 0 0 0 0 0 0 0 0 0 0 0 127 0" result="hardAlpha"/>
<feOffset dy="4"/>
<feGaussianBlur stdDeviation="2"/>
<feComposite in2="hardAlpha" operator="out"/>
<feColorMatrix type="matrix" values="0 0 0 0 0 0 0 0 0 0 0 0 0 0 0 0 0 0 0.25 0"/>
<feBlend mode="normal" in2="BackgroundImageFix" result="effect1_dropShadow_1135_598"/>
<feBlend mode="normal" in="SourceGraphic" in2="effect1_dropShadow_1135_598" result="shape"/>
</filter>
<filter id="filter2_d_1135_598" x="19" y="37" width="44" height="26" filterUnits="userSpaceOnUse" color-interpolation-filters="sRGB">
<feFlood flood-opacity="0" result="BackgroundImageFix"/>
<feColorMatrix in="SourceAlpha" type="matrix" values="0 0 0 0 0 0 0 0 0 0 0 0 0 0 0 0 0 0 127 0" result="hardAlpha"/>
<feOffset dy="4"/>
<feGaussianBlur stdDeviation="2"/>
<feComposite in2="hardAlpha" operator="out"/>
<feColorMatrix type="matrix" values="0 0 0 0 0 0 0 0 0 0 0 0 0 0 0 0 0 0 0.25 0"/>
<feBlend mode="normal" in2="BackgroundImageFix" result="effect1_dropShadow_1135_598"/>
<feBlend mode="normal" in="SourceGraphic" in2="effect1_dropShadow_1135_598" result="shape"/>
</filter>
</defs>
</svg>
