<svg width="10" height="10" viewBox="0 0 10 10" fill="none" xmlns="http://www.w3.org/2000/svg">
<g clip-path="url(#clip0_1107_568)">
<circle cx="5" cy="5" r="5" fill="#B91D22"/>
<path d="M6.86035 7.17603V8H3.21289V7.29688L4.93774 5.44751C5.11108 5.25464 5.2478 5.08496 5.3479 4.93848C5.448 4.78955 5.52002 4.65649 5.56396 4.53931C5.61035 4.41968 5.63354 4.30615 5.63354 4.19873C5.63354 4.0376 5.60669 3.89966 5.55298 3.78491C5.49927 3.66772 5.41992 3.57739 5.31494 3.51392C5.2124 3.45044 5.08545 3.4187 4.93408 3.4187C4.77295 3.4187 4.63379 3.45776 4.5166 3.53589C4.40186 3.61401 4.31396 3.72266 4.25293 3.86182C4.19434 4.00098 4.16504 4.15845 4.16504 4.33423H3.10669C3.10669 4.01685 3.18237 3.72632 3.33374 3.46265C3.48511 3.19653 3.69873 2.98535 3.97461 2.8291C4.25049 2.67041 4.57764 2.59106 4.95605 2.59106C5.32959 2.59106 5.64453 2.6521 5.90088 2.77417C6.15967 2.8938 6.35498 3.06714 6.48682 3.29419C6.62109 3.5188 6.68823 3.78735 6.68823 4.09985C6.68823 4.27563 6.66016 4.44775 6.604 4.61621C6.54785 4.78223 6.46729 4.94824 6.3623 5.11426C6.25977 5.27783 6.13525 5.44385 5.98877 5.6123C5.84229 5.78076 5.67993 5.95532 5.50171 6.13599L4.5752 7.17603H6.86035Z" fill="white"/>
</g>
<defs>
<clipPath id="clip0_1107_568">
<rect width="10" height="10" fill="white"/>
</clipPath>
</defs>
</svg>
